<?xml version="1.0" encoding="UTF-8"?>
<svg xmlns="http://www.w3.org/2000/svg" width="360" height="240" viewBox="0 0 360 240">
  <g id="bases">
    <rect id="rect2" x="20" y="20" width="320" height="200" rx="20.8009" ry="20.8009" fill="#f3f2f3"/>
  </g>
  <g id="Layer_1" data-name="Layer 1">
    <text transform="translate(39.0029 87.7815)" fill="#87a49e" font-family="Inter-Bold, Inter" font-variation-settings="&apos;opsz&apos; 14, &apos;wght&apos; 700" font-weight="700"><tspan font-size="37"><tspan x="0" y="0">19,614</tspan></tspan><tspan font-size="21"><tspan x="0" y="25.2002">Residents</tspan></tspan></text>
    <g>
      <path d="M40.928,174.2212c-1.1572,0-2.0688-1.0207-1.905-2.1662.9294-6.4969,5.9712-11.4616,12.0515-11.4616s11.1221,4.9647,12.0515,11.4616c.1639,1.1455-.7478,2.1662-1.905,2.1662h-20.293Z" fill="#87a49e" stroke="#231f20" stroke-miterlimit="10" stroke-width=".25"/>
      <circle cx="51.0745" cy="153.5522" r="5.5553" fill="#87a49e" stroke="#231f20" stroke-miterlimit="10" stroke-width=".25"/>
      <path d="M69.3901,174.2212c-1.1572,0-2.0688-1.0207-1.905-2.1662.9294-6.4969,5.9712-11.4616,12.0515-11.4616s11.1221,4.9647,12.0515,11.4616c.1639,1.1455-.7478,2.1662-1.905,2.1662h-20.293Z" fill="#87a49e" stroke="#231f20" stroke-miterlimit="10" stroke-width=".25"/>
      <circle cx="79.5366" cy="153.5522" r="5.5553" fill="#87a49e" stroke="#231f20" stroke-miterlimit="10" stroke-width=".25"/>
      <path d="M97.8523,174.2212c-1.1572,0-2.0688-1.0207-1.905-2.1662.9294-6.4969,5.9712-11.4616,12.0515-11.4616s11.1221,4.9647,12.0515,11.4616c.1639,1.1455-.7478,2.1662-1.905,2.1662h-20.293Z" fill="#87a49e" stroke="#231f20" stroke-miterlimit="10" stroke-width=".25"/>
      <circle cx="107.9988" cy="153.5522" r="5.5553" fill="#87a49e" stroke="#231f20" stroke-miterlimit="10" stroke-width=".25"/>
      <path d="M126.3144,174.2212c-1.1572,0-2.0688-1.0207-1.905-2.1662.9294-6.4969,5.9712-11.4616,12.0515-11.4616s11.1221,4.9647,12.0515,11.4616c.1639,1.1455-.7478,2.1662-1.905,2.1662h-20.293Z" fill="#87a49e" stroke="#231f20" stroke-miterlimit="10" stroke-width=".25"/>
      <circle cx="136.4609" cy="153.5522" r="5.5553" fill="#87a49e" stroke="#231f20" stroke-miterlimit="10" stroke-width=".25"/>
      <path d="M154.7765,174.2212c-1.1572,0-2.0688-1.0207-1.905-2.1662.9294-6.4969,5.9712-11.4616,12.0515-11.4616s11.1221,4.9647,12.0515,11.4616c.1639,1.1455-.7478,2.1662-1.905,2.1662h-20.293Z" fill="#87a49e" stroke="#231f20" stroke-miterlimit="10" stroke-width=".25"/>
      <circle cx="164.923" cy="153.5522" r="5.5553" fill="#87a49e" stroke="#231f20" stroke-miterlimit="10" stroke-width=".25"/>
      <path d="M183.2387,174.2212c-1.1572,0-2.0688-1.0207-1.905-2.1662.9294-6.4969,5.9712-11.4616,12.0515-11.4616s11.1221,4.9647,12.0515,11.4616c.1639,1.1455-.7478,2.1662-1.905,2.1662h-20.293Z" fill="#87a49e" stroke="#231f20" stroke-miterlimit="10" stroke-width=".25"/>
      <circle cx="193.3852" cy="153.5522" r="5.5553" fill="#87a49e" stroke="#231f20" stroke-miterlimit="10" stroke-width=".25"/>
      <path d="M211.7008,174.2212c-1.1572,0-2.0688-1.0207-1.905-2.1662.9294-6.4969,5.9712-11.4616,12.0515-11.4616s11.1221,4.9647,12.0515,11.4616c.1639,1.1455-.7478,2.1662-1.905,2.1662h-20.293Z" fill="#87a49e" stroke="#231f20" stroke-miterlimit="10" stroke-width=".25"/>
      <circle cx="221.8473" cy="153.5522" r="5.5553" fill="#87a49e" stroke="#231f20" stroke-miterlimit="10" stroke-width=".25"/>
      <path d="M268.6251,174.2212c-1.1572,0-2.0688-1.0207-1.905-2.1662.9294-6.4969,5.9712-11.4616,12.0515-11.4616s11.1221,4.9647,12.0515,11.4616c.1639,1.1455-.7478,2.1662-1.905,2.1662h-20.293Z" fill="#fff" stroke="#231f20" stroke-miterlimit="10" stroke-width=".25"/>
      <circle cx="278.7716" cy="153.5522" r="5.5553" fill="#fff" stroke="#231f20" stroke-miterlimit="10" stroke-width=".25"/>
      <path d="M247.8947,160.8561v13.3587h-7.737c-1.1499,0-2.0584-1.0079-1.9023-2.1578.8092-5.6218,4.6848-10.0935,9.6393-11.2009Z" fill="#87a49e" stroke="#231f20" stroke-miterlimit="10" stroke-width=".25"/>
      <path d="M260.4585,174.2148h-12.5638v-13.3587c.7808-.1703,1.59-.2697,2.4134-.2697,6.0761,0,11.1299,4.9687,12.0526,11.4706.1703,1.1499-.7524,2.1578-1.9023,2.1578Z" fill="none" stroke="#231f20" stroke-miterlimit="10" stroke-width=".25"/>
      <path d="M247.8947,148.5479v10.0084c-1.8597-.8944-3.1373-2.7967-3.1373-4.9971,0-2.2146,1.2776-4.1169,3.1373-5.0112Z" fill="#87a49e" stroke="#231f20" stroke-miterlimit="10" stroke-width=".25"/>
      <path d="M255.8588,153.5592c0,3.0664-2.4844,5.5508-5.5507,5.5508-.866,0-1.6894-.1988-2.4134-.5537v-10.0084c.724-.3549,1.5474-.5537,2.4134-.5537,3.0664,0,5.5507,2.4844,5.5507,5.5649Z" fill="none" stroke="#231f20" stroke-miterlimit="10" stroke-width=".25"/>
      <path d="M297.0872,174.2212c-1.1572,0-2.0688-1.0207-1.905-2.1662.9294-6.4969,5.9712-11.4616,12.0515-11.4616s11.1221,4.9647,12.0515,11.4616c.1639,1.1455-.7478,2.1662-1.905,2.1662h-20.293Z" fill="#fff" stroke="#231f20" stroke-miterlimit="10" stroke-width=".25"/>
      <circle cx="307.2337" cy="153.5522" r="5.5553" fill="#fff" stroke="#231f20" stroke-miterlimit="10" stroke-width=".25"/>
    </g>
    <text transform="translate(39.0035 194.6686)" fill="#87a49e" font-family="Inter-Regular, Inter" font-size="18" font-variation-settings="&apos;opsz&apos; 14, &apos;wght&apos; 400"><tspan x="0" y="0">74.2% are visible minorities</tspan></text>
    <text transform="translate(39.0039 53.7988)" fill="#3e3847" font-family="Inter-Regular, Inter" font-size="18" font-variation-settings="&apos;opsz&apos; 14, &apos;wght&apos; 400"><tspan x="0" y="0">800m from Cooksville Station</tspan></text>
  </g>
</svg>