<?xml version="1.0" encoding="UTF-8"?>
<svg id="Layer_1" data-name="Layer 1" xmlns="http://www.w3.org/2000/svg" width="360" height="240" viewBox="0 0 360 240">
  <rect id="rect2" x="20" y="20" width="320" height="200" rx="20.8009" ry="20.8009" fill="#f3f2f3"/>
  <g>
    <path d="M62.9937,126.0654c-.0001-.5318.2341-1.0367.6403-1.38l6.322-5.4189c.6732-.569,1.6587-.569,2.3319,0l6.322,5.4189c.4062.3433.6405.8482.6403,1.38v8.1283c0,.9976-.8087,1.8063-1.8063,1.8063h-12.6441c-.9976,0-1.8063-.8087-1.8063-1.8063v-8.1283Z" fill="#d2d2cf" stroke="#f2f2f3" stroke-miterlimit="10" stroke-width=".5"/>
    <path d="M73.8315,136v-7.2252c0-.4988-.4044-.9031-.9031-.9031h-3.6126c-.4988,0-.9031.4044-.9031.9031v7.2252" fill="#d2d2cf" stroke="#f2f2f3" stroke-miterlimit="10" stroke-width=".5"/>
  </g>
  <text transform="translate(39.0037 64.5944)" fill="#53c2da" font-family="Inter-Bold, Inter" font-variation-settings="&apos;opsz&apos; 14, &apos;wght&apos; 700" font-weight="700"><tspan font-size="37"><tspan x="0" y="0">78%</tspan></tspan><tspan font-size="21"><tspan x="0" y="25.2002">of housing is apartments</tspan></tspan></text>
  <rect x="40" y="140" width="62.244" height="10" rx="1.7723" ry="1.7723" fill="#d2d2cf" stroke="#f2f2f3" stroke-miterlimit="10"/>
  <rect x="102.244" y="140" width="217.756" height="10" rx="1.7723" ry="1.7723" fill="#69c8dd" stroke="#f2f2f3" stroke-miterlimit="10"/>
  <g>
    <rect x="201.5308" y="101.4972" width="9.5524" height="34.5028" fill="#69c8dd" stroke="#f2f2f3" stroke-miterlimit="10" stroke-width=".5"/>
    <rect x="211.1609" y="107.135" width="9.5524" height="28.865" fill="#69c8dd" stroke="#f2f2f3" stroke-miterlimit="10" stroke-width=".5"/>
    <rect x="202.9208" y="103.3274" width="1.4524" height="3.0496" fill="#fff"/>
    <rect x="208.2407" y="103.3274" width="1.4524" height="3.0496" fill="#fff"/>
    <rect x="202.9208" y="108.0091" width="1.4524" height="3.0496" fill="#fff"/>
    <rect x="205.5808" y="108.0091" width="1.4524" height="3.0496" fill="#fff"/>
    <rect x="208.2407" y="112.6908" width="1.4524" height="3.0496" fill="#fff"/>
    <rect x="202.9208" y="117.3725" width="1.4524" height="3.0496" fill="#fff"/>
    <rect x="205.5808" y="122.0542" width="1.4524" height="3.0496" fill="#fff"/>
    <rect x="208.2407" y="122.0542" width="1.4524" height="3.0496" fill="#fff"/>
    <rect x="202.9208" y="126.7359" width="1.4524" height="3.0496" fill="#fff"/>
    <rect x="205.5808" y="126.7359" width="1.4524" height="3.0496" fill="#fff"/>
    <rect x="202.9208" y="131.4176" width="1.4524" height="3.0496" fill="#fff"/>
    <rect x="205.5808" y="131.4176" width="1.4524" height="3.0496" fill="#fff"/>
    <rect x="208.2407" y="131.4176" width="1.4524" height="3.0496" fill="#fff"/>
    <rect x="215.2108" y="108.5138" width="1.4524" height="3.1768" fill="#fff"/>
    <rect x="217.8708" y="108.5138" width="1.4524" height="3.1768" fill="#fff"/>
    <rect x="212.5509" y="113.0678" width="1.4524" height="3.1768" fill="#fff"/>
    <rect x="217.8708" y="113.0678" width="1.4524" height="3.1768" fill="#fff"/>
    <rect x="217.8708" y="117.6217" width="1.4524" height="3.1768" fill="#fff"/>
    <rect x="212.5509" y="122.1756" width="1.4524" height="3.1768" fill="#fff"/>
    <rect x="215.2108" y="126.7295" width="1.4524" height="3.1768" fill="#fff"/>
    <rect x="212.5509" y="131.2834" width="1.4524" height="3.1768" fill="#fff"/>
    <rect x="215.2108" y="131.2834" width="1.4524" height="3.1768" fill="#fff"/>
  </g>
  <text transform="translate(215.1198 179.9491)" fill="#231f20" font-family="Inter-Regular, Inter" font-size="18" font-variation-settings="&apos;opsz&apos; 14, &apos;wght&apos; 400"><tspan x="0" y="0">Mississauga</tspan></text>
  <text transform="translate(232.197 129.9495)" fill="#231f20" font-family="Inter-Regular, Inter" font-size="18" font-variation-settings="&apos;opsz&apos; 14, &apos;wght&apos; 400"><tspan x="0" y="0">Cooksville</tspan></text>
  <rect x="40" y="190" width="173.4335" height="10" rx="1.7723" ry="1.7723" fill="#d2d2cf" stroke="#f2f2f3" stroke-miterlimit="10"/>
  <rect x="213.4335" y="190" width="106.5665" height="10" fill="#69c8dd" stroke="#f2f2f3" stroke-miterlimit="10"/>
</svg>