<?xml version="1.0" encoding="UTF-8"?>
<svg id="Layer_1" data-name="Layer 1" xmlns="http://www.w3.org/2000/svg" width="360" height="240" viewBox="0 0 360 240">
  <rect id="rect2" x="20" y="20" width="320" height="200" rx="20.8009" ry="20.8009" fill="#f3f2f3"/>
  <text transform="translate(39.0037 64.5944)" fill="#f9a368" font-family="Inter-Bold, Inter" font-variation-settings="&apos;opsz&apos; 14, &apos;wght&apos; 700" font-weight="700"><tspan font-size="37"><tspan x="0" y="0">17%</tspan></tspan><tspan font-size="21"><tspan x="0" y="25.2002">of population is 65+</tspan></tspan></text>
  <text transform="translate(44.0905 199.9996)" fill="#231f20" font-family="Inter-Regular, Inter" font-variation-settings="&apos;opsz&apos; 14, &apos;wght&apos; 400"><tspan font-size="18"><tspan x="0" y="0">youth</tspan></tspan><tspan font-size="10"><tspan x="-3.3379" y="12">ages 0 - 24</tspan></tspan></text>
  <text transform="translate(157.8223 200.0003)" fill="#231f20" font-family="Inter-Regular, Inter" font-variation-settings="&apos;opsz&apos; 14, &apos;wght&apos; 400"><tspan font-size="19"><tspan x="0" y="0">adult</tspan></tspan><tspan font-size="10"><tspan x="-5.3027" y="12">ages 25-64</tspan></tspan></text>
  <text transform="translate(263.5895 199.9997)" fill="#231f20" font-family="Inter-Regular, Inter" font-variation-settings="&apos;opsz&apos; 14, &apos;wght&apos; 400"><tspan font-size="18"><tspan x="0" y="0">senior</tspan></tspan><tspan font-size="10"><tspan x="4.0698" y="12">ages 65+</tspan></tspan></text>
  <g>
    <rect x="29.0154" y="129.4455" width="10" height="40.5544" rx="1.0046" ry="1.0046" fill="#d2d2cf"/>
    <rect x="46.0742" y="131.7383" width="10" height="38.2617" rx="1.0046" ry="1.0046" fill="#d2d2cf"/>
    <rect x="63.133" y="135.2713" width="10" height="34.7287" rx="1.0046" ry="1.0046" fill="#d2d2cf"/>
    <rect x="80.1918" y="135.3464" width="10" height="34.6535" rx="1.0046" ry="1.0046" fill="#d2d2cf"/>
    <rect x="97.2507" y="118.9969" width="10" height="51.0031" rx="1.0046" ry="1.0046" fill="#d2d2cf"/>
    <rect x="114.3095" y="103.4742" width="10" height="66.5257" rx="1.0046" ry="1.0046" fill="#d2d2cf"/>
    <rect x="131.3683" y="98.8888" width="10" height="71.1111" rx="1.0046" ry="1.0046" fill="#d2d2cf"/>
    <rect x="148.4271" y="106.6314" width="10" height="63.3686" rx="1.0046" ry="1.0046" fill="#d2d2cf"/>
    <rect x="165.486" y="122.5299" width="10" height="47.47" rx="1.0046" ry="1.0046" fill="#d2d2cf"/>
    <rect x="182.5448" y="130.2348" width="10" height="39.7651" rx="1.0046" ry="1.0046" fill="#d2d2cf"/>
    <rect x="199.6036" y="134.5195" width="10" height="35.4804" rx="1.0046" ry="1.0046" fill="#d2d2cf"/>
    <rect x="216.6624" y="127.1528" width="10" height="42.8471" rx="1.0046" ry="1.0046" fill="#d2d2cf"/>
    <rect x="233.7213" y="125.4991" width="10" height="44.5008" rx="1.0046" ry="1.0046" fill="#d2d2cf"/>
    <rect x="250.7801" y="130.4603" width="10" height="39.5396" rx="1.0046" ry="1.0046" fill="#f9a368"/>
    <rect x="267.8389" y="138.8794" width="10" height="31.1205" rx="1.0046" ry="1.0046" fill="#f9a368"/>
    <rect x="284.8977" y="144.8555" width="10" height="25.1445" rx="1.0046" ry="1.0046" fill="#f9a368"/>
    <rect x="301.9565" y="154.9283" width="10" height="15.0716" rx="1.0046" ry="1.0046" fill="#f9a368"/>
    <rect x="319.0154" y="153.9886" width="10" height="16.0113" rx="1.0046" ry="1.0046" fill="#f9a368"/>
    <line x1="29.0154" y1="180" x2="107.2507" y2="180" fill="none" stroke="#d2d2cf" stroke-miterlimit="10" stroke-width="3"/>
    <line x1="114.3095" y1="180" x2="243.7213" y2="180" fill="none" stroke="#d2d2cf" stroke-miterlimit="10" stroke-width="3"/>
    <line x1="250.8091" y1="180" x2="328.9282" y2="180" fill="none" stroke="#f9a368" stroke-miterlimit="10" stroke-width="3"/>
  </g>
</svg>