<?xml version="1.0" encoding="UTF-8" standalone="no"?>
<svg
   width="360"
   height="240"
   viewBox="0 0 360 240"
   version="1.1"
   id="svg79"
   sodipodi:docname="cooksville-age.svg"
   inkscape:version="1.4.2 (1:1.4.2+202505120738+ebf0e940d0)"
   xmlns:inkscape="http://www.inkscape.org/namespaces/inkscape"
   xmlns:sodipodi="http://sodipodi.sourceforge.net/DTD/sodipodi-0.dtd"
   xmlns="http://www.w3.org/2000/svg"
   xmlns:svg="http://www.w3.org/2000/svg">
  <defs
     id="defs79" />
  <sodipodi:namedview
     id="namedview79"
     pagecolor="#ffffff"
     bordercolor="#666666"
     borderopacity="1.0"
     inkscape:showpageshadow="2"
     inkscape:pageopacity="0.0"
     inkscape:pagecheckerboard="0"
     inkscape:deskcolor="#d1d1d1"
     inkscape:zoom="1.5752768"
     inkscape:cx="148.86273"
     inkscape:cy="204.72593"
     inkscape:window-width="2560"
     inkscape:window-height="1403"
     inkscape:window-x="0"
     inkscape:window-y="0"
     inkscape:window-maximized="1"
     inkscape:current-layer="Layer_1"
     showgrid="false">
    <inkscape:grid
       id="grid79"
       units="px"
       originx="0"
       originy="0"
       spacingx="20"
       spacingy="20"
       empcolor="#0099e5"
       empopacity="0.30196078"
       color="#0099e5"
       opacity="0.14901961"
       empspacing="5"
       enabled="true"
       visible="false" />
  </sodipodi:namedview>
  <g
     id="bases"
     transform="matrix(0.85731323,0,0,0.85731323,25.683618,-5.719397)"
     style="stroke-width:1.16643">
    <rect
       x="-6.62957"
       y="29.999998"
       width="373.25916"
       height="233.28696"
       rx="14.141247"
       ry="14.141247"
       fill="#f2f2f3"
       id="rect1"
       style="stroke-width:1.16643" />
  </g>
  <g
     id="Layer_1"
     data-name="Layer 1"
     transform="matrix(0.86956522,0,0,0.86956522,13.913043,-8.4860871)"
     style="stroke-width:1.15">
    <g
       id="g13"
       style="stroke-width:1.15">
      <path
         d="m 50.254,241.795 0.337,-1.143 0.139,0.036 c 0.269,0.068 0.513,0.087 0.732,0.055 0.22,-0.031 0.417,-0.141 0.593,-0.325 0.176,-0.187 0.33,-0.475 0.461,-0.865 l 0.234,-0.681 -3.127,-8.232 h 1.443 l 1.743,4.856 c 0.186,0.508 0.342,1.01 0.469,1.508 0.127,0.498 0.261,0.982 0.403,1.451 h -0.483 c 0.142,-0.469 0.277,-0.954 0.406,-1.454 0.129,-0.501 0.285,-1.002 0.465,-1.505 l 1.758,-4.856 h 1.436 l -3.596,9.411 c -0.166,0.435 -0.365,0.793 -0.597,1.073 -0.232,0.281 -0.502,0.488 -0.81,0.623 -0.308,0.134 -0.654,0.201 -1.04,0.201 -0.234,0 -0.437,-0.018 -0.608,-0.052 -0.171,-0.034 -0.291,-0.068 -0.359,-0.102 z"
         fill="#231f20"
         id="path1"
         style="stroke-width:1.15" />
      <path
         d="m 61.856,239.004 c -0.742,0 -1.393,-0.176 -1.952,-0.527 -0.56,-0.352 -0.995,-0.845 -1.308,-1.479 -0.313,-0.634 -0.469,-1.372 -0.469,-2.212 0,-0.854 0.156,-1.601 0.469,-2.237 0.312,-0.638 0.748,-1.132 1.308,-1.483 0.559,-0.352 1.209,-0.527 1.952,-0.527 0.747,0 1.401,0.176 1.963,0.527 0.562,0.351 0.999,0.846 1.311,1.483 0.312,0.637 0.469,1.383 0.469,2.237 0,0.84 -0.156,1.577 -0.469,2.212 -0.313,0.635 -0.75,1.128 -1.311,1.479 -0.561,0.351 -1.216,0.527 -1.963,0.527 z m 0,-1.18 c 0.552,0 1.006,-0.141 1.362,-0.424 0.356,-0.283 0.62,-0.656 0.791,-1.117 0.171,-0.462 0.256,-0.961 0.256,-1.498 0,-0.542 -0.085,-1.046 -0.256,-1.513 -0.171,-0.466 -0.435,-0.842 -0.791,-1.128 -0.356,-0.285 -0.811,-0.428 -1.362,-0.428 -0.547,0 -0.996,0.143 -1.348,0.428 -0.352,0.286 -0.613,0.661 -0.784,1.125 -0.171,0.464 -0.256,0.969 -0.256,1.516 0,0.537 0.085,1.036 0.256,1.498 0.171,0.461 0.432,0.834 0.784,1.117 0.352,0.283 0.801,0.424 1.348,0.424 z"
         fill="#231f20"
         id="path2"
         style="stroke-width:1.15" />
      <path
         d="m 70.293,238.931 c -0.552,0 -1.037,-0.113 -1.454,-0.341 -0.418,-0.227 -0.743,-0.569 -0.975,-1.029 -0.232,-0.458 -0.348,-1.032 -0.348,-1.721 v -5.2 h 1.318 v 5.091 c 0,0.629 0.166,1.123 0.498,1.479 0.332,0.357 0.784,0.535 1.355,0.535 0.391,0 0.741,-0.085 1.051,-0.256 0.31,-0.171 0.555,-0.422 0.736,-0.751 0.181,-0.33 0.271,-0.727 0.271,-1.19 v -4.907 h 1.326 v 8.188 h -1.274 v -1.984 h 0.176 c -0.254,0.767 -0.614,1.306 -1.081,1.618 -0.467,0.312 -1,0.469 -1.6,0.469 z"
         fill="#231f20"
         id="path3"
         style="stroke-width:1.15" />
      <path
         d="m 79.61,230.64 v 1.128 h -4.233 v -1.128 z m -3.003,-1.949 h 1.318 v 8.013 c 0,0.366 0.074,0.634 0.224,0.802 0.148,0.169 0.396,0.253 0.743,0.253 0.083,0 0.189,-0.01 0.318,-0.029 0.129,-0.019 0.248,-0.039 0.355,-0.059 l 0.271,1.113 c -0.137,0.049 -0.292,0.085 -0.465,0.11 -0.173,0.023 -0.345,0.036 -0.516,0.036 -0.708,0 -1.26,-0.187 -1.655,-0.561 -0.396,-0.373 -0.593,-0.895 -0.593,-1.563 z"
         fill="#231f20"
         id="path4"
         style="stroke-width:1.15" />
      <path
         d="m 82.613,233.921 v 4.907 h -1.318 v -10.913 h 1.318 v 4.71 h -0.227 c 0.249,-0.757 0.604,-1.294 1.066,-1.611 0.461,-0.317 1.002,-0.477 1.622,-0.477 0.552,0 1.036,0.113 1.454,0.341 0.417,0.227 0.742,0.568 0.974,1.025 0.232,0.456 0.348,1.031 0.348,1.725 v 5.2 h -1.326 v -5.09 c 0,-0.631 -0.165,-1.123 -0.494,-1.48 -0.33,-0.355 -0.78,-0.534 -1.352,-0.534 -0.391,0 -0.742,0.086 -1.055,0.257 -0.313,0.171 -0.559,0.42 -0.74,0.746 -0.181,0.328 -0.271,0.726 -0.271,1.194 z"
         fill="#231f20"
         id="path5"
         style="stroke-width:1.15" />
      <path
         d="m 44.115,250.955 c -0.345,0 -0.658,-0.065 -0.94,-0.195 -0.282,-0.13 -0.505,-0.32 -0.671,-0.571 -0.166,-0.251 -0.249,-0.555 -0.249,-0.913 0,-0.312 0.062,-0.566 0.186,-0.762 0.124,-0.196 0.289,-0.35 0.496,-0.461 0.207,-0.113 0.436,-0.196 0.686,-0.252 0.25,-0.056 0.503,-0.1 0.757,-0.132 0.326,-0.042 0.591,-0.075 0.796,-0.098 0.205,-0.023 0.357,-0.062 0.457,-0.117 0.1,-0.055 0.149,-0.149 0.149,-0.283 v -0.029 c 0,-0.228 -0.042,-0.421 -0.127,-0.579 -0.084,-0.157 -0.211,-0.278 -0.381,-0.363 -0.17,-0.085 -0.381,-0.127 -0.635,-0.127 -0.26,0 -0.483,0.041 -0.669,0.122 -0.186,0.081 -0.336,0.183 -0.452,0.306 -0.116,0.121 -0.203,0.246 -0.261,0.373 l -0.845,-0.278 c 0.14,-0.332 0.329,-0.592 0.566,-0.778 0.238,-0.188 0.5,-0.32 0.786,-0.398 0.286,-0.078 0.57,-0.117 0.85,-0.117 0.182,0 0.39,0.021 0.623,0.066 0.233,0.043 0.458,0.131 0.674,0.261 0.216,0.13 0.396,0.323 0.537,0.579 0.142,0.255 0.212,0.596 0.212,1.022 v 3.599 h -0.864 v -0.742 h -0.059 c -0.062,0.127 -0.161,0.258 -0.298,0.393 -0.137,0.136 -0.314,0.249 -0.532,0.34 -0.218,0.091 -0.482,0.137 -0.791,0.137 z m 0.152,-0.776 c 0.326,0 0.601,-0.063 0.825,-0.19 0.224,-0.127 0.396,-0.292 0.513,-0.496 0.117,-0.203 0.176,-0.415 0.176,-0.637 v -0.757 c -0.036,0.042 -0.114,0.081 -0.234,0.114 -0.121,0.035 -0.258,0.064 -0.413,0.091 -0.155,0.027 -0.304,0.048 -0.449,0.065 -0.145,0.019 -0.26,0.032 -0.344,0.042 -0.211,0.026 -0.409,0.071 -0.593,0.134 -0.184,0.064 -0.331,0.156 -0.442,0.279 -0.111,0.121 -0.166,0.287 -0.166,0.495 0,0.188 0.049,0.347 0.146,0.474 0.097,0.127 0.231,0.223 0.4,0.288 0.169,0.065 0.363,0.098 0.581,0.098 z"
         fill="#231f20"
         id="path6"
         style="stroke-width:1.15" />
      <path
         d="m 50.414,252.986 c -0.404,0 -0.753,-0.051 -1.047,-0.154 -0.294,-0.102 -0.54,-0.238 -0.735,-0.407 -0.195,-0.169 -0.35,-0.354 -0.464,-0.552 l 0.713,-0.459 c 0.078,0.104 0.175,0.22 0.291,0.347 0.116,0.127 0.272,0.235 0.469,0.325 0.197,0.089 0.455,0.134 0.774,0.134 0.436,0 0.795,-0.104 1.077,-0.312 0.282,-0.208 0.422,-0.537 0.422,-0.986 v -1.094 h -0.083 c -0.062,0.104 -0.149,0.228 -0.261,0.371 -0.112,0.143 -0.273,0.27 -0.483,0.378 -0.21,0.109 -0.491,0.164 -0.842,0.164 -0.436,0 -0.829,-0.104 -1.177,-0.311 -0.348,-0.206 -0.624,-0.508 -0.825,-0.905 -0.201,-0.397 -0.303,-0.881 -0.303,-1.45 0,-0.563 0.099,-1.053 0.298,-1.467 0.199,-0.416 0.473,-0.737 0.823,-0.965 0.35,-0.228 0.751,-0.342 1.204,-0.342 0.352,0 0.632,0.058 0.842,0.174 0.21,0.115 0.372,0.248 0.486,0.397 0.114,0.149 0.202,0.273 0.264,0.371 h 0.083 v -0.874 h 0.854 v 5.601 c 0,0.469 -0.106,0.853 -0.317,1.149 -0.211,0.299 -0.497,0.518 -0.857,0.657 -0.36,0.139 -0.761,0.21 -1.204,0.21 z m -0.024,-3.027 c 0.332,0 0.612,-0.076 0.84,-0.227 0.228,-0.152 0.4,-0.37 0.518,-0.654 0.117,-0.285 0.176,-0.626 0.176,-1.023 0,-0.388 -0.058,-0.729 -0.173,-1.023 -0.116,-0.294 -0.287,-0.525 -0.515,-0.693 -0.228,-0.167 -0.509,-0.251 -0.845,-0.251 -0.345,0 -0.633,0.089 -0.864,0.267 -0.231,0.177 -0.404,0.414 -0.52,0.71 -0.116,0.296 -0.173,0.627 -0.173,0.991 0,0.374 0.059,0.705 0.176,0.991 0.117,0.286 0.292,0.511 0.522,0.671 0.231,0.162 0.518,0.242 0.859,0.242 z"
         fill="#231f20"
         id="path7"
         style="stroke-width:1.15" />
      <path
         d="m 56.63,250.945 c -0.527,0 -0.982,-0.117 -1.365,-0.352 -0.383,-0.235 -0.677,-0.562 -0.884,-0.981 -0.207,-0.419 -0.31,-0.91 -0.31,-1.47 0,-0.56 0.101,-1.053 0.303,-1.479 0.202,-0.426 0.487,-0.76 0.857,-1.001 0.37,-0.241 0.802,-0.361 1.296,-0.361 0.29,0 0.575,0.048 0.857,0.145 0.282,0.096 0.537,0.25 0.767,0.463 0.229,0.214 0.413,0.494 0.549,0.843 0.136,0.349 0.205,0.774 0.205,1.279 v 0.366 h -4.238 v -0.742 h 3.765 l -0.41,0.273 c 0,-0.358 -0.056,-0.676 -0.168,-0.955 -0.112,-0.277 -0.279,-0.496 -0.5,-0.654 -0.221,-0.157 -0.497,-0.236 -0.825,-0.236 -0.328,0 -0.61,0.08 -0.845,0.242 -0.234,0.16 -0.414,0.371 -0.537,0.629 -0.124,0.26 -0.186,0.537 -0.186,0.833 v 0.493 c 0,0.403 0.07,0.746 0.21,1.027 0.14,0.282 0.336,0.495 0.588,0.641 0.252,0.145 0.544,0.217 0.876,0.217 0.215,0 0.41,-0.031 0.586,-0.093 0.176,-0.062 0.327,-0.155 0.454,-0.28 0.127,-0.126 0.225,-0.281 0.293,-0.467 l 0.85,0.234 c -0.084,0.273 -0.228,0.515 -0.43,0.723 -0.202,0.208 -0.452,0.371 -0.75,0.488 -0.298,0.117 -0.634,0.176 -1.008,0.176 z"
         fill="#231f20"
         id="path8"
         style="stroke-width:1.15" />
      <path
         d="m 62.021,250.945 c -0.375,0 -0.707,-0.055 -0.999,-0.164 -0.292,-0.108 -0.531,-0.271 -0.72,-0.485 -0.189,-0.214 -0.316,-0.479 -0.381,-0.791 l 0.835,-0.2 c 0.078,0.3 0.226,0.52 0.442,0.659 0.216,0.139 0.487,0.21 0.813,0.21 0.381,0 0.685,-0.081 0.911,-0.244 0.226,-0.163 0.339,-0.356 0.339,-0.581 0,-0.188 -0.066,-0.346 -0.198,-0.472 -0.132,-0.125 -0.333,-0.219 -0.603,-0.28 l -0.908,-0.215 c -0.495,-0.117 -0.863,-0.299 -1.104,-0.544 -0.241,-0.246 -0.361,-0.562 -0.361,-0.945 0,-0.312 0.088,-0.588 0.264,-0.828 0.176,-0.238 0.416,-0.426 0.72,-0.561 0.304,-0.136 0.65,-0.203 1.038,-0.203 0.375,0 0.692,0.057 0.955,0.168 0.262,0.113 0.475,0.268 0.64,0.465 0.165,0.196 0.287,0.424 0.369,0.681 l -0.796,0.205 c -0.075,-0.195 -0.199,-0.373 -0.374,-0.532 -0.175,-0.159 -0.437,-0.239 -0.789,-0.239 -0.326,0 -0.597,0.075 -0.813,0.225 -0.216,0.15 -0.325,0.339 -0.325,0.566 0,0.202 0.073,0.364 0.22,0.485 0.146,0.123 0.379,0.221 0.698,0.296 l 0.825,0.195 c 0.495,0.117 0.861,0.299 1.099,0.544 0.238,0.246 0.356,0.557 0.356,0.931 0,0.319 -0.09,0.603 -0.271,0.853 -0.181,0.248 -0.433,0.444 -0.757,0.588 -0.324,0.144 -0.699,0.215 -1.125,0.215 z"
         fill="#231f20"
         id="path9"
         style="stroke-width:1.15" />
      <path
         d="m 70.639,250.926 c -0.541,0 -1.001,-0.146 -1.382,-0.439 -0.381,-0.293 -0.672,-0.717 -0.874,-1.271 -0.202,-0.556 -0.303,-1.229 -0.303,-2.02 0,-0.791 0.102,-1.46 0.305,-2.017 0.203,-0.557 0.496,-0.983 0.876,-1.279 0.38,-0.296 0.84,-0.444 1.377,-0.444 0.537,0 0.997,0.148 1.379,0.444 0.382,0.296 0.675,0.723 0.876,1.279 0.201,0.556 0.303,1.229 0.303,2.017 0,0.788 -0.1,1.46 -0.3,2.017 -0.2,0.557 -0.491,0.981 -0.872,1.274 -0.381,0.293 -0.843,0.439 -1.387,0.439 z m 0,-0.811 c 0.355,0 0.656,-0.115 0.903,-0.347 0.247,-0.232 0.436,-0.563 0.566,-0.999 0.13,-0.434 0.195,-0.959 0.195,-1.574 0,-0.615 -0.065,-1.146 -0.195,-1.584 -0.13,-0.438 -0.319,-0.772 -0.566,-1.004 -0.247,-0.232 -0.548,-0.347 -0.903,-0.347 -0.355,0 -0.656,0.116 -0.903,0.349 -0.248,0.233 -0.436,0.567 -0.566,1.004 -0.13,0.437 -0.195,0.964 -0.195,1.582 0,0.618 0.065,1.141 0.195,1.574 0.13,0.436 0.319,0.768 0.566,0.999 0.247,0.231 0.548,0.347 0.903,0.347 z"
         fill="#231f20"
         id="path10"
         style="stroke-width:1.15" />
      <path
         d="m 80.502,246.795 v 0.811 h -3.193 v -0.811 z"
         fill="#231f20"
         id="path11"
         style="stroke-width:1.15" />
      <path
         d="m 84.77,250.828 v -0.669 l 2.417,-2.622 c 0.27,-0.293 0.495,-0.55 0.674,-0.771 0.179,-0.221 0.314,-0.432 0.405,-0.633 0.091,-0.199 0.137,-0.412 0.137,-0.637 0,-0.254 -0.06,-0.474 -0.181,-0.659 -0.121,-0.185 -0.283,-0.328 -0.488,-0.427 -0.205,-0.1 -0.438,-0.149 -0.698,-0.149 -0.277,0 -0.517,0.056 -0.72,0.169 -0.204,0.111 -0.36,0.27 -0.471,0.473 -0.111,0.204 -0.166,0.442 -0.166,0.716 H 84.79 c 0,-0.43 0.099,-0.808 0.298,-1.133 0.199,-0.325 0.469,-0.579 0.811,-0.759 0.342,-0.182 0.729,-0.271 1.162,-0.271 0.433,0 0.816,0.09 1.15,0.271 0.333,0.18 0.596,0.424 0.786,0.729 0.19,0.305 0.286,0.649 0.286,1.03 0,0.264 -0.047,0.52 -0.142,0.77 -0.094,0.248 -0.26,0.531 -0.498,0.847 -0.238,0.316 -0.571,0.701 -1.001,1.157 l -1.592,1.694 v 0.059 h 3.354 v 0.815 z"
         fill="#231f20"
         id="path12"
         style="stroke-width:1.15" />
      <path
         d="m 90.546,249.349 v -0.757 l 3.184,-5.039 h 0.562 v 1.162 h -0.376 l -2.378,3.76 v 0.059 h 4.307 v 0.815 h -5.298 z m 3.423,1.479 v -1.704 l 0.005,-0.356 v -5.215 h 0.884 v 7.275 z"
         fill="#231f20"
         id="path13"
         style="stroke-width:1.15" />
    </g>
    <g
       id="g27"
       style="stroke-width:1.15">
      <path
         d="m 165.831,239.019 c -0.518,0 -0.987,-0.098 -1.409,-0.293 -0.423,-0.195 -0.759,-0.48 -1.008,-0.856 -0.249,-0.376 -0.373,-0.833 -0.373,-1.37 0,-0.469 0.093,-0.85 0.278,-1.143 0.185,-0.293 0.433,-0.523 0.743,-0.692 0.31,-0.168 0.653,-0.294 1.029,-0.377 0.376,-0.083 0.754,-0.148 1.135,-0.197 0.488,-0.063 0.887,-0.112 1.194,-0.146 0.307,-0.034 0.535,-0.093 0.685,-0.176 0.148,-0.083 0.224,-0.225 0.224,-0.426 V 233.3 c 0,-0.342 -0.063,-0.632 -0.19,-0.868 -0.127,-0.237 -0.317,-0.419 -0.571,-0.546 -0.254,-0.127 -0.571,-0.19 -0.952,-0.19 -0.391,0 -0.726,0.062 -1.004,0.183 -0.278,0.123 -0.504,0.275 -0.677,0.458 -0.174,0.184 -0.305,0.37 -0.393,0.561 l -1.267,-0.417 c 0.21,-0.498 0.493,-0.888 0.85,-1.169 0.356,-0.28 0.749,-0.479 1.179,-0.597 0.43,-0.118 0.854,-0.176 1.274,-0.176 0.273,0 0.585,0.033 0.935,0.099 0.349,0.066 0.686,0.197 1.011,0.392 0.324,0.196 0.593,0.485 0.806,0.868 0.212,0.384 0.318,0.896 0.318,1.534 v 5.398 h -1.297 v -1.113 h -0.088 c -0.093,0.19 -0.241,0.387 -0.446,0.59 -0.205,0.202 -0.472,0.372 -0.799,0.509 -0.327,0.137 -0.723,0.205 -1.187,0.205 z m 0.228,-1.165 c 0.488,0 0.9,-0.095 1.237,-0.285 0.337,-0.19 0.594,-0.438 0.77,-0.743 0.176,-0.306 0.264,-0.624 0.264,-0.956 v -1.135 c -0.054,0.063 -0.171,0.12 -0.352,0.172 -0.181,0.051 -0.388,0.097 -0.619,0.135 -0.232,0.04 -0.457,0.072 -0.674,0.1 -0.218,0.026 -0.39,0.047 -0.517,0.062 -0.317,0.039 -0.614,0.105 -0.89,0.201 -0.276,0.095 -0.497,0.234 -0.663,0.417 -0.166,0.184 -0.249,0.432 -0.249,0.743 0,0.284 0.073,0.521 0.22,0.711 0.147,0.19 0.347,0.335 0.601,0.432 0.254,0.099 0.545,0.146 0.872,0.146 z"
         fill="#231f20"
         id="path14"
         style="stroke-width:1.15" />
      <path
         d="m 175.03,239.004 c -0.679,0 -1.279,-0.174 -1.802,-0.52 -0.522,-0.347 -0.93,-0.838 -1.223,-1.473 -0.293,-0.635 -0.439,-1.387 -0.439,-2.256 0,-0.864 0.147,-1.612 0.443,-2.245 0.295,-0.632 0.704,-1.119 1.227,-1.461 0.523,-0.342 1.123,-0.513 1.802,-0.513 0.532,0 0.954,0.088 1.267,0.264 0.313,0.176 0.554,0.375 0.722,0.597 0.169,0.223 0.297,0.407 0.385,0.554 h 0.103 v -4.036 h 1.318 v 10.913 h -1.274 v -1.268 h -0.146 c -0.088,0.152 -0.219,0.341 -0.392,0.568 -0.174,0.227 -0.418,0.43 -0.732,0.607 -0.315,0.179 -0.734,0.268 -1.257,0.268 z m 0.199,-1.18 c 0.498,0 0.918,-0.13 1.26,-0.392 0.342,-0.261 0.601,-0.623 0.776,-1.087 0.175,-0.464 0.264,-0.999 0.264,-1.604 0,-0.605 -0.087,-1.134 -0.26,-1.586 -0.174,-0.451 -0.432,-0.804 -0.773,-1.058 -0.341,-0.254 -0.764,-0.381 -1.267,-0.381 -0.518,0 -0.948,0.134 -1.293,0.402 -0.344,0.269 -0.602,0.631 -0.772,1.088 -0.171,0.456 -0.257,0.968 -0.257,1.534 0,0.571 0.087,1.09 0.261,1.557 0.173,0.466 0.433,0.837 0.779,1.113 0.347,0.275 0.774,0.413 1.282,0.413 z"
         fill="#231f20"
         id="path15"
         style="stroke-width:1.15" />
      <path
         d="m 183.922,238.931 c -0.552,0 -1.036,-0.113 -1.453,-0.341 -0.418,-0.227 -0.743,-0.569 -0.975,-1.029 -0.232,-0.458 -0.348,-1.032 -0.348,-1.721 v -5.2 h 1.318 v 5.091 c 0,0.629 0.166,1.123 0.498,1.479 0.332,0.357 0.783,0.535 1.354,0.535 0.391,0 0.741,-0.085 1.052,-0.256 0.31,-0.171 0.555,-0.422 0.735,-0.751 0.181,-0.33 0.271,-0.727 0.271,-1.19 v -4.907 h 1.325 v 8.188 h -1.274 v -1.984 h 0.176 c -0.254,0.767 -0.614,1.306 -1.08,1.618 -0.467,0.312 -1,0.469 -1.601,0.469 z"
         fill="#231f20"
         id="path16"
         style="stroke-width:1.15" />
      <path
         d="m 191.334,227.915 v 10.913 h -1.318 v -10.913 z"
         fill="#231f20"
         id="path17"
         style="stroke-width:1.15" />
      <path
         d="m 197.091,230.64 v 1.128 h -4.233 v -1.128 z m -3.003,-1.949 h 1.318 v 8.013 c 0,0.366 0.074,0.634 0.224,0.802 0.148,0.169 0.396,0.253 0.743,0.253 0.083,0 0.189,-0.01 0.318,-0.029 0.13,-0.02 0.248,-0.039 0.355,-0.059 l 0.271,1.113 c -0.137,0.049 -0.292,0.085 -0.466,0.11 -0.173,0.023 -0.345,0.036 -0.516,0.036 -0.708,0 -1.26,-0.187 -1.655,-0.561 -0.396,-0.373 -0.594,-0.895 -0.594,-1.563 v -8.115 z"
         fill="#231f20"
         id="path18"
         style="stroke-width:1.15" />
      <path
         d="m 154.819,250.955 c -0.346,0 -0.658,-0.065 -0.94,-0.195 -0.281,-0.13 -0.505,-0.32 -0.671,-0.571 -0.166,-0.251 -0.249,-0.555 -0.249,-0.913 0,-0.312 0.062,-0.566 0.186,-0.762 0.123,-0.195 0.289,-0.35 0.495,-0.461 0.207,-0.113 0.436,-0.196 0.687,-0.252 0.25,-0.056 0.503,-0.1 0.757,-0.132 0.325,-0.042 0.591,-0.075 0.796,-0.098 0.205,-0.023 0.357,-0.062 0.456,-0.117 0.1,-0.056 0.149,-0.149 0.149,-0.283 v -0.029 c 0,-0.228 -0.043,-0.421 -0.127,-0.579 -0.085,-0.157 -0.212,-0.278 -0.381,-0.363 -0.17,-0.085 -0.381,-0.127 -0.635,-0.127 -0.261,0 -0.483,0.041 -0.669,0.122 -0.186,0.081 -0.336,0.183 -0.452,0.306 -0.115,0.121 -0.202,0.246 -0.261,0.373 l -0.845,-0.278 c 0.14,-0.332 0.328,-0.592 0.566,-0.778 0.237,-0.188 0.499,-0.32 0.786,-0.398 0.286,-0.078 0.569,-0.117 0.85,-0.117 0.182,0 0.39,0.021 0.622,0.066 0.233,0.043 0.458,0.131 0.674,0.261 0.217,0.13 0.396,0.323 0.537,0.579 0.142,0.255 0.213,0.596 0.213,1.022 v 3.599 h -0.864 v -0.742 h -0.059 c -0.062,0.127 -0.161,0.258 -0.298,0.393 -0.137,0.136 -0.314,0.249 -0.532,0.34 -0.219,0.091 -0.482,0.137 -0.791,0.137 z m 0.152,-0.776 c 0.325,0 0.601,-0.063 0.825,-0.19 0.224,-0.127 0.396,-0.292 0.513,-0.496 0.117,-0.203 0.176,-0.415 0.176,-0.637 v -0.757 c -0.036,0.042 -0.114,0.081 -0.234,0.114 -0.121,0.035 -0.258,0.064 -0.413,0.091 -0.154,0.026 -0.304,0.048 -0.449,0.065 -0.145,0.019 -0.26,0.032 -0.344,0.042 -0.212,0.026 -0.409,0.071 -0.594,0.134 -0.184,0.064 -0.331,0.156 -0.441,0.279 -0.111,0.121 -0.166,0.287 -0.166,0.495 0,0.188 0.049,0.347 0.146,0.474 0.097,0.127 0.23,0.223 0.4,0.288 0.169,0.065 0.362,0.098 0.581,0.098 z"
         fill="#231f20"
         id="path19"
         style="stroke-width:1.15" />
      <path
         d="m 161.118,252.986 c -0.404,0 -0.753,-0.051 -1.048,-0.154 -0.294,-0.102 -0.539,-0.238 -0.734,-0.407 -0.195,-0.169 -0.351,-0.354 -0.464,-0.552 l 0.713,-0.459 c 0.078,0.104 0.175,0.22 0.29,0.347 0.116,0.127 0.272,0.235 0.469,0.325 0.197,0.089 0.455,0.134 0.774,0.134 0.436,0 0.795,-0.104 1.076,-0.312 0.282,-0.208 0.423,-0.537 0.423,-0.986 v -1.094 h -0.083 c -0.062,0.104 -0.149,0.228 -0.262,0.371 -0.113,0.143 -0.273,0.27 -0.483,0.378 -0.21,0.109 -0.49,0.164 -0.842,0.164 -0.437,0 -0.829,-0.104 -1.177,-0.311 -0.349,-0.206 -0.624,-0.508 -0.825,-0.905 -0.202,-0.397 -0.303,-0.881 -0.303,-1.45 0,-0.563 0.099,-1.053 0.298,-1.467 0.198,-0.416 0.473,-0.737 0.822,-0.965 0.351,-0.228 0.751,-0.342 1.204,-0.342 0.352,0 0.632,0.058 0.842,0.174 0.21,0.115 0.372,0.248 0.486,0.397 0.113,0.149 0.201,0.273 0.264,0.371 h 0.083 v -0.874 h 0.854 v 5.601 c 0,0.469 -0.106,0.853 -0.317,1.149 -0.212,0.299 -0.497,0.518 -0.857,0.657 -0.359,0.14 -0.761,0.21 -1.203,0.21 z m -0.024,-3.027 c 0.332,0 0.611,-0.076 0.84,-0.227 0.228,-0.152 0.4,-0.37 0.518,-0.654 0.117,-0.285 0.176,-0.626 0.176,-1.023 0,-0.388 -0.058,-0.729 -0.174,-1.023 -0.115,-0.294 -0.287,-0.525 -0.515,-0.693 -0.229,-0.167 -0.51,-0.251 -0.845,-0.251 -0.346,0 -0.634,0.089 -0.864,0.267 -0.231,0.177 -0.404,0.414 -0.521,0.71 -0.115,0.296 -0.173,0.627 -0.173,0.991 0,0.374 0.059,0.705 0.176,0.991 0.117,0.286 0.291,0.511 0.522,0.671 0.23,0.162 0.518,0.242 0.859,0.242 z"
         fill="#231f20"
         id="path20"
         style="stroke-width:1.15" />
      <path
         d="m 167.334,250.945 c -0.527,0 -0.982,-0.117 -1.365,-0.352 -0.382,-0.234 -0.677,-0.562 -0.884,-0.981 -0.206,-0.42 -0.31,-0.91 -0.31,-1.47 0,-0.56 0.101,-1.053 0.303,-1.479 0.201,-0.427 0.487,-0.76 0.856,-1.001 0.37,-0.241 0.802,-0.361 1.297,-0.361 0.289,0 0.575,0.048 0.856,0.145 0.282,0.096 0.537,0.25 0.767,0.463 0.229,0.214 0.413,0.494 0.55,0.843 0.137,0.349 0.205,0.774 0.205,1.279 v 0.366 h -4.238 v -0.742 h 3.765 l -0.41,0.273 c 0,-0.358 -0.057,-0.676 -0.169,-0.955 -0.112,-0.277 -0.279,-0.496 -0.5,-0.654 -0.222,-0.157 -0.497,-0.236 -0.825,-0.236 -0.328,0 -0.61,0.08 -0.845,0.242 -0.234,0.16 -0.414,0.371 -0.537,0.629 -0.124,0.26 -0.186,0.537 -0.186,0.833 v 0.493 c 0,0.403 0.069,0.746 0.21,1.027 0.14,0.282 0.336,0.495 0.588,0.641 0.253,0.145 0.545,0.217 0.877,0.217 0.215,0 0.41,-0.031 0.586,-0.093 0.176,-0.062 0.327,-0.155 0.454,-0.28 0.127,-0.126 0.225,-0.281 0.293,-0.467 l 0.85,0.234 c -0.085,0.273 -0.229,0.515 -0.43,0.723 -0.202,0.208 -0.452,0.371 -0.75,0.488 -0.298,0.117 -0.634,0.176 -1.008,0.176 z"
         fill="#231f20"
         id="path21"
         style="stroke-width:1.15" />
      <path
         d="m 172.725,250.945 c -0.375,0 -0.707,-0.055 -0.999,-0.164 -0.291,-0.108 -0.531,-0.271 -0.72,-0.485 -0.189,-0.215 -0.316,-0.479 -0.381,-0.791 l 0.835,-0.2 c 0.078,0.3 0.226,0.52 0.441,0.659 0.217,0.14 0.487,0.21 0.813,0.21 0.381,0 0.685,-0.081 0.91,-0.244 0.227,-0.163 0.34,-0.356 0.34,-0.581 0,-0.188 -0.066,-0.346 -0.198,-0.472 -0.132,-0.125 -0.333,-0.219 -0.603,-0.28 l -0.908,-0.215 c -0.495,-0.117 -0.863,-0.299 -1.104,-0.544 -0.241,-0.246 -0.361,-0.562 -0.361,-0.945 0,-0.312 0.088,-0.588 0.264,-0.828 0.176,-0.238 0.416,-0.426 0.72,-0.561 0.305,-0.136 0.65,-0.203 1.038,-0.203 0.374,0 0.692,0.057 0.954,0.168 0.263,0.113 0.476,0.268 0.64,0.465 0.165,0.196 0.287,0.424 0.369,0.681 l -0.796,0.205 c -0.075,-0.195 -0.199,-0.373 -0.374,-0.532 -0.174,-0.159 -0.437,-0.239 -0.788,-0.239 -0.326,0 -0.597,0.075 -0.813,0.225 -0.216,0.149 -0.324,0.339 -0.324,0.566 0,0.202 0.073,0.364 0.22,0.485 0.146,0.123 0.379,0.221 0.698,0.296 l 0.825,0.195 c 0.494,0.117 0.86,0.299 1.099,0.544 0.237,0.246 0.356,0.557 0.356,0.931 0,0.319 -0.091,0.603 -0.271,0.853 -0.181,0.248 -0.433,0.444 -0.757,0.588 -0.323,0.144 -0.699,0.215 -1.125,0.215 z"
         fill="#231f20"
         id="path22"
         style="stroke-width:1.15" />
      <path
         d="m 178.94,250.828 v -0.669 l 2.417,-2.622 c 0.27,-0.293 0.494,-0.55 0.674,-0.771 0.179,-0.222 0.313,-0.432 0.405,-0.633 0.091,-0.199 0.137,-0.412 0.137,-0.637 0,-0.254 -0.061,-0.474 -0.181,-0.659 -0.121,-0.186 -0.283,-0.328 -0.488,-0.427 -0.205,-0.1 -0.438,-0.149 -0.698,-0.149 -0.277,0 -0.517,0.056 -0.721,0.169 -0.203,0.111 -0.36,0.27 -0.471,0.473 -0.111,0.204 -0.166,0.442 -0.166,0.716 h -0.889 c 0,-0.43 0.099,-0.808 0.298,-1.133 0.198,-0.325 0.469,-0.579 0.811,-0.759 0.342,-0.182 0.729,-0.271 1.162,-0.271 0.433,0 0.816,0.09 1.149,0.271 0.334,0.18 0.596,0.424 0.786,0.729 0.19,0.305 0.286,0.649 0.286,1.03 0,0.264 -0.048,0.52 -0.142,0.77 -0.095,0.248 -0.261,0.531 -0.498,0.847 -0.238,0.315 -0.571,0.701 -1.001,1.157 l -1.592,1.694 v 0.059 h 3.354 v 0.815 h -4.634 z"
         fill="#231f20"
         id="path23"
         style="stroke-width:1.15" />
      <path
         d="m 187.197,250.926 c -0.427,0 -0.81,-0.084 -1.147,-0.252 -0.339,-0.167 -0.609,-0.396 -0.811,-0.688 -0.202,-0.292 -0.312,-0.623 -0.327,-0.994 h 0.898 c 0.02,0.215 0.093,0.407 0.22,0.576 0.127,0.169 0.292,0.302 0.495,0.398 0.204,0.096 0.428,0.144 0.672,0.144 0.293,0 0.554,-0.068 0.783,-0.205 0.229,-0.137 0.409,-0.325 0.54,-0.566 0.13,-0.241 0.195,-0.515 0.195,-0.82 0,-0.312 -0.068,-0.593 -0.205,-0.84 -0.137,-0.247 -0.323,-0.442 -0.56,-0.583 -0.235,-0.143 -0.507,-0.213 -0.812,-0.213 -0.225,0 -0.453,0.036 -0.684,0.107 -0.231,0.071 -0.419,0.163 -0.562,0.273 l -0.869,-0.107 0.43,-3.604 h 3.828 v 0.815 h -3.047 l -0.249,2.124 h 0.039 c 0.149,-0.124 0.338,-0.226 0.566,-0.305 0.228,-0.08 0.467,-0.12 0.718,-0.12 0.332,0 0.639,0.061 0.92,0.181 0.282,0.12 0.526,0.291 0.735,0.51 0.208,0.221 0.37,0.479 0.485,0.774 0.116,0.296 0.174,0.62 0.174,0.972 0,0.466 -0.105,0.881 -0.315,1.245 -0.21,0.364 -0.497,0.651 -0.861,0.862 -0.365,0.209 -0.781,0.314 -1.25,0.314 z"
         fill="#231f20"
         id="path24"
         style="stroke-width:1.15" />
      <path
         d="m 194.116,246.795 v 0.811 h -3.193 v -0.811 z"
         fill="#231f20"
         id="path25"
         style="stroke-width:1.15" />
      <path
         d="m 197.974,250.926 c -0.303,0 -0.605,-0.056 -0.908,-0.166 -0.303,-0.11 -0.579,-0.296 -0.828,-0.557 -0.249,-0.261 -0.448,-0.613 -0.598,-1.06 -0.15,-0.446 -0.225,-1.004 -0.225,-1.675 0,-0.642 0.061,-1.21 0.183,-1.707 0.122,-0.496 0.3,-0.916 0.532,-1.26 0.233,-0.343 0.514,-0.604 0.843,-0.781 0.328,-0.177 0.699,-0.266 1.113,-0.266 0.406,0 0.771,0.081 1.094,0.244 0.323,0.163 0.586,0.389 0.791,0.679 0.205,0.29 0.337,0.625 0.396,1.006 h -0.908 c -0.082,-0.315 -0.236,-0.579 -0.464,-0.791 -0.229,-0.212 -0.531,-0.317 -0.908,-0.317 -0.371,0 -0.691,0.109 -0.96,0.327 -0.269,0.218 -0.475,0.533 -0.617,0.944 -0.144,0.412 -0.215,0.909 -0.215,1.492 h 0.059 c 0.13,-0.202 0.286,-0.375 0.469,-0.52 0.182,-0.146 0.386,-0.256 0.61,-0.332 0.225,-0.077 0.462,-0.115 0.713,-0.115 0.416,0 0.797,0.103 1.143,0.308 0.345,0.205 0.621,0.489 0.827,0.853 0.207,0.362 0.311,0.778 0.311,1.247 0,0.452 -0.102,0.863 -0.303,1.233 -0.202,0.369 -0.487,0.664 -0.854,0.883 -0.368,0.221 -0.8,0.33 -1.294,0.33 z m 0,-0.816 c 0.293,0 0.557,-0.073 0.791,-0.22 0.234,-0.147 0.42,-0.343 0.557,-0.588 0.137,-0.246 0.205,-0.521 0.205,-0.823 0,-0.296 -0.066,-0.565 -0.198,-0.808 -0.132,-0.243 -0.313,-0.436 -0.544,-0.579 -0.231,-0.144 -0.493,-0.215 -0.786,-0.215 -0.222,0 -0.428,0.043 -0.618,0.13 -0.19,0.086 -0.357,0.205 -0.5,0.355 -0.144,0.152 -0.255,0.324 -0.335,0.518 -0.079,0.194 -0.119,0.396 -0.119,0.608 0,0.286 0.066,0.553 0.2,0.798 0.133,0.246 0.317,0.445 0.552,0.596 0.234,0.152 0.499,0.228 0.796,0.228 z"
         fill="#231f20"
         id="path26"
         style="stroke-width:1.15" />
      <path
         d="m 201.606,249.349 v -0.757 l 3.184,-5.039 h 0.562 v 1.162 h -0.376 l -2.378,3.76 v 0.059 h 4.307 v 0.815 h -5.298 z m 3.423,1.479 v -1.704 l 0.005,-0.356 v -5.215 h 0.884 v 7.275 z"
         fill="#231f20"
         id="path27"
         style="stroke-width:1.15" />
    </g>
    <g
       id="g40"
       style="stroke-width:1.15">
      <path
         d="m 272.895,239.004 c -0.562,0 -1.061,-0.082 -1.498,-0.245 -0.437,-0.164 -0.797,-0.407 -1.08,-0.729 -0.283,-0.322 -0.474,-0.717 -0.571,-1.186 l 1.252,-0.301 c 0.117,0.449 0.338,0.779 0.663,0.988 0.325,0.211 0.731,0.315 1.22,0.315 0.571,0 1.026,-0.122 1.366,-0.366 0.339,-0.244 0.509,-0.535 0.509,-0.871 0,-0.283 -0.099,-0.52 -0.297,-0.707 -0.197,-0.188 -0.499,-0.328 -0.904,-0.422 l -1.362,-0.322 c -0.742,-0.176 -1.294,-0.447 -1.655,-0.816 -0.361,-0.368 -0.542,-0.841 -0.542,-1.417 0,-0.469 0.132,-0.883 0.396,-1.241 0.264,-0.359 0.624,-0.64 1.08,-0.843 0.457,-0.202 0.976,-0.304 1.557,-0.304 0.562,0 1.039,0.084 1.432,0.253 0.393,0.168 0.713,0.4 0.96,0.695 0.246,0.296 0.431,0.637 0.553,1.022 l -1.194,0.307 c -0.112,-0.293 -0.299,-0.559 -0.56,-0.798 -0.262,-0.239 -0.656,-0.358 -1.183,-0.358 -0.488,0 -0.895,0.112 -1.219,0.336 -0.325,0.226 -0.487,0.509 -0.487,0.85 0,0.304 0.11,0.546 0.33,0.729 0.22,0.183 0.569,0.331 1.047,0.442 l 1.238,0.293 c 0.742,0.176 1.292,0.448 1.648,0.817 0.356,0.368 0.535,0.834 0.535,1.396 0,0.479 -0.135,0.904 -0.407,1.277 -0.271,0.374 -0.649,0.668 -1.135,0.883 -0.486,0.215 -1.049,0.322 -1.688,0.322 z"
         fill="#231f20"
         id="path28"
         style="stroke-width:1.15" />
      <path
         d="m 281.471,239.004 c -0.791,0 -1.474,-0.176 -2.047,-0.527 -0.574,-0.352 -1.016,-0.842 -1.326,-1.473 -0.31,-0.629 -0.465,-1.364 -0.465,-2.204 0,-0.84 0.151,-1.579 0.454,-2.22 0.303,-0.639 0.731,-1.14 1.285,-1.501 0.554,-0.361 1.203,-0.542 1.945,-0.542 0.435,0 0.863,0.072 1.286,0.216 0.422,0.145 0.806,0.376 1.149,0.696 0.345,0.319 0.619,0.741 0.824,1.264 0.205,0.523 0.308,1.162 0.308,1.918 v 0.55 h -6.357 v -1.113 h 5.647 l -0.615,0.41 c 0,-0.537 -0.084,-1.015 -0.252,-1.432 -0.169,-0.418 -0.419,-0.745 -0.751,-0.981 -0.332,-0.237 -0.745,-0.355 -1.238,-0.355 -0.493,0 -0.916,0.121 -1.267,0.362 -0.352,0.242 -0.62,0.557 -0.806,0.945 -0.186,0.388 -0.278,0.805 -0.278,1.249 v 0.739 c 0,0.605 0.105,1.119 0.315,1.542 0.21,0.422 0.504,0.742 0.882,0.959 0.378,0.218 0.817,0.326 1.315,0.326 0.322,0 0.615,-0.046 0.879,-0.139 0.264,-0.093 0.491,-0.233 0.681,-0.422 0.19,-0.188 0.337,-0.421 0.439,-0.699 l 1.274,0.352 c -0.127,0.41 -0.342,0.771 -0.645,1.084 -0.303,0.313 -0.678,0.557 -1.124,0.732 -0.447,0.176 -0.951,0.264 -1.513,0.264 z"
         fill="#231f20"
         id="path29"
         style="stroke-width:1.15" />
      <path
         d="m 288.092,233.921 v 4.907 h -1.318 v -8.188 h 1.267 l 0.007,1.985 h -0.183 c 0.249,-0.757 0.604,-1.294 1.066,-1.611 0.461,-0.317 1.002,-0.477 1.622,-0.477 0.552,0 1.035,0.113 1.45,0.341 0.415,0.227 0.738,0.568 0.971,1.025 0.231,0.456 0.348,1.031 0.348,1.725 v 5.2 h -1.318 v -5.09 c 0,-0.631 -0.165,-1.123 -0.494,-1.48 -0.33,-0.355 -0.78,-0.534 -1.352,-0.534 -0.391,0 -0.742,0.086 -1.055,0.257 -0.313,0.171 -0.559,0.42 -0.74,0.746 -0.181,0.328 -0.271,0.726 -0.271,1.194 z"
         fill="#231f20"
         id="path30"
         style="stroke-width:1.15" />
      <path
         d="m 296.303,229.299 c -0.249,0 -0.464,-0.085 -0.645,-0.256 -0.181,-0.171 -0.271,-0.376 -0.271,-0.615 0,-0.244 0.09,-0.45 0.271,-0.619 0.181,-0.168 0.396,-0.252 0.645,-0.252 0.254,0 0.471,0.084 0.652,0.252 0.181,0.169 0.271,0.375 0.271,0.619 0,0.239 -0.09,0.444 -0.271,0.615 -0.181,0.171 -0.398,0.256 -0.652,0.256 z m -0.667,9.529 v -8.188 h 1.318 v 8.188 z"
         fill="#231f20"
         id="path31"
         style="stroke-width:1.15" />
      <path
         d="m 302.602,239.004 c -0.742,0 -1.393,-0.176 -1.952,-0.527 -0.56,-0.352 -0.995,-0.845 -1.308,-1.479 -0.313,-0.634 -0.469,-1.372 -0.469,-2.212 0,-0.854 0.156,-1.601 0.469,-2.237 0.312,-0.638 0.748,-1.132 1.308,-1.483 0.559,-0.352 1.209,-0.527 1.952,-0.527 0.747,0 1.401,0.176 1.963,0.527 0.562,0.351 0.999,0.846 1.311,1.483 0.312,0.637 0.469,1.383 0.469,2.237 0,0.84 -0.156,1.577 -0.469,2.212 -0.313,0.635 -0.75,1.128 -1.311,1.479 -0.561,0.351 -1.216,0.527 -1.963,0.527 z m 0,-1.18 c 0.552,0 1.006,-0.141 1.362,-0.424 0.356,-0.283 0.62,-0.656 0.791,-1.117 0.171,-0.462 0.256,-0.961 0.256,-1.498 0,-0.542 -0.085,-1.046 -0.256,-1.513 -0.171,-0.466 -0.435,-0.842 -0.791,-1.128 -0.356,-0.285 -0.811,-0.428 -1.362,-0.428 -0.547,0 -0.996,0.143 -1.348,0.428 -0.352,0.286 -0.613,0.661 -0.784,1.125 -0.171,0.464 -0.256,0.969 -0.256,1.516 0,0.537 0.085,1.036 0.256,1.498 0.171,0.461 0.432,0.834 0.784,1.117 0.352,0.283 0.801,0.424 1.348,0.424 z"
         fill="#231f20"
         id="path32"
         style="stroke-width:1.15" />
      <path
         d="m 308.263,238.828 v -8.188 h 1.274 v 1.26 h 0.088 c 0.151,-0.415 0.421,-0.748 0.81,-1 0.388,-0.251 0.826,-0.377 1.314,-0.377 0.098,0 0.213,0.003 0.348,0.007 0.134,0.006 0.241,0.011 0.319,0.016 v 1.325 c -0.039,-0.01 -0.137,-0.024 -0.293,-0.044 -0.156,-0.02 -0.322,-0.029 -0.498,-0.029 -0.391,0 -0.741,0.082 -1.051,0.245 -0.31,0.164 -0.553,0.389 -0.729,0.674 -0.176,0.286 -0.264,0.614 -0.264,0.985 v 5.127 h -1.318 z"
         fill="#231f20"
         id="path33"
         style="stroke-width:1.15" />
      <path
         d="m 270.944,250.955 c -0.345,0 -0.658,-0.065 -0.94,-0.195 -0.282,-0.13 -0.505,-0.32 -0.671,-0.571 -0.166,-0.251 -0.249,-0.555 -0.249,-0.913 0,-0.312 0.062,-0.566 0.186,-0.762 0.124,-0.196 0.289,-0.35 0.496,-0.461 0.207,-0.113 0.436,-0.196 0.686,-0.252 0.25,-0.056 0.503,-0.1 0.757,-0.132 0.326,-0.042 0.591,-0.075 0.796,-0.098 0.205,-0.023 0.357,-0.062 0.457,-0.117 0.1,-0.055 0.149,-0.149 0.149,-0.283 v -0.029 c 0,-0.228 -0.042,-0.421 -0.127,-0.579 -0.084,-0.157 -0.211,-0.278 -0.381,-0.363 -0.17,-0.085 -0.381,-0.127 -0.635,-0.127 -0.26,0 -0.483,0.041 -0.669,0.122 -0.186,0.081 -0.336,0.183 -0.452,0.306 -0.116,0.121 -0.203,0.246 -0.261,0.373 l -0.845,-0.278 c 0.14,-0.332 0.329,-0.592 0.566,-0.778 0.238,-0.188 0.5,-0.32 0.786,-0.398 0.286,-0.078 0.57,-0.117 0.85,-0.117 0.182,0 0.39,0.021 0.623,0.066 0.233,0.043 0.458,0.131 0.674,0.261 0.216,0.13 0.396,0.323 0.537,0.579 0.142,0.255 0.212,0.596 0.212,1.022 v 3.599 h -0.864 v -0.742 h -0.059 c -0.062,0.127 -0.161,0.258 -0.298,0.393 -0.137,0.136 -0.314,0.249 -0.532,0.34 -0.218,0.091 -0.482,0.137 -0.791,0.137 z m 0.151,-0.776 c 0.326,0 0.601,-0.063 0.825,-0.19 0.224,-0.127 0.396,-0.292 0.513,-0.496 0.117,-0.203 0.176,-0.415 0.176,-0.637 v -0.757 c -0.036,0.042 -0.114,0.081 -0.234,0.114 -0.121,0.035 -0.258,0.064 -0.413,0.091 -0.155,0.027 -0.304,0.048 -0.449,0.065 -0.145,0.019 -0.26,0.032 -0.344,0.042 -0.211,0.026 -0.409,0.071 -0.593,0.134 -0.184,0.064 -0.331,0.156 -0.442,0.279 -0.111,0.121 -0.166,0.287 -0.166,0.495 0,0.188 0.049,0.347 0.146,0.474 0.097,0.127 0.231,0.223 0.4,0.288 0.169,0.065 0.363,0.098 0.581,0.098 z"
         fill="#231f20"
         id="path34"
         style="stroke-width:1.15" />
      <path
         d="m 277.243,252.986 c -0.404,0 -0.753,-0.051 -1.047,-0.154 -0.294,-0.102 -0.54,-0.238 -0.735,-0.407 -0.195,-0.169 -0.35,-0.354 -0.464,-0.552 l 0.713,-0.459 c 0.078,0.104 0.175,0.22 0.291,0.347 0.116,0.127 0.272,0.235 0.469,0.325 0.197,0.089 0.455,0.134 0.774,0.134 0.436,0 0.795,-0.104 1.077,-0.312 0.282,-0.208 0.422,-0.537 0.422,-0.986 v -1.094 h -0.083 c -0.062,0.104 -0.149,0.228 -0.261,0.371 -0.112,0.143 -0.273,0.27 -0.483,0.378 -0.21,0.109 -0.491,0.164 -0.842,0.164 -0.436,0 -0.829,-0.104 -1.177,-0.311 -0.348,-0.206 -0.624,-0.508 -0.825,-0.905 -0.201,-0.397 -0.303,-0.881 -0.303,-1.45 0,-0.563 0.099,-1.053 0.298,-1.467 0.199,-0.416 0.473,-0.737 0.823,-0.965 0.35,-0.228 0.751,-0.342 1.204,-0.342 0.352,0 0.632,0.058 0.842,0.174 0.21,0.115 0.372,0.248 0.486,0.397 0.114,0.149 0.202,0.273 0.264,0.371 h 0.083 v -0.874 h 0.854 v 5.601 c 0,0.469 -0.106,0.853 -0.317,1.149 -0.211,0.299 -0.497,0.518 -0.857,0.657 -0.36,0.139 -0.761,0.21 -1.204,0.21 z m -0.025,-3.027 c 0.332,0 0.612,-0.076 0.84,-0.227 0.228,-0.152 0.4,-0.37 0.518,-0.654 0.117,-0.285 0.176,-0.626 0.176,-1.023 0,-0.388 -0.058,-0.729 -0.173,-1.023 -0.116,-0.294 -0.287,-0.525 -0.515,-0.693 -0.228,-0.167 -0.509,-0.251 -0.845,-0.251 -0.345,0 -0.633,0.089 -0.864,0.267 -0.231,0.177 -0.404,0.414 -0.52,0.71 -0.116,0.296 -0.173,0.627 -0.173,0.991 0,0.374 0.059,0.705 0.176,0.991 0.117,0.286 0.292,0.511 0.522,0.671 0.231,0.162 0.518,0.242 0.859,0.242 z"
         fill="#231f20"
         id="path35"
         style="stroke-width:1.15" />
      <path
         d="m 283.458,250.945 c -0.527,0 -0.982,-0.117 -1.365,-0.352 -0.383,-0.235 -0.677,-0.562 -0.884,-0.981 -0.207,-0.419 -0.31,-0.91 -0.31,-1.47 0,-0.56 0.101,-1.053 0.303,-1.479 0.202,-0.426 0.487,-0.76 0.857,-1.001 0.37,-0.241 0.802,-0.361 1.296,-0.361 0.29,0 0.575,0.048 0.857,0.145 0.282,0.096 0.537,0.25 0.767,0.463 0.229,0.214 0.413,0.494 0.549,0.843 0.136,0.349 0.205,0.774 0.205,1.279 v 0.366 h -4.238 v -0.742 h 3.765 l -0.41,0.273 c 0,-0.358 -0.056,-0.676 -0.168,-0.955 -0.112,-0.277 -0.279,-0.496 -0.5,-0.654 -0.221,-0.157 -0.497,-0.236 -0.825,-0.236 -0.328,0 -0.61,0.08 -0.845,0.242 -0.234,0.16 -0.414,0.371 -0.537,0.629 -0.124,0.26 -0.186,0.537 -0.186,0.833 v 0.493 c 0,0.403 0.07,0.746 0.21,1.027 0.14,0.282 0.336,0.495 0.588,0.641 0.252,0.145 0.544,0.217 0.876,0.217 0.215,0 0.41,-0.031 0.586,-0.093 0.176,-0.062 0.327,-0.155 0.454,-0.28 0.127,-0.126 0.225,-0.281 0.293,-0.467 l 0.85,0.234 c -0.084,0.273 -0.228,0.515 -0.43,0.723 -0.202,0.208 -0.452,0.371 -0.75,0.488 -0.298,0.117 -0.634,0.176 -1.008,0.176 z"
         fill="#231f20"
         id="path36"
         style="stroke-width:1.15" />
      <path
         d="m 288.849,250.945 c -0.375,0 -0.707,-0.055 -0.999,-0.164 -0.292,-0.108 -0.531,-0.271 -0.72,-0.485 -0.189,-0.214 -0.316,-0.479 -0.381,-0.791 l 0.835,-0.2 c 0.078,0.3 0.226,0.52 0.442,0.659 0.216,0.139 0.487,0.21 0.813,0.21 0.381,0 0.685,-0.081 0.911,-0.244 0.226,-0.163 0.339,-0.356 0.339,-0.581 0,-0.188 -0.066,-0.346 -0.198,-0.472 -0.132,-0.125 -0.333,-0.219 -0.603,-0.28 l -0.908,-0.215 c -0.495,-0.117 -0.863,-0.299 -1.104,-0.544 -0.241,-0.246 -0.361,-0.562 -0.361,-0.945 0,-0.312 0.088,-0.588 0.264,-0.828 0.176,-0.238 0.416,-0.426 0.72,-0.561 0.304,-0.136 0.65,-0.203 1.038,-0.203 0.375,0 0.692,0.057 0.955,0.168 0.262,0.113 0.475,0.268 0.64,0.465 0.165,0.196 0.287,0.424 0.369,0.681 l -0.796,0.205 c -0.075,-0.195 -0.199,-0.373 -0.374,-0.532 -0.175,-0.159 -0.437,-0.239 -0.789,-0.239 -0.326,0 -0.597,0.075 -0.813,0.225 -0.216,0.15 -0.325,0.339 -0.325,0.566 0,0.202 0.073,0.364 0.22,0.485 0.146,0.123 0.379,0.221 0.698,0.296 l 0.825,0.195 c 0.495,0.117 0.861,0.299 1.099,0.544 0.238,0.246 0.356,0.557 0.356,0.931 0,0.319 -0.09,0.603 -0.271,0.853 -0.181,0.248 -0.433,0.444 -0.757,0.588 -0.324,0.144 -0.699,0.215 -1.125,0.215 z"
         fill="#231f20"
         id="path37"
         style="stroke-width:1.15" />
      <path
         d="m 297.467,250.926 c -0.303,0 -0.605,-0.056 -0.908,-0.166 -0.303,-0.11 -0.579,-0.296 -0.828,-0.557 -0.249,-0.261 -0.448,-0.613 -0.598,-1.06 -0.15,-0.447 -0.225,-1.004 -0.225,-1.675 0,-0.642 0.061,-1.21 0.183,-1.707 0.122,-0.496 0.299,-0.916 0.532,-1.26 0.233,-0.343 0.514,-0.604 0.842,-0.781 0.329,-0.177 0.7,-0.266 1.113,-0.266 0.407,0 0.771,0.081 1.094,0.244 0.323,0.163 0.586,0.389 0.791,0.679 0.205,0.29 0.337,0.625 0.396,1.006 h -0.908 c -0.082,-0.315 -0.236,-0.579 -0.464,-0.791 -0.228,-0.212 -0.531,-0.317 -0.908,-0.317 -0.371,0 -0.691,0.109 -0.959,0.327 -0.268,0.218 -0.475,0.533 -0.618,0.944 -0.143,0.412 -0.215,0.909 -0.215,1.492 h 0.059 c 0.13,-0.202 0.287,-0.375 0.469,-0.52 0.182,-0.146 0.386,-0.256 0.61,-0.332 0.225,-0.077 0.462,-0.115 0.713,-0.115 0.417,0 0.797,0.103 1.143,0.308 0.346,0.205 0.621,0.489 0.828,0.853 0.207,0.362 0.31,0.778 0.31,1.247 0,0.452 -0.101,0.863 -0.303,1.233 -0.202,0.369 -0.487,0.664 -0.854,0.883 -0.368,0.221 -0.799,0.33 -1.294,0.33 z m 0,-0.816 c 0.293,0 0.557,-0.073 0.791,-0.22 0.234,-0.147 0.42,-0.343 0.557,-0.588 0.137,-0.246 0.205,-0.521 0.205,-0.823 0,-0.296 -0.066,-0.565 -0.198,-0.808 -0.132,-0.243 -0.313,-0.436 -0.544,-0.579 -0.231,-0.143 -0.493,-0.215 -0.786,-0.215 -0.221,0 -0.427,0.043 -0.618,0.13 -0.19,0.086 -0.357,0.205 -0.5,0.355 -0.143,0.152 -0.255,0.324 -0.334,0.518 -0.08,0.194 -0.12,0.396 -0.12,0.608 0,0.286 0.067,0.553 0.2,0.798 0.133,0.246 0.317,0.445 0.552,0.596 0.234,0.152 0.5,0.228 0.796,0.228 z"
         fill="#231f20"
         id="path38"
         style="stroke-width:1.15" />
      <path
         d="m 303.424,250.926 c -0.426,0 -0.809,-0.084 -1.147,-0.252 -0.338,-0.167 -0.609,-0.396 -0.811,-0.688 -0.202,-0.292 -0.311,-0.623 -0.327,-0.994 h 0.898 c 0.02,0.215 0.093,0.407 0.22,0.576 0.127,0.169 0.292,0.302 0.496,0.398 0.204,0.096 0.427,0.144 0.671,0.144 0.293,0 0.554,-0.068 0.784,-0.205 0.23,-0.137 0.409,-0.325 0.54,-0.566 0.131,-0.241 0.195,-0.515 0.195,-0.82 0,-0.312 -0.068,-0.593 -0.205,-0.84 -0.137,-0.247 -0.323,-0.442 -0.559,-0.583 -0.236,-0.143 -0.507,-0.213 -0.813,-0.213 -0.225,0 -0.453,0.036 -0.684,0.107 -0.231,0.071 -0.418,0.163 -0.562,0.273 l -0.869,-0.107 0.43,-3.604 h 3.828 v 0.815 h -3.047 l -0.249,2.124 h 0.039 c 0.15,-0.124 0.338,-0.226 0.566,-0.305 0.228,-0.08 0.467,-0.12 0.718,-0.12 0.332,0 0.639,0.061 0.92,0.181 0.281,0.12 0.526,0.291 0.735,0.51 0.208,0.221 0.37,0.479 0.486,0.774 0.116,0.295 0.173,0.62 0.173,0.972 0,0.466 -0.105,0.881 -0.315,1.245 -0.21,0.364 -0.497,0.651 -0.862,0.862 -0.365,0.209 -0.781,0.314 -1.25,0.314 z"
         fill="#231f20"
         id="path39"
         style="stroke-width:1.15" />
      <path
         d="m 307.399,247.61 v -0.776 h 4.712 v 0.776 z m 1.943,1.973 v -4.717 h 0.825 v 4.717 z"
         fill="#231f20"
         id="path40"
         style="stroke-width:1.15" />
    </g>
    <g
       id="g60"
       style="stroke-width:1.15">
      <rect
         x="30"
         y="56.304001"
         width="297.19299"
         height="67.392998"
         fill="none"
         id="rect40"
         style="stroke-width:1.15" />
      <path
         d="M 46.956,56.304 V 90.035 H 40.051 V 62.393 h -0.226 l -7.72,5.479 v -6.339 l 7.448,-5.229 z"
         fill="#f9a368"
         id="path41"
         style="stroke-width:1.15" />
      <path
         d="m 53.997,90.035 14.036,-27.8 V 62.008 H 51.688 v -5.705 h 23.567 v 5.796 L 61.174,90.035 Z"
         fill="#f9a368"
         id="path42"
         style="stroke-width:1.15" />
      <path
         d="m 88.521,72.399 c -1.6,0 -2.947,-0.339 -4.041,-1.019 -1.094,-0.679 -1.921,-1.585 -2.479,-2.717 -0.559,-1.132 -0.837,-2.361 -0.837,-3.689 v -1.766 c 0,-1.358 0.286,-2.6 0.86,-3.725 0.574,-1.124 1.407,-2.026 2.502,-2.705 1.094,-0.68 2.426,-1.019 3.996,-1.019 1.6,0 2.946,0.339 4.041,1.019 1.094,0.679 1.92,1.581 2.479,2.705 0.558,1.125 0.837,2.366 0.837,3.725 v 1.766 c 0,1.358 -0.283,2.6 -0.849,3.724 -0.566,1.125 -1.396,2.022 -2.49,2.694 -1.094,0.672 -2.434,1.007 -4.018,1.007 z m 0,-4.142 c 1.011,0 1.701,-0.34 2.071,-1.019 0.37,-0.68 0.555,-1.434 0.555,-2.264 v -1.766 c 0,-0.815 -0.178,-1.574 -0.532,-2.275 -0.354,-0.702 -1.052,-1.053 -2.094,-1.053 -0.996,0 -1.687,0.358 -2.071,1.075 -0.385,0.717 -0.578,1.468 -0.578,2.253 v 1.766 c 0,0.83 0.192,1.584 0.578,2.264 0.385,0.679 1.075,1.019 2.071,1.019 z M 86.438,90.035 109.62,56.304 h 4.686 L 91.124,90.035 h -4.687 z m 26.034,0.589 c -1.585,0 -2.924,-0.34 -4.019,-1.019 -1.094,-0.68 -1.924,-1.585 -2.49,-2.717 -0.566,-1.132 -0.849,-2.362 -0.849,-3.69 v -1.766 c 0,-1.358 0.287,-2.6 0.86,-3.724 0.573,-1.125 1.411,-2.026 2.513,-2.706 1.101,-0.679 2.43,-1.019 3.984,-1.019 1.615,0 2.965,0.34 4.052,1.019 1.086,0.68 1.909,1.581 2.467,2.706 0.558,1.124 0.838,2.365 0.838,3.724 v 1.766 c 0,1.344 -0.283,2.581 -0.849,3.713 -0.566,1.132 -1.396,2.034 -2.49,2.705 -1.094,0.672 -2.434,1.008 -4.018,1.008 z m 0,-4.144 c 1.011,0 1.701,-0.343 2.071,-1.029 0.37,-0.687 0.555,-1.438 0.555,-2.253 v -1.766 c 0,-0.815 -0.178,-1.573 -0.532,-2.275 -0.354,-0.702 -1.053,-1.053 -2.094,-1.053 -0.996,0 -1.683,0.354 -2.061,1.064 -0.377,0.709 -0.566,1.464 -0.566,2.264 v 1.766 c 0,0.815 0.188,1.566 0.566,2.253 0.378,0.687 1.064,1.029 2.061,1.029 z"
         fill="#f9a368"
         id="path43"
         style="stroke-width:1.15" />
      <path
         d="m 37.108,118.103 c -1.268,0 -2.366,-0.273 -3.294,-0.82 -0.928,-0.548 -1.643,-1.31 -2.145,-2.287 -0.502,-0.977 -0.752,-2.114 -0.752,-3.412 0,-1.313 0.25,-2.458 0.752,-3.436 0.502,-0.978 1.217,-1.739 2.145,-2.287 0.928,-0.547 2.026,-0.82 3.294,-0.82 1.275,0 2.375,0.273 3.3,0.82 0.924,0.548 1.637,1.31 2.139,2.287 0.502,0.977 0.753,2.122 0.753,3.436 0,1.298 -0.251,2.436 -0.753,3.412 -0.502,0.978 -1.215,1.739 -2.139,2.287 -0.925,0.547 -2.024,0.82 -3.3,0.82 z m 0,-2.671 c 0.604,0 1.109,-0.168 1.517,-0.504 0.407,-0.336 0.713,-0.796 0.917,-1.381 0.204,-0.585 0.306,-1.243 0.306,-1.976 0,-0.747 -0.102,-1.411 -0.306,-1.992 -0.204,-0.581 -0.509,-1.037 -0.917,-1.369 -0.408,-0.332 -0.914,-0.498 -1.517,-0.498 -0.603,0 -1.107,0.166 -1.511,0.498 -0.404,0.332 -0.707,0.788 -0.911,1.369 -0.204,0.581 -0.306,1.245 -0.306,1.992 0,0.732 0.102,1.391 0.306,1.976 0.204,0.585 0.507,1.045 0.911,1.381 0.404,0.336 0.908,0.504 1.511,0.504 z"
         fill="#f9a368"
         id="path44"
         style="stroke-width:1.15" />
      <path
         d="m 52.706,105.198 v 2.593 h -8.263 v -2.593 z m -6.033,12.656 v -13.628 c 0,-0.898 0.179,-1.646 0.538,-2.241 0.358,-0.597 0.847,-1.044 1.466,-1.342 0.619,-0.298 1.32,-0.447 2.105,-0.447 0.536,0 1.024,0.044 1.466,0.13 0.441,0.087 0.764,0.161 0.968,0.222 l -0.611,2.558 c -0.144,-0.038 -0.312,-0.075 -0.504,-0.113 -0.192,-0.037 -0.402,-0.057 -0.628,-0.057 -0.514,0 -0.877,0.123 -1.093,0.368 -0.215,0.245 -0.322,0.591 -0.322,1.035 v 13.516 h -3.385 z"
         fill="#f9a368"
         id="path45"
         style="stroke-width:1.15" />
      <path
         d="m 60.38,122.585 v -17.387 h 3.339 v 2.128 h 0.158 c 0.159,-0.331 0.383,-0.675 0.674,-1.029 0.291,-0.354 0.673,-0.653 1.149,-0.895 0.475,-0.241 1.071,-0.362 1.788,-0.362 0.936,0 1.792,0.241 2.57,0.725 0.777,0.483 1.398,1.207 1.862,2.173 0.464,0.967 0.696,2.17 0.696,3.611 0,1.403 -0.227,2.59 -0.679,3.56 -0.452,0.97 -1.068,1.706 -1.845,2.207 -0.777,0.502 -1.652,0.753 -2.626,0.753 -0.687,0 -1.268,-0.117 -1.743,-0.351 -0.476,-0.234 -0.862,-0.522 -1.16,-0.866 -0.298,-0.343 -0.526,-0.685 -0.685,-1.024 h -0.102 v 6.758 H 60.38 Z m 6.045,-7.244 c 0.589,0 1.085,-0.162 1.489,-0.487 0.403,-0.324 0.709,-0.773 0.917,-1.347 0.208,-0.574 0.312,-1.229 0.312,-1.97 0,-0.741 -0.104,-1.392 -0.312,-1.958 -0.208,-0.565 -0.511,-1.011 -0.911,-1.336 -0.4,-0.324 -0.898,-0.486 -1.494,-0.486 -0.581,0 -1.075,0.156 -1.482,0.47 -0.408,0.313 -0.717,0.751 -0.928,1.312 -0.211,0.562 -0.317,1.229 -0.317,1.998 0,0.763 0.107,1.429 0.322,1.998 0.215,0.57 0.526,1.013 0.934,1.33 0.407,0.317 0.898,0.476 1.471,0.476 z"
         fill="#f9a368"
         id="path46"
         style="stroke-width:1.15" />
      <path
         d="m 80.653,118.103 c -1.268,0 -2.366,-0.273 -3.294,-0.82 -0.928,-0.548 -1.643,-1.31 -2.145,-2.287 -0.502,-0.977 -0.752,-2.114 -0.752,-3.412 0,-1.313 0.25,-2.458 0.752,-3.436 0.502,-0.978 1.217,-1.739 2.145,-2.287 0.928,-0.547 2.026,-0.82 3.294,-0.82 1.275,0 2.375,0.273 3.3,0.82 0.924,0.548 1.637,1.31 2.139,2.287 0.502,0.977 0.753,2.122 0.753,3.436 0,1.298 -0.251,2.436 -0.753,3.412 -0.502,0.978 -1.215,1.739 -2.139,2.287 -0.925,0.547 -2.024,0.82 -3.3,0.82 z m 0,-2.671 c 0.604,0 1.109,-0.168 1.517,-0.504 0.407,-0.336 0.713,-0.796 0.917,-1.381 0.204,-0.585 0.306,-1.243 0.306,-1.976 0,-0.747 -0.102,-1.411 -0.306,-1.992 -0.204,-0.581 -0.509,-1.037 -0.917,-1.369 -0.408,-0.332 -0.914,-0.498 -1.517,-0.498 -0.603,0 -1.107,0.166 -1.511,0.498 -0.404,0.332 -0.707,0.788 -0.911,1.369 -0.204,0.581 -0.306,1.245 -0.306,1.992 0,0.732 0.102,1.391 0.306,1.976 0.204,0.585 0.507,1.045 0.911,1.381 0.404,0.336 0.908,0.504 1.511,0.504 z"
         fill="#f9a368"
         id="path47"
         style="stroke-width:1.15" />
      <path
         d="m 89.21,122.585 v -17.387 h 3.339 v 2.128 h 0.158 c 0.159,-0.331 0.383,-0.675 0.674,-1.029 0.291,-0.354 0.673,-0.653 1.149,-0.895 0.475,-0.241 1.071,-0.362 1.788,-0.362 0.936,0 1.792,0.241 2.57,0.725 0.777,0.483 1.398,1.207 1.862,2.173 0.464,0.967 0.696,2.17 0.696,3.611 0,1.403 -0.227,2.59 -0.679,3.56 -0.452,0.97 -1.068,1.706 -1.845,2.207 -0.777,0.502 -1.652,0.753 -2.626,0.753 -0.687,0 -1.268,-0.117 -1.743,-0.351 -0.476,-0.234 -0.862,-0.522 -1.16,-0.866 -0.298,-0.343 -0.526,-0.685 -0.685,-1.024 h -0.102 v 6.758 H 89.21 Z m 6.045,-7.244 c 0.589,0 1.085,-0.162 1.489,-0.487 0.403,-0.324 0.709,-0.773 0.917,-1.347 0.208,-0.574 0.312,-1.229 0.312,-1.97 0,-0.741 -0.104,-1.392 -0.312,-1.958 -0.208,-0.565 -0.511,-1.011 -0.911,-1.336 -0.4,-0.324 -0.898,-0.486 -1.494,-0.486 -0.581,0 -1.075,0.156 -1.482,0.47 -0.408,0.313 -0.717,0.751 -0.928,1.312 -0.211,0.562 -0.317,1.229 -0.317,1.998 0,0.763 0.107,1.429 0.322,1.998 0.215,0.57 0.526,1.013 0.934,1.33 0.407,0.317 0.898,0.476 1.471,0.476 z"
         fill="#f9a368"
         id="path48"
         style="stroke-width:1.15" />
      <path
         d="m 108.182,118.012 c -0.875,0 -1.641,-0.19 -2.298,-0.571 -0.656,-0.381 -1.164,-0.929 -1.522,-1.642 -0.358,-0.713 -0.538,-1.563 -0.538,-2.553 v -8.048 h 3.396 v 7.46 c 0,0.785 0.204,1.399 0.611,1.845 0.407,0.445 0.966,0.668 1.675,0.668 0.482,0 0.909,-0.104 1.279,-0.312 0.37,-0.207 0.658,-0.509 0.866,-0.905 0.207,-0.396 0.311,-0.873 0.311,-1.432 v -7.324 h 3.407 v 12.655 h -3.215 l -0.045,-3.158 h 0.192 c -0.332,1.064 -0.839,1.883 -1.522,2.456 -0.683,0.574 -1.549,0.86 -2.598,0.86 z"
         fill="#f9a368"
         id="path49"
         style="stroke-width:1.15" />
      <path
         d="m 121.652,100.988 v 16.865 h -3.396 v -16.865 z"
         fill="#f9a368"
         id="path50"
         style="stroke-width:1.15" />
      <path
         d="m 128.07,118.103 c -0.8,0 -1.519,-0.142 -2.156,-0.425 -0.638,-0.282 -1.14,-0.705 -1.505,-1.268 -0.366,-0.562 -0.549,-1.262 -0.549,-2.1 0,-0.702 0.13,-1.29 0.391,-1.766 0.261,-0.476 0.615,-0.856 1.064,-1.144 0.449,-0.286 0.958,-0.505 1.528,-0.656 0.569,-0.151 1.167,-0.257 1.794,-0.317 0.732,-0.075 1.322,-0.145 1.771,-0.209 0.449,-0.064 0.777,-0.166 0.985,-0.306 0.208,-0.14 0.311,-0.346 0.311,-0.617 v -0.057 c 0,-0.362 -0.075,-0.668 -0.226,-0.917 -0.151,-0.249 -0.375,-0.439 -0.674,-0.571 -0.298,-0.132 -0.658,-0.198 -1.081,-0.198 -0.438,0 -0.819,0.066 -1.144,0.198 -0.325,0.132 -0.588,0.308 -0.792,0.526 -0.204,0.219 -0.354,0.464 -0.453,0.736 l -3.113,-0.51 c 0.219,-0.739 0.581,-1.366 1.087,-1.879 0.505,-0.514 1.133,-0.905 1.884,-1.178 0.751,-0.271 1.598,-0.407 2.542,-0.407 0.679,0 1.339,0.081 1.981,0.243 0.641,0.163 1.217,0.413 1.726,0.753 0.509,0.34 0.913,0.783 1.211,1.33 0.298,0.547 0.447,1.202 0.447,1.964 v 8.523 h -3.215 v -1.755 h -0.113 c -0.204,0.393 -0.475,0.738 -0.815,1.036 -0.339,0.298 -0.749,0.534 -1.228,0.707 -0.479,0.174 -1.032,0.261 -1.658,0.261 z m 0.962,-2.389 c 0.536,0 1.006,-0.105 1.41,-0.316 0.403,-0.211 0.719,-0.498 0.945,-0.86 0.227,-0.362 0.34,-0.766 0.34,-1.211 v -1.37 c -0.098,0.075 -0.249,0.144 -0.453,0.204 -0.204,0.061 -0.43,0.113 -0.679,0.158 -0.249,0.045 -0.495,0.087 -0.736,0.125 -0.242,0.037 -0.457,0.067 -0.646,0.09 -0.415,0.061 -0.781,0.159 -1.098,0.295 -0.317,0.136 -0.562,0.314 -0.736,0.537 -0.174,0.223 -0.26,0.508 -0.26,0.854 0,0.325 0.083,0.599 0.249,0.821 0.166,0.223 0.392,0.391 0.679,0.503 0.287,0.113 0.615,0.17 0.984,0.17 z"
         fill="#f9a368"
         id="path51"
         style="stroke-width:1.15" />
      <path
         d="m 144.279,105.198 v 2.593 h -7.504 v -2.593 z m -5.761,-3.01 h 3.396 v 11.965 c 0,0.399 0.089,0.696 0.266,0.889 0.177,0.193 0.474,0.288 0.889,0.288 0.128,0 0.309,-0.017 0.543,-0.051 0.234,-0.034 0.412,-0.065 0.532,-0.096 l 0.487,2.546 c -0.377,0.113 -0.753,0.193 -1.126,0.238 -0.373,0.045 -0.73,0.067 -1.069,0.067 -1.268,0 -2.238,-0.309 -2.909,-0.928 -0.672,-0.619 -1.007,-1.506 -1.007,-2.66 v -12.259 z"
         fill="#f9a368"
         id="path52"
         style="stroke-width:1.15" />
      <path
         d="m 148.184,103.546 c -0.514,0 -0.951,-0.17 -1.313,-0.509 -0.362,-0.34 -0.543,-0.751 -0.543,-1.234 0,-0.483 0.181,-0.895 0.543,-1.233 0.362,-0.34 0.8,-0.51 1.313,-0.51 0.513,0 0.952,0.17 1.318,0.51 0.366,0.339 0.549,0.751 0.549,1.233 0,0.482 -0.183,0.895 -0.549,1.234 -0.366,0.339 -0.806,0.509 -1.318,0.509 z m -1.698,14.308 v -12.655 h 3.396 v 12.655 z"
         fill="#f9a368"
         id="path53"
         style="stroke-width:1.15" />
      <path
         d="m 158.428,118.103 c -1.268,0 -2.366,-0.273 -3.294,-0.82 -0.928,-0.548 -1.643,-1.31 -2.145,-2.287 -0.502,-0.977 -0.752,-2.114 -0.752,-3.412 0,-1.313 0.25,-2.458 0.752,-3.436 0.502,-0.978 1.217,-1.739 2.145,-2.287 0.928,-0.547 2.026,-0.82 3.294,-0.82 1.275,0 2.375,0.273 3.3,0.82 0.924,0.548 1.637,1.31 2.139,2.287 0.502,0.977 0.753,2.122 0.753,3.436 0,1.298 -0.251,2.436 -0.753,3.412 -0.502,0.978 -1.215,1.739 -2.139,2.287 -0.925,0.547 -2.024,0.82 -3.3,0.82 z m 0,-2.671 c 0.604,0 1.109,-0.168 1.517,-0.504 0.407,-0.336 0.713,-0.796 0.917,-1.381 0.204,-0.585 0.306,-1.243 0.306,-1.976 0,-0.747 -0.102,-1.411 -0.306,-1.992 -0.204,-0.581 -0.509,-1.037 -0.917,-1.369 -0.408,-0.332 -0.914,-0.498 -1.517,-0.498 -0.603,0 -1.107,0.166 -1.511,0.498 -0.404,0.332 -0.707,0.788 -0.911,1.369 -0.204,0.581 -0.306,1.245 -0.306,1.992 0,0.732 0.102,1.391 0.306,1.976 0.204,0.585 0.507,1.045 0.911,1.381 0.404,0.336 0.908,0.504 1.511,0.504 z"
         fill="#f9a368"
         id="path54"
         style="stroke-width:1.15" />
      <path
         d="m 170.381,110.53 v 7.323 h -3.396 v -12.655 h 3.204 l 0.057,3.158 h -0.204 c 0.332,-1.057 0.836,-1.873 1.511,-2.45 0.675,-0.577 1.549,-0.866 2.621,-0.866 0.875,0 1.639,0.19 2.292,0.571 0.653,0.382 1.158,0.929 1.517,1.642 0.359,0.713 0.538,1.564 0.538,2.553 v 8.048 h -3.396 v -7.459 c 0,-0.785 -0.202,-1.4 -0.605,-1.846 -0.404,-0.445 -0.964,-0.668 -1.681,-0.668 -0.475,0 -0.9,0.104 -1.273,0.312 -0.374,0.208 -0.664,0.508 -0.872,0.9 -0.208,0.392 -0.311,0.871 -0.311,1.438 z"
         fill="#f9a368"
         id="path55"
         style="stroke-width:1.15" />
      <path
         d="m 188.605,103.546 c -0.514,0 -0.951,-0.17 -1.313,-0.509 -0.362,-0.34 -0.543,-0.751 -0.543,-1.234 0,-0.483 0.181,-0.895 0.543,-1.233 0.362,-0.34 0.8,-0.51 1.313,-0.51 0.513,0 0.952,0.17 1.318,0.51 0.366,0.339 0.549,0.751 0.549,1.233 0,0.482 -0.183,0.895 -0.549,1.234 -0.366,0.339 -0.806,0.509 -1.318,0.509 z m -1.698,14.308 v -12.655 h 3.396 v 12.655 z"
         fill="#f9a368"
         id="path56"
         style="stroke-width:1.15" />
      <path
         d="m 198.215,118.103 c -1.019,0 -1.92,-0.146 -2.705,-0.436 -0.785,-0.291 -1.426,-0.713 -1.924,-1.268 -0.498,-0.555 -0.819,-1.225 -0.962,-2.01 l 3.158,-0.543 c 0.166,0.589 0.457,1.03 0.872,1.324 0.415,0.294 0.97,0.441 1.664,0.441 0.649,0 1.16,-0.123 1.534,-0.368 0.374,-0.245 0.56,-0.556 0.56,-0.934 0,-0.332 -0.134,-0.604 -0.402,-0.814 -0.268,-0.212 -0.677,-0.374 -1.228,-0.487 l -2.185,-0.453 c -1.223,-0.249 -2.136,-0.673 -2.739,-1.273 -0.604,-0.6 -0.906,-1.371 -0.906,-2.314 0,-0.814 0.223,-1.515 0.668,-2.1 0.445,-0.585 1.064,-1.036 1.856,-1.353 0.792,-0.317 1.724,-0.476 2.796,-0.476 0.996,0 1.86,0.138 2.592,0.413 0.731,0.275 1.324,0.666 1.777,1.172 0.453,0.506 0.754,1.102 0.906,1.788 l -3.011,0.532 c -0.128,-0.43 -0.375,-0.783 -0.741,-1.059 -0.366,-0.275 -0.858,-0.413 -1.477,-0.413 -0.559,0 -1.026,0.117 -1.404,0.351 -0.377,0.234 -0.566,0.548 -0.566,0.939 0,0.317 0.123,0.585 0.368,0.804 0.245,0.22 0.666,0.39 1.262,0.51 l 2.275,0.453 c 1.222,0.249 2.132,0.654 2.728,1.217 0.596,0.562 0.894,1.296 0.894,2.201 0,0.83 -0.242,1.557 -0.725,2.179 -0.483,0.623 -1.149,1.107 -1.998,1.455 -0.849,0.347 -1.828,0.521 -2.938,0.521 z"
         fill="#f9a368"
         id="path57"
         style="stroke-width:1.15" />
      <path
         d="m 217.956,118.08 c -0.853,0 -1.679,-0.144 -2.479,-0.431 -0.8,-0.286 -1.515,-0.748 -2.145,-1.387 -0.63,-0.637 -1.13,-1.484 -1.5,-2.541 -0.37,-1.056 -0.555,-2.357 -0.555,-3.905 0,-1.418 0.159,-2.686 0.476,-3.803 0.317,-1.117 0.773,-2.067 1.37,-2.853 0.596,-0.785 1.313,-1.381 2.15,-1.788 0.838,-0.408 1.773,-0.611 2.807,-0.611 1.109,0 2.09,0.217 2.943,0.65 0.853,0.435 1.541,1.019 2.065,1.755 0.524,0.735 0.839,1.567 0.945,2.496 h -3.396 c -0.143,-0.597 -0.439,-1.066 -0.888,-1.409 -0.449,-0.344 -1.006,-0.516 -1.67,-0.516 -0.739,0 -1.364,0.219 -1.873,0.656 -0.509,0.438 -0.893,1.059 -1.149,1.862 -0.257,0.804 -0.385,1.761 -0.385,2.869 h 0.113 c 0.257,-0.49 0.598,-0.912 1.024,-1.268 0.426,-0.354 0.915,-0.624 1.466,-0.81 0.551,-0.185 1.132,-0.277 1.743,-0.277 0.996,0 1.885,0.232 2.666,0.696 0.781,0.465 1.398,1.107 1.851,1.931 0.453,0.822 0.679,1.762 0.679,2.818 0,1.14 -0.264,2.15 -0.792,3.033 -0.528,0.883 -1.26,1.575 -2.196,2.077 -0.936,0.502 -2.026,0.753 -3.271,0.753 z m -0.023,-2.739 c 0.559,0 1.057,-0.134 1.494,-0.402 0.438,-0.268 0.785,-0.63 1.042,-1.086 0.256,-0.457 0.385,-0.972 0.385,-1.546 0,-0.565 -0.125,-1.075 -0.374,-1.527 -0.249,-0.453 -0.593,-0.813 -1.03,-1.081 -0.437,-0.268 -0.936,-0.402 -1.494,-0.402 -0.415,0 -0.8,0.079 -1.154,0.238 -0.355,0.158 -0.666,0.377 -0.934,0.656 -0.268,0.279 -0.475,0.6 -0.623,0.962 -0.147,0.362 -0.221,0.751 -0.221,1.166 0,0.551 0.125,1.055 0.374,1.511 0.249,0.457 0.594,0.823 1.036,1.099 0.442,0.276 0.941,0.413 1.5,0.413 z"
         fill="#f9a368"
         id="path58"
         style="stroke-width:1.15" />
      <path
         d="m 232.376,118.08 c -1.154,0 -2.183,-0.214 -3.084,-0.64 -0.902,-0.427 -1.615,-1.013 -2.139,-1.76 -0.525,-0.747 -0.802,-1.601 -0.832,-2.559 h 3.373 c 0.022,0.438 0.157,0.824 0.402,1.16 0.245,0.336 0.568,0.597 0.968,0.781 0.4,0.184 0.838,0.277 1.313,0.277 0.566,0 1.066,-0.126 1.5,-0.379 0.434,-0.253 0.775,-0.606 1.024,-1.059 0.249,-0.453 0.374,-0.978 0.374,-1.573 0,-0.595 -0.126,-1.127 -0.379,-1.591 -0.253,-0.464 -0.6,-0.824 -1.042,-1.081 -0.441,-0.256 -0.953,-0.385 -1.534,-0.385 -0.505,0 -0.99,0.101 -1.455,0.3 -0.464,0.2 -0.824,0.47 -1.081,0.81 l -3.102,-0.543 0.804,-8.852 h 10.21 v 2.852 h -7.346 l -0.43,4.268 h 0.09 c 0.302,-0.407 0.749,-0.743 1.341,-1.007 0.592,-0.265 1.251,-0.396 1.975,-0.396 0.762,0 1.466,0.136 2.111,0.407 0.645,0.271 1.206,0.655 1.681,1.149 0.476,0.494 0.845,1.081 1.109,1.76 0.264,0.68 0.396,1.423 0.396,2.229 0,1.133 -0.263,2.136 -0.787,3.012 -0.524,0.875 -1.256,1.563 -2.196,2.065 -0.94,0.502 -2.028,0.753 -3.266,0.753 z"
         fill="#f9a368"
         id="path59"
         style="stroke-width:1.15" />
      <path
         d="m 241.76,110.858 v -2.717 h 11.603 v 2.717 z m 4.358,4.449 v -11.613 h 2.875 v 11.613 z"
         fill="#f9a368"
         id="path60"
         style="stroke-width:1.15" />
    </g>
    <rect
       x="30"
       y="164.37601"
       width="10"
       height="45.624001"
       rx="1.005"
       ry="1.005"
       fill="#d2d2cf"
       id="rect60"
       style="stroke-width:1.15" />
    <rect
       x="47.058998"
       y="166.95599"
       width="10"
       height="43.043999"
       rx="1.005"
       ry="1.005"
       fill="#d2d2cf"
       id="rect61"
       style="stroke-width:1.15" />
    <rect
       x="64.117996"
       y="170.92999"
       width="10"
       height="39.07"
       rx="1.005"
       ry="1.005"
       fill="#d2d2cf"
       id="rect62"
       style="stroke-width:1.15" />
    <rect
       x="81.176003"
       y="171.015"
       width="10"
       height="38.985001"
       rx="1.005"
       ry="1.005"
       fill="#d2d2cf"
       id="rect63"
       style="stroke-width:1.15" />
    <rect
       x="98.235001"
       y="152.62199"
       width="10"
       height="57.377998"
       rx="1.005"
       ry="1.005"
       fill="#d2d2cf"
       id="rect64"
       style="stroke-width:1.15" />
    <rect
       x="115.294"
       y="135.159"
       width="10"
       height="74.841003"
       rx="1.005"
       ry="1.005"
       fill="#d2d2cf"
       id="rect65"
       style="stroke-width:1.15" />
    <rect
       x="132.353"
       y="130"
       width="10"
       height="80"
       rx="1.005"
       ry="1.005"
       fill="#d2d2cf"
       id="rect66"
       style="stroke-width:1.15" />
    <rect
       x="149.412"
       y="138.71001"
       width="10"
       height="71.290001"
       rx="1.005"
       ry="1.005"
       fill="#d2d2cf"
       id="rect67"
       style="stroke-width:1.15" />
    <rect
       x="166.47099"
       y="156.59599"
       width="10"
       height="53.403999"
       rx="1.005"
       ry="1.005"
       fill="#d2d2cf"
       id="rect68"
       style="stroke-width:1.15" />
    <rect
       x="183.52901"
       y="165.26401"
       width="10"
       height="44.736"
       rx="1.005"
       ry="1.005"
       fill="#d2d2cf"
       id="rect69"
       style="stroke-width:1.15" />
    <rect
       x="200.588"
       y="170.08501"
       width="10"
       height="39.915001"
       rx="1.005"
       ry="1.005"
       fill="#d2d2cf"
       id="rect70"
       style="stroke-width:1.15" />
    <rect
       x="217.647"
       y="161.797"
       width="10"
       height="48.202999"
       rx="1.005"
       ry="1.005"
       fill="#d2d2cf"
       id="rect71"
       style="stroke-width:1.15" />
    <rect
       x="234.70599"
       y="159.937"
       width="10"
       height="50.063"
       rx="1.005"
       ry="1.005"
       fill="#d2d2cf"
       id="rect72"
       style="stroke-width:1.15" />
    <rect
       x="251.765"
       y="165.51801"
       width="10"
       height="44.481998"
       rx="1.005"
       ry="1.005"
       fill="#f9a368"
       id="rect73"
       style="stroke-width:1.15" />
    <rect
       x="268.82401"
       y="174.989"
       width="10"
       height="35.011002"
       rx="1.005"
       ry="1.005"
       fill="#f9a368"
       id="rect74"
       style="stroke-width:1.15" />
    <rect
       x="285.88199"
       y="181.71201"
       width="10"
       height="28.288"
       rx="1.005"
       ry="1.005"
       fill="#f9a368"
       id="rect75"
       style="stroke-width:1.15" />
    <rect
       x="302.94101"
       y="193.04401"
       width="10"
       height="16.955999"
       rx="1.005"
       ry="1.005"
       fill="#f9a368"
       id="rect76"
       style="stroke-width:1.15" />
    <rect
       x="320"
       y="191.987"
       width="10"
       height="18.013"
       rx="1.005"
       ry="1.005"
       fill="#f9a368"
       id="rect77"
       style="stroke-width:1.15" />
    <line
       x1="30"
       y1="220"
       x2="108.235"
       y2="220"
       fill="none"
       stroke="#d2d2cf"
       stroke-miterlimit="10"
       stroke-width="3.45"
       id="line77" />
    <line
       x1="115.294"
       y1="220"
       x2="244.70599"
       y2="220"
       fill="none"
       stroke="#d2d2cf"
       stroke-miterlimit="10"
       stroke-width="3.45"
       id="line78" />
    <line
       x1="251.79401"
       y1="220"
       x2="329.91299"
       y2="220"
       fill="none"
       stroke="#f9a368"
       stroke-miterlimit="10"
       stroke-width="3.45"
       id="line79" />
  </g>
</svg>
