<?xml version="1.0" encoding="UTF-8" standalone="no"?>
<svg
   id="Layer_1"
   data-name="Layer 1"
   width="360"
   height="240"
   viewBox="0 0 360 240"
   version="1.1"
   sodipodi:docname="Northfield-commuters.svg"
   inkscape:version="1.4.2 (1:1.4.2+202505120738+ebf0e940d0)"
   xmlns:inkscape="http://www.inkscape.org/namespaces/inkscape"
   xmlns:sodipodi="http://sodipodi.sourceforge.net/DTD/sodipodi-0.dtd"
   xmlns="http://www.w3.org/2000/svg"
   xmlns:svg="http://www.w3.org/2000/svg">
  <defs
     id="defs21" />
  <sodipodi:namedview
     id="namedview21"
     pagecolor="#ffffff"
     bordercolor="#666666"
     borderopacity="1.0"
     inkscape:showpageshadow="2"
     inkscape:pageopacity="0.0"
     inkscape:pagecheckerboard="0"
     inkscape:deskcolor="#d1d1d1"
     inkscape:zoom="2.4041631"
     inkscape:cx="146.4127"
     inkscape:cy="146.82864"
     inkscape:window-width="1920"
     inkscape:window-height="1016"
     inkscape:window-x="0"
     inkscape:window-y="0"
     inkscape:window-maximized="1"
     inkscape:current-layer="Layer_1" />
  <rect
     id="rect2"
     x="20"
     y="20"
     width="320"
     height="200"
     rx="20.8009"
     ry="20.8009"
     fill="#f3f2f3" />
  <text
     transform="translate(39.0039,64.595)"
     fill="#f9a26a"
     font-family="Inter-Bold, Inter"
     font-variation-settings="'opsz' 14, 'wght' 700"
     font-weight="700"
     id="text4"><tspan
       font-size="37px"
       id="tspan2"><tspan
         x="0"
         y="0"
         id="tspan1">80%</tspan></tspan><tspan
       font-size="21px"
       id="tspan4"><tspan
         x="0"
         y="25.200199"
         id="tspan3">of residents commute by car</tspan></tspan></text>
  <g
     id="g5">
    <path
       d="M158.8205,158h2c.6,0,1-.4,1-1v-3c0-.9-.7-1.7-1.5-1.9-1.8-.5-4.5-1.1-4.5-1.1,0,0-1.3-1.4-2.2-2.3-.5-.4-1.1-.7-1.8-.7h-7c-.6,0-1.1.4-1.4.9l-1.4,2.9c-.1324.3862-.2.7917-.2,1.2v4c0,.6.4,1,1,1h2"
       fill="none"
       stroke="#010101"
       stroke-linecap="round"
       stroke-linejoin="round"
       id="path4" />
    <circle
       cx="146.8205"
       cy="158"
       r="2"
       fill="none"
       stroke="#010101"
       stroke-linecap="round"
       stroke-linejoin="round"
       id="circle4" />
    <path
       d="M148.8205,158h6"
       fill="none"
       stroke="#010101"
       stroke-linecap="round"
       stroke-linejoin="round"
       id="path5" />
    <circle
       cx="156.8205"
       cy="158"
       r="2"
       fill="none"
       stroke="#010101"
       stroke-linecap="round"
       stroke-linejoin="round"
       id="circle5" />
  </g>
  <g
     id="g8">
    <circle
       cx="311.6471"
       cy="197.5294"
       r="2.4706"
       fill="none"
       stroke="#010101"
       stroke-linecap="round"
       stroke-linejoin="round"
       id="circle6" />
    <circle
       cx="302.4706"
       cy="197.5294"
       r="2.4706"
       fill="none"
       stroke="#010101"
       stroke-linecap="round"
       stroke-linejoin="round"
       id="circle7" />
    <circle
       cx="309.1765"
       cy="188.7059"
       r=".7059"
       fill="none"
       stroke="#010101"
       stroke-linecap="round"
       stroke-linejoin="round"
       id="circle8" />
    <path
       d="M307.0588,197.5294v-2.4706l-2.1176-2.1176,2.8235-2.1176,1.4118,2.1176h1.4118"
       fill="none"
       stroke="#010101"
       stroke-linecap="round"
       stroke-linejoin="round"
       id="path8" />
  </g>
  <g
     id="g14">
    <path
       d="M277.7464,148.6738v2.3889c0,1.3532,1.097,2.4502,2.4502,2.4502s2.4502-1.097,2.4502-2.4502v-2.3889"
       fill="none"
       stroke="#010101"
       stroke-linecap="round"
       stroke-linejoin="round"
       id="path9" />
    <path
       d="M278.359,155.963l-.6125-.6125"
       fill="none"
       stroke="#010101"
       stroke-linecap="round"
       stroke-linejoin="round"
       id="path10" />
    <path
       d="M282.0342,155.963l.6125-.6125"
       fill="none"
       stroke="#010101"
       stroke-linecap="round"
       stroke-linejoin="round"
       id="path11" />
    <path
       d="M278.359,158.4132c-1.7151,0-3.0627-1.3476-3.0627-3.0627v-2.4502c0-2.7064,2.194-4.9003,4.9003-4.9003s4.9003,2.194,4.9003,4.9003v2.4502c0,1.7151-1.3476,3.0627-3.0627,3.0627h-3.6753Z"
       fill="none"
       stroke="#010101"
       stroke-linecap="round"
       stroke-linejoin="round"
       id="path12" />
    <path
       d="M277.7464,158.4132l-1.2251,1.8376"
       fill="none"
       stroke="#010101"
       stroke-linecap="round"
       stroke-linejoin="round"
       id="path13" />
    <path
       d="M282.6468,158.4132l1.2251,1.8376"
       fill="none"
       stroke="#010101"
       stroke-linecap="round"
       stroke-linejoin="round"
       id="path14" />
  </g>
  <g
     id="g18">
    <circle
       cx="307.851"
       cy="150.1669"
       r=".7059"
       fill="none"
       stroke="#010101"
       stroke-linecap="round"
       stroke-linejoin="round"
       id="circle14" />
    <path
       d="M310.7886,160.2508l-.82-2.0696-2.1176-2.1176v-3.8445l1.0905,2.1176,1.2929.6542"
       fill="none"
       stroke="#010101"
       stroke-linecap="round"
       stroke-linejoin="round"
       id="path15" />
    <path
       d="M305.7253,160.2508l1.891-1.3258.2348-2.8614"
       fill="none"
       stroke="#010101"
       stroke-linecap="round"
       stroke-linejoin="round"
       id="path16" />
    <path
       d="M310.7886,160.2508l-.82-2.0696-2.1176-2.1176v-3.8445l1.0905,2.1176,1.2929.6542"
       fill="none"
       stroke="#010101"
       stroke-linecap="round"
       stroke-linejoin="round"
       id="path17" />
    <path
       d="M307.851,152.2191l-1.5681,1.7929-.1329,1.4429"
       fill="none"
       stroke="#010101"
       stroke-linecap="round"
       stroke-linejoin="round"
       id="path18" />
  </g>
  <rect
     x="40"
     y="167.5"
     width="223.641"
     height="10"
     rx="1.7723"
     ry="1.7723"
     fill="#f9a368"
     stroke="#f2f2f3"
     stroke-miterlimit="10"
     id="rect18" />
  <rect
     x="263.641"
     y="167.5"
     width="33.1112"
     height="10"
     rx="1.7723"
     ry="1.7723"
     fill="#d2d2cf"
     stroke="#f2f2f3"
     stroke-miterlimit="10"
     id="rect19" />
  <rect
     x="296.7522"
     y="167.5"
     width="23.0095"
     height="10"
     rx="1.7723"
     ry="1.7723"
     fill="#d2d2cf"
     stroke="#f2f2f3"
     stroke-miterlimit="10"
     id="rect20" />
  <rect
     x="329.4893"
     y="165"
     width=".5107"
     height="15"
     fill="#d2d2cf"
     stroke="#f2f2f3"
     stroke-miterlimit="10"
     id="rect21" />
  <polyline
     points="320 167.5 320 200 316.1093 200"
     fill="none"
     stroke="#bdbec1"
     stroke-miterlimit="10"
     stroke-width=".25"
     id="polyline21" />
</svg>
