<?xml version="1.0" encoding="UTF-8" standalone="no"?>
<svg
   width="720"
   viewBox="0 0 2250.0001 1687.5"
   version="1.2"
   height="540"
   id="svg4442"
   sodipodi:docname="northfield-land-use-720.svg"
   xml:space="preserve"
   inkscape:version="1.4.2 (1:1.4.2+202505120738+ebf0e940d0)"
   xmlns:inkscape="http://www.inkscape.org/namespaces/inkscape"
   xmlns:sodipodi="http://sodipodi.sourceforge.net/DTD/sodipodi-0.dtd"
   xmlns:xlink="http://www.w3.org/1999/xlink"
   xmlns="http://www.w3.org/2000/svg"
   xmlns:svg="http://www.w3.org/2000/svg"
   xmlns:rdf="http://www.w3.org/1999/02/22-rdf-syntax-ns#"
   xmlns:cc="http://creativecommons.org/ns#"
   xmlns:dc="http://purl.org/dc/elements/1.1/"><sodipodi:namedview
     id="namedview4442"
     pagecolor="#ffffff"
     bordercolor="#666666"
     borderopacity="1.0"
     inkscape:showpageshadow="2"
     inkscape:pageopacity="0.0"
     inkscape:pagecheckerboard="0"
     inkscape:deskcolor="#d1d1d1"
     inkscape:document-units="mm"
     inkscape:zoom="1.4142136"
     inkscape:cx="236.17367"
     inkscape:cy="366.98842"
     inkscape:window-width="1920"
     inkscape:window-height="1016"
     inkscape:window-x="0"
     inkscape:window-y="0"
     inkscape:window-maximized="1"
     inkscape:current-layer="svg4442"
     showgrid="false"><inkscape:grid
       id="grid8"
       units="px"
       originx="0"
       originy="0"
       spacingx="62.500001"
       spacingy="62.500001"
       empcolor="#0099e5"
       empopacity="0.30196078"
       color="#0099e5"
       opacity="0.14901961"
       empspacing="5"
       enabled="true"
       visible="false" /></sodipodi:namedview><defs
     id="defs1" /><metadata
     id="metadata4442"><rdf:RDF><rdf:Description
         dc:date="2026-02-11T12:35:07"
         dc:description=""
         dc:identifier=""
         dc:format="image/svg+xml"
         dc:title=""><dc:creator><rdf:Bag><rdf:li>P Gorn</rdf:li></rdf:Bag></dc:creator><dc:publisher><rdf:Bag><rdf:li>QGIS 3.32.2-Lima</rdf:li></rdf:Bag></dc:publisher><dc:subject><rdf:Bag /></dc:subject></rdf:Description><cc:Work
         rdf:about=""><dc:format>image/svg+xml</dc:format><dc:date>2026-02-11T12:35:07</dc:date><dc:identifier /><dc:description /><dc:creator><cc:Agent><dc:title>P Gorn</dc:title></cc:Agent></dc:creator><dc:publisher><cc:Agent><dc:title>QGIS 3.32.2-Lima</dc:title></cc:Agent></dc:publisher></cc:Work></rdf:RDF></metadata><image
     width="2531.25"
     height="1687.5"
     preserveAspectRatio="none"
     xlink:href="northfield-land-use-qgis.png"
     id="image1"
     x="-140.62497"
     y="-6.6613381e-14"
     style="stroke-width:0.426667" /><text
     xml:space="preserve"
     style="font-style:normal;font-variant:normal;font-weight:normal;font-stretch:normal;font-size:46.875px;line-height:0.95;font-family:'Inter 24pt';-inkscape-font-specification:'Inter 24pt, Normal';font-variant-ligatures:none;font-variant-caps:normal;font-variant-numeric:normal;font-variant-east-asian:normal;fill:#2b83bf;fill-opacity:1;stroke-width:3.125"
     x="1155.5276"
     y="804.13055"
     id="text4442"><tspan
       sodipodi:role="line"
       id="tspan4442"
       style="font-style:normal;font-variant:normal;font-weight:bold;font-stretch:normal;font-size:46.875px;font-family:'Inter 24pt';-inkscape-font-specification:'Inter 24pt, Bold';font-variant-ligatures:none;font-variant-caps:normal;font-variant-numeric:normal;font-variant-east-asian:normal;fill:#2b83bf;fill-opacity:1;stroke-width:3.125"
       x="1155.5276"
       y="804.13055">Northfield Station</tspan></text><text
     xml:space="preserve"
     style="font-style:normal;font-variant:normal;font-weight:normal;font-stretch:normal;font-size:40.625px;line-height:0.95;font-family:'Inter 24pt';-inkscape-font-specification:'Inter 24pt, Normal';font-variant-ligatures:none;font-variant-caps:normal;font-variant-numeric:normal;font-variant-east-asian:normal;fill:#2b83bf;fill-opacity:1;stroke-width:3.125"
     x="757.22003"
     y="1121.3059"
     id="text4442-6"
     transform="rotate(-26.748961)"><tspan
       sodipodi:role="line"
       id="tspan4442-0"
       style="font-style:normal;font-variant:normal;font-weight:normal;font-stretch:normal;font-size:40.625px;font-family:'Inter 24pt';-inkscape-font-specification:'Inter 24pt, Normal';font-variant-ligatures:none;font-variant-caps:normal;font-variant-numeric:normal;font-variant-east-asian:normal;fill:#2b83bf;fill-opacity:1;stroke-width:3.125"
       x="757.22003"
       y="1121.3059">ION Light Rail</tspan></text><text
     xml:space="preserve"
     style="font-style:normal;font-variant:normal;font-weight:normal;font-stretch:normal;font-size:60.8333px;line-height:0.95;font-family:'Inter 24pt';-inkscape-font-specification:'Inter 24pt, Normal';font-variant-ligatures:none;font-variant-caps:normal;font-variant-numeric:normal;font-variant-east-asian:normal;fill:#e0cce4;fill-opacity:1;stroke-width:3.125"
     id="text4442-5"
     y="2237.4651"
     x="683.36151"><tspan
       sodipodi:role="line"
       style="font-style:normal;font-variant:normal;font-weight:normal;font-stretch:normal;font-size:60.8333px;font-family:'Inter 24pt';-inkscape-font-specification:'Inter 24pt, Normal';font-variant-ligatures:none;font-variant-caps:normal;font-variant-numeric:normal;font-variant-east-asian:normal;fill:#e0cce4;fill-opacity:1;stroke-width:3.125"
       x="683.36151"
       y="2237.4651"
       id="tspan4443" /></text><g
     id="text4442-5-2"
     style="font-size:46.875px;line-height:0.95;font-family:'Inter 24pt';-inkscape-font-specification:'Inter 24pt, Normal';font-variant-ligatures:none;fill:#feebac;stroke-width:2.8534"
     transform="matrix(0.72203724,-0.82346445,0.82346445,0.72203724,-346.15867,1028.926)"
     aria-label="Residential     Employment / Industrial    Surface Parking   "><path
       style="font-weight:bold;fill:#edce6c;stroke-width:2.8534"
       d="m 299.97654,818.5705 34.09748,-0.63481 0.25094,13.47881 q 0.072,3.86743 -1.2495,6.66198 -1.3215,2.79455 -3.78861,4.30558 -2.46669,1.53392 -5.87643,1.5974 -3.38687,0.063 -5.86403,-1.4246 -2.47715,-1.48766 -3.85727,-4.30059 -1.35723,-2.81336 -1.43008,-6.72656 l -0.16786,-9.01638 5.6524,-0.10524 0.15849,8.51293 q 0.0371,1.99093 0.68007,3.3296 0.66633,1.36112 1.84663,2.0488 1.20319,0.68726 2.85085,0.65658 1.67055,-0.0311 2.84732,-0.76266 1.17677,-0.73157 1.79197,-2.11655 0.61519,-1.38498 0.57813,-3.37591 l -0.10524,-5.6524 -28.28489,0.52659 z m 0.3566,19.15409 15.29773,-8.29706 0.13932,7.48314 -15.29475,8.45725 z m 0.38973,21.6843 q -0.20224,-3.77113 1.24932,-6.62243 1.47442,-2.85252 4.2733,-4.5154 2.82174,-1.66412 6.66143,-1.87003 3.79399,-0.20347 6.77751,1.14932 2.98475,1.37565 4.77497,3.98433 1.79144,2.63154 1.98387,6.21982 0.1385,2.58266 -0.61356,4.80049 -0.72798,2.23946 -2.28777,3.92759 -1.55978,1.68812 -3.86608,2.70572 -2.3063,1.01761 -5.30035,1.17817 l -1.85128,0.0993 -1.14724,-21.3926 4.2968,-0.23042 0.97074,18.10143 -1.24089,-3.05072 q 1.89699,-0.10174 3.25685,-0.81645 1.35986,-0.71472 2.04912,-1.9665 0.68927,-1.25178 0.59611,-2.98879 -0.0919,-1.71415 -0.93519,-2.90666 -0.81919,-1.17089 -2.22606,-1.76015 -1.38401,-0.59049 -3.18958,-0.49366 l -2.99405,0.16056 q -2.01127,0.10786 -3.43601,0.89482 -1.40189,0.78574 -2.10911,2.13017 -0.68314,1.36605 -0.58753,3.14877 0.0686,1.2799 0.48825,2.26592 0.41962,0.98603 1.14205,1.63492 0.72365,0.67174 1.67788,0.94146 l -0.17188,6.19791 q -2.29087,-0.40433 -4.11245,-1.8882 -1.7975,-1.46223 -2.88489,-3.78771 -1.08617,-2.30262 -1.24428,-5.25096 z m 1.78025,25.81809 q -0.26478,-3.10151 0.44107,-5.59674 0.72864,-2.49717 2.3581,-4.12942 1.6314,-1.60945 4.08992,-2.14093 l 1.03376,6.45861 q -1.61472,0.45945 -2.40288,1.72125 -0.78817,1.2618 -0.6149,3.29146 0.16354,1.91564 0.96395,2.94994 0.82321,1.03235 1.96348,0.93501 0.98062,-0.0837 1.50347,-0.95532 0.5476,-0.85075 0.73254,-2.45157 l 0.47584,-4.38222 q 0.42411,-3.64272 2.04717,-5.619 1.64586,-1.97822 4.4509,-2.21768 2.37175,-0.20247 4.21397,0.92666 1.84417,1.15193 2.97776,3.39825 1.15835,2.26717 1.42896,5.4371 0.26283,3.0787 -0.4775,5.43905 -0.71752,2.35839 -2.29219,3.82517 -1.57272,1.48957 -3.87744,1.93901 l -1.00456,-6.11653 q 1.37554,-0.3012 2.16955,-1.49458 0.81681,-1.19533 0.66106,-3.01975 -0.14601,-1.7104 -0.96728,-2.71994 -0.79652,-0.98869 -1.91398,-0.89329 -0.95782,0.0818 -1.53212,0.88885 -0.54954,0.82794 -0.73448,2.42876 l -0.50004,4.63697 q -0.43912,3.73589 -1.93119,5.63207 -1.49012,1.91898 -4.18114,2.14871 -2.46297,0.21026 -4.40809,-1.04791 -1.94512,-1.25818 -3.18357,-3.65634 -1.21369,-2.3773 -1.49014,-5.61565 z m 1.9662,15.01571 24.6677,-2.66076 0.72901,6.75859 -24.6677,2.66076 z m 28.17134,0.36842 q -0.17428,-1.61569 0.73193,-2.81844 0.90621,-1.20275 2.40812,-1.36476 1.5019,-0.162 2.621,0.8223 1.14184,0.98184 1.31366,2.57477 0.17428,1.61569 -0.73193,2.81844 -0.88345,1.2003 -2.38536,1.3623 -1.50191,0.16201 -2.64376,-0.81983 -1.14184,-0.98185 -1.31366,-2.57478 z M 306.4763,921.561 q -0.39958,-3.01778 0.8339,-5.55917 1.23348,-2.54138 3.91518,-4.25865 2.68471,-1.69458 6.65549,-2.22034 3.97077,-0.52576 6.9843,0.43741 3.03922,0.98286 4.86891,3.11865 1.82969,2.13579 2.22025,5.08551 0.24035,1.81521 -0.14664,3.25173 -0.3613,1.4562 -1.18509,2.55806 -0.80111,1.09886 -1.87719,1.86472 l 0.015,0.11345 12.95607,-1.7155 0.8923,6.73898 -33.80832,4.4765 -0.88028,-6.64821 3.85733,-0.51074 -0.021,-0.15883 q -1.32607,-0.42471 -2.43394,-1.29389 -1.10487,-0.84648 -1.85539,-2.15547 -0.75052,-1.30899 -0.99087,-3.12421 z m 5.7207,1.18192 q 0.22532,1.70177 1.29817,2.82955 1.07285,1.12778 2.79667,1.59217 1.74651,0.46139 3.94745,0.16996 2.22364,-0.29442 3.74451,-1.18844 1.54356,-0.89702 2.28592,-2.26515 0.74537,-1.34544 0.51704,-3.06989 -0.22232,-1.67907 -1.29216,-2.78417 -1.04415,-1.0854 -2.76497,-1.5271 -1.69512,-0.42202 -3.94145,-0.12459 -2.24632,0.29744 -3.81858,1.15208 -1.54656,0.87433 -2.27225,2.19408 -0.72268,1.34243 -0.50035,3.0215 z m -1.27935,29.11093 q -0.61884,-3.7255 0.50786,-6.72008 1.14927,-2.99832 3.74666,-4.96109 2.61997,-1.96653 6.41321,-2.59662 3.74808,-0.6226 6.86313,0.39128 3.11879,1.03646 5.18703,3.43072 2.07199,2.41683 2.66083,5.96171 0.42382,2.5514 -0.0779,4.83891 -0.47536,2.30633 -1.8385,4.15689 -1.36313,1.85056 -3.54248,3.11744 -2.17934,1.26688 -5.13716,1.7582 l -1.82889,0.3038 -3.51053,-21.13376 4.24482,-0.7051 2.97045,17.88241 -1.57128,-2.89444 q 1.87404,-0.3113 3.14633,-1.17229 1.27229,-0.86099 1.81861,-2.18144 0.54632,-1.32044 0.26128,-3.03643 -0.2813,-1.69341 -1.25151,-2.78515 -0.94388,-1.0729 -2.40737,-1.50266 -1.44092,-0.4335 -3.22464,-0.1372 l -2.95783,0.49132 q -1.98693,0.33005 -3.31571,1.27003 -1.30619,0.93623 -1.86009,2.35074 -0.52757,1.43334 -0.23502,3.19449 0.21003,1.26441 0.73632,2.19787 0.52628,0.93345 1.31616,1.4983 0.79363,0.58743 1.77187,0.74976 l 0.51592,6.17879 q -2.32156,-0.14801 -4.29634,-1.4209 -1.94845,-1.25407 -3.28682,-3.44474 -1.33462,-2.16809 -1.81844,-5.08076 z m 18.2918,19.37138 -13.78084,2.75409 -1.33218,-6.66598 24.32969,-4.86226 1.28733,6.44153 -6.20812,1.28737 -0.16148,-0.808 q 3.35303,0.42692 5.48943,2.12398 2.16332,1.71501 2.80475,4.92455 0.51134,2.55866 -0.22961,4.69071 -0.71851,2.12755 -2.62195,3.58163 -1.87651,1.47203 -4.86161,2.0686 l -15.3295,3.06359 -1.33218,-6.66598 14.13994,-2.82585 q 2.35666,-0.47098 3.40275,-1.89376 1.04608,-1.42278 0.62444,-3.53255 -0.27809,-1.39155 -1.07695,-2.35225 -0.79437,-0.93827 -2.10503,-1.30653 -1.28822,-0.37276 -3.03888,-0.0229 z m 17.72059,31.25057 -5.15489,1.1753 -3.4597,-15.17454 5.15489,-1.17528 z m 3.60894,-12.79529 1.50599,6.6054 -23.09658,5.26589 q -1.20504,0.2747 -1.60128,0.905 -0.37392,0.6252 -0.0839,1.8972 0.11193,0.4909 0.31938,1.1948 0.21252,0.7263 0.32642,1.1229 l -4.99127,1.584 q -0.34446,-0.7901 -0.6384,-1.8734 -0.31116,-1.0558 -0.55028,-2.1047 -0.8751,-3.8383 0.34378,-6.11157 1.21889,-2.27332 4.52159,-3.02631 z m -26.87279,22.06589 24.09048,-5.935 1.62611,6.6004 -24.09048,5.935 z m 27.96767,-3.4015 q -0.38873,-1.5778 0.34853,-2.8909 0.73726,-1.3132 2.20402,-1.6745 1.46677,-0.3614 2.70741,0.4645 1.26287,0.8203 1.64613,2.376 0.38873,1.5779 -0.34853,2.891 -0.71504,1.3076 -2.1818,1.669 -1.46677,0.3613 -2.72964,-0.459 -1.26287,-0.8204 -1.64612,-2.3761 z m -23.62618,22.2371 q -0.63437,-2.3417 -0.33578,-4.3908 0.29858,-2.0491 1.60194,-3.5404 1.30934,-1.4692 3.67318,-2.1095 2.03246,-0.5506 3.57756,-0.1866 1.55108,0.386 2.71559,1.4459 1.1705,1.082 2.03909,2.6252 0.89068,1.5372 1.55815,3.3009 0.77934,2.089 1.32527,3.3165 0.54594,1.2275 1.0771,1.7001 0.55924,0.4888 1.33246,0.2793 l 0.13255,-0.036 q 0.94995,-0.2573 1.50912,-0.9068 0.56516,-0.6273 0.70733,-1.5907 0.16425,-0.9693 -0.1649,-2.1843 -0.33514,-1.2372 -0.98415,-2.0573 -0.62691,-0.8261 -1.44527,-1.221 -0.81238,-0.3727 -1.72184,-0.3161 l -1.20991,-6.217 q 2.39331,-0.269 4.42125,0.6519 2.02794,0.9208 3.52205,2.9348 1.49411,2.014 2.30802,5.0185 0.59846,2.2092 0.59903,4.2247 5.8e-4,2.0154 -0.66669,3.6664 -0.6392,1.6671 -1.96007,2.8312 -1.31488,1.1861 -3.36943,1.7427 l -16.1713,4.3807 -1.71758,-6.3404 3.35798,-0.9096 -0.0359,-0.1326 q -1.31635,-0.3074 -2.43527,-1.0239 -1.09684,-0.7226 -1.92583,-1.9445 -0.823,-1.1998 -1.31374,-3.0114 z m 5.06975,0.5949 q 0.42491,1.5685 1.33259,2.5557 0.91366,1.0093 2.10345,1.3746 1.18978,0.3654 2.47111,0.018 l 2.49639,-0.6763 q -0.25454,-0.2393 -0.55281,-0.7276 -0.29827,-0.4883 -0.63246,-1.1092 -0.31208,-0.6268 -0.62004,-1.3259 -0.30196,-0.677 -0.59795,-1.332 -0.46584,-1.1069 -1.09276,-1.933 -0.62093,-0.804 -1.40522,-1.1607 -0.7843,-0.3566 -1.73425,-0.099 -0.88368,0.2394 -1.37658,0.8709 -0.4929,0.6315 -0.60284,1.5387 -0.0819,0.9233 0.21137,2.0058 z m 35.14042,14.6308 -32.70207,9.6755 -1.92862,-6.5184 32.70207,-9.6756 z"
       id="path6" /><path
       style="font-weight:bold;fill:#d5afe0;stroke-width:2.8534"
       d="m 354.04967,1110.3599 31.71147,-12.5468 8.73228,22.0703 -5.51226,2.181 -6.15554,-15.5578 -7.49157,2.9641 5.6924,14.3872 -5.38456,2.1304 -5.69241,-14.3872 -7.81081,3.0904 6.16396,15.5791 -5.51226,2.181 z m 10.38438,26.3468 22.64345,-10.1415 2.62892,5.8697 -5.28204,2.5413 -0.18711,-0.4178 q 2.23704,-0.3248 3.95814,0.1583 1.75136,0.4947 2.99331,1.6438 1.26285,1.1398 1.95516,2.6855 1.13203,2.5276 0.37431,4.9234 -0.72748,2.4074 -3.36689,4.2416 l -0.30873,-0.6894 q 2.14848,-0.4105 3.96032,0.1072 1.8212,0.5386 3.19131,1.8059 1.37947,1.2882 2.18405,3.0846 0.95427,2.1307 0.78361,4.2134 -0.17066,2.0828 -1.51585,3.8389 -1.33583,1.777 -3.86337,2.909 l -15.12349,6.7735 -2.77861,-6.204 13.95371,-6.2496 q 1.98443,-0.8887 2.47972,-2.4147 0.50463,-1.505 -0.19704,-3.0717 -0.53327,-1.1906 -1.44842,-1.8341 -0.9058,-0.6225 -2.06098,-0.682 -1.12493,-0.048 -2.35737,0.5041 l -13.76571,6.1654 -2.6757,-5.9742 14.14171,-6.3338 q 1.71288,-0.7671 2.27801,-2.2491 0.56512,-1.482 -0.15526,-3.0904 -0.49585,-1.1071 -1.42036,-1.7715 -0.89426,-0.6528 -2.10993,-0.7353 -1.21566,-0.082 -2.61521,0.5443 l -13.51505,6.0531 z m 8.87426,42.5451 30.70677,-15.4579 3.00512,5.9697 -3.3528,1.6878 0.0926,0.184 q 1.32051,0.027 2.60125,0.4842 1.28073,0.4572 2.39917,1.4572 1.13888,0.9898 1.9622,2.6254 1.33789,2.6577 1.01788,5.4325 -0.30972,2.7952 -2.27845,5.2982 -1.938,2.513 -5.51569,4.314 -3.57769,1.801 -6.75053,1.912 -3.17284,0.111 -5.62305,-1.2949 -2.45021,-1.4059 -3.82927,-4.1454 -0.81303,-1.6151 -0.92971,-3.1194 -0.10639,-1.4839 0.30972,-2.7953 0.44684,-1.3012 1.26279,-2.3781 l -0.0617,-0.1227 -11.95969,6.0205 z m 18.50801,4.2897 q 0.77186,1.5333 2.11462,2.2155 1.34277,0.6821 3.10289,0.5136 1.78057,-0.1789 3.80452,-1.1977 2.02395,-1.0189 3.1873,-2.322 1.1838,-1.3134 1.43567,-2.7983 0.27231,-1.4952 -0.49956,-3.0285 -0.78215,-1.5537 -2.16594,-2.2665 -1.38379,-0.7128 -3.1645,-0.5851 -1.74997,0.1378 -3.75347,1.1464 -1.98306,0.9983 -3.17702,2.3424 -1.16321,1.3543 -1.41494,2.8904 -0.24143,1.5565 0.53043,3.0898 z m 36.36361,6.8167 -30.04475,16.1355 -3.21627,-5.9888 30.04475,-16.1355 z m -22.44313,30.8499 q -1.84911,-3.2403 -1.84158,-6.4596 0.0274,-3.2307 1.77211,-5.992 1.76458,-2.7726 5.10426,-4.6785 3.35956,-1.9171 6.64427,-2.026 3.2847,-0.1088 6.06024,1.5224 2.79541,1.6198 4.64452,4.8601 1.8718,3.28 1.83304,6.4908 -0.0189,3.1995 -1.78346,5.9721 -1.76457,2.7726 -5.12413,4.6898 -3.33968,1.9058 -6.62439,2.0146 -3.26483,0.098 -6.04889,-1.5024 -2.76419,-1.6113 -4.63599,-4.8913 z m 4.73121,-2.6999 q 0.86217,1.5108 2.25857,2.1106 1.42764,0.6083 3.20779,0.3567 1.78015,-0.2516 3.7283,-1.3634 1.94815,-1.1117 3.07034,-2.5163 1.12219,-1.4047 1.30476,-2.9319 0.2138,-1.5187 -0.64837,-3.0295 -0.85082,-1.4909 -2.27845,-2.0993 -1.40775,-0.6197 -3.1879,-0.3681 -1.74893,0.2602 -3.71696,1.3833 -1.94815,1.1117 -3.08168,2.4965 -1.12219,1.4046 -1.32464,2.9432 -0.18257,1.5272 0.66824,3.0182 z m -4.1937,21.2012 4.83698,-2.1881 1.01886,1.8189 q 0.43021,0.9989 1.00304,1.5326 0.57282,0.5336 1.37074,0.6048 0.79051,0.1027 1.82557,-0.2691 l 1.60312,-0.4545 16.09618,-21.0881 3.78418,6.1099 -8.48188,10.1262 q -1.5676,1.8594 -3.23161,3.563 -1.64456,1.6917 -3.3623,3.4824 l -0.92797,-1.4983 q 2.35648,-0.7595 4.64717,-1.4513 2.30274,-0.6723 4.64628,-1.2354 l 12.90479,-2.9849 3.73597,6.0321 -29.65643,5.714 q -2.1295,0.4305 -3.91904,0.1927 -1.77749,-0.2183 -3.2243,-1.2068 -1.44682,-0.9885 -2.59172,-2.837 -0.63873,-1.0313 -1.17552,-2.0719 -0.5368,-1.0406 -0.90211,-1.8912 z m 21.95964,17.827 20.46077,-14.0333 3.63777,5.304 -4.74144,3.4462 -0.25892,-0.3775 q 2.14269,-0.7202 3.92249,-0.5532 1.81163,0.173 3.23932,1.081 1.44658,0.8952 2.40457,2.292 1.56644,2.2839 1.2501,4.7767 -0.28452,2.4987 -2.55271,4.776 l -0.42721,-0.6229 q 2.0402,-0.7887 3.91547,-0.6039 1.88822,0.2037 3.46316,1.2051 1.58789,1.0202 2.70123,2.6435 1.32047,1.9253 1.52562,4.0049 0.20516,2.0796 -0.80373,4.0483 -0.99595,1.9875 -3.27985,3.554 l -13.66569,9.3727 -3.8449,-5.6059 12.60867,-8.6478 q 1.79315,-1.2299 2.0071,-2.8198 0.2269,-1.5711 -0.74403,-2.9868 -0.73791,-1.0759 -1.75352,-1.545 -1.00266,-0.4502 -2.1498,-0.3018 -1.11531,0.1544 -2.22895,0.9182 l -12.4388,8.5313 -3.70249,-5.3984 12.77854,-8.7643 q 1.54777,-1.0615 1.83831,-2.6208 0.29055,-1.5592 -0.70628,-3.0126 -0.68613,-1.0004 -1.71468,-1.4884 -0.99673,-0.482 -2.20751,-0.3454 -1.21078,0.1365 -2.47542,1.0039 l -12.21229,8.3759 z m 30.39698,43.7775 q -2.2811,-3.0098 -2.67703,-6.1848 -0.37768,-3.1887 1.00827,-6.1346 1.4042,-2.9597 4.46872,-5.2822 3.02804,-2.295 6.25712,-2.8468 3.2429,-0.5336 6.1876,0.6235 2.95853,1.1753 5.12903,4.0392 1.56221,2.0612 2.18241,4.3195 0.65226,2.2627 0.30663,4.5349 -0.34563,2.2723 -1.6853,4.4077 -1.33968,2.1353 -3.72928,3.9464 l -1.47753,1.1198 -12.94008,-17.0738 3.42935,-2.599 10.94929,14.447 -2.73752,-1.831 q 1.51403,-1.1475 2.23964,-2.5016 0.72562,-1.354 0.59486,-2.777 -0.13075,-1.423 -1.18144,-2.8094 -1.03687,-1.3681 -2.40361,-1.8831 -1.33468,-0.5105 -2.83007,-0.21 -1.47716,0.2867 -2.91821,1.3788 l -2.3896,1.8111 q -1.60523,1.2166 -2.3441,2.6668 -0.72062,1.4365 -0.55281,2.9463 0.19988,1.5142 1.27822,2.937 0.7742,1.0215 1.67435,1.6029 0.90015,0.5814 1.86214,0.7139 0.9758,0.1508 1.91724,-0.1607 l 3.33141,5.2293 q -2.12385,0.9491 -4.4641,0.7412 -2.30818,-0.2036 -4.5121,-1.52 -2.19009,-1.2982 -3.9735,-3.6513 z m 25.19352,8.5428 -10.86637,8.9117 -4.31071,-5.2562 19.18428,-15.7334 4.16557,5.0792 -4.87323,4.0558 -0.52251,-0.6371 q 3.15984,-1.2002 5.84335,-0.7073 2.71572,0.4961 4.79125,3.0269 1.65462,2.0175 2.00344,4.2475 0.36652,2.2155 -0.62941,4.3939 -0.96372,2.1817 -3.31751,4.112 l -12.08751,9.9132 -4.31071,-5.2562 11.14953,-9.1439 q 1.85826,-1.524 2.11229,-3.2716 0.25403,-1.7476 -1.1103,-3.4112 -0.89988,-1.0972 -2.0567,-1.5693 -1.14231,-0.4545 -2.47217,-0.163 -1.31216,0.2769 -2.69258,1.409 z m 30.32566,19.0943 -3.97954,3.481 -10.24711,-11.7146 3.97954,-3.481 z m -2.89609,-12.9752 4.4605,5.0993 -17.83043,15.5967 q -0.93028,0.8137 -0.97992,1.5566 -0.0324,0.7277 0.82654,1.7097 0.33152,0.379 0.84819,0.9001 0.53175,0.5384 0.82022,0.8334 l -3.64155,3.7632 q -0.67815,-0.532 -1.451,-1.346 -0.77501,-0.7817 -1.48327,-1.5914 -2.59191,-2.9631 -2.59797,-5.5426 -0.006,-2.5794 2.54361,-4.8097 z m 29.88298,25.9864 -37.20738,20.0899 -4.05929,-4.2887 37.20738,-20.0899 z m 12.57192,14.7901 -23.90544,24.3223 -4.99504,-4.9095 23.90545,-24.3222 z m -5.52017,22.4724 -9.55776,10.3027 -4.98356,-4.6233 16.87396,-18.1891 4.81576,4.4676 -4.27833,4.6791 -0.60406,-0.5604 q 2.96793,-1.6176 5.69349,-1.4931 2.75791,0.1233 5.1574,2.3493 1.91288,1.7746 2.56083,3.9367 0.66352,2.1454 -0.0279,4.4387 -0.65903,2.2921 -2.72936,4.5238 l -10.63184,11.4605 -4.98356,-4.6232 9.80683,-10.5712 q 1.63447,-1.7618 1.64921,-3.5277 0.0147,-1.7659 -1.56254,-3.2291 -1.04034,-0.9652 -2.25049,-1.2761 -1.19337,-0.2953 -2.47144,0.1737 -1.2625,0.4522 -2.47668,1.7611 z m 13.01915,31.2508 q -2.3131,-1.9789 -3.09265,-4.6942 -0.77954,-2.7152 0.0692,-5.7844 0.86609,-3.0544 3.46999,-6.0979 2.6039,-3.0436 5.48994,-4.3397 2.91831,-1.2986 5.70657,-0.9312 2.78827,0.3673 5.04919,2.3016 1.39134,1.1904 2.06286,2.518 0.70379,1.325 0.8267,2.6953 0.13778,1.3528 -0.15149,2.6416 l 0.087,0.074 8.49615,-9.9307 5.16534,4.4192 -22.17034,25.9136 -5.09577,-4.3596 2.5295,-2.9566 -0.12174,-0.1042 q -1.27056,0.5697 -2.67561,0.6628 -1.38766,0.1081 -2.82054,-0.3648 -1.43288,-0.4728 -2.82421,-1.6632 z m 5.04684,-2.9415 q 1.30438,1.1159 2.8561,1.2386 1.55172,0.1227 3.14479,-0.6831 1.60795,-0.8232 3.05125,-2.5102 1.45819,-1.7044 1.99287,-3.3856 0.54957,-1.6986 0.1882,-3.2126 -0.34397,-1.4991 -1.66574,-2.63 -1.28699,-1.1011 -2.82132,-1.2089 -1.50206,-0.1103 -3.07773,0.7104 -1.54341,0.8182 -3.01647,2.54 -1.47307,1.7217 -2.0723,3.408 -0.56696,1.6837 -0.22549,3.1505 0.35885,1.4818 1.64584,2.5829 z m 16.54108,20.7496 q -2.04898,-1.6156 -2.88234,-3.7008 -0.81919,-2.1032 -0.33186,-4.4588 0.50531,-2.3414 2.37591,-4.7139 l 9.69307,-12.2939 5.33814,4.2089 -8.94201,11.3413 q -1.48797,1.8872 -1.36111,3.6486 0.12687,1.7614 1.81638,3.0935 1.11436,0.8786 2.32756,1.0773 1.24535,0.1949 2.46754,-0.3571 1.23635,-0.5699 2.34171,-1.9719 l 8.70109,-11.0357 5.33813,4.2088 -15.36154,19.4833 -5.1584,-4.0671 3.88947,-5.007 0.64705,0.5101 q -2.8467,1.8361 -5.60561,1.9343 -2.74094,0.1124 -5.29318,-1.8999 z m 23.56489,18.0826 q -2.51499,-1.8342 -3.93573,-4.0035 -1.40725,-2.1878 -1.57078,-4.4884 -0.14504,-2.2871 1.06612,-4.4916 l 5.55361,3.4554 q -0.71216,1.5203 -0.27653,2.9428 0.43563,1.4226 2.08147,2.6229 1.55337,1.1329 2.8591,1.207 1.31923,0.056 1.99357,-0.8691 0.57993,-0.7951 0.26485,-1.7615 -0.28309,-0.9713 -1.37026,-2.1608 l -2.99609,-3.2332 q -2.47175,-2.7092 -2.89918,-5.2306 -0.41395,-2.5398 1.24493,-4.8144 1.40262,-1.9232 3.46321,-2.5734 2.07907,-0.6367 4.51827,-0.019 2.47118,0.6124 5.04165,2.4871 2.49649,1.8207 3.79279,3.9276 1.30978,2.0884 1.38433,4.239 0.093,2.1642 -1.0792,4.1988 l -5.27622,-3.2531 q 0.67476,-1.2359 0.29461,-2.618 -0.36666,-1.4006 -1.84607,-2.4795 -1.38694,-1.0115 -2.68767,-1.0536 -1.26875,-0.047 -1.9296,0.859 -0.56645,0.7767 -0.33383,1.7395 0.26461,0.9579 1.35178,2.1474 l 3.17253,3.4185 q 2.53223,2.7817 2.98511,5.1516 0.47137,2.3835 -1.12007,4.5656 -1.45658,1.9972 -3.68206,2.6404 -2.22548,0.6432 -4.84808,0.01 -2.59062,-0.6429 -5.21656,-2.558 z m 37.88097,-4.4103 -2.9876,4.3622 -12.84097,-8.7947 2.98761,-4.3622 z m -6.03524,-11.8457 5.58959,3.8283 -13.38603,19.5447 q -0.6984,1.0197 -0.56154,1.7515 0.14979,0.7129 1.22616,1.4501 0.41545,0.2846 1.04559,0.6607 0.64904,0.389 1.00188,0.6029 l -2.59002,4.5512 q -0.78923,-0.3463 -1.7404,-0.9423 -0.94523,-0.5641 -1.83276,-1.172 -3.24801,-2.2245 -3.89606,-4.7213 -0.64806,-2.4967 1.26608,-5.2915 z m -4.7614,34.4532 13.51387,-20.8074 5.50899,3.5779 -2.33127,3.5895 0.13437,0.087 q 1.79085,-1.5387 3.68779,-1.644 1.89694,-0.1053 3.79725,1.1289 0.47988,0.3116 0.91563,0.6492 0.44821,0.3184 0.77552,0.6129 l -3.2164,4.9523 q -0.29565,-0.3012 -0.96846,-0.82 -0.67282,-0.5189 -1.36384,-0.9677 -1.22849,-0.7978 -2.56897,-0.877 -1.32802,-0.098 -2.55788,0.5767 -1.19819,0.6682 -2.13319,2.1079 l -7.49247,11.5362 z m 15.50001,9.9617 13.07871,-21.0837 5.77663,3.5833 -13.07871,21.0837 z m 17.6223,-21.9822 q -1.38094,-0.8566 -1.7716,-2.311 -0.39067,-1.4544 0.40564,-2.738 0.7963,-1.2837 2.26077,-1.5604 1.47653,-0.2961 2.83803,0.5484 1.38094,0.8567 1.7716,2.3111 0.40273,1.4349 -0.39358,2.7186 -0.7963,1.2837 -2.27283,1.5798 -1.47654,0.2961 -2.83803,-0.5485 z m -1.33986,32.4006 q -2.09423,-1.2249 -3.31804,-2.8953 -1.22381,-1.6704 -1.34012,-3.6476 -0.0966,-1.9656 1.13991,-4.0795 1.06313,-1.8177 2.42001,-2.6415 1.37664,-0.8123 2.9501,-0.873 1.59321,-0.049 3.29454,0.442 1.71288,0.4716 3.42538,1.2611 2.02042,0.9431 3.27032,1.4355 1.2499,0.4925 1.96002,0.457 0.74144,-0.044 1.1459,-0.7351 l 0.0693,-0.1185 q 0.4969,-0.8496 0.44023,-1.7047 -0.0369,-0.8436 -0.61097,-1.6301 -0.56252,-0.8063 -1.64914,-1.4419 -1.10639,-0.6471 -2.14418,-0.7768 -1.02623,-0.1495 -1.88659,0.1428 -0.84059,0.3038 -1.44932,0.9818 l -5.22177,-3.5845 q 1.51791,-1.8698 3.60951,-2.6351 2.09161,-0.7653 4.56904,-0.3769 2.47743,0.3884 5.16436,1.96 1.97569,1.1556 3.38924,2.5922 1.41354,1.4367 2.09535,3.0817 0.71311,1.6368 0.5875,3.3929 -0.10586,1.7677 -1.18055,3.6051 l -8.45882,14.462 -5.67022,-3.3165 1.75648,-3.003 -0.11854,-0.069 q -1.15409,0.7038 -2.45431,0.9775 -1.28867,0.2538 -2.73651,-0.036 -1.42808,-0.2784 -3.04814,-1.226 z m 4.03186,-3.1306 q 1.40274,0.8205 2.7421,0.888 1.35912,0.079 2.46363,-0.4947 1.10452,-0.5737 1.77475,-1.7196 l 1.30581,-2.2325 q -0.34929,0.01 -0.90434,-0.1312 -0.55506,-0.1391 -1.22865,-0.3475 -0.66205,-0.2281 -1.3718,-0.5106 -0.69,-0.271 -1.36024,-0.5305 -1.10825,-0.4626 -2.13448,-0.6121 -1.00648,-0.1379 -1.81576,0.1577 -0.80928,0.2956 -1.30618,1.1452 -0.46223,0.7903 -0.3709,1.5861 0.0913,0.7959 0.649,1.5198 0.58898,0.7157 1.55706,1.2819 z m 35.25295,-14.2804 -16.45559,29.8707 -5.95408,-3.2801 16.45559,-29.8706 z"
       id="path7" /><path
       style="font-weight:bold;fill:#b8b8b8;stroke-width:2.8534"
       d="m 741.73483,1524.5664 q -3.88436,-1.7423 -6.13949,-4.2087 -2.25513,-2.4664 -2.73053,-5.4892 -0.45452,-3.0134 1.00244,-6.3735 l 6.20245,2.782 q -0.67734,1.6779 -0.39895,3.1824 0.30864,1.4931 1.43621,2.7263 1.13693,1.2123 3.01646,2.0553 1.75423,0.7869 3.26446,0.8873 1.51959,0.08 2.6533,-0.4906 1.13371,-0.5702 1.66763,-1.7605 0.46835,-1.0442 0.19057,-2.0468 -0.27778,-1.0025 -1.24549,-2.0888 -0.96771,-1.0863 -2.63902,-2.3376 l -2.99481,-2.2714 q -3.88267,-2.9205 -5.19204,-6.0414 -1.28848,-3.1115 0.2196,-6.4738 1.27392,-2.8402 3.70273,-4.2844 2.44969,-1.4348 5.62647,-1.4147 3.18615,-8e-4 6.65284,1.5542 3.52934,1.583 5.585,3.9349 2.05565,2.3519 2.51309,5.191 0.46681,2.8182 -0.77978,5.8211 l -6.09803,-2.7351 q 0.76026,-2.1424 -0.19792,-3.977 -0.95819,-1.8345 -3.42247,-2.9398 -1.58716,-0.7119 -2.99297,-0.7655 -1.40581,-0.054 -2.43725,0.5122 -1.02207,0.545 -1.51853,1.6518 -0.46835,1.0442 -0.19056,2.0468 0.28714,0.9817 1.23182,2.0074 0.94468,1.0258 2.42588,2.1417 l 2.60309,1.9703 q 2.03063,1.5128 3.43828,3.0724 1.41702,1.5386 2.14118,3.1678 0.72417,1.6293 0.69499,3.3721 10e-4,1.7314 -0.82322,3.5692 -1.31139,2.9237 -3.73804,4.419 -2.4173,1.4745 -5.67761,1.4169 -3.25095,-0.079 -7.05178,-1.7833 z m 24.28363,10.3123 q -2.41816,-0.9802 -3.79988,-2.7504 -1.37313,-1.7914 -1.56189,-4.1894 -0.16755,-2.3895 0.96736,-5.1894 l 5.88093,-14.509 6.29995,2.5536 -5.42525,13.3847 q -0.90277,2.2272 -0.28983,3.8834 0.61295,1.6562 2.60687,2.4644 1.31514,0.533 2.53564,0.3856 1.25032,-0.16 2.27013,-1.0309 1.0284,-0.8921 1.69904,-2.5466 l 5.27907,-13.0241 6.29995,2.5535 -9.32007,22.9938 -6.08782,-2.4676 2.33918,-5.8929 0.76363,0.3095 q -2.22187,2.557 -4.844,3.4205 -2.60092,0.8721 -5.61301,-0.3487 z m 18.37334,6.824 8.65765,-23.2513 6.156,2.2922 -1.49352,4.0111 0.15014,0.056 q 1.41273,-1.8919 3.24119,-2.4078 1.82847,-0.5159 3.95197,0.2748 0.53624,0.1996 1.03505,0.4342 0.5068,0.2131 0.89038,0.4292 l -2.06058,5.534 q -0.35414,-0.2296 -1.12381,-0.5894 -0.76968,-0.3599 -1.54186,-0.6474 -1.37276,-0.5112 -2.6983,-0.2964 -1.31756,0.1932 -2.37088,1.1199 -1.02388,0.9132 -1.62289,2.5219 l -4.80004,12.8911 z m 39.45049,-12.1751 -1.73858,4.9932 -15.43337,-5.3738 1.73858,-4.9932 z m -19.3985,19.5174 9.01651,-25.8952 q 0.81284,-2.3345 2.25505,-3.5531 1.44974,-1.2402 3.4283,-1.4237 1.97856,-0.1836 4.33463,0.6368 1.31854,0.4591 2.40491,0.9585 1.10798,0.507 1.57503,0.7665 l -2.24229,4.7693 q -0.30166,-0.1777 -0.93506,-0.4467 -0.6118,-0.2615 -1.1738,-0.4572 -1.42661,-0.4967 -2.22849,-0.073 -0.80187,0.4236 -1.26098,1.7422 l -8.77566,25.2035 z m 20.76848,7.4889 q -2.31057,-0.7399 -3.8685,-2.104 -1.55793,-1.3641 -2.10165,-3.2686 -0.52192,-1.8975 0.22496,-4.2299 0.64219,-2.0054 1.78731,-3.1047 1.16692,-1.0923 2.68946,-1.494 1.54434,-0.3947 3.3118,-0.2853 1.77445,0.088 3.61771,0.4856 2.17721,0.4809 3.50431,0.6895 1.32709,0.2087 2.0125,0.02 0.71419,-0.2039 0.95849,-0.9668 l 0.0419,-0.1308 q 0.30015,-0.9373 0.0588,-1.7596 -0.21957,-0.8153 -0.95102,-1.4581 -0.72447,-0.6646 -1.92335,-1.0485 -1.22068,-0.3909 -2.26183,-0.2917 -1.03418,0.077 -1.81033,0.5498 -0.75435,0.4794 -1.20096,1.2737 l -5.8766,-2.3625 q 1.07471,-2.1553 2.9497,-3.3573 1.87498,-1.2021 4.37757,-1.362 2.50259,-0.16 5.46709,0.7893 2.17978,0.6981 3.87205,1.7927 1.69227,1.0947 2.71567,2.552 1.05217,1.4424 1.31166,3.1838 0.28128,1.7484 -0.36788,3.7756 l -5.10954,15.956 -6.25597,-2.0033 1.061,-3.3133 -0.13079,-0.042 q -0.97331,0.938 -2.18285,1.488 -1.20255,0.5282 -2.67881,0.5601 -1.45445,0.039 -3.24187,-0.5334 z m 3.25413,-3.9328 q 1.54764,0.4956 2.8696,0.27 1.34375,-0.2186 2.29697,-1.0188 0.95323,-0.8003 1.35809,-2.0646 l 0.78876,-2.4631 q -0.33921,0.084 -0.91122,0.069 -0.57201,-0.015 -1.27481,-0.072 -0.69581,-0.079 -1.45004,-0.2 -0.73243,-0.1144 -1.44307,-0.2218 -1.18234,-0.2103 -2.21652,-0.1329 -1.01237,0.084 -1.73795,0.5489 -0.72557,0.4646 -1.02572,1.402 -0.27921,0.8719 -0.0169,1.6288 0.2623,0.7569 0.96412,1.3422 0.73059,0.5704 1.79869,0.9124 z m 25.84468,12.9095 q -3.58551,-1.0309 -5.79812,-3.358 -2.2126,-2.327 -2.88951,-5.5224 -0.6486,-3.211 0.4076,-6.8845 1.06251,-3.6955 3.31753,-6.0717 2.27701,-2.3699 5.38769,-3.1665 3.11068,-0.7965 6.6962,0.2344 2.2437,0.6451 3.95203,1.8269 1.71466,1.1599 2.80927,2.7368 1.10093,1.5549 1.51913,3.4137 0.44019,1.8651 0.11295,3.9144 l -6.34863,-1.2776 q 0.0897,-0.9745 -0.0756,-1.8079 -0.15891,-0.8554 -0.60105,-1.5541 -0.4358,-0.7207 -1.14548,-1.2343 -0.68768,-0.5073 -1.65555,-0.7856 -1.67177,-0.4807 -3.11892,0.08 -1.44082,0.5383 -2.52475,1.989 -1.0776,1.4287 -1.6974,3.5844 -0.6198,2.1557 -0.46557,3.9386 0.15423,1.7829 1.08276,3.0263 0.92854,1.2434 2.60031,1.724 0.96787,0.2783 1.81999,0.2137 0.87411,-0.058 1.59782,-0.4217 0.75203,-0.3792 1.34734,-1.0416 0.6173,-0.656 1.06523,-1.5513 l 6.08602,2.2737 q -0.79549,1.9385 -2.14339,3.3133 -1.34157,1.3528 -3.1349,2.1233 -1.765,0.7547 -3.86216,0.8424 -2.07515,0.094 -4.34085,-0.5574 z m 25.83977,7.0044 q -3.65852,-0.9367 -5.94401,-3.1758 -2.27982,-2.2613 -3.02786,-5.4298 -0.74237,-3.1906 0.21145,-6.9157 0.94246,-3.6807 3.12691,-6.1219 2.20662,-2.4355 5.23179,-3.362 3.04735,-0.9209 6.52849,-0.03 2.50553,0.6415 4.39621,2.0235 1.91852,1.3654 3.06184,3.3593 1.14332,1.9938 1.42328,4.4991 0.27996,2.5052 -0.46379,5.4098 l -0.45987,1.796 -20.75379,-5.3141 1.06737,-4.1685 17.56089,4.4966 -3.28234,0.27 q 0.47123,-1.8404 0.19671,-3.3519 -0.27451,-1.5115 -1.26231,-2.5441 -0.98781,-1.0326 -2.67294,-1.4641 -1.66297,-0.4258 -3.05334,0.022 -1.36251,0.4308 -2.34618,1.5965 -0.97798,1.1435 -1.4265,2.8952 l -0.74375,2.9046 q -0.49962,1.9513 -0.17562,3.5463 0.32968,1.5729 1.40049,2.6504 1.09867,1.061 2.82815,1.5038 1.24168,0.318 2.30813,0.213 1.06644,-0.1049 1.90195,-0.5998 0.85769,-0.4892 1.40088,-1.3188 l 5.86177,2.0207 q -1.07205,2.0646 -3.03346,3.358 -1.93357,1.2769 -4.478,1.6177 -2.52226,0.3464 -5.38255,-0.386 z m 25.81824,5.7456 7.12069,-33.3517 13.07209,2.791 q 3.78284,0.8076 6.19498,2.7737 2.41213,1.966 3.31422,4.7564 0.92447,2.7953 0.2124,6.1304 -0.71207,3.3352 -2.71986,5.5044 -1.98541,2.174 -5.01252,2.9787 -3.02233,0.7824 -6.82756,-0.03 l -8.84156,-1.8877 1.20908,-5.663 8.17005,1.7443 q 1.94739,0.4158 3.41139,0.026 1.4864,-0.3848 2.43836,-1.4453 0.95674,-1.083 1.30082,-2.6946 0.34887,-1.634 -0.0917,-2.9685 -0.43583,-1.3569 -1.63548,-2.3151 -1.17727,-0.9535 -3.14704,-1.374 l -5.41685,-1.1566 -5.90205,27.6439 z m 35.38876,7.6959 q -2.38585,-0.4403 -4.10447,-1.5954 -1.71862,-1.1551 -2.4999,-2.9751 -0.75878,-1.8158 -0.31429,-4.2242 0.38219,-2.0707 1.37836,-3.3066 1.01868,-1.2318 2.47785,-1.8236 1.48168,-0.5877 3.24871,-0.7038 1.77118,-0.1386 3.65008,0.022 2.22066,0.2004 3.56352,0.2387 1.34285,0.038 1.99868,-0.2362 0.68249,-0.293 0.82789,-1.0808 l 0.0249,-0.135 q 0.17863,-0.9679 -0.16526,-1.7529 -0.32138,-0.7808 -1.12857,-1.3255 -0.80304,-0.5671 -2.04098,-0.7956 -1.26045,-0.2326 -2.28056,0 -1.01596,0.2082 -1.7258,0.7754 -0.68732,0.5714 -1.0294,1.416 l -6.12913,-1.5967 q 0.79216,-2.2744 2.49922,-3.7049 1.70706,-1.4306 4.16905,-1.9072 2.46198,-0.4766 5.52308,0.088 2.2508,0.4154 4.06844,1.2862 1.81764,0.8708 3.01789,2.1862 1.22691,1.2971 1.70555,2.9914 0.50114,1.6985 0.1148,3.7917 l -3.04085,16.4759 -6.45981,-1.1922 0.63144,-3.4213 -0.13505,-0.025 q -0.84624,1.0541 -1.9761,1.7533 -1.12571,0.6767 -2.58593,0.8959 -1.43772,0.2235 -3.28338,-0.1172 z m 2.72808,-4.3144 q 1.59807,0.295 2.88065,-0.097 1.30509,-0.3876 2.14891,-1.3025 0.84383,-0.9149 1.08477,-2.2203 l 0.46942,-2.5434 q -0.32584,0.126 -0.89511,0.1839 -0.56927,0.058 -1.27359,0.091 -0.70017,0.01 -1.4637,-0.014 -0.74103,-0.02 -1.45955,-0.037 -1.1995,-0.058 -2.21546,0.1497 -0.99345,0.2123 -1.65411,0.7654 -0.66067,0.553 -0.83929,1.5208 -0.16617,0.9004 0.19018,1.6178 0.35635,0.7175 1.12684,1.2088 0.79714,0.473 1.90004,0.6765 z m 16.254,7.2712 3.96981,-24.4911 6.48428,1.051 -0.68483,4.225 0.15816,0.026 q 1.01776,-2.1305 2.71096,-2.9922 1.6932,-0.8617 3.92993,-0.4992 0.56484,0.092 1.09975,0.2247 0.53858,0.1105 0.95686,0.2478 l -0.94484,5.8291 q -0.39203,-0.1563 -1.217,-0.3596 -0.82496,-0.2033 -1.63832,-0.3351 -1.44597,-0.2344 -2.70444,0.2341 -1.2548,0.4458 -2.10776,1.5596 -0.82671,1.0949 -1.10137,2.7894 l -2.20098,13.5786 z m 25.40492,-3.3319 1.1243,-8.0009 0.83862,0.1179 9.66586,-8.2568 7.84227,1.102 -12.61527,10.8239 -1.56392,-0.2198 z m -7.10029,6.2829 4.74563,-33.7716 6.73165,0.946 -4.74563,33.7716 z m 15.72985,2.2104 -6.08644,-11.7878 5.13077,-4.1096 8.84326,17.0058 z m 10.44289,1.3557 3.0204,-24.6263 6.7472,0.8276 -3.0203,24.6262 z m 6.7671,-27.349 q -1.6129,-0.1978 -2.578,-1.3538 -0.9651,-1.1561 -0.7812,-2.6555 0.1839,-1.4994 1.397,-2.3652 1.2158,-0.8886 2.8061,-0.6935 1.6129,0.1978 2.578,1.3538 0.9679,1.1334 0.784,2.6328 -0.1839,1.4993 -1.3998,2.3879 -1.2158,0.8886 -2.8061,0.6935 z m 13.4022,15.5682 -1.4618,13.9771 -6.7609,-0.707 2.5807,-24.6763 6.5333,0.6833 -0.614,6.3104 -0.8195,-0.086 q 1.4032,-3.0751 3.6581,-4.6113 2.28,-1.5565 5.5352,-1.2161 2.5951,0.2714 4.411,1.612 1.8183,1.3178 2.6417,3.5671 0.8485,2.2289 0.5319,5.2566 l -1.6261,15.5478 -6.7609,-0.7071 1.4999,-14.3413 q 0.2499,-2.3902 -0.7981,-3.8116 -1.048,-1.4213 -3.1878,-1.6451 -1.4114,-0.1476 -2.566,0.33 -1.1318,0.4799 -1.8726,1.6222 -0.7384,1.1194 -0.9241,2.895 z m 30.3974,26.9953 q -3.3082,-0.2645 -5.6099,-1.344 -2.3016,-1.0795 -3.5867,-2.8125 -1.2868,-1.7102 -1.5753,-3.8457 l 6.2869,-0.2321 q 0.2082,0.8433 0.8187,1.535 0.6088,0.7145 1.6063,1.1617 1.0185,0.4717 2.4559,0.5866 2.5325,0.2025 4.0282,-0.9867 1.5167,-1.1646 1.721,-3.7199 l 0.3301,-4.1296 -0.2509,-0.02 q -0.6917,1.1846 -1.7476,2.0416 -1.0312,0.836 -2.4649,1.2494 -1.409,0.3925 -3.2115,0.2484 -3.0116,-0.2407 -5.2448,-1.8888 -2.2315,-1.6709 -3.3569,-4.5391 -1.1254,-2.8683 -0.8171,-6.7241 0.3137,-3.9243 1.9088,-6.6439 1.597,-2.7425 4.0692,-4.0833 2.4722,-1.3407 5.4153,-1.1054 1.8481,0.1477 3.1714,0.8275 1.3462,0.6817 2.2716,1.743 0.9273,1.0385 1.4712,2.276 l 0.1369,0.011 0.3083,-3.8558 6.6849,0.5345 -1.928,24.1158 q -0.2918,3.6505 -2.0065,5.8555 -1.7165,2.2277 -4.5209,3.1286 -2.8045,0.9009 -6.3637,0.6164 z m 1.14,-15.4077 q 1.734,0.1386 3.0563,-0.6052 1.3242,-0.7667 2.1135,-2.3109 0.8121,-1.5423 0.9873,-3.7326 0.1751,-2.1903 -0.3817,-3.8421 -0.5322,-1.6728 -1.7159,-2.6629 -1.1837,-0.9901 -2.9176,-1.1287 -1.6884,-0.135 -2.9915,0.6563 -1.2786,0.7703 -2.0697,2.3373 -0.7665,1.546 -0.9435,3.7591 -0.1769,2.2131 0.3342,3.8612 0.534,1.65 1.6757,2.5908 1.1646,0.9427 2.8529,1.0777 z"
       id="path8" /></g><text
     xml:space="preserve"
     style="font-style:normal;font-variant:normal;font-weight:normal;font-stretch:normal;font-size:46.875px;line-height:0.95;font-family:'Inter 24pt';-inkscape-font-specification:'Inter 24pt, Normal';font-variant-ligatures:none;font-variant-caps:normal;font-variant-numeric:normal;font-variant-east-asian:normal;fill:#feebac;fill-opacity:1;stroke-width:3.125"
     id="text4442-5-2-6"
     transform="rotate(-48.754787,1635.0145,871.33327)"><textPath
       xlink:href="#path1"
       id="textPath1-8"
       style="font-style:normal;font-variant:normal;font-weight:bold;font-stretch:normal;font-size:46.875px;font-family:'Inter 24pt';-inkscape-font-specification:'Inter 24pt, Normal';font-variant-ligatures:none;font-variant-caps:normal;font-variant-numeric:normal;font-variant-east-asian:normal;fill:#feebac;fill-opacity:1;stroke-width:3.125"><tspan
   style="fill:#edce6c;fill-opacity:1"
   id="tspan3-9">Residential</tspan>     <tspan
   style="font-size:46.875px;fill:#e0cce4;fill-opacity:1"
   id="tspan1-0"><tspan
   style="fill:#d9ace4;fill-opacity:1"
   id="tspan4-6"><tspan
   style="fill:#d5afe0;fill-opacity:1"
   id="tspan5-8">Employment / Industrial</tspan> </tspan>   <tspan
   style="fill:#b8b8b8;fill-opacity:1"
   id="tspan2-7">Surface Parking   </tspan></tspan></textPath></text><text
     xml:space="preserve"
     style="font-style:normal;font-variant:normal;font-weight:normal;font-stretch:normal;font-size:60.8333px;line-height:0.95;font-family:'Inter 24pt';-inkscape-font-specification:'Inter 24pt, Normal';font-variant-ligatures:none;font-variant-caps:normal;font-variant-numeric:normal;font-variant-east-asian:normal;fill:#d1d2ce;fill-opacity:1;stroke-width:3.125"
     x="2142.8906"
     y="2109.3928"
     id="text4442-5-2-7"><tspan
       sodipodi:role="line"
       style="font-style:normal;font-variant:normal;font-weight:normal;font-stretch:normal;font-size:60.8333px;font-family:'Inter 24pt';-inkscape-font-specification:'Inter 24pt, Normal';font-variant-ligatures:none;font-variant-caps:normal;font-variant-numeric:normal;font-variant-east-asian:normal;fill:#d1d2ce;fill-opacity:1;stroke-width:3.125"
       x="2142.8906"
       y="2109.3928"
       id="tspan4443-9-0">Surface parking</tspan></text><ellipse
     style="fill:#ffffff;fill-rule:evenodd;stroke:#2b83bf;stroke-width:11.811;stroke-linecap:round;stroke-linejoin:round;stroke-dasharray:none;stroke-opacity:1"
     id="path4442"
     cx="1118.9232"
     cy="786.84998"
     rx="20.421341"
     ry="20.260218" /><path
     style="fill:none;stroke:none;stroke-width:3.125px;stroke-linecap:butt;stroke-linejoin:miter;stroke-opacity:1"
     d="m 300.06227,815.77785 c 0,335.42175 213.45259,788.90975 858.25763,788.90975"
     id="path1"
     sodipodi:nodetypes="cc" /><path
     style="fill:none;stroke:#000000;stroke-width:3.125px;stroke-linecap:butt;stroke-linejoin:miter;stroke-opacity:1"
     d="m -1117.1875,890.62504 c 0,335.42176 213.45256,788.90976 858.2576,788.90976"
     id="path1-3"
     sodipodi:nodetypes="cc" /><rect
     style="opacity:1;fill:#ffffff;fill-opacity:1;fill-rule:evenodd;stroke:none;stroke-width:14.1732;stroke-linecap:round;stroke-linejoin:round;stroke-dasharray:none"
     id="rect8"
     width="203.12495"
     height="1968.7501"
     x="-140.62497"
     y="-93.75"
     rx="5.5384378"
     ry="5.5384378" /><rect
     style="fill:#ffffff;fill-opacity:1;fill-rule:evenodd;stroke:none;stroke-width:14.1732;stroke-linecap:round;stroke-linejoin:round;stroke-dasharray:none"
     id="rect8-7"
     width="203.12495"
     height="1968.7501"
     x="2187.5"
     y="-239.45319"
     rx="5.5384378"
     ry="5.5384378" /><text
     xml:space="preserve"
     style="font-size:37.5px;line-height:1.3;font-family:'Inter 24pt';-inkscape-font-specification:'Inter 24pt, Normal';font-variant-ligatures:none;fill:#9a9996;fill-opacity:1;stroke-width:3.125"
     x="60.595688"
     y="1658.3909"
     id="text1-3-6-1"><tspan
       sodipodi:role="line"
       x="60.595688"
       y="1658.3909"
       style="font-weight:normal;font-size:37.5px;fill:#9a9996;fill-opacity:1;stroke-width:3.125"
       id="tspan2">City of Waterloo, OpenStreetMap</tspan></text><text
     xml:space="preserve"
     style="font-style:normal;font-variant:normal;font-weight:bold;font-stretch:normal;font-size:37.5px;line-height:1.3;font-family:'Inter 24pt';-inkscape-font-specification:'Inter 24pt, Bold';font-variant-ligatures:none;font-variant-caps:normal;font-variant-numeric:normal;font-variant-east-asian:normal;fill:#9a9996;fill-opacity:1;stroke-width:3.125"
     x="60.266098"
     y="1610.3752"
     id="text1-3-6-1-9"><tspan
       sodipodi:role="line"
       x="60.266098"
       y="1610.3752"
       style="font-style:normal;font-variant:normal;font-weight:bold;font-stretch:normal;font-size:37.5px;font-family:'Inter 24pt';-inkscape-font-specification:'Inter 24pt, Bold';font-variant-ligatures:none;font-variant-caps:normal;font-variant-numeric:normal;font-variant-east-asian:normal;fill:#9a9996;fill-opacity:1;stroke-width:3.125"
       id="tspan5-5-2">Data sources:</tspan></text></svg>
