<?xml version="1.0" encoding="UTF-8" standalone="no"?>
<svg
   width="1080"
   viewBox="0 0 3375.0001 2250"
   version="1.2"
   height="720"
   id="svg4442"
   sodipodi:docname="northfield-land-use-1080.svg"
   xml:space="preserve"
   inkscape:version="1.4.2 (1:1.4.2+202505120738+ebf0e940d0)"
   xmlns:inkscape="http://www.inkscape.org/namespaces/inkscape"
   xmlns:sodipodi="http://sodipodi.sourceforge.net/DTD/sodipodi-0.dtd"
   xmlns:xlink="http://www.w3.org/1999/xlink"
   xmlns="http://www.w3.org/2000/svg"
   xmlns:svg="http://www.w3.org/2000/svg"
   xmlns:rdf="http://www.w3.org/1999/02/22-rdf-syntax-ns#"
   xmlns:cc="http://creativecommons.org/ns#"
   xmlns:dc="http://purl.org/dc/elements/1.1/"><sodipodi:namedview
     id="namedview4442"
     pagecolor="#ffffff"
     bordercolor="#666666"
     borderopacity="1.0"
     inkscape:showpageshadow="2"
     inkscape:pageopacity="0.0"
     inkscape:pagecheckerboard="0"
     inkscape:deskcolor="#d1d1d1"
     inkscape:document-units="mm"
     inkscape:zoom="1"
     inkscape:cx="296"
     inkscape:cy="299"
     inkscape:window-width="1920"
     inkscape:window-height="1016"
     inkscape:window-x="0"
     inkscape:window-y="0"
     inkscape:window-maximized="1"
     inkscape:current-layer="svg4442" /><defs
     id="defs1" /><metadata
     id="metadata4442"><rdf:RDF><rdf:Description
         dc:date="2026-02-11T12:35:07"
         dc:description=""
         dc:identifier=""
         dc:format="image/svg+xml"
         dc:title=""><dc:creator><rdf:Bag><rdf:li>P Gorn</rdf:li></rdf:Bag></dc:creator><dc:publisher><rdf:Bag><rdf:li>QGIS 3.32.2-Lima</rdf:li></rdf:Bag></dc:publisher><dc:subject><rdf:Bag /></dc:subject></rdf:Description><cc:Work
         rdf:about=""><dc:format>image/svg+xml</dc:format><dc:date>2026-02-11T12:35:07</dc:date><dc:identifier /><dc:description /><dc:creator><cc:Agent><dc:title>P Gorn</dc:title></cc:Agent></dc:creator><dc:publisher><cc:Agent><dc:title>QGIS 3.32.2-Lima</dc:title></cc:Agent></dc:publisher></cc:Work></rdf:RDF></metadata><image
     width="3375"
     height="2250"
     preserveAspectRatio="none"
     xlink:href="northfield-land-use-qgis.png"
     id="image1"
     x="-1.7763568e-13"
     y="-8.8817842e-14"
     style="stroke-width:0.32" /><path
     style="font-weight:bold;font-size:60.8333px;line-height:0.95;font-family:'Inter 24pt';-inkscape-font-specification:'Inter 24pt, Bold';font-variant-ligatures:none;fill:#ffffff;stroke:#ffffff;stroke-width:14.17322855;stroke-linecap:round;stroke-dasharray:none;opacity:0.7321803"
     d="m 1709.6409,1145.5765 v -44.2586 h 9.832 l 14.1093,22.5452 q 0.8317,1.3367 1.8713,3.208 1.0694,1.8416 2.1981,4.0694 1.1287,2.1981 2.1981,4.6041 l -0.9803,1.307 q -0.1485,-2.2278 -0.297,-4.9012 -0.1188,-2.703 -0.1782,-5.1684 -0.059,-2.4951 -0.059,-4.0397 v -21.6244 h 9.1784 v 44.2586 h -9.8616 l -12.8023,-20.4064 q -1.0694,-1.7229 -2.2872,-3.8318 -1.1882,-2.109 -2.6139,-4.7229 -1.3961,-2.6437 -3.0892,-5.8517 l 1.396,-0.594 q 0.208,3.2377 0.3268,6.1486 0.1188,2.911 0.1782,5.1982 0.059,2.2575 0.059,3.6239 v 20.4361 z m 59.5858,0.6832 q -4.8417,0 -8.4656,-2.0792 -3.6238,-2.109 -5.614,-5.8517 -1.9901,-3.7724 -1.9901,-8.7626 0,-5.0199 1.9901,-8.7923 1.9902,-3.7724 5.614,-5.8516 3.6239,-2.109 8.4656,-2.109 4.9011,0 8.4953,2.109 3.5941,2.0792 5.5843,5.8516 1.9901,3.7724 1.9901,8.7923 0,4.9902 -1.9901,8.7626 -1.9902,3.7427 -5.5843,5.8517 -3.5942,2.0792 -8.4953,2.0792 z m 0,-7.0695 q 2.2575,0 3.8318,-1.1881 1.604,-1.2179 2.4654,-3.3862 0.8614,-2.1684 0.8614,-5.0794 0,-2.911 -0.8614,-5.0793 -0.8614,-2.1684 -2.4654,-3.3566 -1.5743,-1.2178 -3.8318,-1.2178 -2.2278,0 -3.8318,1.2178 -1.604,1.1882 -2.4654,3.3566 -0.8317,2.1386 -0.8317,5.0793 0,2.911 0.8317,5.0794 0.8614,2.1683 2.4654,3.3862 1.604,1.1881 3.8318,1.1881 z m 21.5352,6.3863 v -32.1988 h 8.525 v 5.5546 h 0.2079 q 0.8614,-2.9407 2.8516,-4.3962 1.9901,-1.4555 4.9308,-1.4555 0.7426,0 1.4555,0.059 0.7129,0.03 1.2773,0.1188 v 7.6636 q -0.5347,-0.1188 -1.6338,-0.2079 -1.099,-0.089 -2.1683,-0.089 -1.9011,0 -3.416,0.8614 -1.5149,0.8317 -2.3763,2.4357 -0.8317,1.5743 -0.8317,3.8021 v 17.8519 z m 42.1497,-32.1988 v 6.8615 h -20.1986 v -6.8615 z m -15.149,-8.2577 h 8.7924 v 30.7434 q 0,1.604 0.6831,2.2872 0.6832,0.6535 2.3763,0.6535 0.6535,0 1.604,-0.059 0.9803,-0.059 1.5149,-0.089 l 0.5644,6.7724 q -1.099,0.2079 -2.5545,0.2674 -1.4258,0.089 -2.8219,0.089 -5.109,0 -7.6338,-2.1981 -2.5249,-2.1981 -2.5249,-6.5942 z m 29.0503,22.2184 v 18.2381 h -8.822 v -44.2586 h 8.7329 v 20.2877 h -1.2178 q 1.396,-4.1585 4.0991,-6.4457 2.7327,-2.3169 6.9804,-2.3169 3.3862,0 5.911,1.4852 2.5248,1.4555 3.8912,4.2476 1.3961,2.7625 1.3961,6.7131 v 20.2876 h -8.822 v -18.7133 q 0,-3.1189 -1.5446,-4.812 -1.5446,-1.6932 -4.3368,-1.6932 -1.8416,0 -3.2674,0.7723 -1.3961,0.7723 -2.1981,2.3466 -0.802,1.5446 -0.802,3.8615 z m 46.1597,-13.9607 v 6.8615 h -21.2085 v -6.8615 z m -15.446,32.1988 v -35.5851 q 0,-3.208 1.2476,-5.3169 1.2475,-2.1387 3.5941,-3.208 2.3466,-1.0694 5.5843,-1.0694 1.812,0 3.3566,0.1485 1.5743,0.1486 2.2574,0.2674 l -0.7129,6.8021 q -0.4455,-0.089 -1.3366,-0.1485 -0.8614,-0.059 -1.6337,-0.059 -1.9605,0 -2.7625,0.8614 -0.802,0.8614 -0.802,2.6734 v 34.6345 z m 20.6144,0 v -32.1988 h 8.822 v 32.1988 z m 4.3962,-36.298 q -2.109,0 -3.5348,-1.3366 -1.4258,-1.3367 -1.4258,-3.2971 0,-1.9605 1.4258,-3.2675 1.4258,-1.3366 3.5051,-1.3366 2.1089,0 3.5347,1.3366 1.4258,1.307 1.4258,3.2675 0,1.9604 -1.4258,3.2971 -1.4258,1.3366 -3.505,1.3366 z m 25.8422,36.9812 q -4.9011,0 -8.4952,-2.0792 -3.5942,-2.109 -5.5546,-5.8517 -1.9605,-3.7724 -1.9605,-8.7626 0,-4.9308 1.9605,-8.7032 1.9901,-3.7724 5.4952,-5.911 3.5347,-2.1387 8.1982,-2.1387 3.3565,0 6.1784,1.1287 2.8515,1.0991 4.9308,3.2377 2.0793,2.1387 3.2377,5.1982 1.1585,3.0595 1.1585,6.9507 v 2.406 h -27.8028 v -5.5843 h 23.5254 l -4.0397,1.3961 q 0,-2.4655 -0.8317,-4.2774 -0.8317,-1.8119 -2.406,-2.7921 -1.5743,-0.9803 -3.8318,-0.9803 -2.2278,0 -3.8318,1.01 -1.5743,0.9802 -2.4357,2.7624 -0.8614,1.7525 -0.8614,4.0991 v 3.8912 q 0,2.614 0.9208,4.515 0.9208,1.8713 2.614,2.8813 1.7228,0.9802 4.0397,0.9802 1.6634,0 2.9703,-0.4753 1.307,-0.4752 2.1981,-1.3663 0.9208,-0.8912 1.3367,-2.109 l 8.02,0.6535 q -0.6832,2.9406 -2.7327,5.1981 -2.0199,2.2278 -5.1091,3.4754 -3.0595,1.2475 -6.8913,1.2475 z m 29.2879,-44.9418 v 44.2586 h -8.822 v -44.2586 z m 18.9511,44.8824 q -3.9506,0 -7.0101,-2.0198 -3.0595,-2.0199 -4.812,-5.7626 -1.7229,-3.7426 -1.7229,-8.9408 0,-5.1982 1.7526,-8.9111 1.7822,-3.7427 4.8417,-5.7329 3.0595,-1.9901 6.921,-1.9901 2.3763,0 4.1585,0.7426 1.8119,0.7129 3.0892,1.9604 1.2772,1.2179 2.0792,2.7328 h 0.1486 v -16.9609 h 8.822 v 44.2586 h -8.7032 v -5.0496 h -0.208 q -0.7723,1.6337 -2.0792,2.911 -1.2773,1.2772 -3.0892,2.0198 -1.8119,0.7426 -4.1882,0.7426 z m 2.4951,-7.1586 q 2.2278,0 3.8615,-1.1881 1.6337,-1.1882 2.5248,-3.3269 0.8911,-2.1683 0.8911,-5.0496 0,-2.911 -0.8911,-5.0199 -0.8911,-2.1387 -2.5248,-3.3269 -1.604,-1.1881 -3.8615,-1.1881 -2.1981,0 -3.8021,1.1881 -1.5743,1.1585 -2.4357,3.2972 -0.8317,2.1089 -0.8317,5.0496 0,2.9407 0.8317,5.109 0.8614,2.1387 2.4357,3.2972 1.604,1.1584 3.8021,1.1584 z m 52.9618,7.218 q -5.5249,0 -9.5052,-1.7228 -3.9803,-1.7228 -6.1487,-5.0496 -2.1387,-3.3269 -2.1981,-8.0795 h 8.822 q 0.089,2.3466 1.2179,3.9803 1.1584,1.6041 3.1486,2.4655 1.9901,0.8317 4.6635,0.8317 2.4951,0 4.3367,-0.6832 1.8417,-0.7129 2.8813,-1.9902 1.0396,-1.2772 1.0396,-2.9703 0,-1.4852 -0.8614,-2.5249 -0.8614,-1.0396 -2.5842,-1.8119 -1.7228,-0.7723 -4.3665,-1.3664 l -4.7526,-1.099 q -6.1486,-1.3961 -9.3567,-4.3962 -3.1783,-3 -3.1783,-7.7824 0,-4.0397 2.109,-7.0397 2.1387,-3.0001 5.9111,-4.6635 3.7723,-1.6931 8.7032,-1.6931 5.0199,0 8.7032,1.6931 3.6832,1.6931 5.7328,4.812 2.0495,3.0892 2.1684,7.3071 h -8.6735 q -0.2377,-2.9407 -2.3466,-4.6041 -2.109,-1.6634 -5.614,-1.6634 -2.2575,0 -3.9506,0.6832 -1.6932,0.6832 -2.614,1.901 -0.9208,1.1882 -0.9208,2.7625 0,1.4852 0.8614,2.5248 0.8614,1.0099 2.5248,1.7228 1.6634,0.7129 4.01,1.2476 l 4.1289,0.9505 q 3.208,0.7129 5.7031,1.8119 2.4951,1.0694 4.2179,2.614 1.7228,1.5446 2.614,3.6238 0.9208,2.0496 0.9208,4.6635 0,4.1585 -2.0793,7.218 -2.0793,3.0298 -5.9704,4.6932 -3.8912,1.6337 -9.2973,1.6337 z m 40.3674,-32.882 v 6.8615 h -20.1986 v -6.8615 z m -15.1489,-8.2577 h 8.7923 v 30.7434 q 0,1.604 0.6832,2.2872 0.6831,0.6535 2.3763,0.6535 0.6534,0 1.604,-0.059 0.9802,-0.059 1.5149,-0.089 l 0.5643,6.7724 q -1.099,0.2079 -2.5545,0.2674 -1.4258,0.089 -2.8219,0.089 -5.109,0 -7.6338,-2.1981 -2.5248,-2.1981 -2.5248,-6.5942 z m 30.0602,41.0209 q -3.1486,0 -5.614,-1.0693 -2.4654,-1.0694 -3.8912,-3.208 -1.3961,-2.1387 -1.3961,-5.317 0,-2.7328 0.9802,-4.5447 1.0099,-1.8119 2.7328,-2.9109 1.7525,-1.0991 3.9803,-1.6635 2.2278,-0.594 4.6635,-0.8317 2.8812,-0.2673 4.604,-0.5346 1.7229,-0.2674 2.4952,-0.7723 0.802,-0.5347 0.802,-1.5743 v -0.1783 q 0,-1.2772 -0.6238,-2.198 -0.5941,-0.9208 -1.7525,-1.4258 -1.1585,-0.5347 -2.7922,-0.5347 -1.6634,0 -2.911,0.5347 -1.2475,0.505 -2.0198,1.3961 -0.7426,0.8911 -0.9802,2.0495 l -8.1983,-0.594 q 0.4753,-3.0892 2.3169,-5.317 1.8416,-2.2278 4.8714,-3.416 3.0298,-1.1881 7.0695,-1.1881 2.9704,0 5.4952,0.6832 2.5248,0.6832 4.3665,2.0792 1.8713,1.3664 2.8812,3.416 1.0397,2.0495 1.0397,4.812 v 21.7431 h -8.525 v -4.5149 h -0.1782 q -0.8317,1.5446 -2.109,2.703 -1.2773,1.1288 -3.0892,1.7525 -1.7822,0.6238 -4.2179,0.6238 z m 2.4654,-6.1487 q 2.109,0 3.6536,-0.802 1.5743,-0.802 2.4357,-2.1683 0.8614,-1.3664 0.8614,-3.0892 v -3.3566 q -0.3862,0.2377 -1.0991,0.4456 -0.7129,0.2079 -1.604,0.4158 -0.8911,0.1783 -1.8713,0.3268 -0.9505,0.1485 -1.8713,0.297 -1.5446,0.208 -2.7922,0.7129 -1.2179,0.505 -1.9307,1.3664 -0.7129,0.8614 -0.7129,2.1387 0,1.1881 0.6237,2.0198 0.6238,0.8317 1.7229,1.2773 1.1287,0.4158 2.5842,0.4158 z m 39.803,-26.6145 v 6.8615 h -20.1985 v -6.8615 z m -15.1489,-8.2577 h 8.7923 v 30.7434 q 0,1.604 0.6832,2.2872 0.6832,0.6535 2.3763,0.6535 0.6535,0 1.604,-0.059 0.9802,-0.059 1.5149,-0.089 l 0.5644,6.7724 q -1.0991,0.2079 -2.5545,0.2674 -1.4258,0.089 -2.8219,0.089 -5.1091,0 -7.6339,-2.1981 -2.5248,-2.1981 -2.5248,-6.5942 z m 20.1689,40.4565 v -32.1988 h 8.822 v 32.1988 z m 4.3961,-36.298 q -2.1089,0 -3.5347,-1.3366 -1.4258,-1.3367 -1.4258,-3.2971 0,-1.9605 1.4258,-3.2675 1.4258,-1.3366 3.505,-1.3366 2.109,0 3.5348,1.3366 1.4258,1.307 1.4258,3.2675 0,1.9604 -1.4258,3.2971 -1.4258,1.3366 -3.5051,1.3366 z m 25.9017,36.9812 q -4.8417,0 -8.4656,-2.0792 -3.6238,-2.109 -5.614,-5.8517 -1.9901,-3.7724 -1.9901,-8.7626 0,-5.0199 1.9901,-8.7923 1.9902,-3.7724 5.614,-5.8516 3.6239,-2.109 8.4656,-2.109 4.9011,0 8.4953,2.109 3.5941,2.0792 5.5843,5.8516 1.9901,3.7724 1.9901,8.7923 0,4.9902 -1.9901,8.7626 -1.9902,3.7427 -5.5843,5.8517 -3.5942,2.0792 -8.4953,2.0792 z m 0,-7.0695 q 2.2575,0 3.8318,-1.1881 1.604,-1.2179 2.4654,-3.3862 0.8614,-2.1684 0.8614,-5.0794 0,-2.911 -0.8614,-5.0793 -0.8614,-2.1684 -2.4654,-3.3566 -1.5743,-1.2178 -3.8318,-1.2178 -2.2278,0 -3.8318,1.2178 -1.604,1.1882 -2.4654,3.3566 -0.8317,2.1386 -0.8317,5.0793 0,2.911 0.8317,5.0794 0.8614,2.1683 2.4654,3.3862 1.604,1.1881 3.8318,1.1881 z m 30.3572,-11.8518 v 18.2381 h -8.822 v -32.1988 h 8.525 l 0.059,8.2279 h -1.0693 q 1.396,-4.1585 4.0991,-6.4457 2.7327,-2.3169 6.9804,-2.3169 3.3862,0 5.911,1.4852 2.5248,1.4555 3.8912,4.2476 1.3961,2.7625 1.3961,6.7131 v 20.2876 h -8.822 v -18.7133 q 0,-3.1189 -1.5446,-4.812 -1.5446,-1.6932 -4.3368,-1.6932 -1.8416,0 -3.2674,0.7723 -1.3961,0.7723 -2.1981,2.3466 -0.802,1.5446 -0.802,3.8615 z"
     id="text4442-64"
     aria-label="Northfield Station" /><text
     xml:space="preserve"
     style="font-style:normal;font-variant:normal;font-weight:normal;font-stretch:normal;font-size:60.8333px;line-height:0.95;font-family:'Inter 24pt';-inkscape-font-specification:'Inter 24pt, Normal';font-variant-ligatures:none;font-variant-caps:normal;font-variant-numeric:normal;font-variant-east-asian:normal;fill:#2b83bf;fill-opacity:1;stroke-width:3.125"
     x="1706.25"
     y="1144.9808"
     id="text4442"><tspan
       sodipodi:role="line"
       id="tspan4442"
       style="font-style:normal;font-variant:normal;font-weight:bold;font-stretch:normal;font-size:60.8333px;font-family:'Inter 24pt';-inkscape-font-specification:'Inter 24pt, Bold';font-variant-ligatures:none;font-variant-caps:normal;font-variant-numeric:normal;font-variant-east-asian:normal;fill:#2b83bf;fill-opacity:1;stroke-width:3.125"
       x="1706.25"
       y="1144.9808">Northfield Station</tspan></text><text
     xml:space="preserve"
     style="font-size:46.875px;line-height:0.95;font-family:'Inter 24pt';-inkscape-font-specification:'Inter 24pt, Normal';font-variant-ligatures:none;fill:#2b83bf;fill-opacity:1;stroke-width:3.125;font-weight:normal;font-style:normal;font-stretch:normal;font-variant:normal;font-variant-caps:normal;font-variant-numeric:normal;font-variant-east-asian:normal"
     x="1159.3275"
     y="1619.6801"
     id="text4442-6"
     transform="rotate(-26.748961)"><tspan
       sodipodi:role="line"
       id="tspan4442-0"
       style="font-weight:normal;font-size:46.87500069px;fill:#2b83bf;fill-opacity:1;stroke-width:3.125;-inkscape-font-specification:'Inter 24pt, Normal';font-family:'Inter 24pt';font-style:normal;font-stretch:normal;font-variant:normal;font-variant-ligatures:none;font-variant-caps:normal;font-variant-numeric:normal;font-variant-east-asian:normal"
       x="1159.3275"
       y="1619.6801">ION Light Rail</tspan></text><text
     xml:space="preserve"
     style="font-style:normal;font-variant:normal;font-weight:normal;font-stretch:normal;font-size:60.8333px;line-height:0.95;font-family:'Inter 24pt';-inkscape-font-specification:'Inter 24pt, Normal';font-variant-ligatures:none;font-variant-caps:normal;font-variant-numeric:normal;font-variant-east-asian:normal;fill:#e0cce4;fill-opacity:1;stroke-width:3.125"
     id="text4442-5"
     y="2237.4651"
     x="683.36151"><tspan
       sodipodi:role="line"
       style="font-style:normal;font-variant:normal;font-weight:normal;font-stretch:normal;font-size:60.8333px;font-family:'Inter 24pt';-inkscape-font-specification:'Inter 24pt, Normal';font-variant-ligatures:none;font-variant-caps:normal;font-variant-numeric:normal;font-variant-east-asian:normal;fill:#e0cce4;fill-opacity:1;stroke-width:3.125"
       x="683.36151"
       y="2237.4651"
       id="tspan4443">Employment / Industrial</tspan></text><text
     xml:space="preserve"
     style="font-style:normal;font-variant:normal;font-weight:normal;font-stretch:normal;font-size:60.8333px;line-height:0.95;font-family:'Inter 24pt';-inkscape-font-specification:'Inter 24pt, Normal';font-variant-ligatures:none;font-variant-caps:normal;font-variant-numeric:normal;font-variant-east-asian:normal;fill:#feebac;fill-opacity:1;stroke-width:3.125"
     x="124.76505"
     y="1978.875"
     id="text4442-5-2"><tspan
       sodipodi:role="line"
       style="font-style:normal;font-variant:normal;font-weight:normal;font-stretch:normal;font-size:60.8333px;font-family:'Inter 24pt';-inkscape-font-specification:'Inter 24pt, Normal';font-variant-ligatures:none;font-variant-caps:normal;font-variant-numeric:normal;font-variant-east-asian:normal;fill:#feebac;fill-opacity:1;stroke-width:3.125"
       x="124.76505"
       y="1978.875"
       id="tspan4443-9">Residential</tspan></text><text
     xml:space="preserve"
     style="font-style:normal;font-variant:normal;font-weight:normal;font-stretch:normal;font-size:60.8333px;line-height:0.95;font-family:'Inter 24pt';-inkscape-font-specification:'Inter 24pt, Normal';font-variant-ligatures:none;font-variant-caps:normal;font-variant-numeric:normal;font-variant-east-asian:normal;fill:#d1d2ce;fill-opacity:1;stroke-width:3.125"
     x="2142.8906"
     y="2109.3928"
     id="text4442-5-2-7"><tspan
       sodipodi:role="line"
       style="font-style:normal;font-variant:normal;font-weight:normal;font-stretch:normal;font-size:60.8333px;font-family:'Inter 24pt';-inkscape-font-specification:'Inter 24pt, Normal';font-variant-ligatures:none;font-variant-caps:normal;font-variant-numeric:normal;font-variant-east-asian:normal;fill:#d1d2ce;fill-opacity:1;stroke-width:3.125"
       x="2142.8906"
       y="2109.3928"
       id="tspan4443-9-0">Surface parking</tspan></text><ellipse
     style="fill:#ffffff;fill-rule:evenodd;stroke:#2b83bf;stroke-width:11.811;stroke-linecap:round;stroke-linejoin:round;stroke-dasharray:none;stroke-opacity:1"
     id="path4442"
     cx="1667.3019"
     cy="1122.8966"
     rx="20.421341"
     ry="20.260218" /></svg>
