<?xml version="1.0" encoding="UTF-8" standalone="no"?>
<svg
   width="360"
   height="240"
   viewBox="0 0 360 240"
   version="1.1"
   id="svg82"
   sodipodi:docname="cooksville-housing.svg"
   inkscape:version="1.4.2 (1:1.4.2+202505120738+ebf0e940d0)"
   xmlns:inkscape="http://www.inkscape.org/namespaces/inkscape"
   xmlns:sodipodi="http://sodipodi.sourceforge.net/DTD/sodipodi-0.dtd"
   xmlns="http://www.w3.org/2000/svg"
   xmlns:svg="http://www.w3.org/2000/svg">
  <defs
     id="defs82" />
  <sodipodi:namedview
     id="namedview82"
     pagecolor="#ffffff"
     bordercolor="#666666"
     borderopacity="1.0"
     inkscape:showpageshadow="2"
     inkscape:pageopacity="0.0"
     inkscape:pagecheckerboard="0"
     inkscape:deskcolor="#d1d1d1"
     showgrid="false"
     inkscape:zoom="1.5752768"
     inkscape:cx="153.9412"
     inkscape:cy="145.68868"
     inkscape:window-width="2560"
     inkscape:window-height="1403"
     inkscape:window-x="0"
     inkscape:window-y="0"
     inkscape:window-maximized="1"
     inkscape:current-layer="Layer_1">
    <inkscape:grid
       id="grid82"
       units="px"
       originx="0"
       originy="0"
       spacingx="20"
       spacingy="20"
       empcolor="#0099e5"
       empopacity="0.30196078"
       color="#0099e5"
       opacity="0.14901961"
       empspacing="5"
       enabled="true"
       visible="false" />
  </sodipodi:namedview>
  <g
     id="bases"
     transform="matrix(0.8799989,0,0,0.8799989,11.200011,-6.3999671)"
     style="stroke-width:1.13637">
    <rect
       x="10"
       y="30"
       width="363.63681"
       height="227.27301"
       rx="13.942"
       ry="13.942"
       fill="#f2f2f3"
       id="rect1"
       style="stroke-width:1.13637" />
    <rect
       x="201.056"
       y="125.797"
       width="1.897"
       height="3.8640001"
       fill="#f2f2f3"
       id="rect2"
       style="stroke-width:1.13637" />
    <rect
       x="204.18201"
       y="125.797"
       width="1.897"
       height="3.8640001"
       fill="#f2f2f3"
       id="rect3"
       style="stroke-width:1.13637" />
    <rect
       x="204.18201"
       y="141.005"
       width="1.897"
       height="3.8640001"
       fill="#f2f2f3"
       id="rect4"
       style="stroke-width:1.13637" />
    <rect
       x="207.30901"
       y="141.005"
       width="1.897"
       height="3.8640001"
       fill="#f2f2f3"
       id="rect5"
       style="stroke-width:1.13637" />
    <rect
       x="201.056"
       y="146.106"
       width="1.897"
       height="3.8640001"
       fill="#f2f2f3"
       id="rect6"
       style="stroke-width:1.13637" />
    <rect
       x="215.50101"
       y="159.86099"
       width="1.897"
       height="3.8640001"
       fill="#f2f2f3"
       id="rect7"
       style="stroke-width:1.13637" />
    <rect
       x="212.37399"
       y="135.867"
       width="1.897"
       height="3.8640001"
       fill="#f2f2f3"
       id="rect8"
       style="stroke-width:1.13637" />
    <rect
       x="218.627"
       y="151.733"
       width="1.897"
       height="3.8640001"
       fill="#f2f2f3"
       id="rect9"
       style="stroke-width:1.13637" />
  </g>
  <g
     id="Layer_1"
     data-name="Layer 1"
     transform="matrix(0.8799989,0,0,0.8799989,11.200011,-6.3999671)"
     style="stroke-width:1.13637">
    <g
       id="g10"
       style="stroke-width:1.13637"
       transform="translate(-1.4201689,-3.5450762)">
      <path
         d="m 50.257,151.923 c 0,-0.625 0.275,-1.218 0.753,-1.622 l 7.43,-6.369 c 0.791,-0.669 1.95,-0.669 2.741,0 l 7.43,6.369 c 0.477,0.403 0.753,0.997 0.753,1.622 v 9.553 c 0,1.172 -0.95,2.123 -2.123,2.123 H 52.38 c -1.172,0 -2.123,-0.95 -2.123,-2.123 z"
         fill="#9fd8cf"
         stroke="#f2f2f3"
         stroke-miterlimit="10"
         stroke-width="0.568183"
         id="path9" />
      <path
         d="m 62.994,163.6 v -8.492 c 0,-0.586 -0.475,-1.061 -1.061,-1.061 h -4.246 c -0.586,0 -1.061,0.475 -1.061,1.061 v 8.492"
         fill="#9fd8cf"
         stroke="#f2f2f3"
         stroke-miterlimit="10"
         stroke-width="0.568183"
         id="path10" />
    </g>
    <g
       id="g34"
       style="stroke-width:1.13637">
      <rect
         x="30"
         y="56.304001"
         width="297.19299"
         height="67.392998"
         fill="none"
         id="rect10"
         style="stroke-width:1.13637" />
      <path
         d="m 34.007,90.035 14.036,-27.8 V 62.008 H 31.698 v -5.705 h 23.567 v 5.796 L 41.184,90.035 Z"
         fill="#7dd0e2"
         id="path11"
         style="stroke-width:1.13637" />
      <path
         d="m 71.383,90.488 c -2.521,0 -4.754,-0.416 -6.701,-1.245 -1.947,-0.83 -3.475,-1.962 -4.584,-3.396 -1.109,-1.434 -1.664,-3.056 -1.664,-4.867 0,-1.403 0.321,-2.697 0.962,-3.882 0.641,-1.185 1.509,-2.174 2.603,-2.966 1.094,-0.793 2.328,-1.302 3.702,-1.528 V 72.4 c -1.796,-0.377 -3.252,-1.26 -4.369,-2.648 -1.117,-1.389 -1.675,-3.003 -1.675,-4.845 0,-1.735 0.505,-3.286 1.517,-4.652 1.011,-1.365 2.4,-2.44 4.166,-3.226 1.766,-0.784 3.781,-1.178 6.044,-1.178 2.249,0 4.26,0.394 6.033,1.178 1.773,0.785 3.169,1.86 4.188,3.226 1.019,1.366 1.528,2.917 1.528,4.652 0,1.842 -0.566,3.456 -1.698,4.845 -1.132,1.389 -2.574,2.271 -4.324,2.648 v 0.204 c 1.343,0.227 2.562,0.735 3.656,1.528 1.094,0.792 1.97,1.781 2.626,2.966 0.657,1.185 0.985,2.479 0.985,3.882 0,1.812 -0.559,3.434 -1.675,4.867 -1.117,1.435 -2.653,2.566 -4.607,3.396 -1.955,0.829 -4.192,1.245 -6.712,1.245 z m 0,-5.116 c 1.162,0 2.173,-0.208 3.034,-0.623 0.861,-0.415 1.532,-0.996 2.015,-1.743 0.483,-0.747 0.725,-1.604 0.725,-2.569 0,-0.996 -0.249,-1.875 -0.747,-2.638 -0.498,-0.762 -1.181,-1.365 -2.049,-1.811 -0.868,-0.445 -1.86,-0.668 -2.977,-0.668 -1.117,0 -2.109,0.219 -2.977,0.656 -0.868,0.438 -1.551,1.038 -2.049,1.8 -0.498,0.763 -0.747,1.649 -0.747,2.66 0,0.966 0.238,1.818 0.713,2.558 0.476,0.74 1.15,1.321 2.026,1.743 0.875,0.423 1.887,0.635 3.034,0.635 z m 0,-15.123 c 0.966,0 1.822,-0.196 2.569,-0.589 0.747,-0.392 1.336,-0.936 1.766,-1.63 0.43,-0.693 0.645,-1.486 0.645,-2.377 0,-0.905 -0.211,-1.697 -0.634,-2.377 -0.423,-0.679 -1.007,-1.207 -1.754,-1.585 -0.747,-0.377 -1.611,-0.565 -2.592,-0.565 -0.981,0 -1.845,0.188 -2.592,0.565 -0.747,0.378 -1.333,0.906 -1.755,1.585 -0.422,0.68 -0.634,1.472 -0.634,2.377 0,0.891 0.211,1.684 0.634,2.377 0.422,0.694 1.011,1.238 1.766,1.63 0.754,0.393 1.615,0.589 2.581,0.589 z"
         fill="#7dd0e2"
         id="path12"
         style="stroke-width:1.13637" />
      <path
         d="m 98.051,72.399 c -1.6,0 -2.947,-0.339 -4.041,-1.019 -1.094,-0.679 -1.921,-1.585 -2.479,-2.717 -0.559,-1.132 -0.837,-2.361 -0.837,-3.689 v -1.766 c 0,-1.358 0.286,-2.6 0.86,-3.725 0.574,-1.124 1.407,-2.026 2.502,-2.705 1.094,-0.68 2.426,-1.019 3.996,-1.019 1.6,0 2.946,0.339 4.041,1.019 1.094,0.679 1.92,1.581 2.479,2.705 0.558,1.125 0.837,2.366 0.837,3.725 v 1.766 c 0,1.358 -0.283,2.6 -0.849,3.724 -0.566,1.125 -1.396,2.022 -2.49,2.694 -1.094,0.672 -2.434,1.007 -4.018,1.007 z m 0,-4.142 c 1.011,0 1.701,-0.34 2.071,-1.019 0.37,-0.68 0.555,-1.434 0.555,-2.264 v -1.766 c 0,-0.815 -0.178,-1.574 -0.532,-2.275 -0.354,-0.702 -1.052,-1.053 -2.094,-1.053 -0.996,0 -1.687,0.358 -2.071,1.075 -0.385,0.717 -0.578,1.468 -0.578,2.253 v 1.766 c 0,0.83 0.192,1.584 0.578,2.264 0.385,0.679 1.075,1.019 2.071,1.019 z M 95.968,90.035 119.15,56.304 h 4.686 l -23.182,33.731 h -4.687 z m 26.035,0.589 c -1.585,0 -2.924,-0.34 -4.019,-1.019 -1.094,-0.68 -1.924,-1.585 -2.49,-2.717 -0.566,-1.132 -0.849,-2.362 -0.849,-3.69 v -1.766 c 0,-1.358 0.287,-2.6 0.86,-3.724 0.573,-1.125 1.411,-2.026 2.513,-2.706 1.101,-0.679 2.43,-1.019 3.984,-1.019 1.615,0 2.965,0.34 4.052,1.019 1.086,0.68 1.909,1.581 2.467,2.706 0.558,1.124 0.838,2.365 0.838,3.724 v 1.766 c 0,1.344 -0.283,2.581 -0.849,3.713 -0.566,1.132 -1.396,2.034 -2.49,2.705 -1.094,0.672 -2.434,1.008 -4.018,1.008 z m 0,-4.144 c 1.011,0 1.701,-0.343 2.071,-1.029 0.37,-0.687 0.555,-1.438 0.555,-2.253 v -1.766 c 0,-0.815 -0.178,-1.573 -0.532,-2.275 -0.354,-0.702 -1.053,-1.053 -2.094,-1.053 -0.996,0 -1.683,0.354 -2.061,1.064 -0.377,0.709 -0.566,1.464 -0.566,2.264 v 1.766 c 0,0.815 0.188,1.566 0.566,2.253 0.378,0.687 1.064,1.029 2.061,1.029 z"
         fill="#7dd0e2"
         id="path13"
         style="stroke-width:1.13637" />
      <path
         d="m 154.64541,68.821 c -1.268,0 -2.366,-0.273 -3.294,-0.82 -0.928,-0.548 -1.643,-1.31 -2.145,-2.287 -0.502,-0.977 -0.752,-2.114 -0.752,-3.412 0,-1.313 0.25,-2.458 0.752,-3.436 0.502,-0.978 1.217,-1.739 2.145,-2.287 0.928,-0.547 2.026,-0.82 3.294,-0.82 1.275,0 2.375,0.273 3.3,0.82 0.924,0.548 1.637,1.31 2.139,2.287 0.502,0.977 0.753,2.122 0.753,3.436 0,1.298 -0.251,2.436 -0.753,3.412 -0.502,0.978 -1.215,1.739 -2.139,2.287 -0.925,0.547 -2.024,0.82 -3.3,0.82 z m 0,-2.671 c 0.604,0 1.109,-0.168 1.517,-0.504 0.407,-0.336 0.713,-0.796 0.917,-1.381 0.204,-0.585 0.306,-1.243 0.306,-1.976 0,-0.747 -0.102,-1.411 -0.306,-1.992 -0.204,-0.581 -0.509,-1.037 -0.917,-1.369 -0.408,-0.332 -0.914,-0.498 -1.517,-0.498 -0.603,0 -1.107,0.166 -1.511,0.498 -0.404,0.332 -0.707,0.788 -0.911,1.369 -0.204,0.581 -0.306,1.245 -0.306,1.992 0,0.732 0.102,1.391 0.306,1.976 0.204,0.585 0.507,1.045 0.911,1.381 0.404,0.336 0.908,0.504 1.511,0.504 z"
         fill="#7dd0e2"
         id="path14"
         style="stroke-width:1.13637" />
      <path
         d="m 170.24341,55.916 v 2.593 h -8.263 v -2.593 z m -6.033,12.656 V 54.944 c 0,-0.898 0.179,-1.646 0.538,-2.241 0.358,-0.597 0.847,-1.044 1.466,-1.342 0.619,-0.298 1.32,-0.447 2.105,-0.447 0.536,0 1.024,0.044 1.466,0.13 0.441,0.087 0.764,0.161 0.968,0.222 l -0.611,2.558 c -0.144,-0.038 -0.312,-0.075 -0.504,-0.113 -0.192,-0.037 -0.402,-0.057 -0.628,-0.057 -0.514,0 -0.877,0.123 -1.093,0.368 -0.215,0.245 -0.322,0.591 -0.322,1.035 v 13.516 h -3.385 z"
         fill="#7dd0e2"
         id="path15"
         style="stroke-width:1.13637" />
      <path
         d="m 181.31341,61.248 v 7.323 h -3.396 V 51.706 h 3.328 v 7.368 h -0.272 c 0.332,-1.057 0.836,-1.873 1.511,-2.45 0.675,-0.577 1.549,-0.866 2.621,-0.866 0.875,0 1.639,0.19 2.292,0.571 0.653,0.382 1.16,0.929 1.522,1.642 0.362,0.713 0.543,1.564 0.543,2.553 v 8.048 h -3.407 v -7.459 c 0,-0.785 -0.202,-1.4 -0.605,-1.846 -0.404,-0.445 -0.964,-0.668 -1.681,-0.668 -0.475,0 -0.9,0.104 -1.273,0.312 -0.374,0.208 -0.664,0.508 -0.872,0.9 -0.208,0.392 -0.311,0.871 -0.311,1.438 z"
         fill="#7dd0e2"
         id="path16"
         style="stroke-width:1.13637" />
      <path
         d="m 198.00941,68.821 c -1.268,0 -2.366,-0.273 -3.294,-0.82 -0.928,-0.548 -1.643,-1.31 -2.145,-2.287 -0.502,-0.977 -0.752,-2.114 -0.752,-3.412 0,-1.313 0.25,-2.458 0.752,-3.436 0.502,-0.978 1.217,-1.739 2.145,-2.287 0.928,-0.547 2.026,-0.82 3.294,-0.82 1.275,0 2.375,0.273 3.3,0.82 0.924,0.548 1.637,1.31 2.139,2.287 0.502,0.977 0.753,2.122 0.753,3.436 0,1.298 -0.251,2.436 -0.753,3.412 -0.502,0.978 -1.215,1.739 -2.139,2.287 -0.925,0.547 -2.024,0.82 -3.3,0.82 z m 0,-2.671 c 0.604,0 1.109,-0.168 1.517,-0.504 0.407,-0.336 0.713,-0.796 0.917,-1.381 0.204,-0.585 0.306,-1.243 0.306,-1.976 0,-0.747 -0.102,-1.411 -0.306,-1.992 -0.204,-0.581 -0.509,-1.037 -0.917,-1.369 -0.408,-0.332 -0.914,-0.498 -1.517,-0.498 -0.603,0 -1.107,0.166 -1.511,0.498 -0.404,0.332 -0.707,0.788 -0.911,1.369 -0.204,0.581 -0.306,1.245 -0.306,1.992 0,0.732 0.102,1.391 0.306,1.976 0.204,0.585 0.507,1.045 0.911,1.381 0.404,0.336 0.908,0.504 1.511,0.504 z"
         fill="#7dd0e2"
         id="path17"
         style="stroke-width:1.13637" />
      <path
         d="m 210.92441,68.73 c -0.875,0 -1.641,-0.19 -2.298,-0.571 -0.656,-0.381 -1.164,-0.929 -1.522,-1.642 -0.358,-0.713 -0.538,-1.563 -0.538,-2.553 v -8.048 h 3.396 v 7.46 c 0,0.785 0.204,1.399 0.611,1.845 0.407,0.445 0.966,0.668 1.675,0.668 0.482,0 0.909,-0.104 1.279,-0.312 0.37,-0.207 0.658,-0.509 0.866,-0.905 0.207,-0.396 0.311,-0.873 0.311,-1.432 v -7.324 h 3.407 v 12.655 h -3.215 l -0.045,-3.158 h 0.192 c -0.332,1.064 -0.839,1.883 -1.522,2.456 -0.683,0.574 -1.549,0.86 -2.598,0.86 z"
         fill="#7dd0e2"
         id="path18"
         style="stroke-width:1.13637" />
      <path
         d="m 226.02441,68.821 c -1.019,0 -1.92,-0.146 -2.705,-0.436 -0.785,-0.291 -1.426,-0.713 -1.924,-1.268 -0.498,-0.555 -0.819,-1.225 -0.962,-2.01 l 3.158,-0.543 c 0.166,0.589 0.457,1.03 0.872,1.324 0.415,0.294 0.97,0.441 1.664,0.441 0.649,0 1.16,-0.123 1.534,-0.368 0.374,-0.245 0.56,-0.556 0.56,-0.934 0,-0.332 -0.134,-0.604 -0.402,-0.814 -0.268,-0.212 -0.677,-0.374 -1.228,-0.487 l -2.185,-0.453 c -1.223,-0.249 -2.136,-0.673 -2.739,-1.273 -0.604,-0.6 -0.906,-1.371 -0.906,-2.314 0,-0.814 0.223,-1.515 0.668,-2.1 0.445,-0.585 1.064,-1.036 1.856,-1.353 0.792,-0.317 1.724,-0.476 2.796,-0.476 0.996,0 1.86,0.138 2.592,0.413 0.731,0.275 1.324,0.666 1.777,1.172 0.453,0.506 0.754,1.102 0.906,1.788 l -3.011,0.532 c -0.128,-0.43 -0.375,-0.783 -0.741,-1.059 -0.366,-0.275 -0.858,-0.413 -1.477,-0.413 -0.559,0 -1.026,0.117 -1.404,0.351 -0.377,0.234 -0.566,0.548 -0.566,0.939 0,0.317 0.123,0.585 0.368,0.804 0.245,0.22 0.666,0.39 1.262,0.51 l 2.275,0.453 c 1.222,0.249 2.132,0.654 2.728,1.217 0.596,0.562 0.894,1.296 0.894,2.201 0,0.83 -0.242,1.557 -0.725,2.179 -0.483,0.623 -1.149,1.107 -1.998,1.455 -0.849,0.347 -1.828,0.521 -2.938,0.521 z"
         fill="#7dd0e2"
         id="path19"
         style="stroke-width:1.13637" />
      <path
         d="m 235.68041,54.264 c -0.514,0 -0.951,-0.17 -1.313,-0.509 -0.362,-0.34 -0.543,-0.751 -0.543,-1.234 0,-0.483 0.181,-0.895 0.543,-1.233 0.362,-0.34 0.8,-0.51 1.313,-0.51 0.513,0 0.952,0.17 1.318,0.51 0.366,0.339 0.549,0.751 0.549,1.233 0,0.482 -0.183,0.895 -0.549,1.234 -0.366,0.339 -0.806,0.509 -1.318,0.509 z m -1.698,14.308 V 55.917 h 3.396 v 12.655 z"
         fill="#7dd0e2"
         id="path20"
         style="stroke-width:1.13637" />
      <path
         d="m 243.66041,61.248 v 7.323 h -3.396 V 55.916 h 3.204 l 0.057,3.158 h -0.204 c 0.332,-1.057 0.836,-1.873 1.511,-2.45 0.675,-0.577 1.549,-0.866 2.621,-0.866 0.875,0 1.639,0.19 2.292,0.571 0.653,0.382 1.158,0.929 1.517,1.642 0.359,0.713 0.538,1.564 0.538,2.553 v 8.048 h -3.396 v -7.459 c 0,-0.785 -0.202,-1.4 -0.605,-1.846 -0.404,-0.445 -0.964,-0.668 -1.681,-0.668 -0.475,0 -0.9,0.104 -1.273,0.312 -0.374,0.208 -0.664,0.508 -0.872,0.9 -0.208,0.392 -0.311,0.871 -0.311,1.438 z"
         fill="#7dd0e2"
         id="path21"
         style="stroke-width:1.13637" />
      <path
         d="m 260.32241,73.574 c -1.057,0 -1.978,-0.134 -2.762,-0.401 -0.785,-0.269 -1.422,-0.636 -1.913,-1.104 -0.491,-0.469 -0.831,-1 -1.019,-1.597 l 2.92,-0.814 c 0.105,0.233 0.27,0.462 0.493,0.685 0.222,0.223 0.519,0.405 0.888,0.549 0.369,0.144 0.827,0.215 1.37,0.215 0.868,0 1.549,-0.197 2.043,-0.594 0.494,-0.396 0.741,-1.014 0.741,-1.851 V 66.33 h -0.26 c -0.151,0.34 -0.37,0.668 -0.657,0.984 -0.287,0.317 -0.662,0.576 -1.126,0.775 -0.464,0.2 -1.04,0.301 -1.727,0.301 -0.951,0 -1.815,-0.223 -2.592,-0.668 -0.777,-0.445 -1.398,-1.125 -1.862,-2.038 -0.464,-0.913 -0.696,-2.067 -0.696,-3.463 0,-1.427 0.236,-2.619 0.708,-3.577 0.471,-0.958 1.098,-1.679 1.879,-2.162 0.781,-0.483 1.639,-0.725 2.575,-0.725 0.709,0 1.305,0.119 1.788,0.356 0.483,0.238 0.874,0.536 1.172,0.895 0.298,0.358 0.522,0.704 0.673,1.035 h 0.147 v -2.128 h 3.339 v 12.554 c 0,1.139 -0.262,2.086 -0.787,2.841 -0.525,0.755 -1.247,1.32 -2.167,1.698 -0.921,0.377 -1.978,0.565 -3.169,0.565 z m 0.057,-7.764 c 0.581,0 1.073,-0.144 1.477,-0.431 0.403,-0.286 0.711,-0.699 0.922,-1.239 0.211,-0.539 0.317,-1.187 0.317,-1.941 0,-0.747 -0.105,-1.399 -0.317,-1.958 -0.212,-0.559 -0.519,-0.992 -0.922,-1.302 -0.404,-0.31 -0.896,-0.464 -1.477,-0.464 -0.596,0 -1.096,0.16 -1.5,0.481 -0.404,0.32 -0.709,0.76 -0.917,1.318 -0.208,0.558 -0.311,1.199 -0.311,1.924 0,0.74 0.104,1.38 0.311,1.919 0.208,0.54 0.515,0.956 0.923,1.251 0.407,0.294 0.905,0.441 1.494,0.441 z"
         fill="#7dd0e2"
         id="path22"
         style="stroke-width:1.13637" />
      <path
         d="m 276.53141,54.264 c -0.514,0 -0.951,-0.17 -1.313,-0.509 -0.362,-0.34 -0.543,-0.751 -0.543,-1.234 0,-0.483 0.181,-0.895 0.543,-1.233 0.362,-0.34 0.8,-0.51 1.313,-0.51 0.513,0 0.952,0.17 1.318,0.51 0.366,0.339 0.549,0.751 0.549,1.233 0,0.482 -0.183,0.895 -0.549,1.234 -0.366,0.339 -0.806,0.509 -1.318,0.509 z m -1.698,14.308 V 55.917 h 3.396 v 12.655 z"
         fill="#7dd0e2"
         id="path23"
         style="stroke-width:1.13637" />
      <path
         d="m 286.14141,68.821 c -1.019,0 -1.92,-0.146 -2.705,-0.436 -0.785,-0.291 -1.426,-0.713 -1.924,-1.268 -0.498,-0.555 -0.819,-1.225 -0.962,-2.01 l 3.158,-0.543 c 0.166,0.589 0.457,1.03 0.872,1.324 0.415,0.294 0.97,0.441 1.664,0.441 0.649,0 1.16,-0.123 1.534,-0.368 0.374,-0.245 0.56,-0.556 0.56,-0.934 0,-0.332 -0.134,-0.604 -0.402,-0.814 -0.268,-0.212 -0.677,-0.374 -1.228,-0.487 l -2.185,-0.453 c -1.223,-0.249 -2.136,-0.673 -2.739,-1.273 -0.604,-0.6 -0.906,-1.371 -0.906,-2.314 0,-0.814 0.223,-1.515 0.668,-2.1 0.445,-0.585 1.064,-1.036 1.856,-1.353 0.792,-0.317 1.724,-0.476 2.796,-0.476 0.996,0 1.86,0.138 2.592,0.413 0.731,0.275 1.324,0.666 1.777,1.172 0.453,0.506 0.754,1.102 0.906,1.788 l -3.011,0.532 c -0.128,-0.43 -0.375,-0.783 -0.741,-1.059 -0.366,-0.275 -0.858,-0.413 -1.477,-0.413 -0.559,0 -1.026,0.117 -1.404,0.351 -0.377,0.234 -0.566,0.548 -0.566,0.939 0,0.317 0.123,0.585 0.368,0.804 0.245,0.22 0.666,0.39 1.262,0.51 l 2.275,0.453 c 1.222,0.249 2.132,0.654 2.728,1.217 0.596,0.562 0.894,1.296 0.894,2.201 0,0.83 -0.242,1.557 -0.725,2.179 -0.483,0.623 -1.149,1.107 -1.998,1.455 -0.849,0.347 -1.828,0.521 -2.938,0.521 z"
         fill="#7dd0e2"
         id="path24"
         style="stroke-width:1.13637" />
      <path
         d="m 153.98241,90.958018 c -0.8,0 -1.519,-0.142 -2.156,-0.425 -0.638,-0.282 -1.14,-0.705 -1.505,-1.268 -0.366,-0.562 -0.549,-1.262 -0.549,-2.1 0,-0.702 0.13,-1.29 0.391,-1.766 0.261,-0.476 0.615,-0.856 1.064,-1.144 0.449,-0.286 0.958,-0.505 1.528,-0.656 0.569,-0.151 1.167,-0.257 1.794,-0.317 0.732,-0.075 1.322,-0.145 1.771,-0.209 0.449,-0.064 0.777,-0.166 0.985,-0.306 0.208,-0.14 0.311,-0.346 0.311,-0.617 v -0.057 c 0,-0.362 -0.075,-0.668 -0.226,-0.917 -0.151,-0.249 -0.375,-0.439 -0.674,-0.571 -0.298,-0.132 -0.658,-0.198 -1.081,-0.198 -0.438,0 -0.819,0.066 -1.144,0.198 -0.325,0.132 -0.588,0.308 -0.792,0.526 -0.204,0.219 -0.354,0.464 -0.453,0.736 l -3.113,-0.51 c 0.219,-0.739 0.581,-1.366 1.087,-1.879 0.505,-0.514 1.133,-0.905 1.884,-1.178 0.751,-0.271 1.598,-0.407 2.542,-0.407 0.679,0 1.339,0.081 1.981,0.243 0.641,0.163 1.217,0.413 1.726,0.753 0.509,0.34 0.913,0.783 1.211,1.33 0.298,0.547 0.447,1.202 0.447,1.964 v 8.523 h -3.215 v -1.755 h -0.113 c -0.204,0.393 -0.475,0.738 -0.815,1.036 -0.339,0.298 -0.749,0.534 -1.228,0.707 -0.479,0.174 -1.032,0.261 -1.658,0.261 z m 0.962,-2.389 c 0.536,0 1.006,-0.105 1.41,-0.316 0.403,-0.211 0.719,-0.498 0.945,-0.86 0.227,-0.362 0.34,-0.766 0.34,-1.211 v -1.37 c -0.098,0.075 -0.249,0.144 -0.453,0.204 -0.204,0.061 -0.43,0.113 -0.679,0.158 -0.249,0.045 -0.495,0.087 -0.736,0.125 -0.242,0.037 -0.457,0.067 -0.646,0.09 -0.415,0.061 -0.781,0.159 -1.098,0.295 -0.317,0.136 -0.562,0.314 -0.736,0.537 -0.174,0.223 -0.26,0.508 -0.26,0.854 0,0.325 0.083,0.599 0.249,0.821 0.166,0.223 0.392,0.391 0.679,0.503 0.287,0.113 0.615,0.17 0.984,0.17 z"
         fill="#7dd0e2"
         id="path25"
         style="stroke-width:1.13637" />
      <path
         d="m 163.90941,95.440018 v -17.387 h 3.339 v 2.128 h 0.158 c 0.159,-0.331 0.383,-0.675 0.674,-1.029 0.291,-0.354 0.673,-0.653 1.149,-0.895 0.475,-0.241 1.071,-0.362 1.788,-0.362 0.936,0 1.792,0.241 2.57,0.725 0.777,0.483 1.398,1.207 1.862,2.173 0.464,0.967 0.696,2.17 0.696,3.611 0,1.403 -0.227,2.59 -0.679,3.56 -0.452,0.97 -1.068,1.706 -1.845,2.207 -0.777,0.502 -1.652,0.753 -2.626,0.753 -0.687,0 -1.268,-0.117 -1.743,-0.351 -0.476,-0.234 -0.862,-0.522 -1.16,-0.866 -0.298,-0.343 -0.526,-0.685 -0.685,-1.024 h -0.102 v 6.758 h -3.396 z m 6.044,-7.244 c 0.589,0 1.085,-0.162 1.489,-0.487 0.403,-0.324 0.709,-0.773 0.917,-1.347 0.208,-0.574 0.312,-1.229 0.312,-1.97 0,-0.741 -0.104,-1.392 -0.312,-1.958 -0.208,-0.565 -0.511,-1.011 -0.911,-1.336 -0.4,-0.324 -0.898,-0.486 -1.494,-0.486 -0.581,0 -1.075,0.156 -1.482,0.47 -0.408,0.313 -0.717,0.751 -0.928,1.312 -0.211,0.562 -0.317,1.229 -0.317,1.998 0,0.763 0.107,1.429 0.322,1.998 0.215,0.57 0.526,1.013 0.934,1.33 0.407,0.317 0.898,0.476 1.471,0.476 z"
         fill="#7dd0e2"
         id="path26"
         style="stroke-width:1.13637" />
      <path
         d="m 182.28041,90.958018 c -0.8,0 -1.519,-0.142 -2.156,-0.425 -0.638,-0.282 -1.14,-0.705 -1.505,-1.268 -0.366,-0.562 -0.549,-1.262 -0.549,-2.1 0,-0.702 0.13,-1.29 0.391,-1.766 0.261,-0.476 0.615,-0.856 1.064,-1.144 0.449,-0.286 0.958,-0.505 1.528,-0.656 0.569,-0.151 1.167,-0.257 1.794,-0.317 0.732,-0.075 1.322,-0.145 1.771,-0.209 0.449,-0.064 0.777,-0.166 0.985,-0.306 0.208,-0.14 0.311,-0.346 0.311,-0.617 v -0.057 c 0,-0.362 -0.075,-0.668 -0.226,-0.917 -0.151,-0.249 -0.375,-0.439 -0.674,-0.571 -0.298,-0.132 -0.658,-0.198 -1.081,-0.198 -0.438,0 -0.819,0.066 -1.144,0.198 -0.325,0.132 -0.588,0.308 -0.792,0.526 -0.204,0.219 -0.354,0.464 -0.453,0.736 l -3.113,-0.51 c 0.219,-0.739 0.581,-1.366 1.087,-1.879 0.505,-0.514 1.133,-0.905 1.884,-1.178 0.751,-0.271 1.598,-0.407 2.542,-0.407 0.679,0 1.339,0.081 1.981,0.243 0.641,0.163 1.217,0.413 1.726,0.753 0.509,0.34 0.913,0.783 1.211,1.33 0.298,0.547 0.447,1.202 0.447,1.964 v 8.523 h -3.215 v -1.755 h -0.113 c -0.204,0.393 -0.475,0.738 -0.815,1.036 -0.339,0.298 -0.749,0.534 -1.228,0.707 -0.479,0.174 -1.032,0.261 -1.658,0.261 z m 0.962,-2.389 c 0.536,0 1.006,-0.105 1.41,-0.316 0.403,-0.211 0.719,-0.498 0.945,-0.86 0.227,-0.362 0.34,-0.766 0.34,-1.211 v -1.37 c -0.098,0.075 -0.249,0.144 -0.453,0.204 -0.204,0.061 -0.43,0.113 -0.679,0.158 -0.249,0.045 -0.495,0.087 -0.736,0.125 -0.242,0.037 -0.457,0.067 -0.646,0.09 -0.415,0.061 -0.781,0.159 -1.098,0.295 -0.317,0.136 -0.562,0.314 -0.736,0.537 -0.174,0.223 -0.26,0.508 -0.26,0.854 0,0.325 0.083,0.599 0.249,0.821 0.166,0.223 0.392,0.391 0.679,0.503 0.287,0.113 0.615,0.17 0.984,0.17 z"
         fill="#7dd0e2"
         id="path27"
         style="stroke-width:1.13637" />
      <path
         d="m 192.20741,90.709018 v -12.655 h 3.283 v 2.208 h 0.136 c 0.234,-0.785 0.625,-1.378 1.172,-1.777 0.547,-0.4 1.175,-0.6 1.884,-0.6 0.174,0 0.362,0.009 0.566,0.027 0.204,0.02 0.381,0.048 0.532,0.085 v 3.034 c -0.151,-0.053 -0.37,-0.095 -0.657,-0.125 -0.287,-0.03 -0.559,-0.045 -0.815,-0.045 -0.513,0 -0.977,0.111 -1.392,0.334 -0.415,0.223 -0.738,0.532 -0.968,0.928 -0.23,0.396 -0.345,0.858 -0.345,1.387 v 7.199 z"
         fill="#7dd0e2"
         id="path28"
         style="stroke-width:1.13637" />
      <path
         d="m 208.38241,78.053018 v 2.593 h -7.504 v -2.593 z m -5.761,-3.01 h 3.396 v 11.965 c 0,0.399 0.089,0.696 0.266,0.889 0.177,0.193 0.474,0.288 0.889,0.288 0.128,0 0.309,-0.017 0.543,-0.051 0.234,-0.034 0.412,-0.065 0.532,-0.096 l 0.487,2.546 c -0.377,0.113 -0.753,0.193 -1.126,0.238 -0.373,0.045 -0.73,0.067 -1.069,0.067 -1.268,0 -2.238,-0.309 -2.909,-0.928 -0.672,-0.619 -1.007,-1.506 -1.007,-2.66 v -12.259 z"
         fill="#7dd0e2"
         id="path29"
         style="stroke-width:1.13637" />
      <path
         d="m 210.58941,90.709018 v -12.655 h 3.147 l 0.17,3.147 h -0.249 c 0.196,-0.777 0.484,-1.411 0.866,-1.902 0.381,-0.49 0.828,-0.853 1.341,-1.086 0.513,-0.234 1.053,-0.352 1.619,-0.352 0.913,0 1.649,0.289 2.207,0.866 0.559,0.577 0.97,1.47 1.234,2.677 h -0.396 c 0.188,-0.807 0.496,-1.473 0.922,-1.998 0.426,-0.524 0.932,-0.912 1.517,-1.165 0.584,-0.253 1.198,-0.38 1.839,-0.38 0.777,0 1.469,0.17 2.077,0.51 0.607,0.34 1.086,0.828 1.438,1.466 0.351,0.638 0.526,1.417 0.526,2.337 v 8.535 h -3.396 v -7.89 c 0,-0.717 -0.194,-1.249 -0.583,-1.596 -0.389,-0.348 -0.866,-0.521 -1.432,-0.521 -0.423,0 -0.791,0.092 -1.104,0.277 -0.313,0.185 -0.555,0.443 -0.724,0.775 -0.17,0.332 -0.255,0.721 -0.255,1.165 v 7.788 h -3.283 v -7.98 c 0,-0.618 -0.183,-1.11 -0.549,-1.477 -0.366,-0.367 -0.839,-0.549 -1.42,-0.549 -0.4,0 -0.76,0.09 -1.081,0.271 -0.321,0.181 -0.574,0.447 -0.758,0.798 -0.185,0.351 -0.277,0.779 -0.277,1.285 v 7.651 h -3.396 z"
         fill="#7dd0e2"
         id="path30"
         style="stroke-width:1.13637" />
      <path
         d="m 237.46141,90.958018 c -1.291,0 -2.403,-0.264 -3.339,-0.792 -0.936,-0.528 -1.654,-1.279 -2.156,-2.253 -0.502,-0.974 -0.752,-2.128 -0.752,-3.464 0,-1.306 0.249,-2.448 0.747,-3.43 0.498,-0.98 1.204,-1.747 2.117,-2.298 0.913,-0.551 1.984,-0.826 3.214,-0.826 0.83,0 1.604,0.132 2.321,0.396 0.717,0.264 1.347,0.662 1.89,1.194 0.543,0.531 0.968,1.197 1.273,1.997 0.306,0.801 0.458,1.743 0.458,2.83 v 0.951 h -10.629 v -2.128 h 8.965 l -1.584,0.565 c 0,-0.656 -0.1,-1.228 -0.3,-1.715 -0.2,-0.486 -0.498,-0.864 -0.894,-1.132 -0.396,-0.268 -0.885,-0.401 -1.466,-0.401 -0.589,0 -1.089,0.136 -1.5,0.407 -0.411,0.271 -0.723,0.64 -0.934,1.104 -0.211,0.464 -0.317,0.994 -0.317,1.591 v 1.505 c 0,0.732 0.123,1.347 0.368,1.845 0.245,0.498 0.589,0.872 1.03,1.121 0.441,0.249 0.957,0.373 1.545,0.373 0.4,0 0.762,-0.056 1.086,-0.169 0.325,-0.113 0.602,-0.281 0.832,-0.504 0.23,-0.223 0.406,-0.496 0.526,-0.821 l 3.079,0.578 c -0.204,0.694 -0.559,1.304 -1.064,1.828 -0.506,0.524 -1.138,0.93 -1.896,1.217 -0.758,0.286 -1.632,0.43 -2.621,0.43 z"
         fill="#7dd0e2"
         id="path31"
         style="stroke-width:1.13637" />
      <path
         d="m 248.95141,83.385018 v 7.323 h -3.396 v -12.655 h 3.204 l 0.057,3.158 h -0.204 c 0.332,-1.057 0.836,-1.873 1.511,-2.45 0.675,-0.577 1.549,-0.866 2.621,-0.866 0.875,0 1.639,0.19 2.292,0.571 0.653,0.382 1.158,0.929 1.517,1.642 0.359,0.713 0.538,1.564 0.538,2.553 v 8.048 h -3.396 v -7.459 c 0,-0.785 -0.202,-1.4 -0.605,-1.846 -0.404,-0.445 -0.964,-0.668 -1.681,-0.668 -0.475,0 -0.9,0.104 -1.273,0.312 -0.374,0.208 -0.664,0.508 -0.872,0.9 -0.208,0.392 -0.311,0.871 -0.311,1.438 z"
         fill="#7dd0e2"
         id="path32"
         style="stroke-width:1.13637" />
      <path
         d="m 266.26941,78.053018 v 2.593 h -7.504 v -2.593 z m -5.761,-3.01 h 3.396 v 11.965 c 0,0.399 0.089,0.696 0.266,0.889 0.177,0.193 0.474,0.288 0.889,0.288 0.128,0 0.309,-0.017 0.543,-0.051 0.234,-0.034 0.412,-0.065 0.532,-0.096 l 0.487,2.546 c -0.377,0.113 -0.753,0.193 -1.126,0.238 -0.373,0.045 -0.73,0.067 -1.069,0.067 -1.268,0 -2.238,-0.309 -2.909,-0.928 -0.672,-0.619 -1.007,-1.506 -1.007,-2.66 v -12.259 z"
         fill="#7dd0e2"
         id="path33"
         style="stroke-width:1.13637" />
      <path
         d="m 273.33241,90.958018 c -1.019,0 -1.92,-0.146 -2.705,-0.436 -0.785,-0.291 -1.426,-0.713 -1.924,-1.268 -0.498,-0.555 -0.819,-1.225 -0.962,-2.01 l 3.158,-0.543 c 0.166,0.589 0.457,1.03 0.872,1.324 0.415,0.294 0.97,0.441 1.664,0.441 0.649,0 1.16,-0.123 1.534,-0.368 0.374,-0.245 0.56,-0.556 0.56,-0.934 0,-0.332 -0.134,-0.604 -0.402,-0.814 -0.268,-0.212 -0.677,-0.374 -1.228,-0.487 l -2.185,-0.453 c -1.223,-0.249 -2.136,-0.673 -2.739,-1.273 -0.604,-0.6 -0.906,-1.371 -0.906,-2.314 0,-0.814 0.223,-1.515 0.668,-2.1 0.445,-0.585 1.064,-1.036 1.856,-1.353 0.792,-0.317 1.724,-0.476 2.796,-0.476 0.996,0 1.86,0.138 2.592,0.413 0.731,0.275 1.324,0.666 1.777,1.172 0.453,0.506 0.754,1.102 0.906,1.788 l -3.011,0.532 c -0.128,-0.43 -0.375,-0.783 -0.741,-1.059 -0.366,-0.275 -0.858,-0.413 -1.477,-0.413 -0.559,0 -1.026,0.117 -1.404,0.351 -0.377,0.234 -0.566,0.548 -0.566,0.939 0,0.317 0.123,0.585 0.368,0.804 0.245,0.22 0.666,0.39 1.262,0.51 l 2.275,0.453 c 1.222,0.249 2.132,0.654 2.728,1.217 0.596,0.562 0.894,1.296 0.894,2.201 0,0.83 -0.242,1.557 -0.725,2.179 -0.483,0.623 -1.149,1.107 -1.998,1.455 -0.849,0.347 -1.828,0.521 -2.938,0.521 z"
         fill="#7dd0e2"
         id="path34"
         style="stroke-width:1.13637" />
    </g>
    <rect
       x="30"
       y="164.545"
       width="66.690002"
       height="15.455"
       fill="#9fd8cf"
       stroke="#f2f2f3"
       stroke-miterlimit="10"
       id="rect34"
       style="stroke-width:1.13637" />
    <rect
       x="96.690002"
       y="164.545"
       width="233.31"
       height="15.455"
       fill="#7dd0e2"
       stroke="#f2f2f3"
       stroke-miterlimit="10"
       id="rect35"
       style="stroke-width:1.13637" />
    <rect
       x="30"
       y="214.545"
       width="185.82201"
       height="15.455"
       fill="#9fd8cf"
       stroke="#f2f2f3"
       stroke-miterlimit="10"
       id="rect36"
       style="stroke-width:1.13637" />
    <rect
       x="215.82201"
       y="214.545"
       width="114.178"
       height="15.455"
       fill="#7dd0e2"
       stroke="#f2f2f3"
       stroke-miterlimit="10"
       id="rect37"
       style="stroke-width:1.13637" />
    <g
       id="g61"
       style="stroke-width:1.13637"
       transform="translate(-36.998505,-6.3219959)">
      <rect
         x="199.517"
         y="123.845"
         width="11.227"
         height="40.551998"
         fill="#7dd0e2"
         stroke="#f2f2f3"
         stroke-miterlimit="10"
         stroke-width="0.568183"
         id="rect38" />
      <rect
         x="210.83501"
         y="130.47099"
         width="11.227"
         height="33.924999"
         fill="#7dd0e2"
         stroke="#f2f2f3"
         stroke-miterlimit="10"
         stroke-width="0.568183"
         id="rect39" />
      <rect
         x="201.151"
         y="125.996"
         width="1.707"
         height="3.5840001"
         fill="#ffffff"
         id="rect40"
         style="stroke-width:1.13637" />
      <rect
         x="207.403"
         y="125.996"
         width="1.707"
         height="3.5840001"
         fill="#ffffff"
         id="rect41"
         style="stroke-width:1.13637" />
      <rect
         x="201.151"
         y="131.49899"
         width="1.707"
         height="3.5840001"
         fill="#ffffff"
         id="rect42"
         style="stroke-width:1.13637" />
      <rect
         x="204.27699"
         y="131.49899"
         width="1.707"
         height="3.5840001"
         fill="#ffffff"
         id="rect43"
         style="stroke-width:1.13637" />
      <rect
         x="207.403"
         y="137.00101"
         width="1.707"
         height="3.5840001"
         fill="#ffffff"
         id="rect44"
         style="stroke-width:1.13637" />
      <rect
         x="201.151"
         y="142.504"
         width="1.707"
         height="3.5840001"
         fill="#ffffff"
         id="rect45"
         style="stroke-width:1.13637" />
      <rect
         x="204.27699"
         y="148.006"
         width="1.707"
         height="3.5840001"
         fill="#ffffff"
         id="rect46"
         style="stroke-width:1.13637" />
      <rect
         x="207.403"
         y="148.006"
         width="1.707"
         height="3.5840001"
         fill="#ffffff"
         id="rect47"
         style="stroke-width:1.13637" />
      <rect
         x="201.151"
         y="153.508"
         width="1.707"
         height="3.5840001"
         fill="#ffffff"
         id="rect48"
         style="stroke-width:1.13637" />
      <rect
         x="204.27699"
         y="153.508"
         width="1.707"
         height="3.5840001"
         fill="#ffffff"
         id="rect49"
         style="stroke-width:1.13637" />
      <rect
         x="201.151"
         y="159.011"
         width="1.707"
         height="3.5840001"
         fill="#ffffff"
         id="rect50"
         style="stroke-width:1.13637" />
      <rect
         x="204.27699"
         y="159.011"
         width="1.707"
         height="3.5840001"
         fill="#ffffff"
         id="rect51"
         style="stroke-width:1.13637" />
      <rect
         x="207.403"
         y="159.011"
         width="1.707"
         height="3.5840001"
         fill="#ffffff"
         id="rect52"
         style="stroke-width:1.13637" />
      <rect
         x="215.595"
         y="132.092"
         width="1.707"
         height="3.734"
         fill="#ffffff"
         id="rect53"
         style="stroke-width:1.13637" />
      <rect
         x="218.722"
         y="132.092"
         width="1.707"
         height="3.734"
         fill="#ffffff"
         id="rect54"
         style="stroke-width:1.13637" />
      <rect
         x="212.46899"
         y="137.444"
         width="1.707"
         height="3.734"
         fill="#ffffff"
         id="rect55"
         style="stroke-width:1.13637" />
      <rect
         x="218.722"
         y="137.444"
         width="1.707"
         height="3.734"
         fill="#ffffff"
         id="rect56"
         style="stroke-width:1.13637" />
      <rect
         x="218.722"
         y="142.79601"
         width="1.707"
         height="3.734"
         fill="#ffffff"
         id="rect57"
         style="stroke-width:1.13637" />
      <rect
         x="212.46899"
         y="148.149"
         width="1.707"
         height="3.734"
         fill="#ffffff"
         id="rect58"
         style="stroke-width:1.13637" />
      <rect
         x="215.595"
         y="153.50101"
         width="1.707"
         height="3.734"
         fill="#ffffff"
         id="rect59"
         style="stroke-width:1.13637" />
      <rect
         x="212.46899"
         y="158.853"
         width="1.707"
         height="3.734"
         fill="#ffffff"
         id="rect60"
         style="stroke-width:1.13637" />
      <rect
         x="215.595"
         y="158.853"
         width="1.707"
         height="3.734"
         fill="#ffffff"
         id="rect61"
         style="stroke-width:1.13637" />
    </g>
    <g
       id="g72"
       style="stroke-width:1.13637">
      <rect
         x="215.82001"
         y="191.54201"
         width="114.18"
         height="18.458"
         fill="none"
         id="rect62"
         style="stroke-width:1.13637" />
      <path
         d="m 223.571,209.95 v -13.492 h 2.445 l 3.324,8.512 c 0.078,0.199 0.167,0.448 0.267,0.747 0.1,0.299 0.205,0.623 0.317,0.974 0.111,0.35 0.219,0.698 0.321,1.046 0.103,0.347 0.193,0.669 0.272,0.964 h -0.38 c 0.084,-0.277 0.178,-0.587 0.281,-0.928 0.103,-0.341 0.209,-0.688 0.321,-1.041 0.112,-0.354 0.219,-0.685 0.321,-0.992 0.102,-0.307 0.193,-0.564 0.272,-0.77 l 3.278,-8.512 h 2.454 v 13.492 h -1.693 v -7.706 c 0,-0.277 0.001,-0.595 0.004,-0.951 0.003,-0.355 0.009,-0.73 0.018,-1.123 0.009,-0.392 0.018,-0.79 0.027,-1.195 0.009,-0.404 0.017,-0.797 0.022,-1.177 h 0.145 c -0.127,0.417 -0.261,0.841 -0.403,1.272 -0.142,0.432 -0.281,0.848 -0.417,1.249 -0.136,0.402 -0.264,0.769 -0.385,1.101 -0.121,0.332 -0.223,0.606 -0.308,0.824 l -3.016,7.706 h -1.494 l -3.061,-7.706 c -0.084,-0.211 -0.184,-0.479 -0.299,-0.802 -0.115,-0.322 -0.24,-0.682 -0.376,-1.077 -0.136,-0.395 -0.276,-0.812 -0.421,-1.25 -0.145,-0.438 -0.293,-0.877 -0.444,-1.317 h 0.163 c 0.012,0.338 0.022,0.703 0.032,1.096 0.009,0.393 0.017,0.789 0.022,1.19 0.006,0.402 0.012,0.788 0.018,1.159 0.006,0.371 0.009,0.705 0.009,1.001 v 7.706 h -1.639 z"
         fill="#231f20"
         id="path62"
         style="stroke-width:1.13637" />
      <path
         d="m 240.949,198.169 c -0.308,0 -0.574,-0.105 -0.797,-0.316 -0.224,-0.212 -0.335,-0.465 -0.335,-0.761 0,-0.302 0.111,-0.558 0.335,-0.766 0.223,-0.208 0.489,-0.312 0.797,-0.312 0.314,0 0.583,0.104 0.806,0.312 0.224,0.208 0.335,0.464 0.335,0.766 0,0.296 -0.112,0.549 -0.335,0.761 -0.223,0.211 -0.492,0.316 -0.806,0.316 z m -0.824,11.781 v -10.124 h 1.63 v 10.124 z"
         fill="#231f20"
         id="path63"
         style="stroke-width:1.13637" />
      <path
         d="m 248.057,210.168 c -0.694,0 -1.312,-0.102 -1.852,-0.304 -0.541,-0.202 -0.986,-0.503 -1.336,-0.901 -0.35,-0.398 -0.585,-0.887 -0.706,-1.467 l 1.548,-0.371 c 0.145,0.556 0.418,0.963 0.82,1.223 0.401,0.26 0.904,0.389 1.507,0.389 0.707,0 1.27,-0.15 1.689,-0.452 0.419,-0.302 0.629,-0.661 0.629,-1.078 0,-0.35 -0.122,-0.641 -0.367,-0.873 -0.245,-0.232 -0.617,-0.406 -1.118,-0.521 l -1.685,-0.398 c -0.917,-0.217 -1.6,-0.554 -2.046,-1.01 -0.447,-0.455 -0.67,-1.039 -0.67,-1.752 0,-0.579 0.163,-1.091 0.489,-1.535 0.326,-0.443 0.771,-0.79 1.335,-1.041 0.564,-0.25 1.206,-0.376 1.924,-0.376 0.694,0 1.285,0.104 1.771,0.312 0.486,0.208 0.881,0.495 1.186,0.86 0.305,0.365 0.533,0.786 0.684,1.264 l -1.476,0.38 c -0.139,-0.362 -0.37,-0.691 -0.693,-0.987 -0.323,-0.295 -0.811,-0.443 -1.462,-0.443 -0.604,0 -1.106,0.139 -1.508,0.417 -0.401,0.277 -0.602,0.628 -0.602,1.05 0,0.375 0.136,0.675 0.407,0.901 0.272,0.227 0.703,0.409 1.295,0.548 l 1.53,0.362 c 0.918,0.217 1.597,0.554 2.038,1.01 0.441,0.455 0.661,1.03 0.661,1.725 0,0.592 -0.167,1.118 -0.502,1.58 -0.335,0.462 -0.803,0.826 -1.404,1.092 -0.601,0.265 -1.296,0.398 -2.087,0.398 z"
         fill="#231f20"
         id="path64"
         style="stroke-width:1.13637" />
      <path
         d="m 257.846,210.168 c -0.694,0 -1.312,-0.102 -1.852,-0.304 -0.541,-0.202 -0.986,-0.503 -1.336,-0.901 -0.35,-0.398 -0.585,-0.887 -0.706,-1.467 l 1.548,-0.371 c 0.145,0.556 0.418,0.963 0.82,1.223 0.401,0.26 0.904,0.389 1.507,0.389 0.707,0 1.27,-0.15 1.689,-0.452 0.419,-0.302 0.629,-0.661 0.629,-1.078 0,-0.35 -0.122,-0.641 -0.367,-0.873 -0.245,-0.232 -0.617,-0.406 -1.118,-0.521 l -1.685,-0.398 c -0.917,-0.217 -1.6,-0.554 -2.046,-1.01 -0.447,-0.455 -0.67,-1.039 -0.67,-1.752 0,-0.579 0.163,-1.091 0.489,-1.535 0.326,-0.443 0.771,-0.79 1.335,-1.041 0.564,-0.25 1.206,-0.376 1.924,-0.376 0.694,0 1.285,0.104 1.771,0.312 0.486,0.208 0.881,0.495 1.186,0.86 0.305,0.365 0.533,0.786 0.684,1.264 l -1.476,0.38 c -0.139,-0.362 -0.37,-0.691 -0.693,-0.987 -0.323,-0.295 -0.811,-0.443 -1.462,-0.443 -0.604,0 -1.106,0.139 -1.508,0.417 -0.401,0.277 -0.602,0.628 -0.602,1.05 0,0.375 0.136,0.675 0.407,0.901 0.272,0.227 0.703,0.409 1.295,0.548 l 1.53,0.362 c 0.918,0.217 1.597,0.554 2.038,1.01 0.441,0.455 0.661,1.03 0.661,1.725 0,0.592 -0.167,1.118 -0.502,1.58 -0.335,0.462 -0.803,0.826 -1.404,1.092 -0.601,0.265 -1.296,0.398 -2.087,0.398 z"
         fill="#231f20"
         id="path65"
         style="stroke-width:1.13637" />
      <path
         d="m 265.019,198.169 c -0.308,0 -0.574,-0.105 -0.797,-0.316 -0.224,-0.212 -0.335,-0.465 -0.335,-0.761 0,-0.302 0.111,-0.558 0.335,-0.766 0.223,-0.208 0.489,-0.312 0.797,-0.312 0.314,0 0.583,0.104 0.806,0.312 0.224,0.208 0.335,0.464 0.335,0.766 0,0.296 -0.112,0.549 -0.335,0.761 -0.223,0.211 -0.492,0.316 -0.806,0.316 z m -0.825,11.781 v -10.124 h 1.63 v 10.124 z"
         fill="#231f20"
         id="path66"
         style="stroke-width:1.13637" />
      <path
         d="m 272.127,210.168 c -0.694,0 -1.312,-0.102 -1.852,-0.304 -0.541,-0.202 -0.986,-0.503 -1.336,-0.901 -0.35,-0.398 -0.585,-0.887 -0.706,-1.467 l 1.548,-0.371 c 0.145,0.556 0.418,0.963 0.82,1.223 0.401,0.26 0.904,0.389 1.507,0.389 0.707,0 1.27,-0.15 1.689,-0.452 0.419,-0.302 0.629,-0.661 0.629,-1.078 0,-0.35 -0.122,-0.641 -0.367,-0.873 -0.245,-0.232 -0.617,-0.406 -1.118,-0.521 l -1.685,-0.398 c -0.917,-0.217 -1.6,-0.554 -2.046,-1.01 -0.447,-0.455 -0.67,-1.039 -0.67,-1.752 0,-0.579 0.163,-1.091 0.489,-1.535 0.326,-0.443 0.771,-0.79 1.335,-1.041 0.564,-0.25 1.206,-0.376 1.924,-0.376 0.694,0 1.285,0.104 1.771,0.312 0.486,0.208 0.881,0.495 1.186,0.86 0.305,0.365 0.533,0.786 0.684,1.264 l -1.476,0.38 c -0.139,-0.362 -0.37,-0.691 -0.693,-0.987 -0.323,-0.295 -0.811,-0.443 -1.462,-0.443 -0.604,0 -1.106,0.139 -1.508,0.417 -0.401,0.277 -0.602,0.628 -0.602,1.05 0,0.375 0.136,0.675 0.407,0.901 0.272,0.227 0.703,0.409 1.295,0.548 l 1.53,0.362 c 0.918,0.217 1.597,0.554 2.038,1.01 0.441,0.455 0.661,1.03 0.661,1.725 0,0.592 -0.167,1.118 -0.502,1.58 -0.335,0.462 -0.803,0.826 -1.404,1.092 -0.601,0.265 -1.296,0.398 -2.087,0.398 z"
         fill="#231f20"
         id="path67"
         style="stroke-width:1.13637" />
      <path
         d="m 281.916,210.168 c -0.694,0 -1.312,-0.102 -1.852,-0.304 -0.541,-0.202 -0.986,-0.503 -1.336,-0.901 -0.35,-0.398 -0.585,-0.887 -0.706,-1.467 l 1.548,-0.371 c 0.145,0.556 0.418,0.963 0.82,1.223 0.401,0.26 0.904,0.389 1.507,0.389 0.707,0 1.27,-0.15 1.689,-0.452 0.419,-0.302 0.629,-0.661 0.629,-1.078 0,-0.35 -0.122,-0.641 -0.367,-0.873 -0.245,-0.232 -0.617,-0.406 -1.118,-0.521 l -1.685,-0.398 c -0.917,-0.217 -1.6,-0.554 -2.046,-1.01 -0.447,-0.455 -0.67,-1.039 -0.67,-1.752 0,-0.579 0.163,-1.091 0.489,-1.535 0.326,-0.443 0.771,-0.79 1.335,-1.041 0.564,-0.25 1.206,-0.376 1.924,-0.376 0.694,0 1.285,0.104 1.771,0.312 0.486,0.208 0.881,0.495 1.186,0.86 0.305,0.365 0.533,0.786 0.684,1.264 l -1.476,0.38 c -0.139,-0.362 -0.37,-0.691 -0.693,-0.987 -0.323,-0.295 -0.811,-0.443 -1.462,-0.443 -0.604,0 -1.106,0.139 -1.508,0.417 -0.401,0.277 -0.602,0.628 -0.602,1.05 0,0.375 0.136,0.675 0.407,0.901 0.272,0.227 0.703,0.409 1.295,0.548 l 1.53,0.362 c 0.918,0.217 1.597,0.554 2.038,1.01 0.441,0.455 0.661,1.03 0.661,1.725 0,0.592 -0.167,1.118 -0.502,1.58 -0.335,0.462 -0.803,0.826 -1.404,1.092 -0.601,0.265 -1.296,0.398 -2.087,0.398 z"
         fill="#231f20"
         id="path68"
         style="stroke-width:1.13637" />
      <path
         d="m 291.099,210.186 c -0.64,0 -1.221,-0.121 -1.743,-0.362 -0.522,-0.241 -0.938,-0.595 -1.245,-1.06 -0.308,-0.465 -0.462,-1.029 -0.462,-1.693 0,-0.579 0.115,-1.05 0.344,-1.412 0.229,-0.362 0.536,-0.647 0.919,-0.856 0.383,-0.208 0.808,-0.363 1.272,-0.466 0.464,-0.103 0.933,-0.185 1.403,-0.244 0.604,-0.079 1.096,-0.14 1.476,-0.182 0.38,-0.042 0.663,-0.114 0.847,-0.217 0.184,-0.103 0.276,-0.278 0.276,-0.525 v -0.055 c 0,-0.423 -0.079,-0.78 -0.235,-1.073 -0.157,-0.292 -0.393,-0.518 -0.707,-0.675 -0.314,-0.156 -0.706,-0.235 -1.177,-0.235 -0.483,0 -0.896,0.076 -1.24,0.227 -0.344,0.151 -0.624,0.34 -0.838,0.566 -0.214,0.226 -0.376,0.457 -0.484,0.692 l -1.566,-0.516 c 0.259,-0.616 0.609,-1.098 1.05,-1.444 0.44,-0.348 0.927,-0.594 1.458,-0.738 0.531,-0.146 1.056,-0.218 1.576,-0.218 0.338,0 0.723,0.041 1.154,0.122 0.432,0.082 0.848,0.243 1.25,0.485 0.401,0.241 0.734,0.599 0.996,1.072 0.263,0.475 0.394,1.106 0.394,1.897 v 6.674 h -1.603 v -1.376 h -0.109 c -0.115,0.235 -0.299,0.479 -0.552,0.729 -0.254,0.251 -0.583,0.46 -0.987,0.629 -0.404,0.169 -0.894,0.254 -1.467,0.254 z m 0.28,-1.44 c 0.604,0 1.114,-0.118 1.53,-0.354 0.416,-0.236 0.733,-0.542 0.951,-0.919 0.218,-0.377 0.326,-0.771 0.326,-1.182 v -1.403 c -0.066,0.078 -0.211,0.149 -0.435,0.212 -0.224,0.063 -0.479,0.12 -0.765,0.168 -0.287,0.049 -0.565,0.089 -0.833,0.122 -0.268,0.033 -0.481,0.059 -0.638,0.077 -0.393,0.049 -0.759,0.131 -1.1,0.249 -0.341,0.118 -0.614,0.29 -0.82,0.517 -0.205,0.226 -0.308,0.532 -0.308,0.919 0,0.35 0.09,0.643 0.271,0.878 0.181,0.235 0.429,0.414 0.743,0.534 0.314,0.121 0.673,0.182 1.078,0.182 z"
         fill="#231f20"
         id="path69"
         style="stroke-width:1.13637" />
      <path
         d="m 302.11,210.077 c -0.682,0 -1.281,-0.141 -1.797,-0.421 -0.516,-0.281 -0.918,-0.705 -1.205,-1.272 -0.287,-0.567 -0.43,-1.277 -0.43,-2.128 v -6.43 h 1.63 v 6.294 c 0,0.778 0.206,1.389 0.616,1.829 0.411,0.44 0.969,0.661 1.675,0.661 0.483,0 0.916,-0.105 1.3,-0.317 0.383,-0.211 0.687,-0.521 0.91,-0.928 0.224,-0.408 0.335,-0.898 0.335,-1.472 v -6.067 h 1.639 v 10.124 h -1.576 v -2.454 h 0.218 c -0.314,0.948 -0.759,1.615 -1.336,2.001 -0.577,0.387 -1.236,0.58 -1.979,0.58 z"
         fill="#231f20"
         id="path70"
         style="stroke-width:1.13637" />
      <path
         d="m 313.746,213.953 c -0.749,0 -1.396,-0.096 -1.942,-0.286 -0.546,-0.189 -1,-0.441 -1.363,-0.756 -0.362,-0.313 -0.649,-0.655 -0.86,-1.023 l 1.322,-0.851 c 0.145,0.192 0.324,0.407 0.539,0.643 0.215,0.236 0.504,0.437 0.87,0.603 0.366,0.166 0.843,0.249 1.435,0.249 0.809,0 1.475,-0.193 1.997,-0.58 0.522,-0.386 0.783,-0.996 0.783,-1.829 v -2.028 h -0.154 c -0.115,0.193 -0.276,0.423 -0.484,0.688 -0.208,0.266 -0.507,0.499 -0.896,0.701 -0.389,0.203 -0.91,0.304 -1.562,0.304 -0.809,0 -1.536,-0.191 -2.182,-0.575 -0.646,-0.383 -1.156,-0.943 -1.53,-1.68 -0.375,-0.736 -0.562,-1.633 -0.562,-2.689 0,-1.044 0.184,-1.951 0.552,-2.721 0.368,-0.77 0.877,-1.366 1.526,-1.789 0.649,-0.422 1.393,-0.634 2.232,-0.634 0.652,0 1.173,0.107 1.562,0.321 0.39,0.215 0.69,0.461 0.901,0.738 0.211,0.278 0.374,0.507 0.489,0.688 h 0.154 v -1.621 h 1.585 v 10.387 c 0,0.869 -0.196,1.58 -0.589,2.133 -0.392,0.552 -0.922,0.958 -1.589,1.218 -0.667,0.26 -1.411,0.39 -2.232,0.39 z m -0.045,-5.615 c 0.616,0 1.135,-0.14 1.557,-0.421 0.423,-0.28 0.743,-0.685 0.96,-1.213 0.217,-0.528 0.326,-1.161 0.326,-1.897 0,-0.718 -0.107,-1.351 -0.322,-1.897 -0.214,-0.546 -0.533,-0.975 -0.955,-1.285 -0.423,-0.312 -0.945,-0.467 -1.566,-0.467 -0.64,0 -1.174,0.165 -1.603,0.494 -0.429,0.329 -0.75,0.768 -0.964,1.317 -0.214,0.549 -0.321,1.162 -0.321,1.838 0,0.694 0.108,1.308 0.326,1.838 0.217,0.532 0.541,0.946 0.969,1.245 0.428,0.299 0.959,0.448 1.594,0.448 z"
         fill="#231f20"
         id="path71"
         style="stroke-width:1.13637" />
      <path
         d="m 323.852,210.186 c -0.64,0 -1.221,-0.121 -1.743,-0.362 -0.522,-0.241 -0.938,-0.595 -1.245,-1.06 -0.308,-0.465 -0.462,-1.029 -0.462,-1.693 0,-0.579 0.115,-1.05 0.344,-1.412 0.229,-0.362 0.536,-0.647 0.919,-0.856 0.383,-0.208 0.808,-0.363 1.272,-0.466 0.464,-0.103 0.933,-0.185 1.403,-0.244 0.604,-0.079 1.096,-0.14 1.476,-0.182 0.38,-0.042 0.663,-0.114 0.847,-0.217 0.184,-0.103 0.276,-0.278 0.276,-0.525 v -0.055 c 0,-0.423 -0.079,-0.78 -0.235,-1.073 -0.157,-0.292 -0.393,-0.518 -0.707,-0.675 -0.314,-0.156 -0.706,-0.235 -1.177,-0.235 -0.483,0 -0.896,0.076 -1.24,0.227 -0.344,0.151 -0.624,0.34 -0.838,0.566 -0.214,0.226 -0.376,0.457 -0.484,0.692 l -1.566,-0.516 c 0.259,-0.616 0.609,-1.098 1.05,-1.444 0.44,-0.348 0.927,-0.594 1.458,-0.738 0.531,-0.146 1.056,-0.218 1.576,-0.218 0.338,0 0.723,0.041 1.154,0.122 0.432,0.082 0.848,0.243 1.25,0.485 0.401,0.241 0.734,0.599 0.996,1.072 0.263,0.475 0.394,1.106 0.394,1.897 v 6.674 h -1.603 v -1.376 h -0.109 c -0.115,0.235 -0.299,0.479 -0.552,0.729 -0.254,0.251 -0.583,0.46 -0.987,0.629 -0.404,0.169 -0.894,0.254 -1.467,0.254 z m 0.281,-1.44 c 0.604,0 1.114,-0.118 1.53,-0.354 0.416,-0.236 0.733,-0.542 0.951,-0.919 0.218,-0.377 0.326,-0.771 0.326,-1.182 v -1.403 c -0.066,0.078 -0.211,0.149 -0.435,0.212 -0.224,0.063 -0.479,0.12 -0.765,0.168 -0.287,0.049 -0.565,0.089 -0.833,0.122 -0.268,0.033 -0.481,0.059 -0.638,0.077 -0.393,0.049 -0.759,0.131 -1.1,0.249 -0.341,0.118 -0.614,0.29 -0.82,0.517 -0.205,0.226 -0.308,0.532 -0.308,0.919 0,0.35 0.09,0.643 0.271,0.878 0.181,0.235 0.429,0.414 0.743,0.534 0.314,0.121 0.673,0.182 1.078,0.182 z"
         fill="#231f20"
         id="path72"
         style="stroke-width:1.13637" />
    </g>
    <g
       id="g82"
       style="stroke-width:1.13637">
      <rect
         x="234.862"
         y="140"
         width="95.138"
         height="18.458"
         fill="none"
         id="rect72"
         style="stroke-width:1.13637" />
      <path
         d="m 246.626,158.59 c -1.153,0 -2.181,-0.278 -3.083,-0.837 -0.902,-0.559 -1.612,-1.355 -2.128,-2.391 -0.516,-1.036 -0.774,-2.266 -0.774,-3.69 0,-1.424 0.258,-2.664 0.774,-3.699 0.516,-1.035 1.226,-1.834 2.128,-2.395 0.903,-0.562 1.93,-0.843 3.083,-0.843 0.682,0 1.327,0.1 1.934,0.299 0.606,0.199 1.151,0.491 1.634,0.874 0.483,0.384 0.886,0.849 1.209,1.395 0.323,0.547 0.544,1.167 0.666,1.861 h -1.721 c -0.097,-0.465 -0.261,-0.873 -0.493,-1.223 -0.233,-0.351 -0.517,-0.646 -0.852,-0.888 -0.335,-0.242 -0.705,-0.423 -1.109,-0.543 -0.404,-0.121 -0.827,-0.182 -1.268,-0.182 -0.809,0 -1.54,0.205 -2.191,0.616 -0.652,0.41 -1.168,1.013 -1.548,1.807 -0.38,0.794 -0.571,1.767 -0.571,2.92 0,1.147 0.192,2.117 0.575,2.911 0.383,0.794 0.901,1.395 1.553,1.803 0.652,0.407 1.379,0.61 2.182,0.61 0.44,0 0.863,-0.062 1.268,-0.186 0.405,-0.123 0.774,-0.305 1.109,-0.543 0.335,-0.238 0.619,-0.534 0.852,-0.888 0.232,-0.353 0.396,-0.759 0.493,-1.218 h 1.721 c -0.115,0.688 -0.333,1.304 -0.657,1.848 -0.323,0.543 -0.726,1.008 -1.208,1.395 -0.483,0.386 -1.028,0.681 -1.635,0.883 -0.606,0.202 -1.254,0.303 -1.942,0.303 z"
         fill="#231f20"
         id="path73"
         style="stroke-width:1.13637" />
      <path
         d="m 258.634,158.627 c -0.917,0 -1.722,-0.218 -2.413,-0.652 -0.691,-0.434 -1.23,-1.044 -1.616,-1.829 -0.387,-0.785 -0.58,-1.696 -0.58,-2.735 0,-1.056 0.193,-1.979 0.58,-2.766 0.386,-0.788 0.925,-1.399 1.616,-1.834 0.691,-0.435 1.496,-0.652 2.413,-0.652 0.924,0 1.733,0.218 2.427,0.652 0.694,0.435 1.234,1.046 1.621,1.834 0.386,0.787 0.58,1.71 0.58,2.766 0,1.039 -0.193,1.95 -0.58,2.735 -0.387,0.785 -0.927,1.395 -1.621,1.829 -0.694,0.435 -1.503,0.652 -2.427,0.652 z m 0,-1.458 c 0.682,0 1.244,-0.176 1.685,-0.525 0.44,-0.351 0.767,-0.811 0.978,-1.381 0.211,-0.57 0.317,-1.188 0.317,-1.853 0,-0.67 -0.106,-1.293 -0.317,-1.869 -0.211,-0.577 -0.538,-1.042 -0.978,-1.395 -0.441,-0.354 -1.002,-0.53 -1.685,-0.53 -0.676,0 -1.231,0.177 -1.666,0.53 -0.435,0.353 -0.758,0.816 -0.969,1.39 -0.211,0.573 -0.317,1.198 -0.317,1.874 0,0.665 0.105,1.282 0.317,1.853 0.211,0.57 0.534,1.03 0.969,1.381 0.435,0.35 0.99,0.525 1.666,0.525 z"
         fill="#231f20"
         id="path74"
         style="stroke-width:1.13637" />
      <path
         d="m 269.754,158.627 c -0.917,0 -1.722,-0.218 -2.413,-0.652 -0.691,-0.434 -1.23,-1.044 -1.616,-1.829 -0.387,-0.785 -0.58,-1.696 -0.58,-2.735 0,-1.056 0.193,-1.979 0.58,-2.766 0.386,-0.788 0.925,-1.399 1.616,-1.834 0.691,-0.435 1.496,-0.652 2.413,-0.652 0.924,0 1.733,0.218 2.427,0.652 0.694,0.435 1.234,1.046 1.621,1.834 0.386,0.787 0.58,1.71 0.58,2.766 0,1.039 -0.193,1.95 -0.58,2.735 -0.387,0.785 -0.927,1.395 -1.621,1.829 -0.694,0.435 -1.503,0.652 -2.427,0.652 z m 0,-1.458 c 0.682,0 1.244,-0.176 1.685,-0.525 0.44,-0.351 0.767,-0.811 0.978,-1.381 0.211,-0.57 0.317,-1.188 0.317,-1.853 0,-0.67 -0.106,-1.293 -0.317,-1.869 -0.211,-0.577 -0.538,-1.042 -0.978,-1.395 -0.441,-0.354 -1.002,-0.53 -1.685,-0.53 -0.676,0 -1.231,0.177 -1.666,0.53 -0.435,0.353 -0.758,0.816 -0.969,1.39 -0.211,0.573 -0.317,1.198 -0.317,1.874 0,0.665 0.105,1.282 0.317,1.853 0.211,0.57 0.534,1.03 0.969,1.381 0.435,0.35 0.99,0.525 1.666,0.525 z"
         fill="#231f20"
         id="path75"
         style="stroke-width:1.13637" />
      <path
         d="m 276.754,158.409 v -13.492 h 1.63 v 13.492 z m 1.53,-3.64 v -2.019 h 0.299 l 4.329,-4.465 h 2.02 l -4.682,4.809 h -0.181 l -1.784,1.675 z m 4.872,3.64 -3.876,-4.953 1.159,-1.15 4.809,6.104 h -2.092 z"
         fill="#231f20"
         id="path76"
         style="stroke-width:1.13637" />
      <path
         d="m 290.373,158.627 c -0.694,0 -1.312,-0.102 -1.852,-0.304 -0.541,-0.202 -0.986,-0.503 -1.336,-0.901 -0.35,-0.398 -0.585,-0.887 -0.706,-1.467 l 1.548,-0.371 c 0.145,0.556 0.418,0.963 0.82,1.223 0.401,0.26 0.904,0.389 1.507,0.389 0.707,0 1.27,-0.15 1.689,-0.452 0.419,-0.302 0.629,-0.661 0.629,-1.078 0,-0.35 -0.122,-0.641 -0.367,-0.873 -0.245,-0.232 -0.617,-0.406 -1.118,-0.521 l -1.685,-0.398 c -0.917,-0.217 -1.6,-0.554 -2.046,-1.01 -0.447,-0.455 -0.67,-1.039 -0.67,-1.752 0,-0.579 0.163,-1.091 0.489,-1.535 0.326,-0.443 0.771,-0.79 1.335,-1.041 0.564,-0.25 1.206,-0.376 1.924,-0.376 0.694,0 1.285,0.104 1.771,0.312 0.486,0.208 0.881,0.495 1.186,0.86 0.305,0.365 0.533,0.786 0.684,1.264 l -1.476,0.38 c -0.139,-0.362 -0.37,-0.691 -0.693,-0.987 -0.323,-0.295 -0.811,-0.443 -1.462,-0.443 -0.604,0 -1.106,0.139 -1.508,0.417 -0.401,0.277 -0.602,0.628 -0.602,1.05 0,0.375 0.136,0.675 0.407,0.901 0.272,0.227 0.703,0.409 1.295,0.548 l 1.53,0.362 c 0.918,0.217 1.597,0.554 2.038,1.01 0.441,0.455 0.661,1.03 0.661,1.725 0,0.592 -0.167,1.118 -0.502,1.58 -0.335,0.462 -0.803,0.826 -1.404,1.092 -0.601,0.265 -1.296,0.398 -2.087,0.398 z"
         fill="#231f20"
         id="path77"
         style="stroke-width:1.13637" />
      <path
         d="m 299.646,158.409 -3.867,-10.124 h 1.784 l 2.155,6.004 c 0.229,0.622 0.424,1.242 0.584,1.86 0.16,0.619 0.327,1.219 0.502,1.798 h -0.598 c 0.175,-0.579 0.343,-1.179 0.502,-1.798 0.16,-0.618 0.352,-1.238 0.575,-1.86 l 2.155,-6.004 h 1.784 l -3.867,10.124 h -1.711 z"
         fill="#231f20"
         id="path78"
         style="stroke-width:1.13637" />
      <path
         d="m 307.968,146.628 c -0.308,0 -0.574,-0.105 -0.797,-0.316 -0.224,-0.212 -0.335,-0.465 -0.335,-0.761 0,-0.302 0.111,-0.558 0.335,-0.766 0.223,-0.208 0.489,-0.312 0.797,-0.312 0.314,0 0.583,0.104 0.806,0.312 0.224,0.208 0.335,0.464 0.335,0.766 0,0.296 -0.112,0.549 -0.335,0.761 -0.223,0.211 -0.492,0.316 -0.806,0.316 z m -0.824,11.781 v -10.124 h 1.63 v 10.124 z"
         fill="#231f20"
         id="path79"
         style="stroke-width:1.13637" />
      <path
         d="m 313.266,144.917 v 13.492 h -1.63 v -13.492 z"
         fill="#231f20"
         id="path80"
         style="stroke-width:1.13637" />
      <path
         d="m 317.757,144.917 v 13.492 h -1.63 v -13.492 z"
         fill="#231f20"
         id="path81"
         style="stroke-width:1.13637" />
      <path
         d="m 324.875,158.627 c -0.978,0 -1.822,-0.218 -2.531,-0.652 -0.709,-0.434 -1.256,-1.041 -1.639,-1.82 -0.383,-0.778 -0.575,-1.688 -0.575,-2.726 0,-1.038 0.187,-1.953 0.562,-2.744 0.374,-0.79 0.904,-1.409 1.589,-1.856 0.685,-0.446 1.487,-0.67 2.404,-0.67 0.537,0 1.067,0.09 1.589,0.268 0.522,0.178 0.996,0.465 1.421,0.86 0.426,0.396 0.766,0.916 1.019,1.562 0.253,0.646 0.38,1.438 0.38,2.373 v 0.679 h -7.86 v -1.376 h 6.982 l -0.761,0.507 c 0,-0.664 -0.104,-1.254 -0.312,-1.771 -0.208,-0.516 -0.518,-0.92 -0.928,-1.213 -0.41,-0.293 -0.92,-0.439 -1.53,-0.439 -0.61,0 -1.132,0.149 -1.566,0.448 -0.434,0.299 -0.767,0.688 -0.996,1.168 -0.229,0.48 -0.344,0.995 -0.344,1.544 v 0.915 c 0,0.748 0.13,1.384 0.389,1.906 0.26,0.521 0.624,0.917 1.091,1.186 0.467,0.269 1.01,0.403 1.625,0.403 0.398,0 0.761,-0.058 1.087,-0.172 0.326,-0.115 0.606,-0.288 0.842,-0.521 0.236,-0.233 0.417,-0.521 0.543,-0.865 l 1.576,0.435 c -0.157,0.507 -0.423,0.954 -0.797,1.34 -0.375,0.387 -0.838,0.688 -1.39,0.906 -0.552,0.217 -1.176,0.326 -1.87,0.326 z"
         fill="#231f20"
         id="path82"
         style="stroke-width:1.13637" />
    </g>
  </g>
</svg>
