<?xml version="1.0" encoding="UTF-8"?>
<svg id="Layer_1" data-name="Layer 1" xmlns="http://www.w3.org/2000/svg" width="360" height="240" viewBox="0 0 360 240">
  <rect id="rect2" x="20" y="20" width="320" height="200" rx="20.8009" ry="20.8009" fill="#f3f2f3"/>
  <text transform="translate(39.0039 64.595)" fill="#b27fb8" font-family="Inter-Bold, Inter" font-variation-settings="&apos;opsz&apos; 14, &apos;wght&apos; 700" font-weight="700"><tspan font-size="37"><tspan x="0" y="0">60%</tspan></tspan><tspan font-size="21"><tspan x="0" y="25.2002">of households rent</tspan></tspan></text>
  <g>
    <path d="M197.3434,157.8716c-.0003-1.3154.5791-2.5642,1.5838-3.4133l15.6367-13.4029c1.6651-1.4072,4.1027-1.4072,5.7677,0l15.6367,13.4029c1.0047.8491,1.5841,2.0978,1.5838,3.4133v20.1044c0,2.4674-2.0002,4.4676-4.4676,4.4676h-31.2735c-2.4674,0-4.4676-2.0002-4.4676-4.4676v-20.1044Z" fill="none" stroke="#010101" stroke-linecap="round" stroke-linejoin="round" stroke-width=".5"/>
    <path d="M224.1493,182.4437v-17.8706c0-1.2337-1.0001-2.2338-2.2338-2.2338h-8.9353c-1.2337,0-2.2338,1.0001-2.2338,2.2338v17.8706" fill="none" stroke="#010101" stroke-linecap="round" stroke-linejoin="round" stroke-width=".5"/>
  </g>
  <g>
    <path d="M249.7912,157.8716c-.0003-1.3154.5791-2.5642,1.5838-3.4133l15.6367-13.4029c1.6651-1.4072,4.1027-1.4072,5.7677,0l15.6367,13.4029c1.0047.8491,1.5841,2.0978,1.5838,3.4133v20.1044c0,2.4674-2.0002,4.4676-4.4676,4.4676h-31.2735c-2.4674,0-4.4676-2.0002-4.4676-4.4676v-20.1044Z" fill="none" stroke="#010101" stroke-linecap="round" stroke-linejoin="round" stroke-width=".5"/>
    <path d="M276.5971,182.4437v-17.8706c0-1.2337-1.0001-2.2338-2.2338-2.2338h-8.9353c-1.2337,0-2.2338,1.0001-2.2338,2.2338v17.8706" fill="none" stroke="#010101" stroke-linecap="round" stroke-linejoin="round" stroke-width=".5"/>
  </g>
  <g>
    <path d="M40,157.8716c-.0003-1.3154.5791-2.5642,1.5838-3.4133l15.6367-13.4029c1.6651-1.4072,4.1027-1.4072,5.7677,0l15.6367,13.4029c1.0047.8491,1.5841,2.0978,1.5838,3.4133v20.1044c0,2.4674-2.0002,4.4676-4.4676,4.4676h-31.2735c-2.4674,0-4.4676-2.0002-4.4676-4.4676v-20.1044Z" fill="#b17eb7" stroke="#010101" stroke-linecap="round" stroke-linejoin="round" stroke-width=".5"/>
    <path d="M66.8058,182.4437v-17.8706c0-1.2337-1.0001-2.2338-2.2338-2.2338h-8.9353c-1.2337,0-2.2338,1.0001-2.2338,2.2338v17.8706" fill="#f2f2f3" stroke="#231f20" stroke-miterlimit="10" stroke-width=".5"/>
  </g>
  <g>
    <path d="M92.4478,157.8716c-.0003-1.3154.5791-2.5642,1.5838-3.4133l15.6367-13.4029c1.6651-1.4072,4.1027-1.4072,5.7677,0l15.6367,13.4029c1.0047.8491,1.5841,2.0978,1.5838,3.4133v20.1044c0,2.4674-2.0002,4.4676-4.4676,4.4676h-31.2735c-2.4674,0-4.4676-2.0002-4.4676-4.4676v-20.1044Z" fill="#b17eb7" stroke="#010101" stroke-linecap="round" stroke-linejoin="round" stroke-width=".5"/>
    <path d="M119.2537,182.4437v-17.8706c0-1.2337-1.0001-2.2338-2.2338-2.2338h-8.9353c-1.2337,0-2.2338,1.0001-2.2338,2.2338v17.8706" fill="#f2f2f3" stroke="#231f20" stroke-miterlimit="10" stroke-width=".5"/>
  </g>
  <line x1="40" y1="191.005" x2="173.6162" y2="191.005" fill="none" stroke="#bb90c2" stroke-miterlimit="10" stroke-width="2.5"/>
  <g>
    <path d="M144.8956,157.8716c-.0003-1.3154.5791-2.5642,1.5838-3.4133l15.6367-13.4029c1.6651-1.4072,4.1027-1.4072,5.7677,0l15.6367,13.4029c1.0047.8491,1.5841,2.0978,1.5838,3.4133v20.1044c0,2.4674-2.0002,4.4676-4.4676,4.4676h-31.2735c-2.4674,0-4.4676-2.0002-4.4676-4.4676v-20.1044Z" fill="#b17eb7" stroke="#010101" stroke-linecap="round" stroke-linejoin="round" stroke-width=".5"/>
    <path d="M171.7015,182.4437v-17.8706c0-1.2337-1.0001-2.2338-2.2338-2.2338h-8.9353c-1.2337,0-2.2338,1.0001-2.2338,2.2338v17.8706" fill="#f2f2f3" stroke="#231f20" stroke-miterlimit="10" stroke-width=".5"/>
  </g>
  <text transform="translate(40 207.6528)" fill="#bb90c2" font-family="InterItalic-BoldItalic, Inter" font-size="14" font-style="italic" font-variation-settings="&apos;opsz&apos; 14, &apos;wght&apos; 700" font-weight="700"><tspan x="0" y="0">55% rent in Vancouver</tspan></text>
  <line x1="173.6162" y1="187.5645" x2="173.6162" y2="194.4455" fill="none" stroke="#bb90c2" stroke-miterlimit="10" stroke-width="2.5"/>
</svg>