<?xml version="1.0" encoding="UTF-8" standalone="no"?>
<svg
   viewBox="0 0 120.00001 50"
   version="1.1"
   id="svg98"
   sodipodi:docname="ii-logo.svg"
   width="120"
   height="50"
   inkscape:version="1.4.2 (1:1.4.2+202505120738+ebf0e940d0)"
   xmlns:inkscape="http://www.inkscape.org/namespaces/inkscape"
   xmlns:sodipodi="http://sodipodi.sourceforge.net/DTD/sodipodi-0.dtd"
   xmlns="http://www.w3.org/2000/svg"
   xmlns:svg="http://www.w3.org/2000/svg">
  <sodipodi:namedview
     id="namedview98"
     pagecolor="#ffffff"
     bordercolor="#666666"
     borderopacity="1.0"
     inkscape:showpageshadow="2"
     inkscape:pageopacity="0.0"
     inkscape:pagecheckerboard="0"
     inkscape:deskcolor="#d1d1d1"
     inkscape:zoom="3.1672026"
     inkscape:cx="32.362944"
     inkscape:cy="24.311675"
     inkscape:window-width="1920"
     inkscape:window-height="1043"
     inkscape:window-x="0"
     inkscape:window-y="0"
     inkscape:window-maximized="1"
     inkscape:current-layer="svg98"
     showgrid="true">
    <inkscape:grid
       id="grid1"
       units="px"
       originx="0"
       originy="0"
       spacingx="1.0000001"
       spacingy="1"
       empcolor="#0099e5"
       empopacity="0.30196078"
       color="#0099e5"
       opacity="0.14902"
       empspacing="5"
       enabled="true"
       visible="true" />
  </sodipodi:namedview>
  <defs
     id="defs1">
    <style
       id="style1">.cls-1{fill-rule:evenodd;}.cls-1,.cls-2{fill:#1e3765;}.cls-1,.cls-2,.cls-3{stroke-width:0px;}.cls-3{fill:#f44a25;}</style>
  </defs>
  <g
     id="II_Logo"
     transform="matrix(0.64423944,0,0,0.64423944,-134.73434,-6.9536467)">
    <path
       class="cls-3"
       d="m 265.81,36.47 v 13.06 h -2.76 V 36.47 Z"
       id="path72" />
    <path
       class="cls-3"
       d="m 271.21,43.87 v 5.66 h -2.72 v -9.8 h 2.59 v 1.73 h 0.11 c 0.22,-0.57 0.58,-1.02 1.09,-1.36 0.51,-0.34 1.13,-0.5 1.86,-0.5 0.68,0 1.27,0.15 1.78,0.45 0.51,0.3 0.9,0.72 1.18,1.27 0.28,0.55 0.42,1.21 0.42,1.97 v 6.24 h -2.72 v -5.75 c 0,-0.6 -0.15,-1.07 -0.46,-1.41 -0.31,-0.34 -0.74,-0.51 -1.28,-0.51 -0.37,0 -0.69,0.08 -0.97,0.24 -0.28,0.16 -0.5,0.39 -0.65,0.69 -0.15,0.3 -0.23,0.66 -0.24,1.08 z"
       id="path73" />
    <path
       class="cls-3"
       d="m 285.38,39.73 v 2.04 h -6.05 v -2.04 z m -4.66,9.8 V 39.02 c 0,-0.71 0.14,-1.3 0.42,-1.77 0.28,-0.47 0.66,-0.82 1.14,-1.05 0.48,-0.23 1.04,-0.35 1.65,-0.35 0.42,0 0.8,0.03 1.15,0.1 0.35,0.06 0.6,0.12 0.77,0.17 l -0.48,2.04 c -0.11,-0.03 -0.24,-0.07 -0.39,-0.1 -0.15,-0.03 -0.31,-0.04 -0.48,-0.04 -0.4,0 -0.68,0.09 -0.84,0.28 -0.16,0.19 -0.24,0.44 -0.24,0.77 v 10.46 h -2.71 z"
       id="path74" />
    <path
       class="cls-3"
       d="m 287.48,49.53 v -9.8 h 2.63 v 1.71 h 0.1 c 0.18,-0.61 0.48,-1.07 0.9,-1.38 0.42,-0.31 0.91,-0.47 1.45,-0.47 0.14,0 0.28,0 0.44,0.03 0.16,0.03 0.3,0.04 0.41,0.07 v 2.41 c -0.13,-0.04 -0.3,-0.07 -0.53,-0.1 -0.23,-0.03 -0.43,-0.04 -0.62,-0.04 -0.4,0 -0.76,0.09 -1.07,0.26 -0.31,0.17 -0.56,0.41 -0.74,0.72 -0.18,0.31 -0.27,0.66 -0.27,1.06 v 5.54 h -2.72 z"
       id="path75" />
    <path
       class="cls-3"
       d="m 297.79,49.72 c -0.63,0 -1.18,-0.11 -1.67,-0.33 -0.49,-0.22 -0.87,-0.54 -1.16,-0.98 -0.28,-0.43 -0.42,-0.97 -0.42,-1.62 0,-0.54 0.1,-1 0.3,-1.37 0.2,-0.37 0.47,-0.67 0.82,-0.89 0.35,-0.22 0.74,-0.4 1.18,-0.51 0.44,-0.11 0.9,-0.2 1.39,-0.24 0.57,-0.06 1.03,-0.12 1.38,-0.17 0.35,-0.05 0.6,-0.13 0.76,-0.24 0.16,-0.11 0.24,-0.26 0.24,-0.47 v -0.04 c 0,-0.4 -0.13,-0.72 -0.38,-0.94 -0.25,-0.22 -0.61,-0.33 -1.07,-0.33 -0.49,0 -0.88,0.11 -1.17,0.32 -0.29,0.21 -0.48,0.48 -0.57,0.81 l -2.51,-0.2 c 0.13,-0.6 0.38,-1.11 0.75,-1.55 0.37,-0.44 0.86,-0.77 1.45,-1.01 0.59,-0.24 1.28,-0.35 2.06,-0.35 0.54,0 1.07,0.06 1.57,0.19 0.5,0.13 0.94,0.33 1.33,0.59 0.39,0.26 0.7,0.61 0.92,1.03 0.23,0.42 0.34,0.92 0.34,1.5 v 6.61 h -2.58 v -1.36 h -0.08 c -0.16,0.31 -0.37,0.58 -0.63,0.81 -0.26,0.23 -0.58,0.41 -0.95,0.54 -0.37,0.13 -0.8,0.19 -1.28,0.19 z m 0.78,-1.88 c 0.4,0 0.75,-0.08 1.06,-0.24 0.31,-0.16 0.55,-0.38 0.72,-0.65 0.17,-0.27 0.26,-0.58 0.26,-0.93 v -1.04 c -0.08,0.06 -0.2,0.11 -0.35,0.15 -0.15,0.04 -0.31,0.08 -0.49,0.12 -0.18,0.04 -0.37,0.07 -0.55,0.1 -0.18,0.03 -0.35,0.05 -0.5,0.07 -0.32,0.05 -0.6,0.12 -0.84,0.22 -0.24,0.1 -0.42,0.24 -0.55,0.41 -0.13,0.17 -0.2,0.39 -0.2,0.64 0,0.37 0.14,0.65 0.41,0.85 0.27,0.19 0.61,0.29 1.03,0.29 z"
       id="path76" />
    <path
       class="cls-3"
       d="m 314.02,42.53 -2.49,0.15 c -0.04,-0.21 -0.13,-0.41 -0.27,-0.58 -0.14,-0.17 -0.32,-0.31 -0.55,-0.41 -0.23,-0.1 -0.5,-0.16 -0.81,-0.16 -0.42,0 -0.78,0.09 -1.07,0.27 -0.29,0.18 -0.43,0.41 -0.43,0.7 0,0.23 0.09,0.43 0.28,0.59 0.19,0.16 0.51,0.29 0.96,0.39 l 1.77,0.36 c 0.95,0.2 1.66,0.51 2.13,0.94 0.47,0.43 0.7,1 0.7,1.71 0,0.64 -0.19,1.21 -0.56,1.69 -0.38,0.48 -0.89,0.86 -1.54,1.13 -0.65,0.27 -1.4,0.41 -2.26,0.41 -1.3,0 -2.33,-0.27 -3.1,-0.81 -0.77,-0.54 -1.22,-1.28 -1.35,-2.22 l 2.67,-0.14 c 0.08,0.4 0.28,0.7 0.59,0.9 0.31,0.21 0.71,0.31 1.19,0.31 0.48,0 0.86,-0.09 1.15,-0.28 0.29,-0.18 0.44,-0.42 0.44,-0.72 0,-0.25 -0.11,-0.45 -0.31,-0.61 -0.2,-0.16 -0.52,-0.28 -0.94,-0.37 l -1.7,-0.34 c -0.96,-0.19 -1.67,-0.52 -2.13,-1 -0.47,-0.47 -0.7,-1.07 -0.7,-1.81 0,-0.63 0.17,-1.17 0.51,-1.63 0.34,-0.45 0.83,-0.81 1.45,-1.05 0.62,-0.25 1.35,-0.37 2.19,-0.37 1.24,0 2.21,0.26 2.92,0.78 0.71,0.52 1.13,1.24 1.25,2.14 z"
       id="path77" />
    <path
       class="cls-3"
       d="m 321.62,39.73 v 2.04 h -5.9 v -2.04 z m -4.56,-2.35 h 2.72 v 9.13 c 0,0.25 0.04,0.44 0.11,0.58 0.08,0.14 0.18,0.24 0.32,0.29 0.14,0.06 0.3,0.08 0.48,0.08 0.13,0 0.26,-0.01 0.38,-0.04 0.13,-0.02 0.23,-0.04 0.29,-0.05 l 0.43,2.02 c -0.14,0.04 -0.33,0.09 -0.57,0.15 -0.25,0.06 -0.55,0.09 -0.9,0.11 -0.66,0.03 -1.23,-0.06 -1.72,-0.26 -0.49,-0.2 -0.87,-0.51 -1.14,-0.93 -0.27,-0.42 -0.41,-0.95 -0.4,-1.6 v -9.49 z"
       id="path78" />
    <path
       class="cls-3"
       d="m 323.84,49.53 v -9.8 h 2.63 v 1.71 h 0.1 c 0.18,-0.61 0.48,-1.07 0.9,-1.38 0.42,-0.31 0.91,-0.47 1.45,-0.47 0.14,0 0.28,0 0.44,0.03 0.16,0.03 0.3,0.04 0.41,0.07 v 2.41 c -0.13,-0.04 -0.3,-0.07 -0.53,-0.1 -0.23,-0.03 -0.43,-0.04 -0.62,-0.04 -0.4,0 -0.76,0.09 -1.07,0.26 -0.31,0.17 -0.56,0.41 -0.74,0.72 -0.18,0.31 -0.27,0.66 -0.27,1.06 v 5.54 h -2.72 z"
       id="path79" />
    <path
       class="cls-3"
       d="m 337.91,45.36 v -5.63 h 2.72 v 9.8 h -2.61 v -1.78 h -0.1 c -0.22,0.57 -0.59,1.04 -1.1,1.38 -0.51,0.35 -1.14,0.52 -1.87,0.52 -0.65,0 -1.23,-0.15 -1.73,-0.45 -0.5,-0.3 -0.89,-0.72 -1.16,-1.27 -0.28,-0.55 -0.42,-1.21 -0.42,-1.97 v -6.24 h 2.72 v 5.75 c 0,0.58 0.16,1.04 0.47,1.37 0.31,0.34 0.72,0.5 1.23,0.5 0.33,0 0.63,-0.08 0.92,-0.23 0.29,-0.15 0.52,-0.38 0.69,-0.67 0.18,-0.3 0.26,-0.67 0.26,-1.1 z"
       id="path80" />
    <path
       class="cls-3"
       d="m 347.68,49.72 c -1,0 -1.87,-0.21 -2.59,-0.64 -0.72,-0.43 -1.27,-1.02 -1.66,-1.78 -0.39,-0.76 -0.58,-1.64 -0.58,-2.63 0,-0.99 0.19,-1.89 0.58,-2.64 0.39,-0.76 0.94,-1.35 1.66,-1.78 0.72,-0.43 1.57,-0.64 2.56,-0.64 0.85,0 1.6,0.16 2.25,0.47 0.64,0.31 1.15,0.75 1.52,1.31 0.37,0.56 0.58,1.22 0.62,1.98 h -2.56 c -0.07,-0.49 -0.26,-0.88 -0.57,-1.18 -0.31,-0.3 -0.71,-0.45 -1.21,-0.45 -0.42,0 -0.79,0.11 -1.1,0.34 -0.31,0.23 -0.56,0.56 -0.73,0.99 -0.17,0.43 -0.26,0.96 -0.26,1.58 0,0.62 0.09,1.16 0.26,1.6 0.17,0.44 0.42,0.77 0.73,1 0.31,0.23 0.68,0.34 1.1,0.34 0.31,0 0.59,-0.06 0.84,-0.19 0.25,-0.13 0.45,-0.31 0.62,-0.56 0.16,-0.24 0.27,-0.54 0.32,-0.88 h 2.56 c -0.04,0.75 -0.25,1.41 -0.61,1.97 -0.36,0.57 -0.86,1.01 -1.5,1.33 -0.64,0.32 -1.39,0.48 -2.26,0.48 z"
       id="path81" />
    <path
       class="cls-3"
       d="m 359.46,39.73 v 2.04 h -5.9 v -2.04 z m -4.56,-2.35 h 2.72 v 9.13 c 0,0.25 0.04,0.44 0.11,0.58 0.08,0.14 0.18,0.24 0.32,0.29 0.14,0.06 0.3,0.08 0.48,0.08 0.13,0 0.26,-0.01 0.38,-0.04 0.13,-0.02 0.23,-0.04 0.29,-0.05 l 0.43,2.02 c -0.14,0.04 -0.33,0.09 -0.57,0.15 -0.25,0.06 -0.55,0.09 -0.9,0.11 -0.66,0.03 -1.23,-0.06 -1.72,-0.26 -0.49,-0.2 -0.87,-0.51 -1.14,-0.93 -0.27,-0.42 -0.41,-0.95 -0.4,-1.6 v -9.49 z"
       id="path82" />
    <path
       class="cls-3"
       d="m 367.96,45.36 v -5.63 h 2.72 v 9.8 h -2.61 v -1.78 h -0.1 c -0.22,0.57 -0.59,1.04 -1.1,1.38 -0.51,0.35 -1.14,0.52 -1.87,0.52 -0.65,0 -1.23,-0.15 -1.73,-0.45 -0.5,-0.3 -0.89,-0.72 -1.16,-1.27 -0.28,-0.55 -0.42,-1.21 -0.42,-1.97 v -6.24 h 2.72 v 5.75 c 0,0.58 0.16,1.04 0.47,1.37 0.31,0.34 0.72,0.5 1.23,0.5 0.33,0 0.63,-0.08 0.92,-0.23 0.29,-0.15 0.52,-0.38 0.69,-0.67 0.18,-0.3 0.26,-0.67 0.26,-1.1 z"
       id="path83" />
    <path
       class="cls-3"
       d="m 373.29,49.53 v -9.8 h 2.63 v 1.71 h 0.1 c 0.18,-0.61 0.48,-1.07 0.9,-1.38 0.42,-0.31 0.91,-0.47 1.45,-0.47 0.14,0 0.28,0 0.44,0.03 0.16,0.03 0.3,0.04 0.41,0.07 v 2.41 c -0.13,-0.04 -0.3,-0.07 -0.53,-0.1 -0.23,-0.03 -0.43,-0.04 -0.62,-0.04 -0.4,0 -0.76,0.09 -1.07,0.26 -0.31,0.17 -0.56,0.41 -0.74,0.72 -0.18,0.31 -0.27,0.66 -0.27,1.06 v 5.54 h -2.72 z"
       id="path84" />
    <path
       class="cls-3"
       d="m 385.09,49.72 c -1.01,0 -1.87,-0.21 -2.6,-0.62 -0.73,-0.41 -1.28,-0.99 -1.67,-1.75 -0.39,-0.76 -0.59,-1.65 -0.59,-2.68 0,-1.03 0.2,-1.89 0.59,-2.65 0.39,-0.76 0.94,-1.35 1.66,-1.78 0.71,-0.42 1.55,-0.64 2.51,-0.64 0.65,0 1.25,0.1 1.81,0.31 0.56,0.21 1.05,0.52 1.47,0.93 0.42,0.41 0.74,0.93 0.98,1.55 0.23,0.62 0.35,1.35 0.35,2.18 v 0.75 h -8.27 v -1.68 h 5.72 c 0,-0.39 -0.08,-0.74 -0.26,-1.04 -0.17,-0.3 -0.4,-0.54 -0.7,-0.71 -0.3,-0.17 -0.65,-0.26 -1.04,-0.26 -0.39,0 -0.78,0.09 -1.09,0.28 -0.32,0.19 -0.56,0.44 -0.74,0.76 -0.18,0.32 -0.27,0.67 -0.27,1.06 v 1.6 c 0,0.48 0.09,0.9 0.27,1.26 0.18,0.35 0.44,0.63 0.77,0.82 0.33,0.19 0.72,0.29 1.18,0.29 0.3,0 0.58,-0.04 0.83,-0.13 0.25,-0.08 0.47,-0.21 0.64,-0.38 0.18,-0.17 0.31,-0.38 0.41,-0.63 l 2.51,0.17 c -0.13,0.6 -0.39,1.13 -0.78,1.58 -0.39,0.45 -0.9,0.8 -1.52,1.05 -0.62,0.25 -1.33,0.37 -2.14,0.37 z"
       id="path85" />
    <path
       class="cls-3"
       d="m 265.81,58.02 v 13.06 h -2.76 V 58.02 Z"
       id="path86" />
    <path
       class="cls-3"
       d="m 271.21,65.42 v 5.66 h -2.72 v -9.8 h 2.59 v 1.73 h 0.11 c 0.22,-0.57 0.58,-1.02 1.09,-1.36 0.51,-0.34 1.13,-0.5 1.86,-0.5 0.68,0 1.27,0.15 1.78,0.45 0.51,0.3 0.9,0.72 1.18,1.27 0.28,0.55 0.42,1.21 0.42,1.97 v 6.24 h -2.72 v -5.75 c 0,-0.6 -0.15,-1.07 -0.46,-1.41 -0.31,-0.34 -0.74,-0.51 -1.28,-0.51 -0.37,0 -0.69,0.08 -0.97,0.24 -0.28,0.16 -0.5,0.39 -0.65,0.69 -0.15,0.3 -0.23,0.66 -0.24,1.08 z"
       id="path87" />
    <path
       class="cls-3"
       d="m 288.26,64.08 -2.49,0.15 c -0.04,-0.21 -0.13,-0.41 -0.27,-0.58 -0.14,-0.17 -0.32,-0.31 -0.55,-0.41 -0.23,-0.1 -0.5,-0.16 -0.81,-0.16 -0.42,0 -0.78,0.09 -1.07,0.27 -0.29,0.18 -0.43,0.41 -0.43,0.7 0,0.23 0.09,0.43 0.28,0.59 0.19,0.16 0.51,0.29 0.96,0.39 l 1.77,0.36 c 0.95,0.2 1.66,0.51 2.13,0.94 0.47,0.43 0.7,1 0.7,1.71 0,0.64 -0.19,1.21 -0.56,1.69 -0.38,0.48 -0.89,0.86 -1.54,1.13 -0.65,0.27 -1.4,0.41 -2.26,0.41 -1.3,0 -2.33,-0.27 -3.1,-0.81 -0.77,-0.54 -1.22,-1.28 -1.35,-2.22 l 2.67,-0.14 c 0.08,0.4 0.28,0.7 0.59,0.9 0.31,0.21 0.71,0.31 1.19,0.31 0.48,0 0.86,-0.09 1.15,-0.28 0.29,-0.18 0.44,-0.42 0.44,-0.72 0,-0.25 -0.11,-0.45 -0.31,-0.61 -0.2,-0.16 -0.52,-0.28 -0.94,-0.37 l -1.7,-0.34 c -0.96,-0.19 -1.67,-0.52 -2.13,-1 -0.47,-0.47 -0.7,-1.07 -0.7,-1.81 0,-0.63 0.17,-1.17 0.51,-1.63 0.34,-0.45 0.83,-0.81 1.45,-1.05 0.62,-0.25 1.35,-0.37 2.19,-0.37 1.24,0 2.21,0.26 2.92,0.78 0.71,0.52 1.13,1.24 1.25,2.14 z"
       id="path88" />
    <path
       class="cls-3"
       d="m 295.86,61.29 v 2.04 h -5.9 v -2.04 z m -4.56,-2.35 h 2.72 v 9.13 c 0,0.25 0.04,0.44 0.11,0.58 0.08,0.14 0.18,0.24 0.32,0.29 0.14,0.06 0.3,0.08 0.48,0.08 0.13,0 0.26,-0.01 0.38,-0.04 0.13,-0.02 0.23,-0.04 0.29,-0.05 l 0.43,2.02 c -0.14,0.04 -0.33,0.09 -0.57,0.15 -0.25,0.06 -0.55,0.09 -0.9,0.11 -0.66,0.03 -1.23,-0.06 -1.72,-0.26 -0.49,-0.2 -0.87,-0.51 -1.14,-0.93 -0.27,-0.42 -0.41,-0.95 -0.4,-1.6 v -9.49 z"
       id="path89" />
    <path
       class="cls-3"
       d="m 299.45,60.02 c -0.4,0 -0.75,-0.14 -1.04,-0.41 -0.29,-0.27 -0.43,-0.59 -0.43,-0.97 0,-0.38 0.14,-0.7 0.43,-0.97 0.29,-0.27 0.63,-0.41 1.03,-0.41 0.4,0 0.76,0.14 1.04,0.41 0.29,0.27 0.43,0.59 0.43,0.97 0,0.38 -0.14,0.7 -0.43,0.97 -0.29,0.27 -0.63,0.41 -1.04,0.41 z m -1.37,11.06 v -9.8 h 2.72 v 9.8 z"
       id="path90" />
    <path
       class="cls-3"
       d="m 308.62,61.29 v 2.04 h -5.9 v -2.04 z m -4.56,-2.35 h 2.72 v 9.13 c 0,0.25 0.04,0.44 0.11,0.58 0.08,0.14 0.18,0.24 0.32,0.29 0.14,0.06 0.3,0.08 0.48,0.08 0.13,0 0.26,-0.01 0.38,-0.04 0.13,-0.02 0.23,-0.04 0.29,-0.05 l 0.43,2.02 c -0.14,0.04 -0.33,0.09 -0.57,0.15 -0.25,0.06 -0.55,0.09 -0.9,0.11 -0.66,0.03 -1.23,-0.06 -1.72,-0.26 -0.49,-0.2 -0.87,-0.51 -1.14,-0.93 -0.27,-0.42 -0.41,-0.95 -0.4,-1.6 v -9.49 z"
       id="path91" />
    <path
       class="cls-3"
       d="m 317.12,66.91 v -5.63 h 2.72 v 9.8 h -2.61 V 69.3 h -0.1 c -0.22,0.57 -0.59,1.04 -1.1,1.38 -0.51,0.35 -1.14,0.52 -1.87,0.52 -0.65,0 -1.23,-0.15 -1.73,-0.45 -0.5,-0.3 -0.89,-0.72 -1.16,-1.27 -0.28,-0.55 -0.42,-1.21 -0.42,-1.97 v -6.24 h 2.72 v 5.75 c 0,0.58 0.16,1.04 0.47,1.37 0.31,0.34 0.72,0.5 1.23,0.5 0.33,0 0.63,-0.08 0.92,-0.23 0.29,-0.15 0.52,-0.38 0.69,-0.67 0.18,-0.3 0.26,-0.67 0.26,-1.1 z"
       id="path92" />
    <path
       class="cls-3"
       d="m 327.67,61.29 v 2.04 h -5.9 v -2.04 z m -4.56,-2.35 h 2.72 v 9.13 c 0,0.25 0.04,0.44 0.11,0.58 0.08,0.14 0.18,0.24 0.32,0.29 0.14,0.06 0.3,0.08 0.48,0.08 0.13,0 0.26,-0.01 0.38,-0.04 0.13,-0.02 0.23,-0.04 0.29,-0.05 l 0.43,2.02 c -0.14,0.04 -0.33,0.09 -0.57,0.15 -0.25,0.06 -0.55,0.09 -0.9,0.11 -0.66,0.03 -1.23,-0.06 -1.72,-0.26 -0.49,-0.2 -0.87,-0.51 -1.14,-0.93 -0.27,-0.42 -0.41,-0.95 -0.4,-1.6 v -9.49 z"
       id="path93" />
    <path
       class="cls-3"
       d="m 334.25,71.28 c -1.01,0 -1.87,-0.21 -2.6,-0.62 -0.73,-0.41 -1.28,-0.99 -1.67,-1.75 -0.39,-0.76 -0.59,-1.65 -0.59,-2.68 0,-1.03 0.2,-1.89 0.59,-2.65 0.39,-0.76 0.94,-1.35 1.66,-1.78 0.71,-0.42 1.55,-0.64 2.51,-0.64 0.65,0 1.25,0.1 1.81,0.31 0.56,0.21 1.05,0.52 1.47,0.93 0.42,0.41 0.74,0.93 0.98,1.55 0.23,0.62 0.35,1.35 0.35,2.18 v 0.75 h -8.27 V 65.2 h 5.72 c 0,-0.39 -0.08,-0.74 -0.26,-1.04 -0.17,-0.3 -0.4,-0.54 -0.7,-0.71 -0.3,-0.17 -0.65,-0.26 -1.04,-0.26 -0.39,0 -0.78,0.09 -1.09,0.28 -0.32,0.19 -0.56,0.44 -0.74,0.76 -0.18,0.32 -0.27,0.67 -0.27,1.06 v 1.6 c 0,0.48 0.09,0.9 0.27,1.26 0.18,0.35 0.44,0.63 0.77,0.82 0.33,0.19 0.72,0.29 1.18,0.29 0.3,0 0.58,-0.04 0.83,-0.13 0.25,-0.08 0.47,-0.21 0.64,-0.38 0.18,-0.17 0.31,-0.38 0.41,-0.63 l 2.51,0.17 c -0.13,0.6 -0.39,1.13 -0.78,1.58 -0.39,0.45 -0.9,0.8 -1.52,1.05 -0.62,0.25 -1.33,0.37 -2.14,0.37 z"
       id="path94" />
    <path
       class="cls-3"
       d="m 237.91,37.25 c 0,2.99 -2.43,5.42 -5.42,5.42 -2.99,0 -5.42,-2.43 -5.42,-5.42 0,-2.99 2.43,-5.42 5.42,-5.42 h 5.42 z"
       id="path95" />
    <path
       class="cls-3"
       d="m 237.91,59.59 v -9.06 c 0,-2.99 -2.42,-5.42 -5.42,-5.42 -3,0 -5.42,2.43 -5.42,5.42 v 9.08 c 0,0 0,0 0,0 v 9.06 c 0,0 0,0.02 0,0.04 v 5.38 c 0,0 5.42,0 5.42,0 v 0 c 2.99,0 5.42,-2.43 5.42,-5.42 0,-0.01 0,-0.02 0,-0.04 z"
       id="path96" />
    <path
       class="cls-3"
       d="m 252.87,37.25 c 0,2.99 -2.43,5.42 -5.42,5.42 -2.99,0 -5.42,-2.43 -5.42,-5.42 0,-2.99 2.43,-5.42 5.42,-5.42 h 5.42 z"
       id="path97" />
    <path
       class="cls-3"
       d="m 252.87,59.59 v -9.06 c 0,-2.99 -2.42,-5.42 -5.42,-5.42 -3,0 -5.42,2.43 -5.42,5.42 v 9.08 c 0,0 0,0 0,0 v 9.06 c 0,0 0,0.02 0,0.04 v 5.38 c 0,0 5.42,0 5.42,0 v 0 c 2.99,0 5.42,-2.43 5.42,-5.42 0,-0.01 0,-0.02 0,-0.04 z"
       id="path98" />
  </g>
</svg>
