<?xml version="1.0" encoding="UTF-8"?><svg xmlns="http://www.w3.org/2000/svg" viewBox="0 0 411.02 100"><defs><style>.cls-1{fill-rule:evenodd;}.cls-1,.cls-2{fill:#1e3765;}.cls-1,.cls-2,.cls-3{stroke-width:0px;}.cls-3{fill:#f44a25;}</style></defs><g id="Signature_655"><path class="cls-2" d="m207.37,80.15c-.08,0-.15-.07-.15-.15v-47.52c0-.08.07-.15.15-.15s.15.07.15.15v47.52c0,.08-.07.15-.15.15Z"/><path id="University_of_Toronto_Mark_Stacked" class="cls-2" d="m178.66,54.91c5.39,0,8.72,4.3,8.72,8.68,0,4.84-4.21,8.85-8.97,8.85s-8.47-4-8.47-8.85,4.09-8.68,8.72-8.68m.88,16.43c3.16,0,5.14-3.12,5.14-6.11,0-4.76-2.74-9.22-6.82-9.22-3.24,0-5.22,2.86-5.22,6.19,0,4.38,2.53,9.14,6.91,9.14Zm-17.52-16.05h-3.61c-1.56,0-2.74,0-3.71-.04-.89-.04-1.1-.25-1.22-.42h-.46c-.08.21-1.22,3.24-1.26,3.41l.55.34c.55-1.47,1.18-2.19,4.17-2.19.25,0,1.22,0,2.4.13.17,2.15.21,4.25.21,6.4,0,1.35-.04,6.39-.21,7.49-.09.51-.34.75-1.73,1-.59.08-.97.13-1.31.17l.13.68c.45-.04.99-.07,1.66-.11.68-.04,1.5-.07,2.72-.07.46,0,1.22-.03,1.94.01.71.04,1.35.04,2.23.08l.08-.71c-.17,0-.42-.04-.8-.09-.47-.06-1.22-.21-1.52-.5-.55-.63-.55-5.17-.55-6.39,0-1.05.17-6.36.17-7.58,0-.51.17-.51,1.69-.51h.05c.68-.02.87,0,1.12,0,2.99,0,3.07.72,3.62,2.19l.55-.34c-.04-.17-.63-3.2-.71-3.41h-.46c-.13.17-.34.38-1.22.42-1.15.05-2.51.04-3.89.04h-.63Zm-27.75-.04c-.68.04-1.18.04-2.03.04-.42,0-.84,0-1.26-.04-.42-.04-.49-.04-.89-.08v.72c2.44.46,2.66.84,2.57,5.73v2.99c0,1.14-.09,4.51-.21,5.48-.12,1.1-.59,1.18-1.22,1.31-.34.08-.72.17-.97.21v.63c.63,0,1.26-.04,1.89-.08.63-.04,1.48-.08,2.11-.08s1.31.04,1.9.08c.55,0,.93.04,1.18.08v-.72c-3.33-.59-3.33-1.05-3.29-3.87v-7.12s.05-1.35.05-1.35c0-.01,0,.02,12.39,13.14h.87c-.08-1.39-.08-4.97-.08-6.53,0-2.23-.02-7.99.08-8.71.14-1.1,1.61-1.19,2.41-1.19v-.63c-1.81,0-2.8.04-3.61-.04-.76-.08-1.3-.12-1.77-.12-.38,0-.8-.04-1.05,0l-.13.63c2.82.17,2.76.42,2.76,6.78,0,.76-.03,4.48-.03,5.19l-11.67-12.43Zm-15.25-.34c5.39,0,8.72,4.3,8.72,8.68,0,4.84-4.21,8.85-8.97,8.85s-8.47-4-8.47-8.85,4.09-8.68,8.72-8.68Zm.88,16.43c3.16,0,5.14-3.12,5.14-6.11,0-4.76-2.74-9.22-6.82-9.22-3.24,0-5.22,2.86-5.22,6.19,0,4.38,2.53,9.14,6.91,9.14Zm-27.63-16.17c.55.04,1.05.08,1.6.08.5.04,1.05.04,1.56.04.38,0,1.35-.09,2.32-.17.97-.08,1.68-.08,2.27-.08,3.58,0,5.86,1.94,5.86,4.55,0,2.36-2.15,3.79-3.83,4.21,3.5,5.05,4.13,5.81,5.48,7.07.17.17,1.22,1.14,2.53,1.22l-.04.63c-2.91,0-4.34-1.14-5.1-1.73-2.57-2.02-5.1-6.02-5.56-6.87-.72,0-1.01,0-2.23-.08v2.44c0,1.1-.04,3.54.29,4.21.21.38,1.47.76,2.32,1.01l.04.63c-1.01-.17-2.61-.29-3.71-.29-.59,0-3.2.17-3.75.21l-.13-.5c.25-.04,1.77-.38,2.15-1.09.29-.63.25-4.17.25-5.31v-4.04c0-5.22-.25-5.31-2.36-5.43l.04-.72Zm4.89,7.92c.5.08,1.31.08,1.81.08.63,0,4.17,0,4.17-3.37,0-1.56-1.14-3.83-4.13-3.83-1.77,0-1.77.21-1.81,3.07l-.04,4.04Zm-16.59-8.17c5.39,0,8.72,4.3,8.72,8.68,0,4.84-4.21,8.85-8.97,8.85s-8.47-4-8.47-8.85,4.09-8.68,8.72-8.68Zm.88,16.43c3.16,0,5.14-3.12,5.14-6.11,0-4.76-2.74-9.22-6.82-9.22-3.24,0-5.22,2.86-5.22,6.19,0,4.38,2.53,9.14,6.91,9.14Zm-17.92-16.05h-3.61c-1.56,0-2.74,0-3.71-.04-.88-.04-1.09-.25-1.22-.42h-.46c-.08.21-1.22,3.24-1.26,3.41l.55.34c.55-1.47,1.18-2.19,4.17-2.19.25,0,1.22,0,2.4.13.17,2.15.21,4.25.21,6.4,0,1.35-.04,6.39-.21,7.49-.08.51-.34.75-1.73,1-.59.08-.97.13-1.31.17l.13.68c.45-.04.99-.07,1.66-.11.68-.04,1.5-.07,2.72-.07.46,0,1.22-.03,1.94.01.71.04,1.35.04,2.23.08l.08-.71c-.17,0-.42-.04-.8-.09-.47-.06-1.22-.21-1.52-.5-.55-.63-.55-5.17-.55-6.39,0-1.05.17-6.36.17-7.58,0-.51.17-.51,1.68-.51h.05c.68-.02.87,0,1.12,0,2.99,0,3.07.72,3.62,2.19l.55-.34c-.04-.17-.63-3.2-.71-3.41h-.46c-.13.17-.34.38-1.22.42-1.15.05-2.51.04-3.89.04h-.63Zm108.82-14.86c-1.09.11-1.34.11-2.55.11l-1.28-.02-1.32-.04-.44.03-.34.04v.06s0,.26,0,.26h.06c.33.02.64.05.78.25.2.3.21.6.21,3.25,0,1.25-.11,2.66-.15,2.87-.07.29-.48.4-.78.45h-.05s-.03.41-.03.41h.07c.74-.06,1.55-.08,1.77-.08l.65.02s1.22.06,1.22.06v-.07s0-.37,0-.37h-.09c-.87-.09-1.15-.24-1.25-.35s-.13-.56-.13-1.04c0-.14,0-.28,0-.42,0,0,.03-1.12.04-1.38.09,0,.62-.03.62-.03.68,0,1.52.15,1.74.25.12.04.22.28.27.62v.05h.38v-.06c.07-.78.06-1.55.04-2.13v-.06h-.4v.05c-.1.55-.14.78-1.6.78-.44,0-.58-.02-1-.06,0,0-.02,0-.03,0,0-.13-.01-.28-.01-.43,0-.17,0-.35,0-.53,0,0,.02-1.56.03-1.8.42-.05.79-.07.9-.07.82,0,1.54.15,1.83.37.23.18.33.48.39.74v.05s.43-.03.43-.03v-.06c-.02-.12,0-.53.03-.9l.04-.8h-.07Zm-11.42-.05c2.48,0,3.96,1.97,3.96,3.87,0,2.14-1.87,3.94-4.07,3.94s-3.85-1.73-3.85-3.94c0-2.06,1.85-3.87,3.96-3.87Zm.39,7.2c1.38,0,2.23-1.36,2.23-2.62,0-1.96-1.12-3.98-2.99-3.98-1.49,0-2.27,1.33-2.27,2.65,0,1.94,1.13,3.94,3.03,3.94Zm-14.47-7.05v.38h.09c.38.02.89.04.89.35,0,.09-.16.53-1.58,2.59-.61-.74-1.97-2.48-1.97-2.7,0-.08,0-.18.86-.2h.06v-.44l-.71.02-1.38.02-1.49-.02v.4h.06c.38,0,.59.05.78.17.46.32,2.07,2.38,2.13,2.47,0,0,.65.83.71.92.04.53.07,1.13.07,1.86,0,1.13,0,1.36-1.05,1.4h-.06s-.03.38-.03.38h.06c.15.02.64-.02,1.1-.06l.8-.05.61.03h.12s.82.05.82.05v-.07s0-.32,0-.32h-.06c-1.03-.09-1.04-.23-1.06-.43,0,0,0-.08,0-.08-.02-.46-.04-.98-.04-1.54,0-.42,0-.87.02-1.35.02-.03,1.48-2.26,1.48-2.26.47-.72.73-1.12,1.74-1.14h.06v-.43h-.05c-.13-.02-.54,0-.9.03l-.48.02-.57-.03-.4-.02s-.56-.02-.56-.02h-.07s0,.06,0,.06Zm-6.66-.21h-.24l-.02.02s-.11.14-.5.16l-1.51.02h-2.12l-1.65-.02c-.39-.02-.46-.11-.5-.16l-.02-.02h-.28l-.02.04c-.03.08-.55,1.42-.57,1.5v.05s.34.21.34.21l.03-.07c.24-.62.49-.92,1.8-.92.42,0,.77.03,1.01.05.08,1.02.09,2,.09,2.75s-.02,2.82-.09,3.27c-.03.16-.08.27-.72.39,0,0-.47.06-.47.06l-.18.02.08.42.62-.04h.17s1.21-.04,1.21-.04h.19s.67,0,.67,0l.51.02.54.02v-.06s.05-.37.05-.37l-.34-.03h-.08c-.32-.05-.55-.13-.64-.22-.08-.09-.23-.58-.23-2.76l.04-1.55.04-1.77c0-.15,0-.16.69-.16h.03s.41,0,.41,0h.09c1.22,0,1.31.26,1.52.81l.06.18.35-.21-.08-.4c-.12-.59-.22-1.09-.25-1.15l-.02-.04h-.04Zm-12.58.23v.38h.06c.99.04,1.15.24,1.23.44.13.33.17,2.47.17,3.26v.13c0,.65,0,2.17-.2,2.51-.06.12-.32.32-1.29.39h-.06v.39l1.19-.04h1.09l1.82.06v-.07s-.03-.36-.03-.36h-.06c-.8,0-1.05-.01-1.15-.32-.05-.17-.07-.88-.07-2.12,0-2.94.02-3.71.18-4,.2-.33.9-.29,1.11-.26h.07s0-.44,0-.44h-.89s-1.26.04-1.26.04l-.83-.02h-.36s-.66-.03-.66-.03h-.06s0,.06,0,.06Zm-6.67,2.01c0,1.28,1.09,1.73,1.89,2.06l.07.03c1.37.56,2,.81,2,1.76,0,.56-.42,1.16-1.33,1.16-.81,0-1.4-.34-1.75-.63-.43-.36-.54-.9-.58-1.07v-.05h-.46l.02.08c.25.83.34,1.2.32,2.14v.06s.37.03.37.03l.02-.04s.08-.18.17-.18.35.07.46.1h.05s.11.05.11.05c.19.06.45.13.92.13,1.84,0,2.83-1.12,2.83-2.17,0-1.48-1.46-2.05-2.42-2.44-.92-.35-1.61-.68-1.61-1.42s.57-1.23,1.41-1.23c.75,0,1.29.42,1.42.57.31.28.38.61.46.94v.05s.06.02.06.02h.33l-.1-.99c0-.36.07-.74.11-.89l.02-.07-.34-.05s-.2.14-.24.16c-.69-.18-1.03-.24-1.51-.24-1.58,0-2.68.88-2.68,2.15Zm-5.31-2.13c1.58,0,2.68.85,2.68,2.06,0,.98-.85,1.65-1.67,1.88,1.51,2.14,1.79,2.47,2.39,3.02.02.02.5.48,1.09.52h.06s-.03.4-.03.4h-.06c-1.31,0-1.96-.5-2.32-.77-1.15-.89-2.27-2.63-2.48-3-.06,0-.79-.03-.9-.03v1s0,.27,0,.34c0,.51.01,1.25.13,1.47.08.15.68.32,1,.42h.04s.03.41.03.41h-.08c-.45-.09-1.16-.14-1.65-.14-.26,0-1.42.07-1.67.09h-.05s-.09-.34-.09-.34h.07c.16-.04.77-.19.91-.46.11-.24.11-1.56.11-2.13v-.17s0-1.77,0-1.77c0-2.26-.09-2.27-1-2.32h-.06s.03-.44.03-.44h.11s.66.04.67.04l.69.02c.17,0,.61-.04,1.03-.07h0,0l1.02-.04Zm-1.22,3.53c.22.03.55.03.75.03.67,0,1.8-.18,1.8-1.41,0-.65-.48-1.62-1.78-1.62-.73,0-.73.02-.75,1.29,0,0-.02,1.61-.02,1.71Zm-4.45-3.5c-.92.05-2.38.07-3.35.07-.59,0-2.06-.04-2.6-.06h-.06s0,.37,0,.37h.05c.64.12.68.13.72.28.07.18.15.86.15,3.14,0,.97-.07,2.51-.17,3.04-.05.26-.37.34-.87.39h-.06s.05.43.05.43h.06c1.01-.12,2.24-.12,2.97-.12l3.01.04.03-.04c.16-.25.4-.63.56-1.84v-.07s-.35-.03-.35-.03l-.02.04c-.25.69-.76,1.4-2.6,1.4-.64,0-.92-.09-1.28-.22-.03-.22-.07-.53-.09-1.45,0,0-.01-1.12-.02-1.38.48-.07.93-.07,1.12-.07,1.47,0,1.58.12,1.79,1.02v.05h.37v-.06c-.02-.99-.02-1.23.04-2.27v-.07s-.39,0-.39,0v.05c-.16.55-.28.66-.49.69-1.08.14-2.13.1-2.38.08,0-.1-.04-.99-.04-.99,0-.48.04-1.23.12-1.75.4-.07,1.13-.14,1.45-.14.83,0,1.32.11,1.54.34.18.19.18.47.17.79v.06s.43.05.43.05v-.07c0-.08.05-.38.09-.6l.04-.28c.06-.39.06-.58.06-.77v-.07h-.07Zm-16.31.09l.02.33h.05c1.01.13,1.05.14,1.87,1.82l1.7,3.45v.03c.3.6.73,1.51.88,2.03v.05h.39v-.04c.27-.75.46-1.27,1.05-2.45l1.83-3.58c.42-.84.6-1.06,1.42-1.22h.05v-.42h-.07c-.47.02-.92.02-1.39,0,0,0-1.43-.04-1.43-.04v.05s-.03.39-.03.39h.07c.38,0,.88.04.88.45,0,.23-.16.59-.27.83l-.03.06c-.37.84-.61,1.3-.86,1.79l-.83,1.71s-.12.28-.2.43c-.82-1.32-2.31-4.87-2.32-5.08,0-.09.02-.1.64-.18l.19-.02v-.41h-1.15s-.62,0-.62,0c-.43,0-1.31-.02-1.76-.05h-.07s0,.07,0,.07Zm-5.09,0v.38h.06c.99.04,1.15.24,1.22.44.14.33.17,2.47.17,3.26v.13c0,.65,0,2.17-.2,2.51-.07.12-.32.32-1.29.39h-.06v.39l1.19-.04h1.09l1.82.06v-.07s-.03-.35-.03-.35h-.06c-.79,0-1.05-.01-1.15-.32-.05-.17-.07-.88-.07-2.12,0-2.94.02-3.71.18-4,.2-.33.9-.29,1.11-.26h.07s0-.44,0-.44h-.89s-1.26.04-1.26.04l-.83-.02h-.36s-.66-.03-.66-.03h-.07s0,.06,0,.06Zm-4.33-.12h-.05s0,.05,0,.05l-.07.35h.07c1.45.09,1.23.12,1.27,3.13,0,0,.02,1.82.01,2.03-.1-.11-5.22-5.46-5.22-5.46l-.02-.02-.84.02-.56-.02h-.05s-.51-.04-.51-.04v.07s.01.36.01.36h.05c1.05.2,1.22.32,1.18,2.46l-.02,1.31c0,.49-.06,1.97-.11,2.39-.05.43-.21.46-.49.52,0,0-.49.1-.49.1v.05s0,.34,0,.34l1.76-.08.84.04s.59.04.59.04v-.07s0-.37,0-.37h-.05c-1.44-.26-1.43-.42-1.42-1.64l.04-3.12s0-.27.01-.44c.28.29,5.46,5.66,5.43,5.67l.02.02h.49s0-.08,0-.08c-.04-.61-.04-2.18-.04-2.86,0-1.02.04-3.39.1-3.68.07-.51.5-.63.92-.63h.06v-.4h-.06c-.81,0-1.22.05-1.58.02l-.24-.03-.56-.03h-.48Zm-13.69.07h-.44c-.51,0-1.55.03-1.7.04h-.06s.03.42.03.42h.06c.49,0,.66,0,.77.08.15.1.26.96.26,2.11l-.09,2.46c0,1.7,1.08,2.59,3.13,2.59,3.25,0,3.42-1.73,3.47-5.34l.02-1.09s0-.05,0-.05c.02-.53.02-.75.9-.8h.05s.03-.43.03-.43h-.17s-1.31.04-1.31.04l-1.01-.03h-.45s0,.05,0,.05v.38h.06c.38,0,.75.02.92.19.24.23.3,1.24.3,1.75v.67c0,2.5-.17,4.02-2.5,4.02-2.12,0-2.12-1.69-2.12-2.5v-1.4c0-2.61.1-2.62,1.26-2.73h.06v-.44h-.06c-.29-.02-.94,0-1.41,0Z"/><path id="Shield_Scroll" class="cls-2" d="m44.88,66.26l-.36-.77-.49-1.03c-.38-.75-.99-1.19-1.71-1.26,1.63-2.85,2.8-6.28,2.8-10.27v-12.53c0-.08-.06-.14-.14-.14h-24.79c-.08,0-.14.06-.14.14v12.53c0,3.98,1.18,7.42,2.8,10.27-.72.08-1.33.52-1.71,1.26l-.49,1.03-.36.77c-.32.66-.66,2.03.67,3.71,1.08,1.36,3.35,2.81,6.08,3.89l.13.05c.23.09.46.18.67.27-.22.22-.54.48-.78.67l-.22.18c-.05.04-.1.09-.15.14,0,0-.01,0-.02,0-.02.02-.03.04-.04.06-.23.25-.36.54-.36,1.04v2.4c0,.98,1.38,1.33,2.66,1.33h7.31c1.29,0,2.66-.35,2.66-1.33v-2.4c0-.5-.13-.79-.36-1.04-.02-.02-.03-.04-.04-.06,0,0-.01,0-.02,0-.05-.05-.1-.09-.15-.13l-.22-.18c-.25-.2-.56-.46-.79-.68.22-.09.44-.18.68-.27l.12-.05c2.73-1.08,5-2.53,6.08-3.89,1.33-1.67.99-3.04.67-3.71Zm-24.55-16.09h24.5v2.77c0,12.38-11.49,19.4-12.25,19.86-.76-.45-12.25-7.48-12.25-19.86v-2.77Zm22.95,13.98c.32.53.33,1.22.02,1.96-.05.12-.12.25-.19.37l-.88-1.28s-.09-.07-.14-.06c-.05,0-.1.05-.12.1-.07.23-.27.42-.54.54-.28.11-.58.12-.82.04.54-.72,1.07-1.5,1.55-2.33.05,0,.09,0,.14.01,0,0,0,0,.01,0,.38.03.75.28.97.66Zm-7.86,12.33l.16.16h-5.99l.15-.16c.35-.32.65-.6.65-1.36v-1.71c0-1.67-1.43-2.32-3.09-3.08-.58-.27-1.18-.54-1.77-.88-.54-.31-1.3-.8-2-1.39l1.31-1.9c3.48,4.48,7.6,6.88,7.67,6.92.04.03.1.03.14,0,.07-.04,4.19-2.44,7.68-6.93l1.31,1.9c-.7.58-1.46,1.08-2,1.39-.6.34-1.19.61-1.77.88-1.66.76-3.09,1.42-3.09,3.08v1.71c0,.75.3,1.03.65,1.36Zm-12.12-8.6c-.41-.36-.79-.75-1.07-1.14.16-.24.66-.96.82-1.19.13.21.31.39.58.5.29.12.6.14.88.08l-1.21,1.75Zm17.35-1.75c.28.06.59.03.88-.08.26-.11.45-.29.58-.5.16.23.66.95.82,1.19-.28.39-.66.78-1.07,1.14l-1.21-1.75Zm-20.32-25.57h24.5v9.33h-24.5v-9.33Zm1.55,23.59c.23-.38.59-.62.98-.66,0,0,0,0,.01,0,.04,0,.09,0,.13-.01.49.83,1.01,1.61,1.55,2.33-.25.08-.55.08-.82-.04-.28-.11-.47-.31-.54-.54-.02-.05-.06-.09-.12-.1-.05,0-.11.02-.14.06l-.88,1.28c-.07-.12-.14-.25-.19-.37-.31-.73-.3-1.43.02-1.96Zm5.39,9.48l-.13-.05c-2.68-1.06-4.91-2.48-5.96-3.8-1.17-1.47-.99-2.66-.64-3.4l.36-.77.48-1.01s0-.02.01-.02c-.09.41-.1.96.19,1.64.54,1.3,2.38,2.69,3.79,3.49.61.34,1.21.62,1.8.89,1.63.75,2.92,1.34,2.92,2.82v1.71c0,.17-.02.3-.05.42-.04-.18-.13-.36-.25-.51-.55-.62-1.47-.98-2.53-1.4Zm-.48,1.85s.01-.02.02-.03c0,0,0,0,.01-.01.06-.06.12-.13.2-.19l.22-.18c.29-.24.65-.53.89-.78.61.27,1.12.55,1.46.93.25.29.26.75.09.91h0s-.09.08-.13.12l-.36.37h-.25c-1.2,0-1.99-.41-2.16-.82-.05-.12-.04-.23.02-.33Zm11.81.57c0,.07.01.13.01.21v2.4c0,.77-1.28,1.05-2.37,1.05h-7.31c-1.09,0-2.37-.27-2.37-1.05v-2.4c0-.08,0-.15.01-.21.28.45,1.09.88,2.36.87h7.31c1.27,0,2.08-.42,2.36-.87Zm-.67-.97l.21.17c.08.06.14.12.2.19,0,0,0,0,0,.01,0,.01.02.02.02.03.06.1.07.21.02.33-.17.41-.97.83-2.16.82h-.25l-.36-.37s-.09-.08-.13-.12h0c-.17-.16-.16-.63.09-.91.34-.38.85-.66,1.46-.93.23.25.59.54.89.78Zm6.05-5.29c-1.05,1.32-3.28,2.74-5.96,3.8l-.12.05c-1.06.42-1.98.78-2.53,1.4-.13.14-.21.32-.25.51-.03-.12-.05-.25-.05-.42v-1.71c0-1.48,1.29-2.07,2.92-2.82.58-.27,1.19-.54,1.79-.89,1.41-.8,3.24-2.19,3.79-3.49.29-.69.29-1.24.19-1.64,0,0,0,.02.02.02l.48,1.01.36.77c.36.74.53,1.92-.64,3.4Z"/><path id="Text" class="cls-1" d="m24.65,70.02c.03-.05.06-.11.09-.16-.2-.12-.4-.25-.59-.4-.03.05-.06.12-.09.17.05.03.1.07.15.1-.21.43-.4.84-.61,1.27-.05-.03-.1-.06-.15-.09-.03.05-.06.12-.08.17.33.23.66.42,1,.62.1-.12.19-.25.29-.37,0,0,0-.01,0-.02-.05-.05-.1-.09-.15-.14-.07.08-.17.19-.26.24-.11-.04-.3-.14-.39-.24,0-.11.45-.96.59-1.27.05,0,.14.07.19.1h0Zm-1.56.11c.08-.15.16-.29.24-.44-.04-.04-.08-.07-.13-.11-.03.04-.05.08-.08.12-.02.01-.23-.16-.27-.19.09-.17.18-.36.28-.54.09.07.29.21.33.3.03.07-.06.2-.07.28,0,.04.11.08.15.11.07-.14.14-.3.21-.45-.3-.23-.6-.47-.9-.72-.03.05-.06.1-.09.15.04.04.09.08.13.12-.23.44-.4.8-.63,1.24-.04-.03-.09-.07-.13-.1-.03.05-.05.1-.08.15.29.27.58.51.9.75.09-.12.18-.26.26-.38,0,0,0-.01,0-.02-.05-.05-.09-.09-.14-.14-.03.04-.17.23-.21.23-.06,0-.31-.23-.36-.3,0-.1.21-.43.26-.54.08.07.2.14.25.22-.01.05-.04.11-.06.16.04.03.09.07.13.1h0Zm5.29,1.58c-.44-.24-.9-.44-1.35-.65-.08.14-.15.29-.23.43.06.03.12.07.18.1.06-.08.12-.16.18-.24.08,0,.23.06.33.11-.19.42-.4.88-.59,1.31-.07-.03-.13-.05-.2-.08-.02.05-.05.1-.08.16.23.1.47.21.7.31.02-.05.05-.11.07-.16-.07-.03-.13-.06-.2-.1.19-.43.41-.88.6-1.31.1.05.23.12.27.19-.03.09-.06.18-.1.26.01.03.15.07.2.09.07-.14.15-.29.22-.43h0Zm-1.56-.74c-.19-.09-.38-.19-.57-.29-.02.05-.05.1-.08.15.06.04.13.07.19.11-.21.43-.52,1.41-.96,1.12-.31-.21-.2-.46-.02-.82.1-.2.21-.44.31-.64.06.03.13.06.2.09.02-.05.05-.1.07-.16-.21-.11-.42-.22-.63-.33-.03.05-.05.1-.08.15.04.02.09.05.13.07,0,.09-.15.33-.19.43-.21.44-.42.79-.23,1.1.05.08.12.14.21.2.12.09.28.14.38.15.52.05.75-.65,1.04-1.25.05.02.09.04.14.06.02-.05.05-.1.07-.16h0Zm-4.32-2.56s.07.06.11.1c.03-.06.05-.11.07-.17-.15-.14-.3-.29-.45-.43-.02.06-.06.11-.09.16.04.05.11.1.16.15-.14.16-.69.76-.73.8,0,0,0,0,0,0-.02-.04.19-1.26.23-1.37.05.05.1.11.15.17.03-.05.06-.1.09-.15-.16-.19-.31-.39-.45-.61-.04.05-.07.09-.11.14.03.05.05.09.08.14-.04.15-.28,1.69-.3,1.86.05.07.1.14.15.2.3-.22.97-.89,1.08-1h0Zm15.92,3.47s0,0,0,0c.01-.26.04-.5.07-.77,0,0,0,0,.01-.01.1.22.18.4.29.61-.12.06-.25.12-.37.17h0Zm1.41-.18c0,.07.06.22.04.27-.03.06-.42.27-.49.27-.09-.16-.15-.35-.23-.51.09-.05.36-.19.41-.19.03.04.05.09.08.13.05-.03.11-.06.16-.08-.07-.16-.14-.33-.21-.49-.05.03-.11.05-.16.08.01.05.03.1.04.16-.04.06-.32.19-.4.23-.1-.21-.18-.41-.28-.62.14-.06.35-.2.48-.22.06.04.13.15.17.22.05-.03.1-.07.16-.1,0-.04-.17-.33-.2-.4-.33.17-.73.38-1.06.53-.05.61-.11,1.22-.16,1.82-.05.03-.1.06-.14.09.02.05.04.11.07.16.19-.08.37-.17.56-.25-.02-.05-.04-.11-.07-.16-.06.02-.12.05-.18.08,0-.2.02-.44.02-.64.14-.07.31-.15.45-.22.08.16.15.37.24.53-.06.03-.12.06-.17.09.03.05.05.1.08.16.36-.16.79-.38,1.14-.56-.04-.14-.09-.29-.13-.43-.06.02-.12.04-.19.06h0Zm1.31-2.08s.08-.06.12-.09c-.03-.05-.05-.1-.08-.15-.18.12-.35.24-.53.36.03.05.05.1.08.15.06-.04.12-.07.18-.11.05.25.12.99.14,1.16,0,.07.01.14.02.2,0,0,0,0,0,0-.04.01-.18-.17-.21-.21l-.44-.5c-.06-.08-.14-.15-.2-.23.07-.04.13-.08.2-.12-.02-.05-.04-.11-.06-.16-.22.13-.45.25-.67.38.02.05.04.11.06.16.05-.02.1-.05.14-.07.08.1.19.2.27.29.21.21.41.42.61.64.09.09.18.18.27.26.07-.04.15-.09.22-.13-.03-.42-.06-.85-.08-1.27-.01-.17-.02-.39-.04-.56h0Zm-4.97,8.7c0-.23,0-.47,0-.7.1,0,.2-.01.28.02.19.08.3.35.15.55-.09.11-.24.13-.43.13h0Zm.8.55c-.07-.13-.18-.42-.32-.47,0,0,0-.01,0-.02.31-.08.5-.55.2-.79-.24-.19-.73-.14-1.15-.14,0,.05,0,.11,0,.16h0c.06,0,.12,0,.17.01v1.39c-.06,0-.11,0-.17.01,0,.05,0,.11,0,.16h0s.67,0,.67,0c0-.06,0-.11,0-.17-.06,0-.13,0-.19,0,0-.18,0-.36,0-.53.07,0,.16-.01.22.01.17.07.26.55.4.69.03.03.37,0,.44,0v-.17c-.05,0-.11,0-.16-.01-.05-.03-.07-.1-.1-.15h0Zm-4.06-.07c-.04.15-.16.21-.32.24-.08.01-.2,0-.23-.04-.03-.03-.02-.09-.02-.15,0-.08-.01-.43.01-.47.3,0,.63.08.55.41h0Zm-.56-1.18c.19-.01.34,0,.43.12.03.05.06.13.05.2-.04.22-.21.29-.48.28,0-.2,0-.4,0-.6h0Zm.48.65h0v-.02c.31-.12.47-.53.11-.72-.24-.13-.74-.08-1.08-.07v.17c.06,0,.12,0,.18,0v1.4c-.06,0-.12,0-.18.01,0,.05,0,.11,0,.16.4,0,.89.05,1.15-.1.18-.11.35-.39.18-.63-.09-.13-.19-.14-.34-.2h0Zm-2.29.05c0-.23,0-.47,0-.7.09,0,.2-.01.28.02.19.08.3.35.15.55-.08.11-.24.13-.43.13h0Zm.8.55c-.07-.13-.18-.42-.32-.47,0,0,0-.01,0-.02.31-.08.5-.55.2-.79-.24-.19-.73-.14-1.15-.14,0,.05,0,.11,0,.16h0c.06,0,.12,0,.17.01v1.39c-.06,0-.11,0-.17.01,0,.05,0,.11,0,.16h0s.67,0,.67,0c0-.06,0-.11,0-.17-.06,0-.13,0-.19,0,0-.18,0-.36,0-.53.07,0,.16-.01.22.01.17.07.26.55.4.69.03.03.37,0,.44,0v-.17s-.1,0-.16-.01c-.05-.03-.07-.1-.1-.15h0Zm-2.7-.34c.08-.24.16-.48.24-.72,0,0,.01,0,.02,0l.23.72h-.49Zm.43-1.1c-.06-.02-.19-.01-.25,0-.2.53-.4,1.05-.59,1.58-.03.02-.11.02-.16.02v.17h.62v-.17c-.07,0-.13,0-.2,0,.03-.1.06-.21.1-.31.2,0,.4,0,.59,0,.05.08.1.22.11.32-.06,0-.12,0-.19,0v.17h.67v-.17c-.05,0-.1,0-.16,0-.18-.53-.37-1.06-.55-1.59h0Zm13.68-7.22c-.36.3-.77-.17-.87-.62-.05-.21-.05-.43.07-.59.04-.04.07-.07.11-.1.1-.06.17-.09.25-.09.45.02.88,1.03.44,1.4h0Zm.15-1.44c-.24-.23-.52-.26-.91-.03-.06.05-.12.1-.17.15-.16.18-.23.39-.25.62,0,.09,0,.19.03.29.02.11.1.29.16.38.24.34.51.44.91.28.65-.26.71-1.24.23-1.7h0Zm-8.37,10.28c-.46.08-.64-.51-.55-.95.04-.21.14-.4.31-.47.05-.01.09-.02.14-.03.11,0,.2,0,.27.05.4.24.39,1.31-.17,1.4h0Zm-.1-1.63c-.07.01-.15.03-.22.04-.22.07-.37.22-.48.41-.04.08-.07.17-.09.26-.03.11-.03.28,0,.39.08.42.29.64.72.71.71.11,1.15-.68.91-1.32-.12-.32-.37-.49-.82-.49h0Z"/><path class="cls-2" d="m20.25,50.01l24.7.03v2.76c0,12.38-11.61,19.66-12.38,20.11-.76-.45-12.35-7.54-12.35-19.92l.03-2.98Zm17.02,10.56c-2.26-2.74-5.48-1.37-5.52-1.36-.61.12-1.13.39-1.47.57l-.3.14-.4.05-.68.08c-.36.08-.82.33-1.4.65l-.41.23c-.69.37-.85.67-.88.76-.14.08-.24.19-.27.32,0,.03,0,.05,0,.08,0,.11.05.23.13.31.13.4.48.32.49.32.02,0,.13-.03.13-.03.18-.06.34,0,.43.22v.05c-.04.07-.17.17-.23.19-.05.02-.09.04-.07.09.1.34.57.22.78.19h.06s.2-.04.2-.04c.26-.05.75-.06.99-.01.15.03.33.12.49.22-.03.06-.04.16-.1.19l-.2.04c-.3.05-.8.06-.96.47-.15.38-.06.69,0,.8l.12.15c.08.03.25-.1.39-.18.33-.19.27-.28.28-.32.02-.12.09-.16.11-.17,0,0,.07.03.07.03.2.08.69.23.95.09-.02.09-.1.39-.27.48-.13.07-.3.07-.45.06-.14,0-.26,0-.33.06-.12.09-.31.39-.36.46-.02.03-.02.07,0,.1l.03.05s.05.05.09.05h.93s.12,0,.12,0c.26,0,.6-.03.78-.19l.14-.11.48-.38.46-.4.22-.17s.08-.12.11-.2c.19.13.62.36.82.44-.08,0-.34.03-.58.13-.27.11-.41.24-.65.54-.01.02,0,.08-.03.07-.01.03-.03.03,0,.06.07.13.46.34.6.37.12.03.26-.01.42-.06l.26-.06c.09-.01,1.24-.04,2.01-.04l-.43.4c-.41.27-1.05.66-1.73,1.23-.73.61-1.28,1.41-1.28,1.98,0,.07-.09.18-.07.24.04.14.16.32.46.36,1.47.16,2.33-.75,3.04-1.52l.18-.19c.49-.52.86-1.15,1.1-1.57.1-.17.21-.35.25-.38.7-.49,1.55-1.76,1.74-3.15.14-1.06-.12-2.04-.76-2.81Zm5.7-8.68h-.54l-.54-.35h0s-.05-.03-.09-.03h-.7c-.14,0-.25-.08-.41-.2-.24-.17-.57-.41-1.16-.41-.67,0-1,.26-1.15.46-.16-.21-.49-.46-1.15-.46-.59,0-.92.24-1.16.41-.16.11-.27.2-.41.2h-.7s-.07.01-.09.04l-.53.34h-.55c-.08,0-.14.06-.14.14v4.82c0,.08.06.14.14.14h3.75c.09.08.28.23.59.28.15.03.39.02.52,0,.29-.05.49-.2.57-.28h3.75c.08,0,.14-.06.14-.14v-4.82c0-.08-.06-.14-.14-.14Zm-11.7-.02h-.54l-.53-.34s-.06-.04-.09-.04h-.7c-.14,0-.25-.08-.41-.2-.24-.17-.57-.41-1.15-.41-.67,0-.99.26-1.15.46-.16-.21-.49-.46-1.14-.46-.59,0-.92.24-1.16.41-.16.11-.27.2-.41.2h-.7s-.07.02-.1.04l-.53.34h-.54c-.08,0-.14.06-.14.14v4.82c0,.08.06.14.14.14h3.74c.09.08.28.23.58.29.15.03.39.02.52,0,.29-.05.48-.2.57-.28h3.74c.08,0,.14-.06.14-.14v-4.82c0-.08-.06-.14-.14-.14Z"/><g id="Beaver"><path class="cls-2" d="m37.33,60.52c-2.3-2.78-5.58-1.39-5.61-1.38-.62.12-1.14.4-1.49.58l-.3.14s-.4.05-.4.05l-.69.09c-.36.08-.83.33-1.42.66l-.42.23c-.7.38-.86.68-.9.77-.15.08-.25.19-.27.33,0,.03,0,.05,0,.08,0,.12.05.23.13.32.13.4.51.44.53.44.02,0,.13-.03.13-.03.18-.06.29-.08.38.15v.05c-.04.07-.18.15-.24.17-.05.02-.08.07-.06.12.1.35.59.29.8.27h.06s.2-.04.2-.04c.26-.05.75-.14,1-.08.15.03.34.12.5.22-.03.06-.08.1-.14.12l-.2.04c-.31.05-.77.13-.94.54-.16.39-.06.7,0,.81l.14.19c.08.03.27-.06.42-.15.33-.2.35-.32.35-.36.02-.12.09-.17.11-.17,0,0,.07.03.07.03.2.08.59.25.85.11-.02.1-.07.23-.24.32-.13.07-.31.07-.46.06-.14,0-.26,0-.34.06-.12.1-.36.49-.41.57-.02.03-.02.07,0,.1l.03.05s.05.05.09.05h.95s.13,0,.13,0c.27,0,.63.02.82-.14l.14-.12.5-.41.5-.41.22-.17s.07-.1.1-.18c.2.13.4.24.6.33-.08,0-.23.01-.48.11-.28.11-.5.33-.65.63,0,.02,0,.04,0,.06-.01.03-.01.06,0,.08.07.13.47.34.61.38.12.03.27-.02.43-.06l.27-.06c.1-.01,1.11,0,1.89,0l-.43.31c-.41.28-1.04.7-1.73,1.27-.75.62-1.28,1.51-1.28,2.08,0,.07,0,.14.03.21.05.15.16.33.46.36,1.5.16,2.39-.8,3.11-1.57l.18-.2c.5-.53.87-1.17,1.12-1.59.1-.18.21-.36.25-.39.71-.49,1.57-1.78,1.77-3.19.15-1.08-.12-2.06-.77-2.85Zm-7.46,4.1c-.16.16-.56,0-.73-.08l-.15-.05c-.13,0-.29.14-.31.35,0,.03-.07.08-.14.14-.02-.03-.05-.09-.06-.17-.02-.13,0-.3-.03-.32-.05-.03-.23.3-.12.62-.06.03-.11.05-.14.06-.03-.04-.1-.17-.1-.37,0-.1.02-.22.07-.35.12-.31.51-.37.78-.42l.23-.05c.13-.05.2-.13.24-.2.12.09.21.17.25.22.07.11.17.43.23.63,0,0-.01,0-.02,0Zm2.83,1.27l-.3.06c-.12.03-.26.07-.33.06,0,0-.02,0-.03-.01.04-.07.12-.2.24-.28.22-.15.5-.23.43-.26-.1-.05-.35-.02-.52.04-.23.09-.34.25-.41.37-.07-.04-.13-.08-.16-.11.12-.25.3-.42.53-.51.32-.13.42-.09.43-.09.12.02.97.17,1.15.17,0,0,0,0,.01,0,.04.02.07.05.11.07.39.19.83.26,1.04.28-.02.06-.04.15-.09.23-.38,0-1.95-.01-2.09,0Zm5.2-2.54c-.18,1.31-1,2.58-1.68,3.06-.07.05-.14.17-.31.45-.24.41-.61,1.04-1.09,1.55l-.18.2c-.72.78-1.54,1.66-2.94,1.51-.16-.02-.25-.09-.29-.22-.12-.41.33-1.37,1.19-2.08.69-.57,1.31-.99,1.71-1.26l.51-.37s.07-.08.1-.13c.01,0,.02-.02.02-.04.13-.21.16-.44.16-.45,0-.03,0-.06-.02-.08-.02-.02-.04-.03-.07-.04,0,0-.6-.03-1.07-.26-.35-.17-.59-.47-.76-.94-.22-.64.11-1.06.44-1.47.25-.31.48-.61.43-.97,0-.05-.06-.09-.11-.08-.05,0-.09.05-.09.1,0,0,0,.01,0,.02,0,.02,0,.05,0,.07,0,.25-.18.48-.39.74-.25.32-.55.7-.55,1.2,0,.14.03.3.08.46.1.29.23.51.39.69-.35-.09-.88-.27-1.33-.57-.02-.01-.04-.01-.06-.01.06-.41,0-1.02-.03-1.25,0-.05-.06-.09-.11-.09-.05,0-.09.06-.09.11.08.61.08,1.33-.04,1.44l-.21.17-.51.41-.49.41-.15.12c-.12.11-.47.1-.68.09h-.13s-.16,0-.34,0c.05-.11.08-.22.04-.25-.06-.04-.24.14-.34.25h-.2c.11-.17.24-.37.3-.42h.21c.17-.01.37,0,.55-.1.3-.16.34-.42.35-.51.02-.12-.19-.79-.29-.95-.12-.19-.65-.55-1.04-.64-.29-.06-.79.03-1.08.08l-.16.03h-.08c-.12.02-.39.04-.52-.06.09-.04.18-.11.23-.21v-.2c-.15-.42-.48-.31-.62-.27l-.07.02s-.22-.03-.34-.29l.19-.1s.07-.09.04-.14c-.03-.05-.09-.07-.14-.04l-.19.11s-.03-.09-.02-.13c.02-.09.08-.16.2-.21.03-.01.04-.03.05-.06,0,0,.11-.31.82-.69l.42-.23c.58-.32,1.04-.57,1.37-.64l1.11-.14.34-.16c.34-.18.85-.45,1.46-.57.05-.02,3.19-1.34,5.39,1.32.62.75.87,1.68.73,2.7Z"/><path class="cls-2" d="m28.73,60.58c-.1-.05-.21-.06-.32-.02-.2.07-.26.29-.15.34.11.05.17-.06.21-.08.02,0,.06-.03.12,0,.07.03.07.08.07.09,0,.02,0,.13.1.15.09.02.28-.32-.04-.47Z"/><path class="cls-2" d="m27.01,61.9c-.14.29.23.66.35.6.12-.06-.16-.31-.09-.47.09-.18.7-.44.69-.54,0-.1-.82.15-.95.42Z"/><path class="cls-2" d="m34.4,67.26c-.28-.01-.55-.05-.57.08-.02.13.28.17.57.18.2,0,.56-.04.54-.15-.02-.12-.35-.1-.54-.11Z"/><path class="cls-2" d="m33.7,67.91c-.34-.01-.67-.04-.69.08-.02.13.33.17.69.18.24,0,.67-.04.65-.15-.03-.12-.42-.1-.65-.11Z"/><path class="cls-2" d="m33.09,68.57c-.32-.01-.63-.04-.65.08-.02.12.31.16.65.17.23,0,.63-.04.61-.15-.02-.11-.39-.1-.61-.11Z"/><path class="cls-2" d="m32.53,69.27c-.24,0-.47-.04-.48.07-.02.11.23.14.48.15.17,0,.47-.03.45-.13-.02-.1-.29-.09-.45-.09Z"/><path class="cls-2" d="m27.19,61.54l.08-.03c.08-.02.12-.11.09-.18-.02-.08-.11-.12-.18-.09l-.08.03c-.08.02-.12.11-.09.18.03.08.11.12.18.09Z"/><path class="cls-2" d="m31.66,60.01s-.08-.05-.12-.04l-.8.27c-.07.03-.09.13-.06.21.03.07.13.13.2.1l.75-.41s.05-.08.03-.12Z"/><path class="cls-2" d="m31.73,60.84s.07-.07.05-.12c-.02-.04-.07-.07-.11-.06l-.62.09c-.08.02-.11.12-.09.19.02.08.1.15.18.13l.59-.25Z"/><path class="cls-2" d="m31.69,61.41l-.49-.02c-.07,0-.12.09-.11.16,0,.07.07.15.14.14l.49-.1s.08-.06.07-.11c0-.04-.06-.08-.1-.07Z"/><path class="cls-2" d="m31.6,62.11l-.36-.08c-.07,0-.12.06-.12.13,0,.07.04.14.11.15l.38-.03s.08-.05.07-.09c0-.04-.05-.08-.08-.08Z"/><path class="cls-2" d="m34.91,59.58c-.08-.02-.16.03-.17.11-.02.08.03.16.11.18,0,0,.42.13.75.26.06.03.13,0,.16-.05.03-.06,0-.13-.05-.16-.36-.19-.77-.33-.79-.34Z"/><path class="cls-2" d="m35.07,60.26c-.07-.02-.14.03-.16.1-.02.07.03.14.1.16,0,0,.31.08.56.19.05.02.12,0,.14-.04.03-.05,0-.12-.04-.14-.33-.17-.59-.25-.6-.25Z"/><path class="cls-2" d="m35.1,60.9c-.06,0-.11.02-.13.08-.01.06.02.11.08.13,0,0,.29.09.39.13.05.02.1,0,.13-.04.03-.05,0-.1-.04-.13-.29-.15-.37-.16-.43-.17Z"/><path class="cls-2" d="m35.07,61.46s-.1.02-.12.07c-.01.05.02.1.07.12,0,0,.17.04.25.06.04.02.09,0,.12-.04.02-.04,0-.09-.04-.12-.09-.05-.25-.1-.29-.1Z"/><path class="cls-2" d="m36.98,61.08c-.29-.29-.44-.38-.46-.39-.07-.04-.16-.02-.2.05-.04.07-.02.16.05.2,0,0,.17.08.44.3.05.04.12.05.17,0,.05-.04.04-.12,0-.17Z"/><path class="cls-2" d="m36.41,61.36c-.06-.04-.14-.01-.18.05-.03.06-.01.14.05.18,0,0,.1.03.31.2.05.04.11.04.15,0,.04-.04.04-.11,0-.15-.27-.25-.32-.26-.33-.27Z"/><path class="cls-2" d="m36.22,61.91c-.05-.02-.12-.01-.14.04-.03.05-.01.12.04.14,0,0,.11.06.19.13.04.03.1.04.13,0,.04-.04.04-.1,0-.13-.04-.04-.16-.16-.22-.18Z"/><path class="cls-2" d="m36,62.35s-.1-.02-.13.02c-.03.04-.02.1.02.13,0,0,.04.02.1.07.04.03.08.04.12.01.04-.03.04-.08,0-.12-.07-.08-.08-.1-.12-.12Z"/><path class="cls-2" d="m37.36,62.46s.09.06.13.03c.05-.03.06-.08.03-.13-.03-.05-.08-.15-.13-.19-.04-.04-.11-.04-.15,0-.04.04-.04.11,0,.15,0,0,.05.05.12.14Z"/><path class="cls-2" d="m37.08,62.57s-.1-.04-.13,0c-.04.04-.04.1,0,.13.04.04.06.05.07.06.04.04.08.05.12.03.04-.02.05-.08.03-.12-.02-.04-.04-.09-.08-.11Z"/></g><g id="Right_Book"><path class="cls-2" d="m43.1,51.79h-.56l-.55-.36h0s-.06-.03-.09-.03h-.72c-.14,0-.26-.09-.42-.2-.25-.18-.58-.43-1.19-.43-.69,0-1.02.27-1.18.48-.16-.22-.5-.48-1.18-.48-.6,0-.94.25-1.19.43-.16.12-.28.2-.42.2h-.72s-.07.01-.1.04l-.55.35h-.56c-.08,0-.14.07-.14.15v5c0,.08.06.14.14.14h3.85c.09.08.29.24.6.29.15.03.4.02.53,0,.3-.06.5-.21.58-.29h3.85c.08,0,.14-.06.14-.14v-5c0-.08-.06-.15-.14-.15Zm-4.56-.25s.16-.48,1.04-.48c.51,0,.78.2,1.01.37.18.13.35.26.59.26h.57v4.07h-.58c-.2,0-.4-.09-.64-.19-.3-.13-.64-.28-1.04-.28-.44,0-.78.25-.95.41v-4.15Zm-3.5.15h.57c.24,0,.41-.13.59-.26.24-.17.51-.37,1.02-.37.88,0,1.03.5,1.04.52,0,0,0,3.73,0,4.11-.17-.15-.5-.41-.95-.41-.4,0-.74.15-1.04.28-.24.1-.45.19-.64.19h-.59v-4.07Zm-.61.34c.05-.04.2-.13.32-.21v4.09c0,.08.06.14.14.14h.73c.25,0,.5-.11.76-.22.29-.12.59-.25.93-.25.48,0,.83.41.84.42.03.03.07.05.11.05h.14s0,0,0,0h0s.14,0,.14,0c.04,0,.08-.02.11-.05,0,0,.36-.42.84-.42.34,0,.64.13.93.25.26.11.5.22.76.22h.73c.08,0,.14-.06.14-.14v-4.09c.12.08.27.17.32.21v4.15h-3.25s-.08.02-.1.05c0,0-.22.22-.54.26h-.14c-.32-.03-.55-.26-.55-.26-.03-.03-.06-.05-.1-.05h-3.25v-4.15Zm8.53,4.76h-3.76s-.08.02-.11.05c0,0-.16.19-.46.25-.1.02-.32.02-.43,0-.31-.06-.48-.25-.48-.25-.03-.03-.07-.05-.11-.05h-3.76v-4.71h.3v4.24c0,.08.07.15.15.15h3.34c.1.08.34.27.68.31,0,0,.21,0,.21,0,.33-.04.57-.22.66-.31h3.34c.08,0,.14-.07.14-.15v-4.24h.3v4.71Z"/><path class="cls-2" d="m35.66,52.42c.07,0,.33-.02.65-.17l.24-.11.45-.18c.26-.07.54-.04.63-.02-.04,0-.06-.04-.05-.08,0-.03.04-.06.08-.05,0,0-.34-.07-.68.02l-.47.19-.23.11c-.3.13-.54.15-.6.15-.04,0-.06.03-.06.07,0,.04.03.06.07.06Z"/><path class="cls-2" d="m35.66,53.28c.07,0,.33-.02.65-.16l.24-.11.45-.18c.26-.07.54-.04.63-.02.04,0,.07-.01.08-.05,0-.03-.02-.07-.05-.08,0,0-.34-.07-.68.02l-.47.19-.24.11c-.3.13-.54.15-.6.15-.04,0-.06.03-.06.07,0,.04.03.06.07.06Z"/><path class="cls-2" d="m35.66,54.14c.07,0,.33-.02.65-.17l.24-.11.45-.18c.26-.07.54-.04.63-.02.04,0,.07-.02.08-.05,0-.03-.02-.07-.05-.08,0,0-.34-.07-.68.02l-.48.19-.23.11c-.3.13-.54.15-.6.15-.04,0-.06.03-.06.07,0,.04.03.06.07.06Z"/><path class="cls-2" d="m36.31,54.83l.24-.11.45-.18c.26-.07.54-.04.63-.02-.04,0-.06-.04-.05-.08,0-.03.04-.06.08-.05,0,0-.34-.07-.68.02l-.47.19-.24.11c-.3.13-.54.15-.6.15-.04,0-.06.03-.06.07,0,.04.03.06.07.06.07,0,.33-.02.65-.17Z"/><path class="cls-2" d="m39.13,51.94c.09-.02.37-.05.63.02,0,0,.45.18.45.18l.24.11c.32.14.58.16.65.17.04,0,.07-.03.07-.06,0-.04-.03-.07-.06-.07-.07,0-.3-.02-.6-.15l-.23-.11-.47-.19c-.34-.09-.68-.02-.68-.02-.04,0-.06.04-.05.08,0,.03.04.06.08.05Z"/><path class="cls-2" d="m39.13,52.8c.08-.02.36-.05.63.02l.45.18.24.11c.32.14.58.16.65.16.04,0,.07-.03.07-.06,0-.04-.03-.07-.06-.07-.07,0-.3-.02-.6-.15l-.23-.11-.47-.19c-.35-.09-.68-.02-.68-.02-.04,0-.06.04-.05.08,0,.04.04.06.08.05Z"/><path class="cls-2" d="m39.13,53.66c.09-.02.37-.05.63.02l.45.18.24.11c.32.14.58.16.65.17.04,0,.07-.03.07-.06,0-.04-.03-.07-.06-.07-.07,0-.3-.02-.6-.15l-.23-.11-.47-.19c-.27-.07-.57-.04-.68-.02-.03,0-.06.04-.05.08,0,.04.04.06.08.05Z"/><path class="cls-2" d="m40.21,54.72l.24.11c.32.14.58.16.65.17.04,0,.07-.03.07-.06,0-.04-.03-.06-.06-.07-.07,0-.3-.02-.6-.15l-.23-.11-.47-.19c-.27-.07-.57-.04-.68-.02-.03,0-.06.04-.05.08,0,.04.04.06.08.05.09-.02.37-.05.63.02l.45.18Z"/></g><g id="Left_Book"><path class="cls-2" d="m24,52.42c.07,0,.33-.02.65-.17l.24-.11.45-.18c.26-.07.54-.04.63-.02-.04,0-.06-.04-.05-.08,0-.03.04-.06.08-.05,0,0-.34-.07-.68.02l-.47.19-.23.11c-.3.13-.54.15-.6.15-.04,0-.06.03-.06.07,0,.04.03.06.07.06Z"/><path class="cls-2" d="m24,53.28c.07,0,.33-.02.65-.16l.24-.11.45-.18c.26-.07.54-.04.63-.02.03,0,.07-.01.08-.05,0-.03-.02-.07-.05-.08,0,0-.34-.07-.68.02l-.47.19-.24.11c-.3.13-.54.15-.6.15-.04,0-.06.03-.06.07,0,.04.03.06.07.06Z"/><path class="cls-2" d="m24,54.14c.07,0,.33-.02.65-.17l.24-.11.45-.18c.26-.07.54-.04.63-.02.04,0,.07-.02.08-.05,0-.03-.02-.07-.05-.08,0,0-.34-.07-.68.02l-.47.19-.23.11c-.3.13-.54.15-.6.15-.04,0-.06.03-.06.07,0,.04.03.06.07.06Z"/><path class="cls-2" d="m24,55c.07,0,.33-.02.65-.17l.24-.11.45-.18c.26-.07.54-.04.63-.02-.04,0-.06-.04-.05-.08,0-.03.04-.06.08-.05,0,0-.34-.07-.68.02l-.47.19-.24.11c-.3.13-.54.15-.6.15-.04,0-.06.03-.06.07,0,.04.03.06.07.06Z"/><path class="cls-2" d="m27.52,51.86s-.01.07-.05.08c.08-.02.36-.05.63.02,0,0,.45.18.45.18l.24.11c.32.14.58.16.65.17.04,0,.07-.03.07-.06,0-.04-.03-.07-.06-.07-.07,0-.3-.02-.6-.15l-.23-.11-.47-.19c-.34-.09-.68-.02-.69-.02.04,0,.07.01.08.05Z"/><path class="cls-2" d="m27.47,52.8c.08-.02.36-.05.63.02l.45.18.24.11c.32.14.58.16.65.16.04,0,.07-.03.07-.06,0-.04-.03-.07-.06-.07-.07,0-.3-.02-.6-.15l-.23-.11-.47-.19c-.35-.09-.68-.02-.69-.02-.03,0-.06.04-.05.08,0,.04.04.06.08.05Z"/><path class="cls-2" d="m28.09,53.68l.45.18.24.11c.32.14.58.16.65.17.04,0,.07-.03.07-.06,0-.04-.03-.07-.06-.07-.07,0-.3-.02-.6-.15l-.23-.11-.47-.19c-.34-.09-.68-.02-.69-.02-.03,0-.06.04-.05.08,0,.04.04.06.08.05.09-.02.37-.05.63.02Z"/><path class="cls-2" d="m28.54,54.72l.24.11c.32.14.58.16.65.17.04,0,.07-.03.07-.06,0-.04-.03-.06-.06-.07-.07,0-.3-.02-.6-.15l-.23-.11-.47-.19c-.34-.09-.68-.02-.69-.02.04,0,.07.02.08.05,0,.04-.01.07-.05.08.09-.02.37-.05.63.02l.45.18Z"/><path class="cls-2" d="m31.41,51.8h-.56l-.55-.35s-.06-.04-.1-.04h-.72c-.14,0-.26-.09-.42-.2-.25-.18-.58-.43-1.19-.43-.68,0-1.02.27-1.18.48-.16-.22-.5-.48-1.18-.48-.6,0-.94.25-1.19.43-.16.12-.28.2-.42.2h-.72s-.08.02-.1.04l-.54.35h-.56c-.08,0-.14.07-.14.15v5c0,.08.06.15.14.15h3.85c.09.08.29.24.6.29.15.03.4.02.53,0,.3-.06.5-.21.58-.29h3.85c.08,0,.15-.07.15-.15v-5c0-.08-.07-.15-.15-.15Zm-4.56-.25s.16-.48,1.03-.48c.51,0,.78.2,1.02.37.18.13.35.26.59.26h.57v4.07h-.58c-.2,0-.4-.09-.64-.19-.3-.13-.64-.28-1.04-.28-.44,0-.78.25-.94.41v-4.15Zm-3.5.14h.57c.24,0,.41-.12.59-.26.24-.17.51-.37,1.02-.37.88,0,1.03.5,1.04.52,0,0,0,3.73,0,4.11-.16-.15-.5-.41-.94-.41-.4,0-.74.15-1.04.28-.24.1-.45.19-.64.19h-.59v-4.07Zm-.61.34c.05-.04.2-.13.32-.21v4.09c0,.08.07.14.15.14h.73c.25,0,.5-.11.76-.22.29-.12.58-.25.93-.25.48,0,.83.41.83.42.03.03.07.05.11.05h.14s0,0,0,0c0,0,0,0,0,0h.14s.08-.02.11-.05c0,0,.36-.42.84-.42.34,0,.64.13.92.25.26.11.5.22.76.22h.73c.08,0,.15-.07.15-.14v-4.09c.12.08.27.17.32.21v4.15h-3.25s-.08.02-.11.04c0,0-.22.23-.54.26h-.14c-.32-.03-.55-.26-.55-.26-.03-.03-.06-.04-.1-.04h-3.25v-4.15Zm8.53,4.76h-3.76s-.08.02-.11.05c0,0-.16.19-.46.25-.1.02-.32.02-.43,0-.31-.06-.48-.25-.48-.25-.03-.03-.07-.05-.11-.05h-3.76v-4.71h.3v4.24c0,.08.07.14.15.14h3.34c.1.09.34.27.68.31,0,0,.21,0,.21,0,.33-.04.57-.22.66-.31h3.34c.08,0,.14-.06.14-.14v-4.24h.3v4.71Z"/></g><g id="Crown"><path class="cls-2" d="m32.54,47.14c-1.84,0-3.79.44-3.79,1.26,0,.38.41.67,1.03.88.07.02.25.07.27.04,0,0-.23-.11-.23-.11-.56-.26-.78-.58-.78-.81,0-.46,1.5-.97,3.5-.97s3.5.51,3.5.97c0,.23-.2.55-.75.8,0,0-.21.09-.22.11-.02.03.24-.04.24-.04.61-.21,1.02-.5,1.02-.88,0-.82-1.95-1.26-3.79-1.26Z"/><path class="cls-2" d="m36.9,45.72c-.17.22-.53.84-.57,1.04,0,0,0,.02,0,.02,0,0-.01,0-.02,0-.15-.09-.35-.18-.6-.28-.8-.3-1.94-.47-3.13-.47h-.01c-1.19,0-2.33.17-3.12.47-.25.1-.45.19-.6.28,0,0-.02,0-.02,0,0,0,0-.01,0-.02-.04-.2-.4-.82-.58-1.04-.05-.06-.12,0-.09.06.29.55.37,1,.4,1.18.01.09.03.15.1.18.04.02.1.02.14,0,.17-.11.39-.24.74-.37.77-.29,1.87-.45,3.02-.45h.01c1.16,0,2.26.16,3.03.45.35.13.57.26.74.37.04.03.09.03.14,0,.08-.03.09-.1.1-.18.03-.18.12-.63.4-1.18.03-.06-.04-.12-.09-.06Z"/><path class="cls-2" d="m32.82,46.72c0-.14-.12-.26-.26-.26s-.26.12-.26.26.12.26.26.26.26-.12.26-.26Z"/><path class="cls-2" d="m31,46.86c0-.14-.12-.26-.26-.26s-.26.12-.26.26.12.26.26.26.26-.12.26-.26Z"/><path class="cls-2" d="m29.14,47.66c.12-.07.17-.23.1-.35-.07-.12-.23-.17-.35-.1-.12.07-.17.23-.1.35.07.13.23.17.35.1Z"/><path class="cls-2" d="m30,47.07c0-.07-.06-.13-.13-.13s-.13.06-.13.13.06.13.13.13.13-.06.13-.13Z"/><circle class="cls-2" cx="31.65" cy="46.76" r=".13"/><path class="cls-2" d="m34.64,46.86c0-.14-.12-.26-.26-.26s-.26.12-.26.26.12.26.26.26.26-.12.26-.26Z"/><path class="cls-2" d="m36.24,47.21c-.12-.07-.28-.02-.35.1-.07.12-.03.28.1.35.12.07.28.03.35-.1.07-.12.02-.28-.1-.35Z"/><path class="cls-2" d="m35.4,47.07c0-.07-.06-.13-.13-.13s-.13.06-.13.13.06.13.13.13.13-.06.13-.13Z"/><path class="cls-2" d="m33.61,46.76c0-.07-.06-.13-.13-.13s-.13.06-.13.13.06.13.13.13.13-.06.13-.13Z"/><path class="cls-2" d="m32.56,43.57c-.14,0-.26.12-.26.26s.12.26.26.26.26-.12.26-.26-.12-.26-.26-.26Z"/><path class="cls-2" d="m32.56,42.83c-.14,0-.26.12-.26.26s.12.26.26.26.26-.12.26-.26-.12-.26-.26-.26Z"/><path class="cls-2" d="m32.56,42.1c-.14,0-.26.12-.26.26s.12.26.26.26.26-.12.26-.26-.12-.26-.26-.26Z"/><path class="cls-2" d="m31.29,42.69c.14,0,.26-.12.26-.26s-.12-.26-.26-.26-.26.12-.26.26.12.26.26.26Z"/><path class="cls-2" d="m30.44,42.41c.14,0,.26-.12.26-.26s-.12-.26-.26-.26-.26.12-.26.26.12.26.26.26Z"/><path class="cls-2" d="m29.55,42.21c.14,0,.26-.12.26-.26s-.12-.26-.26-.26-.26.12-.26.26.12.26.26.26Z"/><path class="cls-2" d="m28.65,42.34c.14,0,.26-.12.26-.26s-.12-.26-.26-.26-.26.12-.26.26.12.26.26.26Z"/><circle class="cls-2" cx="27.87" cy="42.57" r=".26"/><path class="cls-2" d="m27.41,43.62c.14,0,.26-.12.26-.26s-.12-.26-.26-.26-.26.12-.26.26.12.26.26.26Z"/><path class="cls-2" d="m27.69,44.28c0-.14-.12-.26-.26-.26s-.26.12-.26.26.12.26.26.26.26-.12.26-.26Z"/><path class="cls-2" d="m27.75,44.87c-.14,0-.26.12-.26.26s.12.26.26.26.26-.12.26-.26-.12-.26-.26-.26Z"/><path class="cls-2" d="m35.58,48.63c0-.64-1.98-.8-3.04-.8s-3.04.17-3.04.8,1.99.8,3.04.8,3.04-.17,3.04-.8Zm-3.04.51c-1.81,0-2.74-.36-2.74-.51s.93-.51,2.74-.51,2.74.36,2.74.51-.93.51-2.74.51Z"/><path class="cls-2" d="m32.15,41.55h.28v.29c0,.08.07.14.15.14s.14-.06.14-.14v-.29h.27c.08,0,.15-.06.15-.14s-.07-.15-.15-.15h-.27v-.27c0-.08-.06-.14-.14-.14s-.15.06-.15.14v.27h-.28c-.08,0-.15.07-.15.15s.07.14.15.14Z"/><path class="cls-2" d="m28.72,45.83h0s0,.02,0,.02h0c.13.25.46.46.87.33.21-.07.43-.11.56-.36.07-.13.12-.29-.03-.48-.04-.05-.14-.1-.19-.08-.04.02-.07.1-.02.16.07.08.03.22-.09.28-.08.04-.17,0-.18-.03,0-.02.15-.12.01-.24-.11-.08-.39-.36,0-.53.3-.14.53.26.56.32.03.05.06.03.05-.02-.06-.29-.3-.38-.37-.7-.05-.24.12-.43.21-.51.03-.03.09-.04.13-.02.12.05.33.16.38.39.07.32-.13.5-.07.79,0,.06.05.06.05,0,0-.06.06-.52.39-.51.42.02.27.38.2.49-.08.16.1.19.1.21.01.03-.05.12-.16.11-.13-.01-.22-.13-.19-.23.02-.07-.04-.13-.08-.13-.05,0-.13.09-.15.15-.06.22.05.36.16.45.21.18.54.15.71.14.59-.06.63-.42.63-.42-.12.05-.4.15-.4.15,0,0-.02,0-.03,0-.05,0-.09-.04-.09-.09v-.57c0-.05.04-.09.09-.09,0,0,.02,0,.03,0l.4.16-.11-.32s0-.02,0-.04c0-.05.04-.09.09-.09h.34s.34,0,.34,0c.05,0,.09.04.09.09,0,.01,0,.02,0,.04l-.12.32.4-.16s.04,0,.04,0c.05,0,.09.04.09.09v.57c0,.05-.04.09-.09.09,0,0-.02,0-.03,0,0,0-.27-.1-.4-.15,0,0,.04.36.63.42.17.02.5.04.71-.14.11-.09.22-.23.16-.45-.02-.06-.09-.15-.15-.15-.04,0-.1.07-.08.13.03.1-.06.22-.19.23-.1,0-.17-.08-.15-.11,0-.01.18-.04.1-.21-.07-.12-.22-.48.2-.49.33-.01.39.45.39.51,0,.06.04.05.05,0,.06-.29-.13-.47-.07-.79.05-.23.26-.34.38-.39.05-.02.1-.01.13.02.09.08.26.27.21.51-.06.32-.31.41-.37.7-.01.06.02.08.05.02.03-.06.26-.46.56-.32.38.18.1.45,0,.53-.14.12.02.22.01.24-.01.03-.1.08-.18.03-.12-.06-.15-.2-.09-.28.05-.05.02-.14-.02-.16-.05-.02-.16.03-.19.08-.14.18-.09.35-.03.48.13.25.35.29.56.36.42.13.75-.08.87-.34h0s0-.01,0-.01h0c.28-.38.92-1.26.92-2.06s-.7-1.39-1.62-1.39c-.4,0-.79.14-1.16.28-.4.15-.79.28-1.18.24v-.81c0-.08-.06-.14-.14-.14s-.14.06-.14.14v2.14h-1.03v-2.14c0-.08-.06-.14-.14-.14s-.15.06-.15.14v.81c-.39.04-.78-.09-1.18-.24-.37-.13-.75-.28-1.16-.28-.92,0-1.62.6-1.62,1.39s.65,1.68.92,2.06Zm5.93-2.9c.36-.13.7-.26,1.06-.26.76,0,1.33.47,1.33,1.1,0,.21-.06.43-.14.64-.04-.15-.1-.3-.2-.43-.24-.32-.64-.47-1.17-.47-.24-.25-.71-.43-1.19-.44-.04,0-.08,0-.12,0,.15-.04.29-.1.44-.15Zm-1.28.27c.09,0,.18,0,.27,0-.1.04-.19.09-.27.15v-.15Zm.01.53c.27-.33.71-.37.95-.37.49,0,.9.21,1.03.38.03.04.07.06.12.06.46-.02.8.1.99.35.21.27.2.65.15.83,0,0,0,0,0,.01-.05.08-.09.15-.14.22.04-.51-.29-.87-.63-1.04,0,0-.1-.05-.14,0-.07.1.62.59.44,1.2-.1.36-.3.49-.46.54-.02,0-.03,0-.05,0,.08-.07.12-.15.12-.25,0-.03,0-.05-.01-.08,0,0,0-.01,0-.02.1-.1.2-.25.2-.44,0-.02,0-.04,0-.05-.01-.13-.09-.31-.36-.44-.03-.01-.06-.02-.09-.03,0-.02.01-.03.02-.05,0-.05.01-.09.01-.14,0-.33-.23-.6-.39-.71,0,0-.11-.08-.24-.05-.18.05-.59.24-.67.64,0,.02,0,.04,0,.06-.03,0-.07-.01-.1,0-.21,0-.34.08-.42.16,0-.07-.07-.13-.2-.1.08-.1.21-.25.36-.36.2-.15.42-.24.42-.27,0-.03-.08-.06-.18-.06-.11,0-.25.06-.29.08-.17.09-.32.2-.43.32v-.38s0,0,.01,0Zm-1.95.78c-.08-.08-.21-.15-.42-.16-.04,0-.07,0-.1,0,0-.02,0-.04,0-.06-.08-.39-.49-.58-.67-.64-.13-.04-.24.05-.24.05-.16.11-.39.38-.39.71,0,.04,0,.09.01.14,0,.02.01.04.02.05-.03,0-.06.02-.09.03-.27.13-.34.31-.36.44,0,.02,0,.04,0,.05,0,.19.11.34.2.44,0,0,0,.01,0,.02,0,.03-.01.05-.01.08,0,.09.04.18.12.25-.02,0-.04,0-.05,0-.16-.05-.35-.18-.46-.54-.18-.61.51-1.1.44-1.2-.03-.05-.14,0-.14,0-.34.17-.68.53-.63,1.04-.04-.07-.09-.14-.14-.22,0,0,0,0,0-.01-.05-.18-.06-.55.15-.83.19-.25.52-.37.99-.35.05,0,.09-.02.12-.06.14-.18.54-.38,1.03-.38.24,0,.68.04.95.37,0,0,0,0,.01,0v.38c-.11-.12-.25-.23-.43-.32-.05-.02-.18-.07-.29-.08-.1,0-.18.02-.18.06,0,.04.23.12.42.27.15.11.28.26.36.36-.12-.03-.2.03-.2.1Zm.32-1.31v.15c-.08-.06-.17-.11-.27-.15.09,0,.18,0,.27,0Zm-2.34-.52c.35,0,.7.12,1.06.26.14.05.29.11.44.15-.04,0-.08,0-.12,0-.48,0-.95.19-1.19.44-.53,0-.93.15-1.17.47-.11.14-.17.29-.2.43-.08-.21-.14-.43-.14-.64,0-.63.57-1.1,1.33-1.1Z"/><path class="cls-2" d="m33.84,42.69c.14,0,.26-.12.26-.26s-.12-.26-.26-.26-.26.12-.26.26.12.26.26.26Z"/><circle class="cls-2" cx="34.7" cy="42.15" r=".26"/><circle class="cls-2" cx="35.59" cy="41.95" r=".26"/><path class="cls-2" d="m36.49,42.34c.14,0,.26-.12.26-.26s-.12-.26-.26-.26-.26.12-.26.26.12.26.26.26Z"/><path class="cls-2" d="m37.27,42.83c.14,0,.26-.12.26-.26s-.12-.26-.26-.26-.26.12-.26.26.12.26.26.26Z"/><path class="cls-2" d="m37.72,43.62c.14,0,.26-.12.26-.26s-.12-.26-.26-.26-.26.12-.26.26.12.26.26.26Z"/><path class="cls-2" d="m37.71,44.02c-.14,0-.26.12-.26.26s.12.26.26.26.26-.12.26-.26-.12-.26-.26-.26Z"/><path class="cls-2" d="m37.39,44.87c-.14,0-.26.12-.26.26s.12.26.26.26.26-.12.26-.26-.12-.26-.26-.26Z"/></g><path id="Tree" class="cls-2" d="m41.05,29.47s.04-.09.04-.15c0-.1-.04-.22-.15-.35-.3-.31-.79,0-1.03.15-.02-.08-.06-.16-.13-.23.02-.04.03-.09.02-.14-.02-.19-.21-.27-.31-.31h-.02c.22.01.57.01.67-.31v-.18s.24.02.24.02c.33.07.82.18.99-.17.02-.05.03-.1.03-.14,0-.12-.07-.23-.12-.31,0,0-.01-.02-.03-.04.14-.07.52-.27.52-.65,0-.09-.02-.19-.07-.31-.17-.39-.57-.27-.78-.21,0,0-.04,0-.07.02,0,0,0-.02,0-.02,0-.04,0-.08,0-.13,0-.09-.02-.19-.09-.27-.05-.06-.12-.1-.21-.13.09-.11.15-.23.15-.39,0-.08-.02-.16-.05-.24-.05-.12-.14-.21-.25-.26-.26-.1-.58.04-.76.12-.01-.03-.03-.07-.05-.11.02-.05.03-.11.03-.16,0-.12-.03-.22-.06-.3.14-.09.34-.26.39-.47,0-.03,0-.05,0-.08,0-.1-.04-.19-.11-.28-.27-.33-.68-.19-.87-.13,0,0-.01,0-.03,0-.06-.12-.14-.25-.36-.3-.25-.06-.51.16-.7.33,0,0-.05.04-.08.07-.01-.01-.03-.03-.03-.03l-.28-.18c-.26-.05-.54.36-.6.47,0,0,0,0,0,0-.04-.08-.1-.13-.15-.16.02-.02.03-.03.03-.03.14-.12.35-.31.36-.56h0c0-.14-.06-.27-.17-.38-.14-.15-.3-.22-.46-.22-.29,0-.52.25-.67.41l-.02.02s-.04-.1-.07-.15c.01-.05.02-.1.02-.16,0-.06,0-.13-.03-.19-.02-.04-.05-.07-.08-.1.17-.13.38-.35.38-.58,0-.06-.02-.12-.05-.19-.15-.27-.34-.32-.46-.34,0,0,0,0,0,0,0-.06.02-.14.02-.22,0-.22-.06-.48-.37-.56-.38-.09-.63.24-.76.41,0,0-.02.02-.04.04-.08-.08-.22-.21-.44-.19-.1-.16-.25-.25-.43-.28-.36-.05-.5.39-.59.67,0,0-.04.1-.05.14-.02,0-.05-.01-.05-.01-.1-.03-.25-.07-.41.02-.15.09-.2.21-.2.35,0,.23.14.49.24.68,0,0,.02.04.04.09-.16.03-.3.09-.38.2-.04.06-.06.12-.08.18-.02-.02-.04-.04-.06-.07.04-.25.16-1.02-.02-1.24-.05-.07-.13-.1-.21-.11-.03,0-.06.02-.09.03,0-.29-.06-.68-.36-.78-.23-.07-.35,0-.42.07-.18-.23-.53-.64-.91-.46-.18.08-.24.23-.24.4,0,.21.09.44.15.58,0,0,0,.02.01.03-.14.01-.35.06-.41.31,0,.04-.01.08-.01.11,0,0,0,.02,0,.03-.22-.16-.51-.26-.84-.04-.16.11-.22.27-.22.43,0,.26.14.53.22.67-.12.05-.31.16-.34.4,0,.03,0,.05,0,.07,0,.46.5.6.77.68,0,0,.02,0,.05.02,0,0,0,0,0,0-.03.04-.16.12-.23.12,0,0-.1-.07-.1-.07-.23-.15-.71-.46-1.12-.02-.09.1-.13.2-.13.3,0,.22.18.43.28.54,0,0,.08.1.09.11-.01,0-.05.09-.05.09l-.09.3s0,.05,0,.08c0,0-.04.03-.06.04,0-.06-.02-.14-.02-.14-.02-.26-.04-.63-.33-.72-.18-.06-.3.05-.37.14,0,0,0-.02,0-.02-.04-.29-.12-.77-.48-.78-.2,0-.3.19-.37.33,0,0-.01.02-.02.04-.01-.02-.03-.03-.03-.03-.11-.14-.32-.4-.61-.27-.25.1-.31.33-.31.54,0,.14.03.27.05.37,0,0,0,.04.01.07-.02,0-.04.02-.04.02-.12.06-.28.13-.34.29-.02.05-.02.09-.02.13,0,.3.36.52.63.66-.07.05-.13.1-.18.15-.17-.08-.36-.12-.54-.06-.21.08-.25.26-.25.41,0,.02,0,.04,0,.06-.18-.04-.48-.09-.65.27-.05.11-.07.21-.07.3,0,.1.03.19.06.25.12.23.39.35.59.41-.04.06-.09.12-.1.2l.1.32c.19.22.47.11.68.03.23-.1.32-.11.37-.04,0,.03-.06.12-.14.21-.05-.01-.1-.02-.15,0-.2.04-.27.17-.31.28-.17-.15-.46-.39-.76-.32-.24.05-.29.22-.29.38,0,.07.01.14.02.19h0s-.04,0-.04,0c-.17-.04-.41-.09-.6.03-.1.07-.17.18-.19.32,0,.04-.01.08-.01.11,0,.4.42.53.65.59-.05.07-.12.17-.12.29,0,.09.04.18.13.27.35.32.7.08.87-.03h.02s.01.1.03.15c0,0,0,.06.01.09-.03,0-.07.02-.07.02-.14.04-.34.1-.43.27-.03.05-.04.11-.04.18,0,.06.01.12.03.18.13.39.54.37.73.36,0,0,.03,0,.06,0,0,.02,0,.03,0,.03.01.11.03.27.17.4.36.32.84-.08,1.04-.25h0s.08.06.12.08c.03.09.08.16.12.2h0l-.04.04c-.13.12-.38.36-.38.65,0,.1.03.2.1.31.18.26.57.07.89-.08,0,0,.19-.08.21-.09,0,0,0,0,0,0,0,.01,0,.04,0,.04.03.12.1.38.49.3.46-.09.59-.44.68-.7.03-.08.06-.14.09-.19.04.04.17.19.17.19l.2-.03c.27-.17.46-.78.53-1.01.55.26,1.08,1.06,1.16,1.27.05.13.26.46.57.96.18.29.4.63.44.73-.12.79-.49,1.39-1.04,1.67l-.23.12c-.51.26-1.28.64-1.64.95-.04,0-.08,0-.12,0-.3,0-.49.09-.58.15-.2-.1-.43-.16-.63-.16-.56,0-.82.27-.94.49-.18.35-.13.8.02,1.02.21.3.52.45.93.45.29,0,.45-.08.55-.15.11.06.29.13.56.13.31,0,.5-.08.6-.14.16.09.34.15.52.15.26,0,.42-.08.51-.14.1.05.28.13.52.13.28,0,.46-.07.55-.13.16.09.34.15.53.15.26,0,.42-.08.51-.14.1.05.27.13.52.13.28,0,.45-.07.55-.13.16.09.34.15.52.15.26,0,.42-.08.51-.14.1.05.27.13.52.13.28,0,.46-.07.55-.13.16.09.34.15.53.15.26,0,.42-.08.51-.14.1.05.27.13.52.13.31,0,.5-.09.59-.15.21.11.44.17.64.17.45,0,.79-.18.95-.51.18-.36.12-.8-.04-1.01-.23-.3-.52-.45-.92-.45-.29,0-.45.08-.55.15-.08-.04-.22-.1-.41-.12-.17-.33-.42-.45-1.31-.82l-.12-.05c-.94-.4-1.16-.78-1.33-1.08l-.02-.04c-.16-.27-.48-1.94.19-2.96.38-.58.85-.84,1.12-.95.04.29.13.67.27.82l.23.12s.07-.04.13-.07c.02.04.04.09.04.09.12.28.28.67.58.71.25.03.36-.07.42-.16.13.14.32.33.56.32.23,0,.34-.15.4-.22.14.05.5.17.71-.15.06-.09.08-.17.08-.24,0-.19-.16-.32-.25-.39,0,0,0,0-.01-.01.05-.05.13-.13.13-.24.09,0,.18-.02.26-.07.14-.09.16-.22.16-.3,0,0,.01,0,.02,0,.14.02.43.05.55-.22.03-.07.04-.12.05-.18.13-.05.19-.16.22-.25h0c.19.09.45.21.65.11.21-.1.23-.33.25-.47h0c.16.03.43.08.63-.06.11-.08.18-.2.21-.37,0-.04,0-.07,0-.1,0-.49-.56-.6-.8-.63Zm-1.34-.48c-.02.06-.06.09-.12.1.04-.03.08-.06.12-.1Zm-.21-.2s-.09.08-.09.08l-.13.11-.05.12c-.05.17-.17.53-.83.65-.01-.02-.02-.04-.04-.06-.09-.15-.2-.32-.23-.55-.04-.33,0-.58.04-.73.53-.06.9.01,1.04.2.01.02.15.1.15.1.03.01.12.05.14.08Zm-3.07.02l.09.21.04.06c-.2.14-.49.06-.69,0l-.26-.02c-.11.05-.13.16-.14.23l-.02.08c-.11.02-.61-.09-.78-.19.11-.16.23-.29.35-.36,0,0,0,0,0,0,.14-.07.32-.15.48-.21.35-.12.82-.33.79-.41-.04-.08-.52.02-.88.13-.28.09-.71.26-.9.33.1-.34.3-.74.45-.76.06.11.16.13.18.12l.27-.19c.35-.34.48-.38.52-.36l.04.05.14.14c.1.04.19-.02.31-.1.07-.04.22-.15.28-.13.07.03.08.05.1.11l.12.16s.29,0,.29,0c.12-.02.39-.08.43,0,.08.2-.01.27-.22.38-.1.05-.21.11-.21.23l.05.19.02.12c-.02.06-.07.09-.13.1-.03,0-.05,0-.07.01-.08,0-.18,0-.3-.02l-.27.02s-.06-.02-.08.02,0,.04.02.08Zm-1.96,1.85c-.13.14-.26.29-.37.43,0-.04,0-.08,0-.12.01-.33.03-.69.14-.99.08-.21.17-.39.26-.55.1.06.22.1.36.14,0,.09-.04.11-.13.15l-.26.19c-.19.24-.14.56-.02.76Zm-.62-2.5c.03-.14.06-.28.11-.43.08-.26.59-1.14.46-1.19-.12-.05-.61.82-.7,1.1-.03.09-.05.17-.08.25-.11-.22-.21-.49-.21-.69,0-.09.02-.17.06-.22.04-.04.07-.04.11-.05l.11-.02c.06-.03.08-.08.08-.12,0-.06-.03-.12-.05-.18-.05-.13-.15-.37-.15-.56,0-.06,0-.12.03-.16.03-.07.09-.12.19-.16,0,0,.05.03.05.03.1.07.18.07.25,0l.06-.18c.02-.14.08-.56.26-.56l.07.03s.11.06.19.02l.07-.06c.3-.26.38-.24.38-.24.05.03.06.21.07.29,0,.13.02.24.11.3l.21.05h.1c.11.27-.1.49-.32.66-.06.04-.13.1-.1.2,0,0,.12.13.12.13l.09.06c.03.13-.35.34-.48.41l-.21.18s-.06.02-.05.07c0,.05.03.03.07.05l.17.09h.06c.07.32-.79.76-1.16.91Zm.5.09c-.1.23-.15.46-.18.56-.06.03-.12.06-.18.09,0,0-.05.02-.09.04,0,0,0-.03,0-.03,0-.19-.02-.34-.05-.45.11-.04.29-.11.5-.21Zm-.8-.14s.02-.02.03-.03c0,0,.01,0,.02,0,0,.02-.01.04-.02.07,0,0-.02-.02-.03-.03Zm.16.4h0s0,.03-.01.03c0-.01,0-.02.01-.03Zm-.29-.45c-.07,0-.14,0-.2.01h0c-.03-.22-.13-.66-.33-.83-.19-.16-.42,0-.55.08-.12-.25-.37-.61-.65-.67-.01-.02-.03-.03-.05-.04-.11-.09-.23-.21-.21-.4,0-.08.1-.13.19-.16.15-.07.14-.18.13-.34-.03-.35,0-.57.18-.61.24-.06.44.19.63.44l.21.2c.13.04.22-.07.28-.14.09-.1.11-.11.13-.1.12.05.17.21.18.28-.03.08-.05.17-.05.26,0,.23.09.46.15.62-.06.02-.12.05-.19.12-.1.11-.14.26-.14.41,0,.3.15.65.26.87Zm-.37,1.79c.05.23.07.46.07.65,0,.07,0,.14,0,.19,0,.17-.11.59-.19.87-.02-.04-.47-.78-.47-.78-.23-.38-.29-.73-.3-.99,0,0,0,0,.01,0,.37.15.53.12.81.07h.07Zm.17-.64c-.05-.05-.12-.11-.19-.2-.03-.04-.17-.2-.36-.35-.33-.25-.78-.5-.82-.42-.04.08.35.35.63.6.19.17.33.38.4.54,0,.02.01.03.02.05.02.04.04.09.05.14h-.04c-.27.05-.36.07-.65-.05l-.11-.07s.01-.21.01-.21c0-.04.02-.06-.02-.09-.04-.03-.04,0-.09,0l-.27.06c-.14.06-.38.16-.51.11-.02,0-.07-.03-.1-.13-.08-.22,0-.29.06-.35.04-.04.11-.11.09-.21-.02-.13-.15-.15-.3-.18-.27-.05-.43-.1-.43-.23,0-.08.12-.2.19-.26.03-.02.05-.06.06-.09,0-.04,0-.08-.03-.11-.01-.01-.24-.34-.02-.5.21-.16.34-.04.37,0,.04.05.1.06.16.04.06-.02.1-.07.1-.13,0,0,0-.2.14-.23.12-.03.44.34.53.62.01.04.06.09.1.1.09.03.17-.02.26-.08.04-.03.18-.12.22-.11.12.1.24.57.24.71,0,.04.03.12.07.15.08.06.18.05.27.03h.12s-.04.3-.18.84Zm-2.32.03s0,0,0,.01v.1c-.02.18-.29.4-.41.48-.06-.06-.12-.09-.18-.12-.03-.08-.12-.38-.17-.74-.11-.66-.14-.9-.22-.87-.08.03-.13.24-.05.87.02.15.05.28.07.4-.02-.02-.04-.04-.07-.05l-.21-.03s-.03.02-.04.03c-.05-.3-.18-.55-.32-.69,0-.02,0-.04-.01-.06-.02-.04-.02-.15,0-.17.02,0,.19-.23.19-.23.02-.1-.05-.17-.13-.24-.13-.13-.25-.26-.21-.4,0-.02.02-.03.09-.06l.12-.07c.07-.06.06-.15.06-.26-.01-.26,0-.52.23-.62h.06c.12.05.26.31.32.48,0,.02.02.05.04.06.08.07.17.03.23,0,.13-.06.23-.08.33.01-.13.11-.19.25-.19.39s.05.26.11.37c-.09.09-.22.23-.22.41,0,.38.41.47.64.51-.05.07-.1.16-.1.3,0,.06.01.13.03.21Zm-.16,1.02s.03,0,.03,0c.29.08.89.26,1.09,1.39.09.5.11.83.11,1.05,0,.14-.01.23-.02.29-.29-.22-1.09-.94-1.09-1.84,0-.01,0-.11,0-.15,0-.32-.05-.55-.12-.75Zm-1.77-1.74c-.06.02-.1.09-.14.15-.1-.22-.26-.4-.51-.45-.18-.04-.26.12-.32.23-.15-.1-.38-.24-.61-.19-.05.01-.09.04-.13.06-.22-.09-.41-.09-.56-.05,0-.04-.01-.08-.02-.1,0,0-.15-.17-.15-.17-.15-.1-.27-.19-.23-.35.03-.12.13-.17.27-.2h0s.09,0,.12-.03l.25-.11.05-.13c.03-.1.04-.13.08-.15.09.17.22.33.41.45.03.21.15.37.34.46.33.14.82.05,1.09-.07.07.12.16.21.22.28,0,0,0,0,0,0-.01.01-.1.1-.1.1-.04.05-.06.14-.06.23,0,.02,0,.04,0,.06Zm-2.88.78l-.05-.16s-.02-.05-.02-.05c-.04-.08-.07-.15-.02-.23.05-.08.13-.08.23-.08h.11s.1-.08.1-.08c.11-.09.31-.25.63-.16-.03.07-.05.14-.05.21,0,.17.09.3.18.4l-.54.89c-.12-.06-.34-.21-.44-.4l-.12-.34Zm1.73-2.18c-.11.11-.16.11-.16.11,0,0,0,0-.01,0-.33-.18-.45-.56-.45-.86h0s-.04-.2-.04-.2c0,0-.01-.04-.02-.05,0,.02.07.01.07.01h.13s.12-.03.12-.03c.17-.04.49-.1.9.04-.02.18-.27.71-.54.98Zm2.42-.34h0s.02.06.04.1c0-.01-.02-.05-.04-.1Zm-.35-2.55s-.03-.18,0-.21c.06-.02.17.07.22.12.02.01.02.03.04.04l.16.04c.16,0,.49.03.74.51-.18.06-.43.15-.67.29-.2.11-.36.22-.48.31-.24-.45-.11-.7-.04-.82l.05-.11v-.17Zm.02,1.55s0,0,0,0h0Zm3.96-1.93s.09-.05.09-.05c.06-.04.15-.1.22-.08.08.02.09.07.11.15l.02.08c.06.12.18.38.13.77,0,0-.01-.01-.02-.01-.11-.06-.74-.26-1.21-.29.14-.34.49-.51.65-.57Zm-.82.26s0,0,0,0l-.02-.03s.02.02.03.02Zm2.87,1.23c.12-.08.28-.21.34-.38.02-.05.02-.09.02-.13,0-.1-.03-.17-.07-.22.07-.04.13-.07.2-.11.08.06.16.22.2.28.02.04.15.14.15.14.11.03.22-.03.35-.11.22-.13.38-.21.52-.09.12.1.14.19.13.23-.21.12-.35.37-.41.48-.28-.03-.54.02-.79.16-.13-.04-.53.08-.74.43-.05.09-.09.21-.12.34-.03-.03-.08-.08-.13-.14.24-.21.38-.43.38-.65,0-.08-.02-.15-.05-.23Zm1.9.46l-.04.13v.08s0,.08,0,.14c0,.19-.05.47-.33.71-.26-.1-.49-.23-.64-.45l-.11-.24c-.03-.1-.04-.2-.04-.33.39-.24.73-.14.85-.11.02,0,.02.02.04.01l.2-.04s.09-.03.1-.03c-.02,0-.05.12-.05.12Zm-1.43-.05s0-.02,0-.04c0,.01,0,.03,0,.04h0Zm-.32.42s0,0,0,0c.06-.1.13-.16.21-.2l-.21.21Zm.09.9s-.03-.04-.05-.05c-.07-.11-.09-.22-.11-.34l.16.39Zm-.86.13c-.02-.08-.06-.11-.1-.15.18-.1.42-.25.51-.44,0,.18.06.38.16.55-.23.03-.47.26-.66.44,0,0,0,0-.02.02,0-.01.02-.02.03-.03.07-.1.1-.2.1-.3,0-.03,0-.06,0-.09Zm2.18,1.07s.02.04.02.05h0s-.02-.05-.02-.05Zm.02.07s0-.01,0-.02c.02,0,.04-.02.04-.02,0,0,0,0,0,0l-.03.07s0-.03,0-.03Zm3.04-2.25v.24c.09.18.29.12.44.08.26-.07.37-.08.43.05.13.29,0,.42-.31.58l-.17.13c-.05.12.02.23.08.32.03.05.09.13.07.16-.07.15-.43.07-.67.02-.22-.05-.37-.08-.47,0-.12.1-.11.22-.11.29v.08c-.04.11-.19.12-.44.09-.11-.01-.22-.02-.28.06-.22-.1-.54-.13-.94-.09-.01-.02-.02-.04-.04-.05-.05-.04-.14-.08-.24-.1.02-.05.03-.09.03-.15,0-.02,0-.05,0-.07.38.02,1.18.04,1.38-.42.02-.04.03-.09.03-.13,0-.1-.04-.19-.09-.27.4,0,1.02-.02,1.05-.43,0-.02,0-.04,0-.05,0-.25-.14-.37-.26-.43.04-.03.08-.05.11-.07.04-.02.07-.05.11-.08.18.02.24.06.26.08.03.03.02.09.01.18Zm-.82-.99c.12-.06.42-.19.57-.13.03,0,.06.03.09.1.08.2-.02.33-.21.47-.02,0-.04.02-.06.04-.04.03-.08.05-.12.08-.15.1-.28.19-.32.31-.02.06-.05.08,0,.12l.14.1c.12.04.21.08.2.25,0,.06-.12.17-.85.16-.18,0-.26,0-.3.1-.03.09.01.15.07.22.04.06.14.2.12.26-.13.3-.89.26-1.14.24h-.11c-.05-.04-.12-.07-.19-.08.04-.09.07-.19.06-.28.11-.1.19-.2.25-.3h0s.12-.08.22-.14c.43-.26.87-.75.79-.8-.08-.04-.58.32-.86.5.02-.15.01-.27,0-.34,0-.03.02-.09.02-.09.04-.1.11-.29-.03-.43-.12-.13-.28-.07-.38-.03.07-.12.18-.24.27-.27.1-.03.17.02.26.09l.19.11c.14.04.24-.08.35-.21.17-.21.32-.37.52-.34.05,0,.08.05.11.15.02.06.05.16.16.18l.18-.05Zm-.8-1.79s-.03,0-.03,0c.02,0,.03,0,.03,0Zm-1.13.1s-.02.02-.02.02c.02-.02.02-.02.02-.02Zm-.85.52h.08s.13-.13.13-.13c.04-.07.24-.31.32-.33,0,.01.12.1.12.1l.22.14.29-.17c.12-.1.33-.29.44-.26.12.03.15.09.18.16l.14.15.23-.03c.22-.07.42-.12.56.04.04.05.04.09.04.12-.03.13-.25.29-.35.34-.03.02-.06.05-.07.09-.01.04,0,.08.01.11.04.07.08.18.08.27-.38-.06-.64.25-.79.44,0,0-.05.06-.08.09-.02-.02-.05-.03-.05-.03-.08-.06-.19-.15-.35-.16-.01-.09-.06-.21-.17-.32.06-.04.13-.09.21-.14.25-.15.53-.34.49-.39-.04-.05-.37.07-.64.18-.13.06-.24.13-.31.19-.25-.08-.51.06-.67.16,0,0-.07.04-.12.06-.05-.09-.11-.2-.19-.29.16-.13.26-.26.27-.39Zm-.26-.38s.01-.01.03-.02h0s0,0-.03.02Zm-.91-.44l.27-.18c.12-.13.29-.32.46-.32.08,0,.17.04.25.13.06.06.08.11.08.17,0,.12-.16.26-.26.35l-.17.25c0,.12.09.18.15.22.07.05.11.08.1.18,0,.06-.08.17-.26.29-.02,0-.04.02-.05.03-.09.05-.2.11-.34.17-.04.02-.1.07-.11.12-.02.08.02.14.06.18.05.06.07.1.05.17-.04.11-.2.22-.28.26-.04,0-.09-.01-.13-.02,0,0-.02,0-.04,0,0-.04,0-.07,0-.07-.01-.18-.03-.42-.22-.52-.09-.05-.18-.04-.27-.01.06-.08.13-.16.2-.25.23-.25.48-.5.43-.56-.07-.08-.39.13-.65.39-.11.11-.2.22-.27.31-.01-.19-.06-.38-.15-.56,0-.02-.02-.05-.02-.05-.01-.05-.04-.14-.1-.22.09-.09.17-.08.25-.06h.09c.12.01.16-.09.21-.23.06-.17.17-.49.36-.56h.08s.06.09.08.14c.03.09.08.24.23.24Zm-1.6-2.18l.17.11c.12.03.2-.08.29-.19.15-.2.28-.35.46-.31.16.04.17.19.14.46-.01.11-.02.2.05.26l.15.06c.09.01.2.03.29.2.08.14-.23.41-.41.52-.05.03-.08.1-.06.16.02.06.07.11.13.11.04,0,.05.02.06.03.02.03.02.08.02.12h-.18c-.31.12-.45.5-.53.73,0,0,0,.02-.01.04-.08-.02-.19-.03-.31.03.08-.16.14-.34.14-.49,0-.04,0-.09-.02-.12-.06-.15-.18-.2-.29-.22.12-.16.27-.38.27-.67,0-.15-.04-.3-.15-.46-.09-.14-.23-.14-.34-.11,0-.05.02-.08.02-.13,0-.07,0-.15-.02-.22.04.02.08.05.13.1Zm-.15.41s0,0,0,.01c0,.03,0,.06-.02.09,0-.02,0-.07.02-.1Zm-1.69,1.23c.06-.09.21-.11.31-.12.05,0,.12-.04.14-.08.06-.1,0-.21-.1-.4-.11-.21-.29-.56-.15-.64.05-.03.1-.02.19,0h.28c.08-.05.12-.16.17-.32.05-.17.16-.49.28-.47.11.01.18.06.23.15.12.19.09.52.04.64-.02.06,0,.14.04.18.08.07.17.02.23,0,.03-.02.12-.06.14-.06.22.33.02.65-.19.91-.07.08-.12.15-.08.24.05.1.15.1.22.09.11,0,.17,0,.19.05.02.08-.1.41-.29.71-.07.03-.13.06-.17.09-.14.06-.36.16-.55.33.05-.2.16-.65.2-1.04.04-.39.05-.7-.06-.69-.05,0-.1.37-.19.76-.09.39-.2.79-.22.91-.03,0-.06,0-.1,0,0,0-.08,0-.13-.01h0c.06-.12.17-.35.17-.59,0-.2-.07-.4-.31-.56-.13-.08-.24-.06-.33,0,0-.03.02-.05.03-.08Zm-.4.37l.18.17c.1.02.17-.05.23-.12l.11-.1c.26.18.21.43.04.79l-.06.21c.04.21.28.21.45.22h.17c-.06.1-.1.21-.14.33-.12.03-.22.08-.29.17-.1.12-.12.27-.13.41-.11-.1-.24-.18-.39-.21-.03-.09-.07-.23-.11-.38-.08-.36-.17-.78-.27-.75-.06.02-.05.41,0,.76.02.15.05.28.08.39-.09.03-.16.07-.21.13-.03-.08-.07-.16-.12-.21-.06-.06-.11-.08-.16-.09-.04-.09-.09-.18-.14-.25.07-.06.09-.11.09-.13.01-.08-.03-.12-.12-.23-.23-.27-.33-.44-.3-.51.03-.07.05-.07.14-.06.06,0,.16.02.24-.05.07-.07.06-.16.04-.32-.02-.25-.04-.52.11-.56.2-.05.42.23.53.39Zm-.93.3s0,0,0,0c0,.02,0,.04,0,.04,0-.03,0-.03,0-.04Zm-1.12-2.13s.02.04.02.04c0-.03-.02-.04-.02-.04h0Zm-.15.32c.02-.07.05-.09.2-.1.08,0,.17-.01.23-.09.05-.08.02-.16-.04-.32-.07-.19-.21-.54-.06-.61.2-.09.47.26.59.41l.15.14s.15.03.22-.11c.03-.05.04-.08.17-.04.14.05.18.46.15.74,0,.06.03.12.09.15s.13,0,.17-.04c.04-.05.11-.1.13-.1.05.09.02.54-.03.86-.11-.06-.24-.09-.38-.05-.09.02-.16.08-.21.13-.16-.08-.29-.07-.39-.03-.01-.32-.07-.87-.5-.94-.2-.03-.33.12-.41.25-.06-.07-.11-.16-.09-.25Zm-1.17,1.57c.01-.1.1-.14.21-.19.07-.03.14-.06.17-.14l-.06-.22c-.16-.29-.3-.61-.1-.75.26-.18.47-.04.76.28.1.11.16.17.25.17.12,0,.17-.11.23-.22.04-.08.12-.21.18-.21.24.04.25.56.26.75,0,.13,0,.22.1.26.08.03.15-.01.19-.04.07-.05.14-.09.26-.02-.01.06-.02.13-.02.19,0,.1,0,.2.02.28,0,0,0,.03,0,.06-.13-.01-.3,0-.4.23-.02.05-.03.1-.03.14,0,.16.1.32.21.47-.1-.05-.2-.08-.28-.09-.03-.11-.1-.32-.24-.55-.11-.19-.47-.59-.56-.49-.09.1.18.42.27.57.08.12.13.23.17.33-.11-.06-.24-.1-.38-.04-.21.09-.19.33-.16.49-.36-.05-.42-.1-.42-.13,0-.04.04-.08.1-.13l.17-.27c0-.16-.16-.21-.34-.26-.33-.09-.59-.19-.56-.45Zm-.71.98c.22-.24.47-.11.75.07l.25.11s.04,0,.06,0c.03.24.33.32.63.37-.08.2-.12.53.14.98,0,0,0,0,0,0h0c-.06.07-.09.16-.06.27.05.2.26.42.52.52.32.13.64.14.91.05h.06s.03-.03.03-.03c.01,0,.02,0,.03-.01.02.19.11.33.2.42-.07.06-.11.13-.14.2-.09-.04-.2-.06-.33-.03-.23-.3-.51-.21-.66-.15-.07-.16-.22-.43-.42-.52h-.3s-.09.04-.12.07c-.12-.26-.31-.43-.52-.49-.02,0-.04,0-.06,0,.02-.08.02-.17,0-.26-.04-.16-.23-.17-.39-.18-.31-.02-.41-.06-.41-.24l.06-.16.08-.26-.15-.26c-.19-.22-.26-.35-.15-.46Zm-.17,1.32s0-.02,0-.03c0,0,0,0,0,.03Zm-2.6-.11c.02-.05.12-.1.19-.13l.16-.1c.07-.07.05-.17.02-.31-.06-.32-.07-.52.09-.58.08-.03.15.04.27.19l.22.18c.16.04.25-.12.31-.24.03-.05.08-.16.12-.17.11,0,.17.37.19.53.03.2.05.31.16.35.15.05.25-.08.31-.15.05-.06.08-.09.1-.08.1.03.12.3.13.46.01.18.02.31.11.38.05.04.19.11.38-.03.15.15.4.17.55.18,0,0,.09,0,.13.01h0c0,.08-.03.15-.04.19-.51-.18-.9-.09-1.09-.04l-.08.02h-.1s-.29.12-.29.12c0,0,0,.02-.02.03-.14-.11-.33-.27-.48-.45-.23-.29-.34-.64-.43-.61-.18.07.05.53.17.71.18.26.53.57.74.7h0c0,.13.01.27.05.4-.18.07-.24.25-.26.35,0,0,0,.01,0,.02-.03,0-.07.01-.07.01,0,0-.01,0-.02,0-.04-.05-.07-.2-.09-.26-.03-.15-.06-.27-.15-.34-.12-.09-.29-.03-.44.03,0,0-.14.04-.16.05-.04-.04-.09-.06-.09-.09,0,0,0-.02.02-.02-.07-.09-.2-.26-.2-.26,0,0,0,0-.01-.01.07-.06.21-.16.27-.16.06,0,.14-.05.16-.11.03-.12-.07-.17-.18-.22-.59-.27-.67-.43-.64-.52Zm-.14,2.76c-.21.08-.3.11-.35.05l-.04-.09c.01-.09.12-.18.15-.21.05-.03.07-.09.06-.15-.01-.06-.06-.1-.12-.11-.13-.02-.5-.12-.61-.32-.04-.08-.04-.17.02-.29.08-.17.19-.17.4-.1h.21c.1-.05.09-.16.08-.25-.02-.16,0-.22.05-.24.15-.06.36.05.49.17l.22.28.09.12c.12.1.28.04.43-.02,0,0,.17-.05.18-.05,0,0,0,0,0,.01,0,.04.03.15.03.15.02.09.05.19.08.28-.13.06-.26.16-.31.36-.01.04-.02.09-.02.13,0,.29.25.46.37.53,0,0,.02.01.03.02,0,.03.01.05.01.08,0,.02,0,.04,0,.05-.06.04-.11.08-.15.11-.12.01-.36,0-.5.23,0,0,0,0,0,.01-.06-.06-.13-.13-.2-.18.11-.14.23-.35.1-.52-.2-.26-.5-.14-.71-.05Zm-.4,2.21l-.21.1c-.19.13-.34.21-.51.05-.05-.05-.07-.07.05-.22.05-.07.14-.18.06-.29l-.21-.1c-.32-.09-.49-.18-.46-.38.02-.1.05-.12.07-.13.08-.05.25-.02.37.01h.29c.13-.07.11-.22.09-.33-.04-.21,0-.22.05-.23.16-.04.38.15.52.27.11.1.18.16.27.14.12-.02.14-.14.16-.21.03-.11.04-.14.11-.15.11-.02.35.19.54.47,0,0,0,0,.01.01,0,.02.02.04.03.06.01.03.05.15.05.15l.09.24c-.13-.04-.26-.08-.4-.1-.3-.05-1.2,0-1.2.12,0,.11.8.11,1.05.15.06,0,.12.02.18.03-.11.08-.13.21-.13.35,0,.04,0,.08,0,.12,0,0,0,.04,0,.08-.01,0-.03-.02-.03-.02-.16-.11-.44-.29-.71-.15-.03,0-.07-.02-.13-.02Zm.32,1.59h.03-.03Zm1.42-.18s-.05.09-.07.13l-.04-.03s-.05-.08-.1-.06l-.2.1c-.14.11-.5.41-.66.26-.06-.05-.07-.11-.08-.21l-.08-.23-.28-.06c-.26.01-.39,0-.45-.16-.01-.04-.03-.09,0-.13.03-.06.16-.1.25-.12l.25-.13v-.32s0-.16,0-.16c.1-.06.24.02.41.14.13.09.26.18.39.09.12-.08.11-.24.1-.4,0-.07,0-.19.01-.23.1-.06.32-.1.46,0,0,0,.01,0,.02,0,.12.12.25.2.34.25-.05.15,0,.35.16.5.05.05.13.11.25.16-.08.06-.13.12-.14.2,0,.01,0,.02,0,.03,0,.04.02.08.04.12-.17,0-.38.04-.55.27Zm2.31.8s-.01-.02-.01-.02c-.04-.08-.08-.17-.19-.2-.04-.01-.11-.01-.18.04-.12.09-.18.24-.23.4-.09.23-.17.46-.47.52-.12.03-.12.02-.15-.09-.02-.08-.07-.28-.29-.26l-.33.12c-.12.06-.45.22-.52.17-.13-.18,0-.35.24-.58l.13-.14c.07-.12-.02-.23-.06-.29-.07-.09-.12-.15,0-.3.13-.17.28-.16.45-.14.09.02.19.03.26-.05.03-.03.04-.07.04-.1,0-.09-.08-.16-.11-.19,0,0-.06-.07-.07-.08.02,0,.05-.03.05-.03.23-.12.57.06.7.13.06.04.11.06.18.04.04-.02.08-.05.09-.09.03-.08,0-.14-.05-.22l-.08-.17c.05-.05.13-.06.18-.05.06,0,.12,0,.18,0-.04.06-.08.14-.08.21,0,.04,0,.07.03.11.05.09.12.15.22.19-.36.11-.55.25-.82.45-.16.12-.47.39-.46.47.02.08.91-.45,1.29-.6.12-.05.32-.1.48-.13,0,.01-.02.03-.02.04-.11.38-.26.71-.37.83Zm-.05-1.39s.07-.09.07-.09l.09-.24c-.02-.14-.16-.14-.29-.14-.07,0-.14,0-.2,0t0,0s-.02,0-.03,0c-.21-.02-.4-.08-.47-.28,0,.04.09-.06.09-.06.07-.07.2-.19.1-.32l-.21-.08c-.26-.04-.35-.09-.35-.21,0-.03.06-.06.11-.08.07-.04.18-.1.18-.22l-.14-.21c-.18-.16-.25-.26-.15-.42.04-.07.08-.08.11-.09.14-.03.37.13.45.19l.08.05c.15.06.22-.1.26-.17,0,0,.03-.05.05-.09.29.09.36.35.37.5,0,.07.06.12.13.13.07,0,.13-.04.16-.1.03-.11.1-.24.13-.26.08.07.29.41.27.82,0,.07.04.13.11.15.06.02.13-.01.17-.07.03-.05.09-.12.11-.12.06.04.19.26.21.85v.08c-.06.03-.31-.06-.54-.22,0,0,0,0-.01,0-.01,0-.02-.02-.04-.02-.16-.1-.34-.23-.53-.37,0,0-.47-.34-.53-.24-.07.1.37.48.37.48.19.14.38.27.53.37.01,0,.03.02.04.03.17.16.31.35.33.43-.54.18-.92.19-1.02.03Zm-.48,6.68v.02s0-.01,0-.02c0,0,0,0,0,0Zm.22,1.31c-.3,0-.48-.13-.49-.13-.06-.04-.15-.03-.2.02,0,0-.12.12-.42.12s-.54-.1-.69-.33c-.09-.13-.14-.47,0-.72.12-.23.35-.34.68-.34.26,0,.61.12.76.33l.61.9s.08.06.11.09c-.08.03-.19.06-.35.06Zm4.26,0c-.28,0-.43-.12-.44-.13-.06-.05-.15-.04-.21.02,0,0-.1.12-.38.12-.25,0-.49-.12-.63-.33l-.62-.9s-.06-.06-.09-.1c.07-.02.16-.04.3-.04.28,0,.43.12.44.13.06.05.15.04.2-.02,0,0,.1-.12.38-.12.25,0,.49.12.63.33l.61.9s.06.07.09.1c-.07.02-.16.05-.3.05Zm-1.3-1.63c-.11.03-.2.07-.25.11-.1-.06-.27-.13-.52-.13-.01,0-.03,0-.04,0,.27-.16.62-.14.8-.12,0,.05,0,.09,0,.14Zm1.05.32l.03.04s-.03-.03-.04-.04c0,0,0,0,.01,0Zm.8-.21c-.1-.06-.28-.13-.52-.13-.06,0-.12,0-.18.01.08-.16.22-.33.41-.33.08,0,.15.03.2.08.09.09.12.24.13.34-.02.01-.04.02-.05.03Zm3.66,1.52c-.28,0-.43-.12-.44-.13-.06-.05-.15-.04-.2.02,0,0-.1.12-.38.12-.25,0-.49-.12-.63-.33l-.62-.9s-.06-.06-.08-.09c.07-.03.17-.05.32-.05.28,0,.43.12.44.13.06.05.15.04.21-.02,0,0,.1-.12.38-.12.25,0,.49.12.63.33,0,0,.62.9.62.9.02.03.06.06.09.09-.07.03-.18.05-.33.05Zm-2.58-6.75c-.76,1.16-.38,2.94-.2,3.27l.02.04c.18.32.44.77,1.47,1.2l.12.05c.68.29.94.4,1.07.55-.2.02-.33.08-.4.13-.16-.09-.34-.15-.53-.15-.11,0-.2.02-.28.04-.04-.08-.07-.16-.08-.17-.16-.33-.46-.45-.74-.57-.37-.16-.75-.32-.99-.92-.12-.32-.18-.75-.2-1.15-.02-.28-.11-1.18-.18-1.18-.07,0-.13.91-.11,1.2.02.42.09.88.22,1.23.28.72.76.92,1.14,1.09.29.12.52.22.62.5v.05c-.1-.05-.25-.1-.44-.1-.29,0-.47.08-.56.14-.16-.1-.35-.16-.54-.16-.07,0-.12,0-.18.01-.02-.13-.07-.31-.2-.45-.11-.11-.25-.17-.41-.17-.33,0-.61.26-.76.7,0,0,0,.02,0,.03,0,0-.02,0-.02.01-.15-.09-.32-.14-.5-.14,0-.06,0-.12,0-.19,0,0,0,0,0-.01,0-.02,0-.04,0-.06.01-.11.04-.22.09-.33.05-.09.11-.2.17-.31.34-.58.36-1.14.28-1.14-.08,0-.35.67-.53.99-.07.11-.13.22-.18.32-.05.1-.08.21-.11.32-.32-.04-1.02-.05-1.33.52,0,0,0,.01,0,.02,0,0,0,0,0,0-.16-.09-.34-.15-.53-.15-.26,0-.42.08-.51.14-.01,0-.03-.01-.04-.02.38-.26.99-.57,1.42-.79l.23-.12c.64-.33,1.07-1.01,1.2-1.92.01-.08,0-.11-.49-.89-.22-.35-.5-.79-.54-.91-.09-.24-.7-1.21-1.42-1.47.14-.03.28-.07.44-.12.09-.03.15-.1.17-.18,0-.02,0-.03,0-.05,0-.07-.03-.15-.08-.23.1.02.2.03.28,0,.08-.04.17-.14.16-.34,0-.14-.02-.29-.04-.44,0,0,0,0,.01,0,.08.01.4.25.37,1.13-.04,1.3,1.31,2.21,1.4,2.23.05.01.12-.01.16-.04.1-.09.14-.31.14-.58,0-.33-.06-.74-.12-1.1-.23-1.31-1-1.53-1.29-1.62l-.07-.02c.12-.1.27-.24.35-.41.02.01.03.03.05.04.22.1.49,0,.68-.08v.03c0,.26-.01.79.34,1.39l.41.69.21.35c.03.06.1.08.16.06.23-.06.41-1.31.41-1.32,0-.06,0-.13,0-.2,0-.29-.05-.69-.19-1.05,0,0,0,0,0,0,.02.02.04.04.07.05.08.02.16-.02.18-.1.07-.24.12-.43.15-.59,0,.04,0,.09,0,.12l.06.3c.09.11.19.06.45-.07.09-.04.21-.1.32-.15-.17.23-.33.51-.46.86-.13.34-.15.73-.16,1.08-.01.25-.02.48-.07.62,0,.02,0,.04,0,.05,0,.05.03.1.08.13.06.04.14.02.19-.04.16-.22.52-.68.86-1.02-.07.15-.12.29-.14.37,0,0,0,.02,0,.02,0,.05.02.09.06.12.04.03.11.04.15,0,.01,0,.22-.11.56-.08h0s0,.01,0,.01c-.28.1-.87.39-1.33,1.09Zm.92-1.36c.07-.16.16-.35.25-.52.05-.08.14-.14.31-.22.05-.02.43-.25.38-.35-.05-.1-.44.06-.5.09-.19.09-.4.22-.42.24-.13.08-.27.2-.41.34-.04-.1-.06-.24.03-.35l.16-.11c.13-.06.25-.14.29-.35.19.03.36.04.43,0,.13-.06.15-.19.16-.27.02,0,.04,0,.04,0,.23.06.65.18.96-.1.06-.06.09-.12.09-.19,0-.03-.03-.06-.04-.09.08.01.17.02.26.02,0,.02.01.04.01.07v.02c0,.06-.07.11-.15.17l-.17.18s-.01.05-.01.08c0,.08.06.14.09.18.04.04.07.07.07.14,0,0,0,.02,0,.03-.02.17-.19.22-.51.26l-.3.09s-.05.08-.05.12c0,.09.07.16.1.2l.06.09s-.04.04-.04.04c-.06.05-.3.09-.41.11l-.2.06c-.18-.01-.33,0-.45.03Zm3.55,1.87c-.08.11-.18.1-.37.04l-.13-.03c-.1,0-.15.07-.2.12-.05.06-.09.11-.19.12-.11,0-.26-.15-.35-.24l-.19-.14c-.13-.02-.18.09-.2.13-.03.07-.05.11-.18.09-.14-.02-.29-.37-.36-.54-.07-.18-.11-.27-.2-.3-.12-.05-.21.05-.24.08-.11-.11-.2-.53-.24-.86.22.08.55.22.74.36.16.12.46.36.54.3.08-.07-.19-.4-.37-.53-.19-.14-.39-.26-.57-.35.55-.21.91-.16.97-.12,0,0-.02.06-.02.06l-.02.15c.02.14.16.16.46.2.14.02.43.05.49.09,0,0,0,0,0,0,0,.01-.01.05-.04.1-.02.05-.05.11-.05.17,0,.02,0,.05.02.08.04.1.15.13.31.17.09.02.26.07.3.12-.01,0-.05.05-.05.05-.05.05-.11.11-.11.21,0,.02,0,.03,0,.05l.15.18c.1.08.14.12.14.16,0,.02-.01.05-.03.07Zm-.48-1.17s.03,0,.03,0h0s-.03,0-.03,0Zm1.4-.26c-.03.06-.08.07-.25.05l-.26.04-.08.21c0,.07-.01.08-.03.09-.06.04-.17.03-.27,0h-.11c-.08-.05-.16-.07-.23-.09,0,0-.05-.01-.09-.03.03-.06.07-.13.07-.22,0-.06-.02-.12-.07-.19-.09-.12-.32-.16-.67-.2,0,0-.11-.02-.19-.03,0-.03.02-.06.02-.09,0-.08-.02-.16-.11-.22-.13-.1-.44-.12-.82-.04-.02-.05-.06-.13-.08-.18.02,0,.03,0,.03,0,.17-.02.42-.05.59-.19.45.25.99.22,1.26.11.02,0,.04-.02.06-.03.04.06.1.12.18.15l.33-.02c.1-.02.31-.06.35-.03.12.1.11.13.07.22l-.04.25c.03.08.1.12.18.15.19.08.24.13.17.28Zm.42-.36s.04.02.07.03c-.03,0-.04-.02-.07-.03Zm1.01-.36h0s0-.03,0-.03c0,0,0,.02,0,.02h0Zm.54-.42c-.01.09-.04.14-.09.17-.1.07-.29.03-.41,0h-.24c-.08.06-.09.16-.1.25-.01.11-.03.21-.08.24-.08.04-.31-.07-.4-.11-.14-.06-.23-.11-.32-.02l-.06.14c-.01.05-.02.09-.04.11-.09-.11-.22-.17-.29-.19,0,0,0-.02,0-.02.02-.05.06-.12.06-.21,0-.1-.04-.22-.2-.35-.16-.12-.4-.07-.6-.03l-.18.03s-.07-.08-.09-.15c.08-.02.14-.04.21-.06.06,0,.12-.01.18-.02.27-.02,1.27.16,1.27.02,0-.1-.6-.22-1-.26.22-.19.29-.41.33-.52,0,0,.01-.04.01-.04,0,0,.03-.02.04-.03.04.02.06.07.09.16.02.07.04.15.12.19.08.04.15,0,.27-.08.16-.1.54-.34.68-.2.11.11.08.18.04.26-.05.13-.03.22.06.27l.14.03c.45.07.61.19.58.42Z"/></g><g id="II_Logo"><path class="cls-3" d="m265.81,36.47v13.06h-2.76v-13.06h2.76Z"/><path class="cls-3" d="m271.21,43.87v5.66h-2.72v-9.8h2.59v1.73h.11c.22-.57.58-1.02,1.09-1.36s1.13-.5,1.86-.5c.68,0,1.27.15,1.78.45.51.3.9.72,1.18,1.27s.42,1.21.42,1.97v6.24h-2.72v-5.75c0-.6-.15-1.07-.46-1.41-.31-.34-.74-.51-1.28-.51-.37,0-.69.08-.97.24-.28.16-.5.39-.65.69s-.23.66-.24,1.08Z"/><path class="cls-3" d="m285.38,39.73v2.04h-6.05v-2.04h6.05Zm-4.66,9.8v-10.51c0-.71.14-1.3.42-1.77.28-.47.66-.82,1.14-1.05.48-.23,1.04-.35,1.65-.35.42,0,.8.03,1.15.1.35.06.6.12.77.17l-.48,2.04c-.11-.03-.24-.07-.39-.1s-.31-.04-.48-.04c-.4,0-.68.09-.84.28s-.24.44-.24.77v10.46h-2.71Z"/><path class="cls-3" d="m287.48,49.53v-9.8h2.63v1.71h.1c.18-.61.48-1.07.9-1.38.42-.31.91-.47,1.45-.47.14,0,.28,0,.44.03s.3.04.41.07v2.41c-.13-.04-.3-.07-.53-.1-.23-.03-.43-.04-.62-.04-.4,0-.76.09-1.07.26-.31.17-.56.41-.74.72-.18.31-.27.66-.27,1.06v5.54h-2.72Z"/><path class="cls-3" d="m297.79,49.72c-.63,0-1.18-.11-1.67-.33-.49-.22-.87-.54-1.16-.98-.28-.43-.42-.97-.42-1.62,0-.54.1-1,.3-1.37.2-.37.47-.67.82-.89s.74-.4,1.18-.51.9-.2,1.39-.24c.57-.06,1.03-.12,1.38-.17.35-.05.6-.13.76-.24.16-.11.24-.26.24-.47v-.04c0-.4-.13-.72-.38-.94-.25-.22-.61-.33-1.07-.33-.49,0-.88.11-1.17.32-.29.21-.48.48-.57.81l-2.51-.2c.13-.6.38-1.11.75-1.55.37-.44.86-.77,1.45-1.01.59-.24,1.28-.35,2.06-.35.54,0,1.07.06,1.57.19.5.13.94.33,1.33.59s.7.61.92,1.03c.23.42.34.92.34,1.5v6.61h-2.58v-1.36h-.08c-.16.31-.37.58-.63.81-.26.23-.58.41-.95.54s-.8.19-1.28.19Zm.78-1.88c.4,0,.75-.08,1.06-.24.31-.16.55-.38.72-.65.17-.27.26-.58.26-.93v-1.04c-.08.06-.2.11-.35.15s-.31.08-.49.12-.37.07-.55.1c-.18.03-.35.05-.5.07-.32.05-.6.12-.84.22s-.42.24-.55.41-.2.39-.2.64c0,.37.14.65.41.85.27.19.61.29,1.03.29Z"/><path class="cls-3" d="m314.02,42.53l-2.49.15c-.04-.21-.13-.41-.27-.58s-.32-.31-.55-.41c-.23-.1-.5-.16-.81-.16-.42,0-.78.09-1.07.27s-.43.41-.43.7c0,.23.09.43.28.59.19.16.51.29.96.39l1.77.36c.95.2,1.66.51,2.13.94.47.43.7,1,.7,1.71,0,.64-.19,1.21-.56,1.69-.38.48-.89.86-1.54,1.13s-1.4.41-2.26.41c-1.3,0-2.33-.27-3.1-.81s-1.22-1.28-1.35-2.22l2.67-.14c.08.4.28.7.59.9.31.21.71.31,1.19.31s.86-.09,1.15-.28c.29-.18.44-.42.44-.72,0-.25-.11-.45-.31-.61-.2-.16-.52-.28-.94-.37l-1.7-.34c-.96-.19-1.67-.52-2.13-1-.47-.47-.7-1.07-.7-1.81,0-.63.17-1.17.51-1.63.34-.45.83-.81,1.45-1.05.62-.25,1.35-.37,2.19-.37,1.24,0,2.21.26,2.92.78.71.52,1.13,1.24,1.25,2.14Z"/><path class="cls-3" d="m321.62,39.73v2.04h-5.9v-2.04h5.9Zm-4.56-2.35h2.72v9.13c0,.25.04.44.11.58.08.14.18.24.32.29.14.06.3.08.48.08.13,0,.26-.01.38-.04.13-.02.23-.04.29-.05l.43,2.02c-.14.04-.33.09-.57.15-.25.06-.55.09-.9.11-.66.03-1.23-.06-1.72-.26-.49-.2-.87-.51-1.14-.93-.27-.42-.41-.95-.4-1.6v-9.49Z"/><path class="cls-3" d="m323.84,49.53v-9.8h2.63v1.71h.1c.18-.61.48-1.07.9-1.38.42-.31.91-.47,1.45-.47.14,0,.28,0,.44.03s.3.04.41.07v2.41c-.13-.04-.3-.07-.53-.1-.23-.03-.43-.04-.62-.04-.4,0-.76.09-1.07.26-.31.17-.56.41-.74.72-.18.31-.27.66-.27,1.06v5.54h-2.72Z"/><path class="cls-3" d="m337.91,45.36v-5.63h2.72v9.8h-2.61v-1.78h-.1c-.22.57-.59,1.04-1.1,1.38-.51.35-1.14.52-1.87.52-.65,0-1.23-.15-1.73-.45s-.89-.72-1.16-1.27c-.28-.55-.42-1.21-.42-1.97v-6.24h2.72v5.75c0,.58.16,1.04.47,1.37.31.34.72.5,1.23.5.33,0,.63-.08.92-.23.29-.15.52-.38.69-.67.18-.3.26-.67.26-1.1Z"/><path class="cls-3" d="m347.68,49.72c-1,0-1.87-.21-2.59-.64s-1.27-1.02-1.66-1.78c-.39-.76-.58-1.64-.58-2.63s.19-1.89.58-2.64c.39-.76.94-1.35,1.66-1.78.72-.43,1.57-.64,2.56-.64.85,0,1.6.16,2.25.47.64.31,1.15.75,1.52,1.31.37.56.58,1.22.62,1.98h-2.56c-.07-.49-.26-.88-.57-1.18-.31-.3-.71-.45-1.21-.45-.42,0-.79.11-1.1.34s-.56.56-.73.99c-.17.43-.26.96-.26,1.58s.09,1.16.26,1.6c.17.44.42.77.73,1s.68.34,1.1.34c.31,0,.59-.06.84-.19.25-.13.45-.31.62-.56.16-.24.27-.54.32-.88h2.56c-.04.75-.25,1.41-.61,1.97-.36.57-.86,1.01-1.5,1.33s-1.39.48-2.26.48Z"/><path class="cls-3" d="m359.46,39.73v2.04h-5.9v-2.04h5.9Zm-4.56-2.35h2.72v9.13c0,.25.04.44.11.58.08.14.18.24.32.29.14.06.3.08.48.08.13,0,.26-.01.38-.04.13-.02.23-.04.29-.05l.43,2.02c-.14.04-.33.09-.57.15-.25.06-.55.09-.9.11-.66.03-1.23-.06-1.72-.26-.49-.2-.87-.51-1.14-.93-.27-.42-.41-.95-.4-1.6v-9.49Z"/><path class="cls-3" d="m367.96,45.36v-5.63h2.72v9.8h-2.61v-1.78h-.1c-.22.57-.59,1.04-1.1,1.38-.51.35-1.14.52-1.87.52-.65,0-1.23-.15-1.73-.45s-.89-.72-1.16-1.27c-.28-.55-.42-1.21-.42-1.97v-6.24h2.72v5.75c0,.58.16,1.04.47,1.37.31.34.72.5,1.23.5.33,0,.63-.08.92-.23.29-.15.52-.38.69-.67.18-.3.26-.67.26-1.1Z"/><path class="cls-3" d="m373.29,49.53v-9.8h2.63v1.71h.1c.18-.61.48-1.07.9-1.38.42-.31.91-.47,1.45-.47.14,0,.28,0,.44.03s.3.04.41.07v2.41c-.13-.04-.3-.07-.53-.1-.23-.03-.43-.04-.62-.04-.4,0-.76.09-1.07.26-.31.17-.56.41-.74.72-.18.31-.27.66-.27,1.06v5.54h-2.72Z"/><path class="cls-3" d="m385.09,49.72c-1.01,0-1.87-.21-2.6-.62-.73-.41-1.28-.99-1.67-1.75-.39-.76-.59-1.65-.59-2.68s.2-1.89.59-2.65c.39-.76.94-1.35,1.66-1.78.71-.42,1.55-.64,2.51-.64.65,0,1.25.1,1.81.31.56.21,1.05.52,1.47.93.42.41.74.93.98,1.55.23.62.35,1.35.35,2.18v.75h-8.27v-1.68h5.72c0-.39-.08-.74-.26-1.04-.17-.3-.4-.54-.7-.71-.3-.17-.65-.26-1.04-.26s-.78.09-1.09.28c-.32.19-.56.44-.74.76s-.27.67-.27,1.06v1.6c0,.48.09.9.27,1.26.18.35.44.63.77.82.33.19.72.29,1.18.29.3,0,.58-.04.83-.13.25-.08.47-.21.64-.38.18-.17.31-.38.41-.63l2.51.17c-.13.6-.39,1.13-.78,1.58s-.9.8-1.52,1.05c-.62.25-1.33.37-2.14.37Z"/><path class="cls-3" d="m265.81,58.02v13.06h-2.76v-13.06h2.76Z"/><path class="cls-3" d="m271.21,65.42v5.66h-2.72v-9.8h2.59v1.73h.11c.22-.57.58-1.02,1.09-1.36s1.13-.5,1.86-.5c.68,0,1.27.15,1.78.45.51.3.9.72,1.18,1.27s.42,1.21.42,1.97v6.24h-2.72v-5.75c0-.6-.15-1.07-.46-1.41-.31-.34-.74-.51-1.28-.51-.37,0-.69.08-.97.24-.28.16-.5.39-.65.69s-.23.66-.24,1.08Z"/><path class="cls-3" d="m288.26,64.08l-2.49.15c-.04-.21-.13-.41-.27-.58s-.32-.31-.55-.41c-.23-.1-.5-.16-.81-.16-.42,0-.78.09-1.07.27s-.43.41-.43.7c0,.23.09.43.28.59.19.16.51.29.96.39l1.77.36c.95.2,1.66.51,2.13.94.47.43.7,1,.7,1.71,0,.64-.19,1.21-.56,1.69-.38.48-.89.86-1.54,1.13s-1.4.41-2.26.41c-1.3,0-2.33-.27-3.1-.81s-1.22-1.28-1.35-2.22l2.67-.14c.08.4.28.7.59.9.31.21.71.31,1.19.31s.86-.09,1.15-.28c.29-.18.44-.42.44-.72,0-.25-.11-.45-.31-.61-.2-.16-.52-.28-.94-.37l-1.7-.34c-.96-.19-1.67-.52-2.13-1-.47-.47-.7-1.07-.7-1.81,0-.63.17-1.17.51-1.63.34-.45.83-.81,1.45-1.05.62-.25,1.35-.37,2.19-.37,1.24,0,2.21.26,2.92.78.71.52,1.13,1.24,1.25,2.14Z"/><path class="cls-3" d="m295.86,61.29v2.04h-5.9v-2.04h5.9Zm-4.56-2.35h2.72v9.13c0,.25.04.44.11.58.08.14.18.24.32.29.14.06.3.08.48.08.13,0,.26-.01.38-.04.13-.02.23-.04.29-.05l.43,2.02c-.14.04-.33.09-.57.15-.25.06-.55.09-.9.11-.66.03-1.23-.06-1.72-.26-.49-.2-.87-.51-1.14-.93-.27-.42-.41-.95-.4-1.6v-9.49Z"/><path class="cls-3" d="m299.45,60.02c-.4,0-.75-.14-1.04-.41-.29-.27-.43-.59-.43-.97s.14-.7.43-.97c.29-.27.63-.41,1.03-.41s.76.14,1.04.41c.29.27.43.59.43.97s-.14.7-.43.97c-.29.27-.63.41-1.04.41Zm-1.37,11.06v-9.8h2.72v9.8h-2.72Z"/><path class="cls-3" d="m308.62,61.29v2.04h-5.9v-2.04h5.9Zm-4.56-2.35h2.72v9.13c0,.25.04.44.11.58.08.14.18.24.32.29.14.06.3.08.48.08.13,0,.26-.01.38-.04.13-.02.23-.04.29-.05l.43,2.02c-.14.04-.33.09-.57.15-.25.06-.55.09-.9.11-.66.03-1.23-.06-1.72-.26-.49-.2-.87-.51-1.14-.93-.27-.42-.41-.95-.4-1.6v-9.49Z"/><path class="cls-3" d="m317.12,66.91v-5.63h2.72v9.8h-2.61v-1.78h-.1c-.22.57-.59,1.04-1.1,1.38-.51.35-1.14.52-1.87.52-.65,0-1.23-.15-1.73-.45s-.89-.72-1.16-1.27c-.28-.55-.42-1.21-.42-1.97v-6.24h2.72v5.75c0,.58.16,1.04.47,1.37.31.34.72.5,1.23.5.33,0,.63-.08.92-.23.29-.15.52-.38.69-.67.18-.3.26-.67.26-1.1Z"/><path class="cls-3" d="m327.67,61.29v2.04h-5.9v-2.04h5.9Zm-4.56-2.35h2.72v9.13c0,.25.04.44.11.58.08.14.18.24.32.29.14.06.3.08.48.08.13,0,.26-.01.38-.04.13-.02.23-.04.29-.05l.43,2.02c-.14.04-.33.09-.57.15-.25.06-.55.09-.9.11-.66.03-1.23-.06-1.72-.26-.49-.2-.87-.51-1.14-.93-.27-.42-.41-.95-.4-1.6v-9.49Z"/><path class="cls-3" d="m334.25,71.28c-1.01,0-1.87-.21-2.6-.62-.73-.41-1.28-.99-1.67-1.75-.39-.76-.59-1.65-.59-2.68s.2-1.89.59-2.65c.39-.76.94-1.35,1.66-1.78.71-.42,1.55-.64,2.51-.64.65,0,1.25.1,1.81.31.56.21,1.05.52,1.47.93.42.41.74.93.98,1.55.23.62.35,1.35.35,2.18v.75h-8.27v-1.68h5.72c0-.39-.08-.74-.26-1.04-.17-.3-.4-.54-.7-.71-.3-.17-.65-.26-1.04-.26s-.78.09-1.09.28c-.32.19-.56.44-.74.76s-.27.67-.27,1.06v1.6c0,.48.09.9.27,1.26.18.35.44.63.77.82.33.19.72.29,1.18.29.3,0,.58-.04.83-.13.25-.08.47-.21.64-.38.18-.17.31-.38.41-.63l2.51.17c-.13.6-.39,1.13-.78,1.58s-.9.8-1.52,1.05c-.62.25-1.33.37-2.14.37Z"/><path class="cls-3" d="m237.91,37.25c0,2.99-2.43,5.42-5.42,5.42s-5.42-2.43-5.42-5.42,2.43-5.42,5.42-5.42h5.42s0,5.42,0,5.42Z"/><path class="cls-3" d="m237.91,59.59v-9.06c0-2.99-2.42-5.42-5.42-5.42s-5.42,2.43-5.42,5.42v9.08s0,0,0,0v9.06s0,.02,0,.04v5.38s5.42,0,5.42,0h0c2.99,0,5.42-2.43,5.42-5.42,0-.01,0-.02,0-.04v-9.04s0,0,0,0Z"/><path class="cls-3" d="m252.87,37.25c0,2.99-2.43,5.42-5.42,5.42s-5.42-2.43-5.42-5.42,2.43-5.42,5.42-5.42h5.42s0,5.42,0,5.42Z"/><path class="cls-3" d="m252.87,59.59v-9.06c0-2.99-2.42-5.42-5.42-5.42s-5.42,2.43-5.42,5.42v9.08s0,0,0,0v9.06s0,.02,0,.04v5.38s5.42,0,5.42,0h0c2.99,0,5.42-2.43,5.42-5.42,0-.01,0-.02,0-.04v-9.04s0,0,0,0Z"/></g></svg>